<svg xmlns="http://www.w3.org/2000/svg" xmlns:xlink="http://www.w3.org/1999/xlink" width="3000" zoomAndPan="magnify" viewBox="0 0 2250 2250.000011" height="3000" preserveAspectRatio="xMidYMid meet" version="1.0"><path stroke-linecap="butt" transform="matrix(1.804753, 0, 0, 1.804753, 732.939577, 1129.384486)" fill-opacity="1" fill="#253237" fill-rule="nonzero" stroke-linejoin="miter" d="M 200.820514 489.474689 C 200.820514 489.474689 -200.820651 489.474689 -200.820651 489.474689 C -228.841271 489.474689 -251.559056 466.759069 -251.559056 438.736284 C -251.559056 438.736284 -251.559056 -438.735974 -251.559056 -438.735974 C -251.559056 -466.758759 -228.841271 -489.474379 -200.820651 -489.474379 C -200.820651 -489.474379 200.820514 -489.474379 200.820514 -489.474379 C 228.843299 -489.474379 251.558919 -466.758759 251.558919 -438.735974 C 251.558919 -438.735974 251.558919 438.736284 251.558919 438.736284 C 251.558919 466.759069 228.843299 489.474689 200.820514 489.474689 Z M 200.820514 489.474689 " stroke="#253237" stroke-width="2" stroke-opacity="1" stroke-miterlimit="10"/><path stroke-linecap="butt" transform="matrix(1.804753, 0, 0, 1.804753, 732.939577, 1129.384486)" fill-opacity="1" fill="#ffffff" fill-rule="nonzero" stroke-linejoin="miter" d="M 191.855473 451.930607 C 191.855473 451.930607 -191.85561 451.930607 -191.85561 451.930607 C -210.341948 451.930607 -225.328413 436.944142 -225.328413 418.457804 C -225.328413 418.457804 -225.328413 -418.457494 -225.328413 -418.457494 C -225.328413 -436.945996 -210.341948 -451.930297 -191.85561 -451.930297 C -191.85561 -451.930297 191.855473 -451.930297 191.855473 -451.930297 C 210.341811 -451.930297 225.328276 -436.945996 225.328276 -418.457494 C 225.328276 -418.457494 225.328276 418.457804 225.328276 418.457804 C 225.328276 436.944142 210.341811 451.930607 191.855473 451.930607 Z M 191.855473 451.930607 " stroke="#253237" stroke-width="2" stroke-opacity="1" stroke-miterlimit="10"/><path stroke-linecap="butt" transform="matrix(1.804753, 0, 0, 1.804753, 732.939577, 308.524881)" fill-opacity="1" fill="#253237" fill-rule="nonzero" stroke-linejoin="miter" d="M 93.991085 21.840393 C 93.991085 21.840393 -93.989057 21.840393 -93.989057 21.840393 C -99.770231 21.840393 -104.458372 17.152253 -104.458372 11.371079 C -104.458372 11.371079 -104.458372 -11.372678 -104.458372 -11.372678 C -104.458372 -17.153852 -99.770231 -21.839828 -93.989057 -21.839828 C -93.989057 -21.839828 93.991085 -21.839828 93.991085 -21.839828 C 99.772259 -21.839828 104.458235 -17.153852 104.458235 -11.372678 C 104.458235 -11.372678 104.458235 11.371079 104.458235 11.371079 C 104.458235 17.152253 99.772259 21.840393 93.991085 21.840393 Z M 93.991085 21.840393 " stroke="#253237" stroke-width="2" stroke-opacity="1" stroke-miterlimit="10"/><path stroke-linecap="butt" transform="matrix(1.804753, 0, 0, 1.804753, 486.054704, 579.425572)" fill-opacity="1" fill="#ffffff" fill-rule="nonzero" stroke-linejoin="miter" d="M 28.150477 35.897072 C 28.150477 35.897072 -28.150496 35.897072 -28.150496 35.897072 C -37.598202 35.897072 -45.255931 28.237179 -45.255931 18.791637 C -45.255931 18.791637 -45.255931 -18.791405 -45.255931 -18.791405 C -45.255931 -28.236947 -37.598202 -35.896841 -28.150496 -35.896841 C -28.150496 -35.896841 28.150477 -35.896841 28.150477 -35.896841 C 37.598184 -35.896841 45.258077 -28.236947 45.258077 -18.791405 C 45.258077 -18.791405 45.258077 18.791637 45.258077 18.791637 C 45.258077 28.237179 37.598184 35.897072 28.150477 35.897072 Z M 28.150477 35.897072 " stroke="#253237" stroke-width="2" stroke-opacity="1" stroke-miterlimit="10"/><path fill="#253237" d="M 517.902344 588.707031 C 517.902344 588.707031 461.273438 588.707031 461.273438 588.707031 C 460.46875 588.707031 459.816406 588.058594 459.816406 587.261719 C 459.816406 586.460938 460.46875 585.8125 461.273438 585.8125 C 461.273438 585.8125 516.679688 585.8125 516.679688 585.8125 C 516.679688 585.8125 522.925781 550.855469 522.925781 550.855469 C 522.925781 550.855469 455.9375 550.855469 455.9375 550.855469 C 455.128906 550.855469 454.476562 550.210938 454.476562 549.410156 C 454.476562 548.609375 455.128906 547.964844 455.9375 547.964844 C 455.9375 547.964844 524.664062 547.964844 524.664062 547.964844 C 525.097656 547.964844 525.507812 548.15625 525.78125 548.480469 C 526.0625 548.808594 526.179688 549.242188 526.101562 549.664062 C 526.101562 549.664062 519.339844 587.511719 519.339844 587.511719 C 519.21875 588.203125 518.609375 588.707031 517.902344 588.707031 Z M 517.902344 588.707031 " fill-opacity="1" fill-rule="nonzero"/><path fill="#253237" d="M 516.027344 601.945312 C 516.027344 601.945312 516.019531 601.945312 516.019531 601.945312 C 516.019531 601.945312 462.085938 601.761719 462.085938 601.761719 C 461.355469 601.761719 460.738281 601.222656 460.644531 600.5 C 460.644531 600.5 452.910156 540.78125 452.910156 540.78125 C 452.910156 540.78125 436.871094 540.78125 436.871094 540.78125 C 436.066406 540.78125 435.410156 540.132812 435.410156 539.335938 C 435.410156 538.535156 436.066406 537.890625 436.871094 537.890625 C 436.871094 537.890625 454.195312 537.890625 454.195312 537.890625 C 454.929688 537.890625 455.546875 538.429688 455.640625 539.152344 C 455.640625 539.152344 463.378906 598.875 463.378906 598.875 C 463.378906 598.875 516.03125 599.054688 516.03125 599.054688 C 516.839844 599.058594 517.488281 599.707031 517.484375 600.507812 C 517.484375 601.304688 516.828125 601.945312 516.027344 601.945312 Z M 516.027344 601.945312 " fill-opacity="1" fill-rule="nonzero"/><path fill="#253237" d="M 470.894531 620.960938 C 466.386719 620.960938 462.71875 617.328125 462.71875 612.863281 C 462.71875 608.398438 466.386719 604.765625 470.894531 604.765625 C 475.398438 604.765625 479.066406 608.398438 479.066406 612.863281 C 479.066406 617.328125 475.398438 620.960938 470.894531 620.960938 Z M 470.894531 607.65625 C 467.996094 607.65625 465.636719 609.992188 465.636719 612.863281 C 465.636719 615.734375 467.996094 618.070312 470.894531 618.070312 C 473.792969 618.070312 476.148438 615.734375 476.148438 612.863281 C 476.148438 609.992188 473.792969 607.65625 470.894531 607.65625 Z M 470.894531 607.65625 " fill-opacity="1" fill-rule="nonzero"/><path fill="#253237" d="M 508.117188 620.960938 C 503.609375 620.960938 499.945312 617.328125 499.945312 612.863281 C 499.945312 608.398438 503.609375 604.765625 508.117188 604.765625 C 512.625 604.765625 516.292969 608.398438 516.292969 612.863281 C 516.292969 617.328125 512.625 620.960938 508.117188 620.960938 Z M 508.117188 607.65625 C 505.21875 607.65625 502.863281 609.992188 502.863281 612.863281 C 502.863281 615.734375 505.21875 618.070312 508.117188 618.070312 C 511.015625 618.070312 513.375 615.734375 513.375 612.863281 C 513.375 609.992188 511.015625 607.65625 508.117188 607.65625 Z M 508.117188 607.65625 " fill-opacity="1" fill-rule="nonzero"/><path fill="#253237" d="M 478.757812 588.707031 C 477.992188 588.707031 477.351562 588.117188 477.300781 587.351562 C 477.300781 587.351562 475 550.722656 475 550.722656 C 474.949219 549.925781 475.558594 549.238281 476.363281 549.1875 C 477.234375 549.160156 477.859375 549.75 477.910156 550.539062 C 477.910156 550.539062 480.214844 587.167969 480.214844 587.167969 C 480.265625 587.96875 479.652344 588.652344 478.851562 588.703125 C 478.816406 588.703125 478.785156 588.707031 478.757812 588.707031 Z M 478.757812 588.707031 " fill-opacity="1" fill-rule="nonzero"/><path fill="#253237" d="M 499.464844 588.707031 C 499.4375 588.707031 499.410156 588.703125 499.382812 588.703125 C 498.578125 588.660156 497.960938 587.976562 498.003906 587.179688 C 498.003906 587.179688 500.074219 550.550781 500.074219 550.550781 C 500.121094 549.753906 500.738281 549.160156 501.613281 549.1875 C 502.414062 549.230469 503.03125 549.914062 502.988281 550.710938 C 502.988281 550.710938 500.917969 587.339844 500.917969 587.339844 C 500.875 588.109375 500.234375 588.707031 499.464844 588.707031 Z M 499.464844 588.707031 " fill-opacity="1" fill-rule="nonzero"/><path fill="#253237" d="M 458.03125 570.390625 C 457.230469 570.390625 456.578125 569.753906 456.570312 568.960938 C 456.5625 568.160156 457.210938 567.507812 458.015625 567.5 C 458.015625 567.5 521.265625 566.890625 521.265625 566.890625 C 522.195312 566.871094 522.734375 567.519531 522.742188 568.320312 C 522.75 569.121094 522.101562 569.773438 521.296875 569.78125 C 521.296875 569.78125 458.046875 570.390625 458.046875 570.390625 C 458.046875 570.390625 458.03125 570.390625 458.03125 570.390625 Z M 458.03125 570.390625 " fill-opacity="1" fill-rule="nonzero"/><path stroke-linecap="round" transform="matrix(1.804753, 0, 0, 1.804753, 821.439264, 575.034588)" fill-opacity="1" fill="#d4d4d4" fill-rule="nonzero" stroke-linejoin="round" d="M 113.518683 7.575796 C 113.518683 7.575796 -113.518473 7.575796 -113.518473 7.575796 C -117.146047 7.575796 -120.089662 4.634345 -120.089662 1.006772 C -120.089662 1.006772 -120.089662 -1.006142 -120.089662 -1.006142 C -120.089662 -4.635879 -117.146047 -7.575166 -113.518473 -7.575166 C -113.518473 -7.575166 113.518683 -7.575166 113.518683 -7.575166 C 117.146256 -7.575166 120.089871 -4.635879 120.089871 -1.006142 C 120.089871 -1.006142 120.089871 1.006772 120.089871 1.006772 C 120.089871 4.634345 117.146256 7.575796 113.518683 7.575796 Z M 113.518683 7.575796 " stroke="#253237" stroke-width="2" stroke-opacity="1" stroke-miterlimit="4"/><path stroke-linecap="round" transform="matrix(1.804753, 0, 0, 1.804753, 729.164063, 1270.028884)" fill-opacity="1" fill="#d4d4d4" fill-rule="nonzero" stroke-linejoin="round" d="M 113.51966 7.576792 C 113.51966 7.576792 -113.519661 7.576792 -113.519661 7.576792 C -117.147234 7.576792 -120.088685 4.635341 -120.088685 1.005603 C -120.088685 1.005603 -120.088685 -1.005146 -120.088685 -1.005146 C -120.088685 -4.634883 -117.147234 -7.57417 -113.519661 -7.57417 C -113.519661 -7.57417 113.51966 -7.57417 113.51966 -7.57417 C 117.147233 -7.57417 120.088684 -4.634883 120.088684 -1.005146 C 120.088684 -1.005146 120.088684 1.005603 120.088684 1.005603 C 120.088684 4.635341 117.147233 7.576792 113.51966 7.576792 Z M 113.51966 7.576792 " stroke="#253237" stroke-width="2" stroke-opacity="1" stroke-miterlimit="4"/><path stroke-linecap="round" transform="matrix(1.804753, 0, 0, 1.804753, 729.165814, 1342.910434)" fill-opacity="1" fill="#d4d4d4" fill-rule="nonzero" stroke-linejoin="round" d="M 150.603915 7.575327 C 150.603915 7.575327 -150.603691 7.575327 -150.603691 7.575327 C -154.233429 7.575327 -157.174879 4.636041 -157.174879 1.006303 C -157.174879 1.006303 -157.174879 -1.004446 -157.174879 -1.004446 C -157.174879 -4.634183 -154.233429 -7.575634 -150.603691 -7.575634 C -150.603691 -7.575634 150.603915 -7.575634 150.603915 -7.575634 C 154.231488 -7.575634 157.172939 -4.634183 157.172939 -1.004446 C 157.172939 -1.004446 157.172939 1.006303 157.172939 1.006303 C 157.172939 4.636041 154.231488 7.575327 150.603915 7.575327 Z M 150.603915 7.575327 " stroke="#253237" stroke-width="2" stroke-opacity="1" stroke-miterlimit="4"/><path stroke-linecap="round" transform="matrix(1.804753, 0, 0, 1.804753, 752.057303, 979.519594)" fill-opacity="1" fill="#253237" fill-rule="nonzero" stroke-linejoin="round" d="M 168.423131 119.385212 C 168.423131 119.385212 -168.118681 119.818097 -168.118681 119.818097 C -176.765551 119.828919 -183.782611 112.82701 -183.793433 104.182305 C -183.793433 104.182305 -184.059657 -103.714859 -184.059657 -103.714859 C -184.070479 -112.359564 -177.070735 -119.378788 -168.426029 -119.38961 C -168.426029 -119.38961 168.120112 -119.816002 168.120112 -119.816002 C 176.766982 -119.828988 183.784041 -112.829244 183.794863 -104.184538 C 183.794863 -104.184538 184.058923 103.71046 184.058923 103.71046 C 184.071909 112.35733 177.070001 119.37439 168.423131 119.385212 Z M 168.423131 119.385212 " stroke="#253237" stroke-width="2" stroke-opacity="1" stroke-miterlimit="4"/><path stroke-linecap="round" transform="matrix(1.804753, 0, 0, 1.804753, 729.165814, 958.710835)" fill-opacity="1" fill="#2d44ad" fill-rule="nonzero" stroke-linejoin="round" d="M 168.42361 119.385304 C 168.42361 119.385304 -168.118202 119.818188 -168.118202 119.818188 C -176.765073 119.82901 -183.782132 112.829266 -183.792954 104.182396 C -183.792954 104.182396 -184.059178 -103.714767 -184.059178 -103.714767 C -184.07 -112.359473 -177.070256 -119.378697 -168.425551 -119.389519 C -168.425551 -119.389519 168.12059 -119.81591 168.12059 -119.81591 C 176.765296 -119.828897 183.782356 -112.826988 183.793178 -104.182283 C 183.793178 -104.182283 184.059402 103.712716 184.059402 103.712716 C 184.070224 112.357422 177.07048 119.374482 168.42361 119.385304 Z M 168.42361 119.385304 " stroke="#253237" stroke-width="2" stroke-opacity="1" stroke-miterlimit="4"/><path fill="#ffffff" d="M 456.105469 1019.414062 C 456.105469 1019.414062 456.152344 1056.273438 456.152344 1056.273438 C 456.152344 1056.273438 452.363281 1056.277344 452.363281 1056.277344 C 452.363281 1056.277344 452.320312 1022.792969 452.320312 1022.792969 C 452.320312 1022.792969 443.632812 1022.804688 443.632812 1022.804688 C 443.632812 1022.804688 443.628906 1019.433594 443.628906 1019.433594 C 443.628906 1019.433594 456.105469 1019.414062 456.105469 1019.414062 Z M 456.105469 1019.414062 " fill-opacity="1" fill-rule="nonzero"/><path fill="#ffffff" d="M 494.046875 1052.851562 C 494.046875 1052.851562 494.050781 1056.21875 494.050781 1056.21875 C 494.050781 1056.21875 468.203125 1056.257812 468.203125 1056.257812 C 468.203125 1056.257812 468.199219 1053.566406 468.199219 1053.566406 C 468.199219 1053.566406 483.5 1038.542969 483.5 1038.542969 C 487.652344 1034.433594 488.441406 1031.957031 488.4375 1029.429688 C 488.433594 1025.164062 485.429688 1022.535156 479.796875 1022.542969 C 475.480469 1022.550781 472.164062 1023.871094 469.742188 1026.664062 C 469.742188 1026.664062 467.054688 1024.351562 467.054688 1024.351562 C 469.898438 1020.976562 474.472656 1019.074219 480.105469 1019.066406 C 487.582031 1019.054688 492.328125 1022.84375 492.335938 1029.003906 C 492.339844 1032.527344 491.234375 1035.691406 486.292969 1040.542969 C 486.292969 1040.542969 473.777344 1052.878906 473.777344 1052.878906 C 473.777344 1052.878906 494.046875 1052.851562 494.046875 1052.851562 Z M 494.046875 1052.851562 " fill-opacity="1" fill-rule="nonzero"/><path fill="#ffffff" d="M 532.835938 1046.484375 C 532.835938 1046.484375 525.464844 1046.496094 525.464844 1046.496094 C 525.464844 1046.496094 525.480469 1056.183594 525.480469 1056.183594 C 525.480469 1056.183594 521.691406 1056.1875 521.691406 1056.1875 C 521.691406 1056.1875 521.675781 1046.5 521.675781 1046.5 C 521.675781 1046.5 500.878906 1046.523438 500.878906 1046.523438 C 500.878906 1046.523438 500.878906 1043.789062 500.878906 1043.789062 C 500.878906 1043.789062 520.382812 1019.335938 520.382812 1019.335938 C 520.382812 1019.335938 524.59375 1019.328125 524.59375 1019.328125 C 524.59375 1019.328125 505.773438 1043.148438 505.773438 1043.148438 C 505.773438 1043.148438 521.78125 1043.128906 521.78125 1043.128906 C 521.78125 1043.128906 521.765625 1034.601562 521.765625 1034.601562 C 521.765625 1034.601562 525.449219 1034.597656 525.449219 1034.597656 C 525.449219 1034.597656 525.460938 1043.121094 525.460938 1043.121094 C 525.460938 1043.121094 532.832031 1043.117188 532.832031 1043.117188 C 532.832031 1043.117188 532.835938 1046.484375 532.835938 1046.484375 Z M 532.835938 1046.484375 " fill-opacity="1" fill-rule="nonzero"/><path fill="#ffffff" d="M 589.316406 1046.414062 C 589.316406 1046.414062 581.949219 1046.421875 581.949219 1046.421875 C 581.949219 1046.421875 581.960938 1056.109375 581.960938 1056.109375 C 581.960938 1056.109375 578.167969 1056.113281 578.167969 1056.113281 C 578.167969 1056.113281 578.15625 1046.425781 578.15625 1046.425781 C 578.15625 1046.425781 557.363281 1046.453125 557.363281 1046.453125 C 557.363281 1046.453125 557.355469 1043.714844 557.355469 1043.714844 C 557.355469 1043.714844 576.855469 1019.261719 576.855469 1019.261719 C 576.855469 1019.261719 581.070312 1019.257812 581.070312 1019.257812 C 581.070312 1019.257812 562.25 1043.074219 562.25 1043.074219 C 562.25 1043.074219 578.253906 1043.054688 578.253906 1043.054688 C 578.253906 1043.054688 578.242188 1034.527344 578.242188 1034.527344 C 578.242188 1034.527344 581.929688 1034.523438 581.929688 1034.523438 C 581.929688 1034.523438 581.941406 1043.050781 581.941406 1043.050781 C 581.941406 1043.050781 589.308594 1043.042969 589.308594 1043.042969 C 589.308594 1043.042969 589.316406 1046.414062 589.316406 1046.414062 Z M 589.316406 1046.414062 " fill-opacity="1" fill-rule="nonzero"/><path fill="#ffffff" d="M 621.527344 1045.210938 C 621.535156 1051.476562 617.167969 1056.378906 608.167969 1056.390625 C 602.847656 1056.398438 597.789062 1054.5625 594.945312 1051.667969 C 594.945312 1051.667969 596.785156 1048.667969 596.785156 1048.667969 C 599.160156 1051.136719 603.367188 1052.917969 608.105469 1052.914062 C 614.371094 1052.90625 617.6875 1049.847656 617.683594 1045.375 C 617.675781 1040.636719 614.71875 1037.691406 605.347656 1037.703125 C 605.347656 1037.703125 597.503906 1037.714844 597.503906 1037.714844 C 597.503906 1037.714844 599.378906 1019.230469 599.378906 1019.230469 C 599.378906 1019.230469 619.542969 1019.207031 619.542969 1019.207031 C 619.542969 1019.207031 619.546875 1022.578125 619.546875 1022.578125 C 619.546875 1022.578125 602.695312 1022.597656 602.695312 1022.597656 C 602.695312 1022.597656 601.453125 1034.339844 601.453125 1034.339844 C 601.453125 1034.339844 606.191406 1034.332031 606.191406 1034.332031 C 617.296875 1034.320312 621.519531 1038.683594 621.527344 1045.210938 Z M 621.527344 1045.210938 " fill-opacity="1" fill-rule="nonzero"/><path fill="#ffffff" d="M 657.953125 1045.007812 C 657.960938 1051.90625 652.546875 1056.332031 645.378906 1056.34375 C 635.589844 1056.355469 630.261719 1049.570312 630.246094 1037.933594 C 630.234375 1025.40625 637.066406 1018.867188 647.070312 1018.855469 C 650.386719 1018.847656 653.496094 1019.425781 655.8125 1020.84375 C 655.8125 1020.84375 654.285156 1023.898438 654.285156 1023.898438 C 652.394531 1022.640625 649.867188 1022.167969 647.128906 1022.175781 C 639.183594 1022.183594 634.078125 1027.296875 634.089844 1037.300781 C 634.089844 1038.144531 634.144531 1039.195312 634.253906 1040.296875 C 636.089844 1036.246094 640.40625 1033.972656 645.515625 1033.96875 C 652.832031 1033.957031 657.941406 1038.269531 657.953125 1045.007812 Z M 654.210938 1045.117188 C 654.207031 1040.273438 650.621094 1037.171875 644.933594 1037.179688 C 639.300781 1037.1875 635.464844 1040.667969 635.46875 1045.246094 C 635.472656 1049.300781 638.847656 1053.140625 645.21875 1053.128906 C 650.539062 1053.125 654.21875 1050.015625 654.210938 1045.117188 Z M 654.210938 1045.117188 " fill-opacity="1" fill-rule="nonzero"/><path fill="#ffffff" d="M 708.375 1045.363281 C 708.382812 1051.523438 703.917969 1056.269531 695.023438 1056.28125 C 689.699219 1056.289062 684.59375 1054.449219 681.746094 1051.554688 C 681.746094 1051.554688 683.582031 1048.558594 683.582031 1048.558594 C 685.953125 1051.03125 690.21875 1052.808594 695.015625 1052.804688 C 701.121094 1052.796875 704.488281 1049.953125 704.480469 1045.371094 C 704.472656 1040.949219 701.367188 1038.058594 694.523438 1038.0625 C 694.523438 1038.0625 691.890625 1038.066406 691.890625 1038.066406 C 691.890625 1038.066406 691.886719 1035.277344 691.886719 1035.277344 C 691.886719 1035.277344 702.085938 1022.472656 702.085938 1022.472656 C 702.085938 1022.472656 683.238281 1022.5 683.238281 1022.5 C 683.238281 1022.5 683.234375 1019.125 683.234375 1019.125 C 683.234375 1019.125 706.925781 1019.09375 706.925781 1019.09375 C 706.925781 1019.09375 706.925781 1021.78125 706.925781 1021.78125 C 706.925781 1021.78125 696.515625 1034.898438 696.515625 1034.898438 C 704.417969 1035.316406 708.367188 1039.46875 708.375 1045.363281 Z M 708.375 1045.363281 " fill-opacity="1" fill-rule="nonzero"/><path fill="#ffffff" d="M 745.324219 1044.894531 C 745.335938 1051.792969 739.917969 1056.222656 732.761719 1056.230469 C 722.964844 1056.242188 717.640625 1049.460938 717.625 1037.824219 C 717.609375 1025.296875 724.449219 1018.753906 734.449219 1018.742188 C 737.765625 1018.738281 740.875 1019.3125 743.191406 1020.734375 C 743.191406 1020.734375 741.667969 1023.789062 741.667969 1023.789062 C 739.773438 1022.53125 737.246094 1022.058594 734.507812 1022.0625 C 726.558594 1022.070312 721.460938 1027.183594 721.472656 1037.1875 C 721.472656 1038.03125 721.519531 1039.085938 721.632812 1040.1875 C 723.464844 1036.132812 727.785156 1033.863281 732.890625 1033.855469 C 740.210938 1033.847656 745.316406 1038.15625 745.324219 1044.894531 Z M 741.589844 1045.003906 C 741.585938 1040.160156 737.996094 1037.058594 732.3125 1037.070312 C 726.675781 1037.074219 722.84375 1040.554688 722.851562 1045.132812 C 722.855469 1049.1875 726.226562 1053.023438 732.597656 1053.019531 C 737.917969 1053.011719 741.597656 1049.902344 741.589844 1045.003906 Z M 741.589844 1045.003906 " fill-opacity="1" fill-rule="nonzero"/><path fill="#ffffff" d="M 779.195312 1019 C 779.195312 1019 779.195312 1021.6875 779.195312 1021.6875 C 779.195312 1021.6875 763.816406 1055.878906 763.816406 1055.878906 C 763.816406 1055.878906 759.707031 1055.882812 759.707031 1055.882812 C 759.707031 1055.882812 774.828125 1022.378906 774.828125 1022.378906 C 774.828125 1022.378906 755.871094 1022.402344 755.871094 1022.402344 C 755.871094 1022.402344 755.878906 1029.300781 755.878906 1029.300781 C 755.878906 1029.300781 752.144531 1029.300781 752.144531 1029.300781 C 752.144531 1029.300781 752.136719 1019.035156 752.136719 1019.035156 C 752.136719 1019.035156 779.195312 1019 779.195312 1019 Z M 779.195312 1019 " fill-opacity="1" fill-rule="nonzero"/><path fill="#ffffff" d="M 831.878906 1018.933594 C 831.878906 1018.933594 831.882812 1021.621094 831.882812 1021.621094 C 831.882812 1021.621094 816.5 1055.808594 816.5 1055.808594 C 816.5 1055.808594 812.394531 1055.8125 812.394531 1055.8125 C 812.394531 1055.8125 827.519531 1022.308594 827.519531 1022.308594 C 827.519531 1022.308594 808.5625 1022.335938 808.5625 1022.335938 C 808.5625 1022.335938 808.570312 1029.230469 808.570312 1029.230469 C 808.570312 1029.230469 804.832031 1029.234375 804.832031 1029.234375 C 804.832031 1029.234375 804.824219 1018.96875 804.824219 1018.96875 C 804.824219 1018.96875 831.878906 1018.933594 831.878906 1018.933594 Z M 831.878906 1018.933594 " fill-opacity="1" fill-rule="nonzero"/><path fill="#ffffff" d="M 868.179688 1045.476562 C 868.1875 1052.003906 862.667969 1056.066406 853.875 1056.074219 C 845.03125 1056.089844 839.65625 1052.039062 839.648438 1045.511719 C 839.640625 1041.089844 842.164062 1037.980469 846.742188 1036.445312 C 843.003906 1034.976562 840.949219 1032.191406 840.941406 1028.347656 C 840.933594 1022.347656 846.035156 1018.601562 853.828125 1018.589844 C 861.621094 1018.578125 866.835938 1022.3125 866.84375 1028.316406 C 866.851562 1032.160156 864.746094 1034.949219 860.960938 1036.429688 C 865.589844 1037.953125 868.175781 1041.105469 868.179688 1045.476562 Z M 864.289062 1045.425781 C 864.285156 1040.902344 860.378906 1038.0625 853.851562 1038.070312 C 847.324219 1038.078125 843.484375 1040.929688 843.488281 1045.453125 C 843.496094 1050.035156 847.347656 1052.871094 853.871094 1052.863281 C 860.398438 1052.859375 864.292969 1050.007812 864.289062 1045.425781 Z M 853.847656 1035.070312 C 859.589844 1035.0625 863.003906 1032.480469 863 1028.476562 C 862.996094 1024.320312 859.355469 1021.796875 853.832031 1021.804688 C 848.253906 1021.8125 844.726562 1024.34375 844.738281 1028.449219 C 844.742188 1032.503906 848.109375 1035.078125 853.847656 1035.070312 Z M 853.847656 1035.070312 " fill-opacity="1" fill-rule="nonzero"/><path fill="#ffffff" d="M 903.960938 1036.957031 C 903.976562 1049.484375 897.140625 1056.019531 887.144531 1056.035156 C 883.820312 1056.039062 880.710938 1055.464844 878.398438 1054.046875 C 878.398438 1054.046875 879.917969 1050.992188 879.917969 1050.992188 C 881.816406 1052.25 884.347656 1052.71875 887.082031 1052.714844 C 895.03125 1052.707031 900.132812 1047.59375 900.117188 1037.589844 C 900.121094 1036.75 900.066406 1035.695312 899.957031 1034.589844 C 898.117188 1038.644531 893.800781 1040.914062 888.695312 1040.921875 C 881.382812 1040.929688 876.269531 1036.621094 876.261719 1029.882812 C 876.253906 1022.984375 881.667969 1018.554688 888.824219 1018.546875 C 898.621094 1018.535156 903.945312 1025.320312 903.960938 1036.957031 Z M 898.738281 1029.644531 C 898.730469 1025.589844 895.363281 1021.75 888.992188 1021.761719 C 883.671875 1021.765625 879.992188 1024.875 880 1029.773438 C 880.003906 1034.617188 883.585938 1037.71875 889.277344 1037.710938 C 894.90625 1037.703125 898.742188 1034.222656 898.738281 1029.644531 Z M 898.738281 1029.644531 " fill-opacity="1" fill-rule="nonzero"/><path fill="#ffffff" d="M 941.308594 1018.792969 C 941.308594 1018.792969 941.355469 1055.648438 941.355469 1055.648438 C 941.355469 1055.648438 937.566406 1055.65625 937.566406 1055.65625 C 937.566406 1055.65625 937.523438 1022.167969 937.523438 1022.167969 C 937.523438 1022.167969 928.835938 1022.179688 928.835938 1022.179688 C 928.835938 1022.179688 928.835938 1018.8125 928.835938 1018.8125 C 928.835938 1018.8125 941.308594 1018.792969 941.308594 1018.792969 Z M 941.308594 1018.792969 " fill-opacity="1" fill-rule="nonzero"/><path fill="#ffffff" d="M 979.25 1052.230469 C 979.25 1052.230469 979.257812 1055.601562 979.257812 1055.601562 C 979.257812 1055.601562 953.410156 1055.636719 953.410156 1055.636719 C 953.410156 1055.636719 953.402344 1052.949219 953.402344 1052.949219 C 953.402344 1052.949219 968.703125 1037.925781 968.703125 1037.925781 C 972.855469 1033.816406 973.644531 1031.339844 973.640625 1028.8125 C 973.636719 1024.546875 970.628906 1021.921875 964.996094 1021.925781 C 960.683594 1021.933594 957.367188 1023.25 954.945312 1026.046875 C 954.945312 1026.046875 952.257812 1023.734375 952.257812 1023.734375 C 955.097656 1020.359375 959.675781 1018.457031 965.308594 1018.449219 C 972.78125 1018.441406 977.527344 1022.226562 977.539062 1028.386719 C 977.539062 1031.914062 976.4375 1035.074219 971.496094 1039.921875 C 971.496094 1039.921875 958.980469 1052.257812 958.980469 1052.257812 C 958.980469 1052.257812 979.25 1052.230469 979.25 1052.230469 Z M 979.25 1052.230469 " fill-opacity="1" fill-rule="nonzero"/><path fill="#ffffff" d="M 1012.300781 1044.976562 C 1012.308594 1051.132812 1007.839844 1055.878906 998.9375 1055.894531 C 993.625 1055.898438 988.519531 1054.0625 985.671875 1051.167969 C 985.671875 1051.167969 987.507812 1048.167969 987.507812 1048.167969 C 989.878906 1050.640625 994.144531 1052.421875 998.933594 1052.414062 C 1005.042969 1052.410156 1008.410156 1049.5625 1008.402344 1044.980469 C 1008.398438 1040.558594 1005.285156 1037.667969 998.445312 1037.675781 C 998.445312 1037.675781 995.816406 1037.679688 995.816406 1037.679688 C 995.816406 1037.679688 995.808594 1034.890625 995.808594 1034.890625 C 995.808594 1034.890625 1006.007812 1022.082031 1006.007812 1022.082031 C 1006.007812 1022.082031 987.15625 1022.109375 987.15625 1022.109375 C 987.15625 1022.109375 987.152344 1018.738281 987.152344 1018.738281 C 987.152344 1018.738281 1010.847656 1018.707031 1010.847656 1018.707031 C 1010.847656 1018.707031 1010.851562 1021.394531 1010.851562 1021.394531 C 1010.851562 1021.394531 1000.441406 1034.515625 1000.441406 1034.515625 C 1008.339844 1034.925781 1012.292969 1039.082031 1012.300781 1044.976562 Z M 1012.300781 1044.976562 " fill-opacity="1" fill-rule="nonzero"/><path stroke-linecap="round" transform="matrix(1.804753, 0, 0, 1.804753, 876.93363, 1090.999315)" fill-opacity="1" fill="#ffffff" fill-rule="nonzero" stroke-linejoin="round" d="M -81.787074 -4.330631 C -81.787074 -4.330631 -81.776252 4.53701 -81.776252 4.53701 C -81.776252 4.53701 81.787034 4.329226 81.787034 4.329226 C 81.787034 4.329226 81.776212 -4.536251 81.776212 -4.536251 C 81.776212 -4.536251 -81.787074 -4.330631 -81.787074 -4.330631 Z M -81.787074 -4.330631 " stroke="#253237" stroke-width="2" stroke-opacity="1" stroke-miterlimit="4"/><path stroke-linecap="round" transform="matrix(1.804753, 0, 0, 1.804753, 948.871127, 1122.862265)" fill-opacity="1" fill="#ffffff" fill-rule="nonzero" stroke-linejoin="round" d="M -41.950866 -4.380229 C -41.950866 -4.380229 -41.93788 4.487412 -41.93788 4.487412 C -41.93788 4.487412 41.950829 4.38352 41.950829 4.38352 C 41.950829 4.38352 41.942171 -4.486286 41.942171 -4.486286 C 41.942171 -4.486286 -41.950866 -4.380229 -41.950866 -4.380229 Z M -41.950866 -4.380229 " stroke="#253237" stroke-width="2" stroke-opacity="1" stroke-miterlimit="4"/><path stroke-linecap="round" transform="matrix(1.804753, 0, 0, 1.804753, 495.459292, 941.327394)" fill-opacity="1" fill="#ffffff" fill-rule="nonzero" stroke-linejoin="round" d="M 28.370005 25.599037 C 28.370005 25.599037 -28.309742 25.670463 -28.309742 25.670463 C -31.610487 25.674792 -34.290043 23.001729 -34.294372 19.700984 C -34.294372 19.700984 -34.341989 -19.615761 -34.341989 -19.615761 C -34.346318 -22.916506 -31.673255 -25.596062 -28.37251 -25.598226 C -28.37251 -25.598226 28.302908 -25.671817 28.302908 -25.671817 C 31.601488 -25.673981 34.281044 -23.003083 34.285373 -19.702338 C 34.285373 -19.702338 34.341648 19.612243 34.341648 19.612243 C 34.345977 22.912988 31.672914 25.594708 28.370005 25.599037 Z M 28.370005 25.599037 " stroke="#253237" stroke-width="2" stroke-opacity="1" stroke-miterlimit="4"/><path fill="#253237" d="M 433.546875 962.054688 C 433.546875 962.054688 433.542969 956.121094 433.542969 956.121094 C 433.542969 956.121094 497.316406 956.039062 497.316406 956.039062 C 504.671875 956.027344 510.652344 950.035156 510.648438 942.667969 C 510.636719 935.308594 504.554688 929.25 497.28125 929.34375 C 497.28125 929.34375 433.503906 929.421875 433.503906 929.421875 C 433.503906 929.421875 433.5 923.484375 433.5 923.484375 C 433.5 923.484375 497.273438 923.40625 497.273438 923.40625 C 507.902344 923.394531 516.566406 932.03125 516.582031 942.660156 C 516.59375 953.296875 507.957031 961.960938 497.324219 961.976562 C 497.324219 961.976562 433.546875 962.054688 433.546875 962.054688 Z M 433.546875 962.054688 " fill-opacity="1" fill-rule="nonzero"/><path fill="#253237" d="M 513.617188 945.636719 C 513.617188 945.636719 513.613281 939.703125 513.613281 939.703125 C 513.613281 939.703125 557.386719 939.648438 557.386719 939.648438 C 557.386719 939.648438 557.390625 945.582031 557.390625 945.582031 C 557.390625 945.582031 513.617188 945.636719 513.617188 945.636719 Z M 513.617188 945.636719 " fill-opacity="1" fill-rule="nonzero"/><path stroke-linecap="round" transform="matrix(1.804753, 0, 0, 1.804753, 607.285396, 832.45752)" fill-opacity="1" fill="#ffffff" fill-rule="nonzero" stroke-linejoin="round" d="M 88.260711 7.466989 C 88.260711 7.466989 -88.243661 7.681266 -88.243661 7.681266 C -88.243661 7.681266 -88.260976 -7.465366 -88.260976 -7.465366 C -88.260976 -7.465366 88.241231 -7.681808 88.241231 -7.681808 C 88.241231 -7.681808 88.260711 7.466989 88.260711 7.466989 Z M 88.260711 7.466989 " stroke="#253237" stroke-width="2" stroke-opacity="1" stroke-miterlimit="4"/><path stroke-linecap="round" transform="matrix(1.804753, 0, 0, 1.804753, 962.697334, 832.022522)" fill-opacity="1" fill="#ffffff" fill-rule="nonzero" stroke-linejoin="round" d="M 14.634709 17.744448 C 14.634709 17.744448 -14.591496 17.779078 -14.591496 17.779078 C -16.331692 17.781243 -17.742896 16.374368 -17.74506 14.634172 C -17.74506 14.634172 -17.781855 -14.592033 -17.781855 -14.592033 C -17.78402 -16.332229 -16.37498 -17.741268 -14.634784 -17.743433 C -14.634784 -17.743433 14.59142 -17.780228 14.59142 -17.780228 C 16.331616 -17.782392 17.74282 -16.373353 17.744985 -14.635321 C 17.744985 -14.635321 17.779616 14.593048 17.779616 14.593048 C 17.783944 16.331079 16.374905 17.742283 14.634709 17.744448 Z M 14.634709 17.744448 " stroke="#253237" stroke-width="2" stroke-opacity="1" stroke-miterlimit="4"/><path stroke-linecap="round" transform="matrix(1.805671, 0, 0, 1.805671, 756.161375, 1580.160276)" fill-opacity="1" fill="#253237" fill-rule="nonzero" stroke-linejoin="round" d="M 103.339118 37.096602 C 103.339118 37.096602 -103.338305 37.096602 -103.338305 37.096602 C -115.855294 37.096602 -126.003444 26.948453 -126.003444 14.433627 C -126.003444 14.433627 -126.003444 -14.43376 -126.003444 -14.43376 C -126.003444 -26.948586 -115.855294 -37.096735 -103.338305 -37.096735 C -103.338305 -37.096735 103.339118 -37.096735 103.339118 -37.096735 C 115.856107 -37.096735 126.002094 -26.948586 126.002094 -14.43376 C 126.002094 -14.43376 126.002094 14.433627 126.002094 14.433627 C 126.002094 26.948453 115.856107 37.096602 103.339118 37.096602 Z M 103.339118 37.096602 " stroke="#253237" stroke-width="2" stroke-opacity="1" stroke-miterlimit="4"/><path stroke-linecap="round" transform="matrix(1.805671, 0, 0, 1.805671, 741.587805, 1563.5028)" fill-opacity="1" fill="#2d44ad" fill-rule="nonzero" stroke-linejoin="round" d="M 103.340923 37.095118 C 103.340923 37.095118 -103.338664 37.095118 -103.338664 37.095118 C -115.855653 37.095118 -126.003803 26.949132 -126.003803 14.432143 C -126.003803 14.432143 -126.003803 -14.433081 -126.003803 -14.433081 C -126.003803 -26.95007 -115.855653 -37.096056 -103.338664 -37.096056 C -103.338664 -37.096056 103.340923 -37.096056 103.340923 -37.096056 C 115.857912 -37.096056 126.003898 -26.95007 126.003898 -14.433081 C 126.003898 -14.433081 126.003898 14.432143 126.003898 14.432143 C 126.003898 26.949132 115.857912 37.095118 103.340923 37.095118 Z M 103.340923 37.095118 " stroke="#253237" stroke-width="2" stroke-opacity="1" stroke-miterlimit="4"/><path fill="#ffffff" d="M 673.601562 1593.984375 C 673.601562 1593.984375 673.601562 1529.769531 673.601562 1529.769531 C 673.601562 1529.769531 697.824219 1529.769531 697.824219 1529.769531 C 702.085938 1529.769531 705.34375 1529.972656 707.59375 1530.382812 C 710.746094 1530.910156 713.386719 1531.910156 715.519531 1533.382812 C 717.652344 1534.859375 719.367188 1536.921875 720.664062 1539.578125 C 721.964844 1542.238281 722.617188 1545.160156 722.617188 1548.34375 C 722.617188 1553.804688 720.878906 1558.421875 717.402344 1562.203125 C 713.929688 1565.984375 707.648438 1567.875 698.570312 1567.875 C 698.570312 1567.875 682.101562 1567.875 682.101562 1567.875 C 682.101562 1567.875 682.101562 1593.984375 682.101562 1593.984375 C 682.101562 1593.984375 673.601562 1593.984375 673.601562 1593.984375 Z M 682.101562 1560.296875 C 682.101562 1560.296875 698.699219 1560.296875 698.699219 1560.296875 C 704.191406 1560.296875 708.089844 1559.277344 710.394531 1557.230469 C 712.703125 1555.1875 713.855469 1552.3125 713.855469 1548.601562 C 713.855469 1545.917969 713.175781 1543.617188 711.816406 1541.703125 C 710.460938 1539.792969 708.671875 1538.527344 706.453125 1537.917969 C 705.023438 1537.535156 702.378906 1537.347656 698.523438 1537.347656 C 698.523438 1537.347656 682.101562 1537.347656 682.101562 1537.347656 C 682.101562 1537.347656 682.101562 1560.296875 682.101562 1560.296875 Z M 682.101562 1560.296875 " fill-opacity="1" fill-rule="nonzero"/><path fill="#ffffff" d="M 719.722656 1593.984375 C 719.722656 1593.984375 744.386719 1529.769531 744.386719 1529.769531 C 744.386719 1529.769531 753.539062 1529.769531 753.539062 1529.769531 C 753.539062 1529.769531 779.820312 1593.984375 779.820312 1593.984375 C 779.820312 1593.984375 770.140625 1593.984375 770.140625 1593.984375 C 770.140625 1593.984375 762.648438 1574.535156 762.648438 1574.535156 C 762.648438 1574.535156 735.800781 1574.535156 735.800781 1574.535156 C 735.800781 1574.535156 728.746094 1593.984375 728.746094 1593.984375 C 728.746094 1593.984375 719.722656 1593.984375 719.722656 1593.984375 Z M 738.253906 1567.613281 C 738.253906 1567.613281 760.023438 1567.613281 760.023438 1567.613281 C 760.023438 1567.613281 753.320312 1549.832031 753.320312 1549.832031 C 751.273438 1544.429688 749.757812 1539.988281 748.765625 1536.511719 C 747.949219 1540.632812 746.792969 1544.71875 745.304688 1548.777344 C 745.304688 1548.777344 738.253906 1567.613281 738.253906 1567.613281 Z M 738.253906 1567.613281 " fill-opacity="1" fill-rule="nonzero"/><path fill="#ffffff" d="M 798.039062 1593.980469 C 798.039062 1593.980469 798.039062 1566.78125 798.039062 1566.78125 C 798.039062 1566.78125 773.292969 1529.769531 773.292969 1529.769531 C 773.292969 1529.769531 783.628906 1529.769531 783.628906 1529.769531 C 783.628906 1529.769531 796.289062 1549.128906 796.289062 1549.128906 C 798.625 1552.75 800.796875 1556.371094 802.8125 1559.992188 C 804.738281 1556.632812 807.078125 1552.851562 809.824219 1548.648438 C 809.824219 1548.648438 822.257812 1529.769531 822.257812 1529.769531 C 822.257812 1529.769531 832.160156 1529.769531 832.160156 1529.769531 C 832.160156 1529.769531 806.539062 1566.78125 806.539062 1566.78125 C 806.539062 1566.78125 806.539062 1593.980469 806.539062 1593.980469 C 806.539062 1593.980469 798.039062 1593.980469 798.039062 1593.980469 Z M 798.039062 1593.980469 " fill-opacity="1" fill-rule="nonzero"/><path stroke-linecap="round" transform="matrix(1.804753, 0, 0, 1.804753, 1511.259324, 1671.079409)" fill-opacity="1" fill="#d4d4d4" fill-rule="nonzero" stroke-linejoin="round" d="M 217.476062 170.456262 C 217.476062 170.456262 -224.561894 161.008555 -224.561894 161.008555 C -234.847232 160.789949 -243.009272 152.272944 -242.788501 141.985441 C -242.788501 141.985441 -236.503016 -152.228914 -236.503016 -152.228914 C -236.282245 -162.514252 -227.763076 -170.676291 -217.477737 -170.45552 C -217.477737 -170.45552 224.560219 -161.009978 224.560219 -161.009978 C 234.847722 -160.789207 243.009761 -152.272202 242.78899 -141.984699 C 242.78899 -141.984699 236.501341 152.227491 236.501341 152.227491 C 236.28057 162.514994 227.763565 170.677033 217.476062 170.456262 Z M 217.476062 170.456262 " stroke="#253237" stroke-width="2" stroke-opacity="1" stroke-miterlimit="4"/><path stroke-linecap="round" transform="matrix(1.804753, 0, 0, 1.804753, 1495.195128, 1707.333294)" fill-opacity="1" fill="#ffffff" fill-rule="nonzero" stroke-linejoin="round" d="M 233.004573 170.594796 C 233.004573 170.594796 -233.004369 170.594796 -233.004369 170.594796 C -243.294036 170.594796 -251.633558 162.25311 -251.633558 151.965607 C -251.633558 151.965607 -251.633558 -151.964843 -251.633558 -151.964843 C -251.633558 -162.25451 -243.294036 -170.594032 -233.004369 -170.594032 C -233.004369 -170.594032 233.004573 -170.594032 233.004573 -170.594032 C 243.292076 -170.594032 251.633762 -162.25451 251.633762 -151.964843 C 251.633762 -151.964843 251.633762 151.965607 251.633762 151.965607 C 251.633762 162.25311 243.292076 170.594796 233.004573 170.594796 Z M 233.004573 170.594796 " stroke="#253237" stroke-width="2" stroke-opacity="1" stroke-miterlimit="4"/><path stroke-linecap="round" transform="matrix(1.804753, 0, 0, 1.804753, 1232.159555, 1707.333294)" fill-opacity="1" fill="#ffffff" fill-rule="nonzero" stroke-linejoin="round" d="M 109.712774 46.514916 C 109.712774 46.514916 -109.709943 46.514916 -109.709943 46.514916 C -116.393681 46.514916 -121.811232 41.097365 -121.811232 34.415791 C -121.811232 34.415791 -121.811232 -34.417191 -121.811232 -34.417191 C -121.811232 -41.098765 -116.393681 -46.516316 -109.709943 -46.516316 C -109.709943 -46.516316 109.712774 -46.516316 109.712774 -46.516316 C 116.394348 -46.516316 121.811898 -41.098765 121.811898 -34.417191 C 121.811898 -34.417191 121.811898 34.415791 121.811898 34.415791 C 121.811898 41.097365 116.394348 46.514916 109.712774 46.514916 Z M 109.712774 46.514916 " stroke="#253237" stroke-width="2" stroke-opacity="1" stroke-miterlimit="4"/><path stroke-linecap="round" transform="matrix(1.804753, 0, 0, 1.804753, 1371.679573, 1707.333294)" fill-opacity="1" fill="#d4d4d4" fill-rule="nonzero" stroke-linejoin="round" d="M 20.088074 -0.000699892 C 20.088074 11.094133 11.094896 20.08731 0.0000636192 20.08731 C -11.094769 20.08731 -20.087947 11.094133 -20.087947 -0.000699892 C -20.087947 -11.093368 -11.094769 -20.08871 0.0000636192 -20.08871 C 11.094896 -20.08871 20.088074 -11.093368 20.088074 -0.000699892 Z M 20.088074 -0.000699892 " stroke="#253237" stroke-width="2" stroke-opacity="1" stroke-miterlimit="4"/><path stroke-linecap="round" transform="matrix(1.804753, 0, 0, 1.804753, 1579.858057, 1019.718646)" fill-opacity="1" fill="#d4d4d4" fill-rule="nonzero" stroke-linejoin="round" d="M 34.802488 -15.358688 C 34.802488 -15.358688 10.625883 71.348099 10.625883 71.348099 C 3.033087 96.600423 -37.991388 84.26754 -30.398592 59.013052 C -19.336225 0.941582 -5.975242 -50.272997 9.026374 -96.600308 C 29.027808 -80.332504 37.990684 -53.604044 34.802488 -15.358688 Z M 34.802488 -15.358688 " stroke="#253237" stroke-width="2" stroke-opacity="1" stroke-miterlimit="4"/><path stroke-linecap="round" transform="matrix(1.804753, 0, 0, 1.804753, 1581.975044, 1458.797092)" fill-opacity="1" fill="#253237" fill-rule="nonzero" stroke-linejoin="round" d="M 83.302991 -119.781457 C 83.302991 -119.781457 85.406811 -101.604632 85.406811 -101.604632 C 88.986766 -70.636067 63.992009 -44.567755 35.839358 -49.903058 C 35.839358 -49.903058 -32.413558 -62.841979 -32.413558 -62.841979 C -32.413558 -62.841979 -6.020584 129.70726 -6.020584 129.70726 C -6.020584 129.70726 -49.187837 134.901875 -49.187837 134.901875 C -49.187837 134.901875 -85.887794 -97.663217 -85.887794 -97.663217 C -88.985084 -117.29237 -74.141471 -134.899952 -55.960317 -133.16192 C -55.960317 -133.16192 28.430538 -125.092951 28.430538 -125.092951 C 28.430538 -125.092951 83.302991 -119.781457 83.302991 -119.781457 Z M 83.302991 -119.781457 " stroke="#253237" stroke-width="2" stroke-opacity="1" stroke-miterlimit="4"/><path stroke-linecap="round" transform="matrix(1.804753, 0, 0, 1.804753, 1746.925871, 998.03454)" fill-opacity="1" fill="#d4d4d4" fill-rule="nonzero" stroke-linejoin="round" d="M -83.983993 -84.409993 C -67.904494 -93.457282 -52.205934 -101.268685 -37.264921 -106.629961 C -37.264921 -106.629961 32.024754 -109.586562 32.024754 -109.586562 C 50.078207 -101.915847 67.54943 -92.766831 83.983894 -80.968561 C 83.983894 -80.968561 41.414021 105.208617 41.414021 105.208617 C -5.173021 109.585081 -42.297205 108.552651 -65.42623 99.51402 C -65.42623 99.51402 -83.983993 -84.409993 -83.983993 -84.409993 Z M -83.983993 -84.409993 " stroke="#253237" stroke-width="2" stroke-opacity="1" stroke-miterlimit="4"/><path stroke-linecap="butt" transform="matrix(1.804753, 0, 0, 1.804753, 1748.089953, 787.845725)" fill-opacity="1" fill="#ffffff" fill-rule="nonzero" stroke-linejoin="miter" d="M 24.189531 -34.835319 C 24.189531 -34.835319 20.72429 -2.847311 20.72429 -2.847311 C 20.72429 -2.847311 -12.659771 34.835295 -12.659771 34.835295 C -12.659771 34.835295 -24.189653 11.147849 -24.189653 11.147849 C -24.189653 11.147849 -22.992727 -19.796908 -22.992727 -19.796908 C -22.992727 -19.796908 24.189531 -34.835319 24.189531 -34.835319 Z M 24.189531 -34.835319 " stroke="#253237" stroke-width="2" stroke-opacity="1" stroke-miterlimit="10"/><path stroke-linecap="round" transform="matrix(1.804753, 0, 0, 1.804753, 1773.221135, 815.649751)" fill-opacity="1" fill="#d4d4d4" fill-rule="nonzero" stroke-linejoin="round" d="M -26.584765 19.429298 C -26.584765 19.429298 -9.74339 10.92528 -9.74339 10.92528 C -9.74339 10.92528 -1.029422 24.409635 -1.029422 24.409635 C -1.029422 24.409635 26.584287 -9.740632 26.584287 -9.740632 C 26.584287 -9.740632 14.151841 -24.15136 14.151841 -24.15136 C 14.151841 -24.15136 7.468102 -24.408927 7.468102 -24.408927 C 7.468102 -24.408927 6.80146 -18.253307 6.80146 -18.253307 C 6.80146 -18.253307 -26.584765 19.429298 -26.584765 19.429298 Z M -26.584765 19.429298 " stroke="#253237" stroke-width="2" stroke-opacity="1" stroke-miterlimit="4"/><path stroke-linecap="round" transform="matrix(1.804753, 0, 0, 1.804753, 1702.456788, 823.35064)" fill-opacity="1" fill="#d4d4d4" fill-rule="nonzero" stroke-linejoin="round" d="M 12.625214 15.162295 C 12.625214 15.162295 1.445969 7.45262 1.445969 7.45262 C 1.445969 7.45262 -11.735367 19.779009 -11.735367 19.779009 C -11.735367 19.779009 -12.624945 -9.838956 -12.624945 -9.838956 C -12.624945 -9.838956 1.532546 -19.777987 1.532546 -19.777987 C 1.532546 -19.777987 1.097497 -8.525151 1.097497 -8.525151 C 1.097497 -8.525151 12.625214 15.162295 12.625214 15.162295 Z M 12.625214 15.162295 " stroke="#253237" stroke-width="2" stroke-opacity="1" stroke-miterlimit="4"/><path stroke-linecap="round" transform="matrix(1.804753, 0, 0, 1.804753, 1729.302488, 859.312144)" fill-opacity="1" fill="#2d44ad" fill-rule="nonzero" stroke-linejoin="round" d="M -10.693196 -10.585996 C -12.000507 -1.936961 -11.333865 5.413419 -8.628336 11.424022 C -8.628336 11.424022 5.202327 11.960799 5.202327 11.960799 C 9.43161 5.980498 11.219423 -2.475903 12.00078 -11.960404 C 12.00078 -11.960404 -2.251946 -4.763698 -2.251946 -4.763698 C -2.251946 -4.763698 -10.693196 -10.585996 -10.693196 -10.585996 Z M -10.693196 -10.585996 " stroke="#253237" stroke-width="2" stroke-opacity="1" stroke-miterlimit="4"/><path stroke-linecap="round" transform="matrix(1.804753, 0, 0, 1.804753, 1719.282478, 1023.279336)" fill-opacity="1" fill="#2d44ad" fill-rule="nonzero" stroke-linejoin="round" d="M -3.076325 -79.428936 C -3.076325 -79.428936 -16.026069 -14.660741 -16.026069 -14.660741 C -14.279379 14.740782 -9.92456 46.737448 -4.874961 79.428894 C 3.44941 50.135592 11.198045 19.506841 16.026872 -17.881402 C 16.026872 -17.881402 10.754338 -78.89216 10.754338 -78.89216 C 10.754338 -78.89216 -3.076325 -79.428936 -3.076325 -79.428936 Z M -3.076325 -79.428936 " stroke="#253237" stroke-width="2" stroke-opacity="1" stroke-miterlimit="4"/><path stroke-linecap="round" transform="matrix(1.804753, 0, 0, 1.804753, 1724.996354, 1204.803292)" fill-opacity="1" fill="#253237" fill-rule="nonzero" stroke-linejoin="round" d="M -53.273089 -15.057118 C -53.273089 -15.057118 -53.996006 3.619689 -53.996006 3.619689 C -21.559962 14.883346 14.875935 15.0565 53.997882 7.794861 C 53.997882 7.794861 53.564998 -9.362521 53.564998 -9.362521 C 11.81977 -4.635421 -24.449467 -5.828018 -53.273089 -15.057118 Z M -53.273089 -15.057118 " stroke="#253237" stroke-width="2" stroke-opacity="1" stroke-miterlimit="4"/><path stroke-linecap="round" transform="matrix(1.804753, 0, 0, 1.804753, 1721.614289, 1277.330974)" fill-opacity="1" fill="#253237" fill-rule="nonzero" stroke-linejoin="round" d="M -52.12203 -36.567342 C -52.12203 -36.567342 -60.247274 31.90851 -60.247274 31.90851 C -60.247274 31.90851 60.248322 36.566349 60.248322 36.566349 C 60.248322 36.566349 55.869694 -32.39217 55.869694 -32.39217 C 55.869694 -32.39217 -52.12203 -36.567342 -52.12203 -36.567342 Z M -52.12203 -36.567342 " stroke="#253237" stroke-width="2" stroke-opacity="1" stroke-miterlimit="4"/><path stroke-linecap="round" transform="matrix(1.804753, 0, 0, 1.804753, 1603.263926, 1742.432214)" fill-opacity="1" fill="#253237" fill-rule="nonzero" stroke-linejoin="round" d="M 2.381807 -24.47886 C -0.639728 -10.979353 -10.738926 -0.698344 -24.067443 8.113022 C -34.893887 16.407092 -33.837649 22.012947 -30.333448 27.064711 C -12.134979 27.185918 9.208397 21.034628 34.893606 6.219152 C 34.893606 6.219152 31.81796 -27.188718 31.81796 -27.188718 C 31.81796 -27.188718 2.381807 -24.47886 2.381807 -24.47886 Z M 2.381807 -24.47886 " stroke="#253237" stroke-width="2" stroke-opacity="1" stroke-miterlimit="4"/><path stroke-linecap="round" transform="matrix(1.804753, 0, 0, 1.804753, 1500.869398, 1728.766496)" fill-opacity="1" fill="#253237" fill-rule="nonzero" stroke-linejoin="round" d="M 4.507268 -24.878361 C 0.687062 -11.58231 -10.005188 -1.920326 -23.833687 6.081546 C -35.13414 13.719795 -34.413387 19.377597 -31.216534 24.628487 C -13.057025 25.834071 8.613179 20.961955 35.133855 7.69837 C 35.133855 7.69837 34.051643 -25.832872 34.051643 -25.832872 C 34.051643 -25.832872 4.507268 -24.878361 4.507268 -24.878361 Z M 4.507268 -24.878361 " stroke="#253237" stroke-width="2" stroke-opacity="1" stroke-miterlimit="4"/><path stroke-linecap="round" transform="matrix(1.804753, 0, 0, 1.804753, 1914.049675, 1026.80229)" fill-opacity="1" fill="#d4d4d4" fill-rule="nonzero" stroke-linejoin="round" d="M -34.80331 -15.359582 C -34.80331 -15.359582 -10.626704 71.347206 -10.626704 71.347206 C -3.033908 96.601694 37.990566 84.268811 30.39777 59.014323 C 19.337568 0.942853 5.97442 -50.27389 -9.025031 -96.601201 C -29.026465 -80.333397 -37.991505 -53.604937 -34.80331 -15.359582 Z M -34.80331 -15.359582 " stroke="#253237" stroke-width="2" stroke-opacity="1" stroke-miterlimit="4"/><path stroke-linecap="round" transform="matrix(1.804753, 0, 0, 1.804753, 1678.076353, 1451.219004)" fill-opacity="1" fill="#253237" fill-rule="nonzero" stroke-linejoin="round" d="M 79.563009 -145.897406 C 79.563009 -145.897406 85.367992 -70.21186 85.367992 -70.21186 C 89.049675 -41.844932 64.145823 -18.057923 35.978022 -23.036096 C 35.978022 -23.036096 -32.309526 -35.104918 -32.309526 -35.104918 C -32.309526 -35.104918 -5.291033 141.284738 -5.291033 141.284738 C -5.291033 141.284738 -48.434477 145.897124 -48.434477 145.897124 C -48.434477 145.897124 -85.889818 -67.162188 -85.889818 -67.162188 C -89.05204 -85.14638 -74.264702 -101.219385 -56.081384 -99.56793 C -56.081384 -99.56793 28.324622 -91.905873 28.324622 -91.905873 C 28.324622 -91.905873 79.563009 -145.897406 79.563009 -145.897406 Z M 79.563009 -145.897406 " stroke="#253237" stroke-width="2" stroke-opacity="1" stroke-miterlimit="4"/><path stroke-linecap="round" transform="matrix(1.804753, 0, 0, 1.804753, 1748.47076, 757.866946)" fill-opacity="1" fill="#253237" fill-rule="nonzero" stroke-linejoin="round" d="M -22.381248 0.508773 C -22.381248 0.508773 -22.807639 11.478069 -22.807639 11.478069 C 0.988028 12.854642 13.255977 3.175342 22.805412 -12.87169 C 7.305978 -2.765999 -6.669701 1.370213 -22.381248 0.508773 Z M -22.381248 0.508773 " stroke="#253237" stroke-width="2" stroke-opacity="1" stroke-miterlimit="4"/><path stroke-linecap="round" transform="matrix(1.804753, -0.00092773, 0.00092773, 1.804753, 1684.936152, 949.723134)" fill-opacity="1" fill="#ffffff" fill-rule="nonzero" stroke-linejoin="round" d="M -3.498899 33.243481 C -3.498899 33.243481 23.771352 23.500278 23.771352 23.500278 C 23.771352 23.500278 3.500393 -33.24401 3.500393 -33.24401 C 3.500393 -33.24401 -23.772021 -23.502972 -23.772021 -23.502972 C -23.772021 -23.502972 -3.498899 33.243481 -3.498899 33.243481 Z M -3.498899 33.243481 " stroke="#253237" stroke-width="2" stroke-opacity="1" stroke-miterlimit="4"/><path stroke-linecap="round" transform="matrix(1.804753, -0.00092773, 0.00092773, 1.804753, 1713.427928, 939.527857)" fill-opacity="1" fill="#ffffff" fill-rule="nonzero" stroke-linejoin="round" d="M 12.289369 27.602432 C 12.289369 27.602432 7.979211 29.141286 7.979211 29.141286 C 7.979211 29.141286 -12.289583 -27.603001 -12.289583 -27.603001 C -12.289583 -27.603001 -7.981589 -29.141856 -7.981589 -29.141856 C -7.981589 -29.141856 12.289369 27.602432 12.289369 27.602432 Z M 12.289369 27.602432 " stroke="#253237" stroke-width="2" stroke-opacity="1" stroke-miterlimit="4"/><path stroke-linecap="round" transform="matrix(1.804753, -0.00092773, 0.00092773, 1.804753, 1686.13725, 909.39346)" fill-opacity="1" fill="#ffffff" fill-rule="nonzero" stroke-linejoin="round" d="M 1.594258 5.431952 C 1.594258 5.431952 2.209067 5.211497 2.209067 5.211497 C 3.317455 4.815977 3.895984 3.595539 3.4983 2.48715 C 3.4983 2.48715 1.129499 -4.141532 1.129499 -4.141532 C 0.733979 -5.24992 -0.486458 -5.828449 -1.594846 -5.432929 C -1.594846 -5.432929 -2.207491 -5.212473 -2.207491 -5.212473 C -3.318044 -4.816954 -3.894408 -3.596516 -3.498888 -2.488127 C -3.498888 -2.488127 -1.130088 4.140555 -1.130088 4.140555 C -0.734568 5.248943 0.48587 5.827471 1.594258 5.431952 Z M 1.594258 5.431952 " stroke="#253237" stroke-width="2" stroke-opacity="1" stroke-miterlimit="4"/><path stroke-linecap="butt" transform="matrix(1.804753, -0.00092773, 0.00092773, 1.804753, 1709.741103, 996.19)" fill-opacity="1" fill="#ffffff" fill-rule="nonzero" stroke-linejoin="miter" d="M 30.050734 1.405786 C 24.360446 -6.979951 16.845059 -14.409951 8.474491 -21.388026 C 7.338655 -22.334463 5.984086 -23.034268 4.523214 -23.25579 C 2.14686 -23.611977 0.477603 -22.664818 -0.60998 -20.637312 C -2.198028 -17.66854 -1.464022 -13.97782 0.893964 -11.574098 C 0.893964 -11.574098 9.252916 -3.052795 9.252916 -3.052795 C 4.708075 -3.925229 0.481743 -5.455485 -3.510586 -7.463958 C -8.658419 -10.050925 -12.543373 -14.624185 -14.527532 -20.036263 C -14.546984 -20.090384 -14.566435 -20.146669 -14.588051 -20.200791 C -16.444683 -25.272989 -23.437684 -25.761415 -25.972513 -20.990164 C -26.269323 -20.436224 -26.542339 -19.856299 -26.79805 -19.254721 C -30.0508 -11.570525 -28.466679 -2.686917 -23.240776 3.817697 C -18.931999 9.17686 -13.164045 13.841993 -5.168353 17.447704 C -5.168353 17.447704 19.309167 25.760851 19.309167 25.760851 C 19.309167 25.760851 30.050734 1.405786 30.050734 1.405786 Z M 30.050734 1.405786 " stroke="#253237" stroke-width="2" stroke-opacity="1" stroke-miterlimit="10"/><path fill="#d4d4d4" d="M 1910.558594 1176.53125 C 1947.101562 1205.214844 1994.839844 1144.402344 1958.296875 1115.714844 C 1958.296875 1115.714844 1762.058594 988.992188 1762.058594 988.992188 C 1762.058594 988.992188 1733.609375 1043.292969 1733.609375 1043.292969 C 1733.609375 1043.292969 1910.558594 1176.53125 1910.558594 1176.53125 Z M 1910.558594 1176.53125 " fill-opacity="1" fill-rule="nonzero"/><path stroke-linecap="butt" transform="matrix(1.804753, -0.00092773, 0.00092773, 1.804753, 1822.070119, 1082.767494)" fill="none" stroke-linejoin="miter" d="M -33.225211 -51.977265 C -33.225211 -51.977265 -49.004169 -21.89989 -49.004169 -21.89989 C -49.004169 -21.89989 49.004072 51.978975 49.004072 51.978975 " stroke="#253237" stroke-width="2" stroke-opacity="1" stroke-miterlimit="10"/><path stroke-linecap="round" transform="matrix(1.804753, -0.00092773, 0.00092773, 1.804753, 1946.587781, 1160.887355)" fill="none" stroke-linejoin="round" d="M 11.167662 -21.554434 C 19.967126 1.602927 -0.356245 21.554957 -19.965785 8.6579 " stroke="#253237" stroke-width="2" stroke-opacity="1" stroke-miterlimit="4"/><path stroke-linecap="round" transform="matrix(1.804753, -0.00092773, 0.00092773, 1.804753, 1840.335504, 1039.539836)" fill="none" stroke-linejoin="round" d="M 43.356549 28.029498 C 43.356549 28.029498 -43.356068 -28.030355 -43.356068 -28.030355 " stroke="#253237" stroke-width="2" stroke-opacity="1" stroke-miterlimit="4"/><path stroke-linecap="butt" transform="matrix(1.804753, -0.000804032, 0.000804032, 1.804753, 1340.566746, 987.236052)" fill-opacity="1" fill="#ffffff" fill-rule="nonzero" stroke-linejoin="miter" d="M 30.050041 1.406347 C 24.361343 -6.978999 16.845445 -14.408485 8.474401 -21.388151 C 7.3385 -22.33451 5.986047 -23.034221 4.522995 -23.255644 C 2.146617 -23.611668 0.477425 -22.664395 -0.610019 -20.636814 C -2.197864 -17.667933 -1.463605 -13.977264 0.894546 -11.573703 C 0.894546 -11.573703 9.251918 -3.052973 9.251918 -3.052973 C 4.707017 -3.925096 0.482744 -5.455061 -3.509722 -7.463261 C -8.659897 -10.052041 -12.543 -14.625033 -14.527529 -20.036976 C -14.546985 -20.091095 -14.566441 -20.145215 -14.58806 -20.201499 C -16.44504 -25.273571 -23.438075 -25.761517 -25.972576 -20.990092 C -26.269349 -20.436132 -26.544489 -19.856189 -26.797995 -19.254593 C -30.050218 -11.570174 -28.467653 -2.686675 -23.239139 3.817583 C -18.929995 9.17645 -13.163886 13.843352 -5.167946 17.44635 C -5.167946 17.44635 19.307979 25.759983 19.307979 25.759983 C 19.307979 25.759983 30.050041 1.406347 30.050041 1.406347 Z M 30.050041 1.406347 " stroke="#253237" stroke-width="2" stroke-opacity="1" stroke-miterlimit="10"/><path fill="#d4d4d4" d="M 1541.375 1167.589844 C 1577.914062 1196.277344 1625.65625 1135.46875 1589.113281 1106.78125 C 1589.113281 1106.78125 1392.886719 980.042969 1392.886719 980.042969 C 1392.886719 980.042969 1364.429688 1034.34375 1364.429688 1034.34375 C 1364.429688 1034.34375 1541.375 1167.589844 1541.375 1167.589844 Z M 1541.375 1167.589844 " fill-opacity="1" fill-rule="nonzero"/><path stroke-linecap="butt" transform="matrix(1.804753, -0.000804032, 0.000804032, 1.804753, 1452.889908, 1073.823286)" fill="none" stroke-linejoin="miter" d="M -33.224155 -51.977763 C -33.224155 -51.977763 -49.00538 -21.899308 -49.00538 -21.899308 C -49.00538 -21.899308 49.005761 51.97717 49.005761 51.97717 " stroke="#253237" stroke-width="2" stroke-opacity="1" stroke-miterlimit="10"/><path stroke-linecap="round" transform="matrix(1.804753, -0.000804032, 0.000804032, 1.804753, 1572.849476, 1157.522995)" fill="none" stroke-linejoin="round" d="M 17.442498 -15.513065 C 13.417846 6.140199 2.353467 15.511552 -17.44225 5.570194 " stroke="#253237" stroke-width="2" stroke-opacity="1" stroke-miterlimit="4"/><path stroke-linecap="round" transform="matrix(1.804753, -0.000804032, 0.000804032, 1.804753, 1471.156373, 1030.594908)" fill="none" stroke-linejoin="round" d="M 43.355997 28.030642 C 43.355997 28.030642 -43.356134 -28.029761 -43.356134 -28.029761 " stroke="#253237" stroke-width="2" stroke-opacity="1" stroke-miterlimit="4"/><path stroke-linecap="round" transform="matrix(1.804753, 0.000822706, -0.000822706, 1.804753, 1657.327903, 611.686553)" fill-opacity="1" fill="#253237" fill-rule="nonzero" stroke-linejoin="round" d="M -3.973763 -19.001302 C -8.418226 -6.735652 -6.36273 5.959919 0.898363 19.001589 C 0.898363 19.001589 8.418662 -16.587125 8.418662 -16.587125 C 8.418662 -16.587125 -3.973763 -19.001302 -3.973763 -19.001302 Z M -3.973763 -19.001302 " stroke="#253237" stroke-width="2" stroke-opacity="1" stroke-miterlimit="4"/><path stroke-linecap="butt" transform="matrix(1.804753, 0.000822706, -0.000822706, 1.804753, 1729.307982, 652.754067)" fill-opacity="1" fill="#ffffff" fill-rule="nonzero" stroke-linejoin="miter" d="M 38.409454 -6.378839 C 38.409454 -6.378839 37.156058 16.932573 37.156058 16.932573 C 37.156058 16.932573 34.077997 44.87019 34.077997 44.87019 C 15.056155 57.166293 -4.788953 62.991145 -26.1242 57.089831 C -30.693874 55.825726 -34.262476 52.247397 -35.537237 47.683209 C -41.165251 27.565294 -40.825015 0.00337023 -34.683093 -34.794701 C -17.042908 -62.990029 19.461539 -59.818474 41.164637 -35.149611 C 41.164637 -35.149611 38.409454 -6.378839 38.409454 -6.378839 Z M 38.409454 -6.378839 " stroke="#253237" stroke-width="2" stroke-opacity="1" stroke-miterlimit="10"/><path stroke-linecap="butt" transform="matrix(1.804753, 0.000822706, -0.000822706, 1.804753, 1812.936706, 656.515331)" fill-opacity="1" fill="#ffffff" fill-rule="nonzero" stroke-linejoin="miter" d="M -7.929528 -8.443967 C -3.108368 -15.770574 9.281094 -10.35867 4.966573 2.073581 C 0.480115 12.430228 -4.362716 14.94966 -9.282077 15.770055 C -9.282077 15.770055 -7.929528 -8.443967 -7.929528 -8.443967 Z M -7.929528 -8.443967 " stroke="#253237" stroke-width="2" stroke-opacity="1" stroke-miterlimit="10"/><path stroke-linecap="round" transform="matrix(1.804753, 0.000822706, -0.000822706, 1.804753, 1801.436002, 610.943747)" fill-opacity="1" fill="#253237" fill-rule="nonzero" stroke-linejoin="round" d="M -10.699489 -22.44582 C -20.392007 -8.703806 -14.089393 19.372387 -2.361184 27.111348 C -2.361184 27.111348 -1.545565 16.806156 -1.545565 16.806156 C 1.617431 13.755041 4.967151 11.983016 9.050707 15.171515 C 18.657385 -1.700217 20.391059 -16.007846 12.282396 -27.111971 C 12.282396 -27.111971 -10.699489 -22.44582 -10.699489 -22.44582 Z M -10.699489 -22.44582 " stroke="#253237" stroke-width="2" stroke-opacity="1" stroke-miterlimit="4"/><path stroke-linecap="round" transform="matrix(1.804753, 0.000822706, -0.000822706, 1.804753, 1726.90401, 550.03362)" fill-opacity="1" fill="#253237" fill-rule="nonzero" stroke-linejoin="round" d="M -39.040908 -24.35276 C -53.593957 -4.186686 -47.093343 11.922319 -34.119507 26.783829 C -22.20324 14.988783 -1.901281 14.256611 26.034859 23.592021 C 26.034859 23.592021 53.595384 6.621199 53.595384 6.621199 C 52.151416 -17.773359 25.61797 -26.782581 4.491843 -15.509291 C -18.185312 -7.090168 -33.012756 -9.596305 -39.040908 -24.35276 Z M -39.040908 -24.35276 " stroke="#253237" stroke-width="2" stroke-opacity="1" stroke-miterlimit="4"/><path stroke-linecap="round" transform="matrix(1.804753, 0.000822706, -0.000822706, 1.804753, 1688.736951, 664.886962)" fill="none" stroke-linejoin="round" d="M 3.072645 -17.695697 C 1.940091 -4.680503 -1.308048 6.264303 -6.650122 15.151696 C -1.902669 17.065047 2.508713 17.695048 6.649079 17.310057 " stroke="#253237" stroke-width="2" stroke-opacity="1" stroke-miterlimit="4"/><path stroke-linecap="round" transform="matrix(1.804753, 0.000822706, -0.000822706, 1.804753, 1739.16213, 624.624218)" fill="none" stroke-linejoin="round" d="M -6.341887 -2.62645 C -0.604292 -3.265406 3.623722 -1.302037 6.342156 3.265821 " stroke="#253237" stroke-width="2" stroke-opacity="1" stroke-miterlimit="4"/><path stroke-linecap="round" transform="matrix(1.804753, 0.000822706, -0.000822706, 1.804753, 1675.573162, 629.244277)" fill="none" stroke-linejoin="round" d="M -5.141345 1.622339 C -2.462763 -0.515168 0.724928 -1.622641 5.140978 -0.248081 " stroke="#253237" stroke-width="2" stroke-opacity="1" stroke-miterlimit="4"/><path stroke-linecap="round" transform="matrix(1.804753, 0.000822706, -0.000822706, 1.804753, 1731.068175, 655.225569)" fill-opacity="1" fill="#253237" fill-rule="nonzero" stroke-linejoin="round" d="M 2.618018 0.101085 C 2.506777 2.971161 1.243794 5.253039 -0.202067 5.197424 C -1.647927 5.141808 -2.729055 2.770092 -2.617814 -0.0999838 C -2.506572 -2.97006 -1.245753 -5.251937 0.200107 -5.196321 C 1.645967 -5.140705 2.72926 -2.768991 2.618018 0.101085 Z M 2.618018 0.101085 " stroke="#253237" stroke-width="2" stroke-opacity="1" stroke-miterlimit="4"/><path stroke-linecap="round" transform="matrix(1.804753, 0.000822706, -0.000822706, 1.804753, 1674.909713, 647.455806)" fill-opacity="1" fill="#253237" fill-rule="nonzero" stroke-linejoin="round" d="M 2.071635 0.0798182 C 1.981792 2.410943 0.98051 4.266311 -0.162325 4.223543 C -1.307326 4.178612 -2.160986 2.252664 -2.071144 -0.0806251 C -1.979137 -2.411751 -0.980019 -4.267117 0.162817 -4.222186 C 1.307817 -4.179419 2.161479 -2.251307 2.071635 0.0798182 Z M 2.071635 0.0798182 " stroke="#253237" stroke-width="2" stroke-opacity="1" stroke-miterlimit="4"/><path stroke-linecap="round" transform="matrix(1.804753, 0.000822706, -0.000822706, 1.804753, 1723.158147, 718.404559)" fill="none" stroke-linejoin="round" d="M -9.674054 4.321208 C -2.348067 3.034365 4.302059 0.518438 9.674116 -4.321498 " stroke="#253237" stroke-width="2" stroke-opacity="1" stroke-miterlimit="4"/><path stroke-linecap="butt" transform="matrix(1.804753, 0, 0, 1.804753, 1329.433966, 607.615562)" fill-opacity="1" fill="#ffffff" fill-rule="nonzero" stroke-linejoin="miter" d="M 47.346548 0.000900521 C 47.346548 26.149295 26.148189 47.347655 -0.000206296 47.347655 C -26.148601 47.347655 -47.346961 26.149295 -47.346961 0.000900521 C -47.346961 -26.149659 -26.148601 -47.348018 -0.000206296 -47.348018 C 26.148189 -47.348018 47.346548 -26.149659 47.346548 0.000900521 Z M 47.346548 0.000900521 " stroke="#253237" stroke-width="2" stroke-opacity="1" stroke-miterlimit="10"/><path stroke-linecap="butt" transform="matrix(1.804753, 0, 0, 1.804753, 1329.433966, 607.615562)" fill-opacity="1" fill="#ffffff" fill-rule="nonzero" stroke-linejoin="miter" d="M 41.138983 0.000900521 C 41.138983 22.720849 22.719743 41.137925 -0.000206296 41.137925 C -22.720155 41.137925 -41.139395 22.720849 -41.139395 0.000900521 C -41.139395 -22.719048 -22.720155 -41.138288 -0.000206296 -41.138288 C 22.719743 -41.138288 41.138983 -22.719048 41.138983 0.000900521 Z M 41.138983 0.000900521 " stroke="#253237" stroke-width="2" stroke-opacity="1" stroke-miterlimit="10"/><path stroke-linecap="butt" transform="matrix(1.804753, 0, 0, 1.804753, 1329.433966, 607.615562)" fill-opacity="1" fill="#253237" fill-rule="nonzero" stroke-linejoin="miter" d="M -1.409246 26.597331 C -1.409246 26.597331 -1.409246 21.313974 -1.409246 21.313974 C -4.052006 20.980653 -6.199114 20.389766 -7.852733 19.536983 C -9.506352 18.686365 -10.934872 17.311956 -12.138291 15.411593 C -13.343874 13.513394 -14.042983 11.195297 -14.237781 8.455137 C -14.237781 8.455137 -8.924123 7.457338 -8.924123 7.457338 C -8.512882 10.294897 -7.789965 12.379236 -6.751042 13.710356 C -5.264083 15.589075 -3.484927 16.636656 -1.409246 16.850934 C -1.409246 16.850934 -1.409246 0.029038 -1.409246 0.029038 C -3.582326 -0.382202 -5.803025 -1.221999 -8.073504 -2.494679 C -9.755261 -3.434039 -11.053915 -4.737022 -11.962973 -6.399298 C -12.87203 -8.06374 -13.328723 -9.951117 -13.328723 -12.065758 C -13.328723 -15.823196 -11.997603 -18.866375 -9.335363 -21.195294 C -7.554043 -22.762337 -4.913447 -23.721176 -1.409246 -24.073977 C -1.409246 -24.073977 -1.409246 -26.597694 -1.409246 -26.597694 C -1.409246 -26.597694 1.703195 -26.597694 1.703195 -26.597694 C 1.703195 -26.597694 1.703195 -24.073977 1.703195 -24.073977 C 4.776675 -23.779616 7.211651 -22.879216 9.012451 -21.372777 C 11.321891 -19.452934 12.71145 -16.820995 13.18113 -13.474797 C 13.18113 -13.474797 7.720291 -12.652317 7.720291 -12.652317 C 7.406449 -14.727998 6.757122 -16.318849 5.767981 -17.424869 C 4.781004 -18.528725 3.426075 -19.258136 1.703195 -19.610937 C 1.703195 -19.610937 1.703195 -4.373398 1.703195 -4.373398 C 4.365435 -3.708921 6.125111 -3.189459 6.986551 -2.817178 C 8.631513 -2.094261 9.971291 -1.213341 11.008049 -0.176582 C 12.046972 0.860176 12.84348 2.093898 13.401901 3.522417 C 13.960322 4.950936 14.237369 6.498499 14.237369 8.160775 C 14.237369 11.820815 13.075073 14.874816 10.74399 17.320614 C 8.415071 19.766412 5.402194 21.078052 1.703195 21.255535 C 1.703195 21.255535 1.703195 26.597331 1.703195 26.597331 C 1.703195 26.597331 -1.409246 26.597331 -1.409246 26.597331 Z M -1.409246 -19.669376 C -3.465448 -19.355535 -5.082272 -18.533054 -6.268375 -17.201934 C -7.452315 -15.872978 -8.043202 -14.297278 -8.043202 -12.476998 C -8.043202 -10.676198 -7.541056 -9.16976 -6.532435 -7.955519 C -5.525978 -6.741277 -3.816084 -5.77378 -1.409246 -5.050863 C -1.409246 -5.050863 -1.409246 -19.669376 -1.409246 -19.669376 Z M 1.703195 16.850934 C 3.757232 16.597697 5.456304 15.705954 6.796082 14.180036 C 8.138024 12.651953 8.806831 10.764576 8.806831 8.513576 C 8.806831 6.595898 8.332822 5.054828 7.384805 3.890369 C 6.434623 2.725909 4.540753 1.682657 1.703195 0.762777 C 1.703195 0.762777 1.703195 16.850934 1.703195 16.850934 Z M 1.703195 16.850934 " stroke="#253237" stroke-width="1" stroke-opacity="1" stroke-miterlimit="4"/><path stroke-linecap="butt" transform="matrix(1.804753, 0, 0, 1.804753, 1398.991097, 815.699769)" fill-opacity="1" fill="#ffffff" fill-rule="nonzero" stroke-linejoin="miter" d="M 36.971114 -0.000304754 C 36.971114 20.418862 20.419771 36.97237 0.000604114 36.97237 C -20.418563 36.97237 -36.972071 20.418862 -36.972071 -0.000304754 C -36.972071 -20.419472 -20.418563 -36.972979 0.000604114 -36.972979 C 20.419771 -36.972979 36.971114 -20.419472 36.971114 -0.000304754 Z M 36.971114 -0.000304754 " stroke="#253237" stroke-width="2" stroke-opacity="1" stroke-miterlimit="10"/><path stroke-linecap="butt" transform="matrix(1.804753, 0, 0, 1.804753, 1398.991097, 815.699769)" fill-opacity="1" fill="#ffffff" fill-rule="nonzero" stroke-linejoin="miter" d="M 32.124971 -0.000304754 C 32.124971 17.741471 17.74238 32.124062 0.000604114 32.124062 C -17.741172 32.124062 -32.125927 17.741471 -32.125927 -0.000304754 C -32.125927 -17.742081 -17.741172 -32.124672 0.000604114 -32.124672 C 17.74238 -32.124672 32.124971 -17.742081 32.124971 -0.000304754 Z M 32.124971 -0.000304754 " stroke="#253237" stroke-width="2" stroke-opacity="1" stroke-miterlimit="10"/><path stroke-linecap="butt" transform="matrix(1.804753, 0, 0, 1.804753, 1398.991097, 815.699769)" fill-opacity="1" fill="#253237" fill-rule="nonzero" stroke-linejoin="miter" d="M -1.098923 20.769499 C -1.098923 20.769499 -1.098923 16.644109 -1.098923 16.644109 C -3.163782 16.384378 -4.84121 15.921191 -6.131206 15.256713 C -7.423367 14.592235 -8.538045 13.516517 -9.479569 12.036052 C -10.418928 10.551258 -10.964363 8.7418 -11.118037 6.60335 C -11.118037 6.60335 -6.968838 5.821993 -6.968838 5.821993 C -6.648504 8.038362 -6.081425 9.666009 -5.27193 10.704932 C -4.1118 12.172411 -2.720076 12.990562 -1.098923 13.157223 C -1.098923 13.157223 -1.098923 0.0213395 -1.098923 0.0213395 C -2.79583 -0.298995 -4.531698 -0.95698 -6.30436 -1.948286 C -7.618165 -2.682025 -8.631115 -3.697139 -9.341046 -4.997958 C -10.050977 -6.296611 -10.408106 -7.772748 -10.408106 -9.422038 C -10.408106 -12.356996 -9.367019 -14.731368 -7.289173 -16.551648 C -5.899613 -17.774547 -3.836918 -18.523437 -1.098923 -18.798319 C -1.098923 -18.798319 -1.098923 -20.770108 -1.098923 -20.770108 C -1.098923 -20.770108 1.32956 -20.770108 1.32956 -20.770108 C 1.32956 -20.770108 1.32956 -18.798319 1.32956 -18.798319 C 3.729905 -18.56889 5.632433 -17.865453 7.037143 -16.688007 C 8.842272 -15.190226 9.926648 -13.134024 10.292436 -10.521565 C 10.292436 -10.521565 6.030687 -9.880896 6.030687 -9.880896 C 5.783943 -11.499884 5.277468 -12.742263 4.504768 -13.605868 C 3.732069 -14.469473 2.675831 -15.038716 1.32956 -15.313598 C 1.32956 -15.313598 1.32956 -3.415764 1.32956 -3.415764 C 3.407406 -2.896303 4.783979 -2.491556 5.45495 -2.199359 C 6.740618 -1.634444 7.786034 -0.946158 8.597692 -0.136663 C 9.407187 0.672831 10.030541 1.635999 10.46559 2.750677 C 10.900639 3.867519 11.117081 5.073103 11.117081 6.373921 C 11.117081 9.23096 10.208023 11.613989 8.392072 13.525175 C 6.571793 15.434196 4.219065 16.460133 1.32956 16.598656 C 1.32956 16.598656 1.32956 20.769499 1.32956 20.769499 C 1.32956 20.769499 -1.098923 20.769499 -1.098923 20.769499 Z M -1.098923 -15.359051 C -2.704925 -15.114471 -3.968948 -14.473802 -4.895321 -13.434879 C -5.819529 -12.395956 -6.280552 -11.164399 -6.280552 -9.742373 C -6.280552 -8.335498 -5.886627 -7.160216 -5.100941 -6.212199 C -4.313091 -5.264182 -2.979806 -4.508798 -1.098923 -3.943884 C -1.098923 -3.943884 -1.098923 -15.359051 -1.098923 -15.359051 Z M 1.32956 13.157223 C 2.935562 12.958096 4.260189 12.263316 5.307769 11.072884 C 6.353186 9.880286 6.876976 8.406314 6.876976 6.648803 C 6.876976 5.151022 6.50686 3.947603 5.766627 3.038545 C 5.02423 2.129488 3.545929 1.3135 1.32956 0.594912 C 1.32956 0.594912 1.32956 13.157223 1.32956 13.157223 Z M 1.32956 13.157223 " stroke="#253237" stroke-width="1" stroke-opacity="1" stroke-miterlimit="4"/></svg>