<svg width="3710" height="3710" viewBox="0 0 3710 3710" fill="none" xmlns="http://www.w3.org/2000/svg">
<path d="M2906.61 2850.49C2849.63 2910.47 2795.73 2949.15 2753.13 2979.71C2252.47 3338.94 1660.05 3234.23 1534.14 3208.65C1348.22 3170.89 988.834 3097.9 729.005 2792.35C335.905 2330.07 397.116 1601.76 702.031 1121C757.805 1033.06 1052.42 544.97 1651.22 466.696C2013.61 419.325 2436.03 514.866 2741.94 771.158C3384.08 1309.14 3338.36 2395.95 2906.61 2850.49Z" fill="url(#paint0_linear_48_577)"/>
<path d="M2420.29 2584.52C2839.82 2164.99 2839.82 1484.8 2420.29 1065.26C2000.76 645.732 1320.56 645.732 901.032 1065.26C481.501 1484.8 481.501 2164.99 901.032 2584.52C1320.56 3004.05 2000.76 3004.05 2420.29 2584.52Z" fill="#BDD0FB"/>
<path d="M1660.69 2741.76C2167.06 2741.76 2577.55 2331.26 2577.55 1824.89C2577.55 1318.52 2167.06 908.029 1660.69 908.029C1154.32 908.029 743.822 1318.52 743.822 1824.89C743.822 2331.26 1154.32 2741.76 1660.69 2741.76Z" fill="url(#paint1_linear_48_577)"/>
<path d="M1660.68 2787.68C1129.81 2787.68 697.9 2355.78 697.9 1824.89C697.9 1294.01 1129.81 862.105 1660.68 862.105C2191.56 862.105 2623.47 1294.01 2623.47 1824.89C2623.47 2355.78 2191.56 2787.68 1660.68 2787.68ZM1660.68 908.029C1155.13 908.029 743.825 1319.33 743.825 1824.89C743.825 2330.46 1155.13 2741.76 1660.68 2741.76C2166.24 2741.76 2577.54 2330.46 2577.54 1824.89C2577.54 1319.33 2166.24 908.029 1660.68 908.029Z" fill="white"/>
<path d="M1660.69 2383.86C1969.39 2383.86 2219.65 2133.6 2219.65 1824.89C2219.65 1516.19 1969.39 1265.93 1660.69 1265.93C1351.98 1265.93 1101.72 1516.19 1101.72 1824.89C1101.72 2133.6 1351.98 2383.86 1660.69 2383.86Z" fill="url(#paint2_linear_48_577)"/>
<path d="M1660.68 2429.78C1327.15 2429.78 1055.8 2158.43 1055.8 1824.89C1055.8 1491.36 1327.15 1220.01 1660.68 1220.01C1994.22 1220.01 2265.57 1491.36 2265.57 1824.89C2265.57 2158.43 1994.22 2429.78 1660.68 2429.78ZM1660.68 1311.85C1377.79 1311.85 1147.64 1542 1147.64 1824.89C1147.64 2107.79 1377.79 2337.94 1660.68 2337.94C1943.58 2337.94 2173.73 2107.79 2173.73 1824.89C2173.73 1542 1943.58 1311.85 1660.68 1311.85Z" fill="white"/>
<path d="M1660.69 2041.45C1780.29 2041.45 1877.24 1944.5 1877.24 1824.89C1877.24 1705.29 1780.29 1608.33 1660.69 1608.33C1541.08 1608.33 1444.13 1705.29 1444.13 1824.89C1444.13 1944.5 1541.08 2041.45 1660.69 2041.45Z" fill="url(#paint3_linear_48_577)"/>
<path d="M1660.68 2087.38C1515.95 2087.38 1398.2 1969.63 1398.2 1824.89C1398.2 1680.16 1515.95 1562.41 1660.68 1562.41C1805.42 1562.41 1923.17 1680.16 1923.17 1824.89C1923.17 1969.63 1805.42 2087.38 1660.68 2087.38ZM1660.68 1654.25C1566.6 1654.25 1490.05 1730.8 1490.05 1824.89C1490.05 1918.99 1566.6 1995.53 1660.68 1995.53C1754.77 1995.53 1831.33 1918.99 1831.33 1824.89C1831.32 1730.8 1754.77 1654.25 1660.68 1654.25Z" fill="white"/>
<path d="M2685.75 802.602L2708.56 825.412L1844.81 1689.16L1822 1666.35L2685.75 802.602Z" fill="url(#paint4_linear_48_577)"/>
<path d="M1838.15 1611.31C1851.24 1598.23 1912.93 1659.92 1899.85 1673L1671.03 1852.88C1662.58 1859.53 1651.63 1848.58 1658.27 1840.12L1838.15 1611.31Z" fill="url(#paint5_linear_48_577)"/>
<path d="M2708.06 825.904L2824.26 837.453L2664.74 996.975C2612.48 1049.24 2539.52 1075.31 2465.97 1068L2708.06 825.904Z" fill="#91B3FA"/>
<path d="M2685.25 803.096L2673.7 686.895L2514.18 846.416C2461.91 898.682 2435.85 971.634 2443.16 1045.19L2685.25 803.096Z" fill="#91B3FA"/>
<g opacity="0.3">
<path d="M1090.59 642.25C1087.34 645.497 1082.08 645.494 1078.83 642.247C1072.53 635.939 1065.85 629.81 1059 624.032C1055.53 621.108 1055.05 615.953 1057.9 612.444C1057.93 612.402 1057.96 612.361 1058 612.318C1060.96 608.808 1066.2 608.362 1069.71 611.321C1076.93 617.404 1083.96 623.855 1090.59 630.496C1093.63 633.532 1093.82 638.335 1091.18 641.598C1090.99 641.824 1090.8 642.043 1090.59 642.25ZM1023.7 598.196C1016.12 593.408 1008.27 588.9 1000.35 584.791C996.28 582.678 994.688 577.661 996.801 573.585C998.937 569.502 1003.93 567.921 1008.01 570.036C1016.34 574.357 1024.61 579.103 1032.58 584.139C1036.46 586.591 1037.62 591.727 1035.16 595.608C1034.99 595.89 1034.79 596.158 1034.59 596.41C1031.97 599.637 1027.3 600.47 1023.7 598.196ZM960.235 567.406C951.807 564.433 943.147 561.791 934.491 559.552C930.047 558.403 927.376 553.867 928.525 549.423C929.678 544.984 934.209 542.31 938.655 543.457C947.77 545.815 956.892 548.598 965.766 551.729C970.095 553.256 972.366 558.004 970.841 562.334C970.515 563.257 970.043 564.086 969.46 564.805C967.308 567.457 963.641 568.608 960.235 567.406ZM891.481 551.583C882.59 550.567 873.553 549.928 864.618 549.677C860.029 549.547 856.412 545.722 856.541 541.135C856.674 536.547 860.498 532.934 865.083 533.058C874.491 533.323 884.006 533.998 893.362 535.063C897.922 535.584 901.199 539.703 900.679 544.264C900.493 545.896 899.846 547.364 898.883 548.552C897.154 550.684 894.409 551.915 891.481 551.583ZM820.914 551.472C812.042 552.454 803.084 553.83 794.295 555.566C789.789 556.453 785.419 553.522 784.53 549.018C783.64 544.511 786.574 540.141 791.078 539.256C800.324 537.431 809.75 535.983 819.086 534.95C823.648 534.444 827.757 537.733 828.261 542.297C828.516 544.596 827.807 546.78 826.457 548.446C825.128 550.085 823.178 551.221 820.914 551.472ZM752.083 566.977C743.635 569.901 735.209 573.224 727.036 576.856C722.841 578.72 717.927 576.83 716.065 572.637C714.2 568.441 716.087 563.53 720.284 561.664C728.884 557.841 737.756 554.344 746.646 551.267C750.985 549.767 755.717 552.066 757.22 556.404C758.196 559.222 757.566 562.206 755.816 564.364C754.872 565.527 753.605 566.451 752.083 566.977ZM540.056 791.309C535.614 790.153 532.949 785.613 534.106 781.17C536.477 772.069 539.278 762.948 542.431 754.063C543.967 749.736 548.719 747.473 553.045 749.01C557.37 750.543 559.632 755.296 558.098 759.621C555.104 768.057 552.446 776.718 550.195 785.361C549.886 786.547 549.338 787.604 548.613 788.499C546.623 790.952 543.313 792.158 540.056 791.309ZM688.439 597.335C680.857 602.062 673.388 607.175 666.24 612.537C662.565 615.29 657.355 614.546 654.601 610.873C651.845 607.198 652.607 602.006 656.266 599.235C663.794 593.59 671.66 588.205 679.645 583.227C683.541 580.799 688.667 581.987 691.097 585.884C693.023 588.973 692.673 592.839 690.502 595.517C689.936 596.216 689.244 596.832 688.439 597.335ZM564.351 723.057C560.281 720.936 558.701 715.914 560.823 711.843C565.171 703.506 569.937 695.245 574.983 687.289C577.428 683.398 582.579 682.266 586.456 684.723C590.331 687.182 591.48 692.318 589.021 696.196C584.224 703.756 579.695 711.606 575.565 719.531C575.302 720.037 574.991 720.502 574.646 720.928C572.208 723.935 567.915 724.916 564.351 723.057ZM633.187 641.148C626.858 647.449 620.717 654.105 614.936 660.937C611.971 664.444 606.727 664.88 603.221 661.914C599.763 658.987 599.292 653.84 602.132 650.337C602.169 650.292 602.207 650.245 602.246 650.202C608.33 643.008 614.794 635.999 621.454 629.367C624.71 626.13 629.972 626.141 633.212 629.394C636.237 632.432 636.426 637.227 633.784 640.485C633.598 640.712 633.398 640.934 633.187 641.148Z" fill="#91B3FA"/>
<path d="M539.073 846.082C540.104 844.811 540.773 843.223 540.902 841.466C541.216 837.191 541.627 832.854 542.117 828.568C542.641 824.008 539.367 819.885 534.808 819.363C530.247 818.838 526.119 822.11 525.603 826.674C525.085 831.18 524.654 835.743 524.322 840.241C523.984 844.818 527.423 848.806 531.999 849.142C534.821 849.352 537.417 848.125 539.073 846.082Z" fill="#91B3FA"/>
</g>
<g opacity="0.3">
<path d="M620.605 1086.03C623.132 1082.92 623.096 1078.34 620.333 1075.26C617.473 1072.07 614.631 1068.76 611.89 1065.44C608.969 1061.89 603.73 1061.39 600.188 1064.31C596.631 1067.24 596.142 1072.47 599.061 1076.01C601.949 1079.51 604.941 1082.99 607.951 1086.35C611.015 1089.77 616.27 1090.06 619.69 1087C620.025 1086.7 620.33 1086.37 620.605 1086.03Z" fill="#91B3FA"/>
<path d="M1102.53 1086.77C1099.47 1090.19 1094.21 1090.48 1090.79 1087.42C1087.37 1084.35 1087.08 1079.11 1090.14 1075.68C1095.97 1069.17 1101.62 1062.31 1106.98 1055.21C1109.73 1051.56 1114.97 1050.83 1118.63 1053.6C1122.29 1056.37 1123.01 1061.58 1120.24 1065.24C1117.92 1068.32 1115.55 1071.34 1113.14 1074.31C1109.71 1078.55 1106.14 1082.74 1102.53 1086.77ZM1133.74 1030.52C1129.74 1028.27 1128.32 1023.2 1130.57 1019.2C1134.89 1011.52 1138.93 1003.57 1142.58 995.574C1144.47 991.397 1149.41 989.556 1153.59 991.461C1157.76 993.366 1159.6 998.297 1157.7 1002.47C1153.86 1010.89 1149.61 1019.26 1145.06 1027.34C1144.83 1027.76 1144.56 1028.15 1144.27 1028.51C1141.76 1031.6 1137.33 1032.53 1133.74 1030.52ZM1070.07 1118.37C1063.02 1124.35 1055.61 1130.11 1048.06 1135.49C1044.32 1138.15 1039.13 1137.28 1036.46 1133.54C1033.8 1129.8 1034.68 1124.62 1038.41 1121.95C1045.59 1116.84 1052.62 1111.37 1059.32 1105.69C1062.82 1102.72 1068.06 1103.15 1071.04 1106.65C1073.66 1109.75 1073.63 1114.21 1071.16 1117.25C1070.84 1117.65 1070.48 1118.02 1070.07 1118.37ZM1163.29 965.638C1158.89 964.324 1156.39 959.691 1157.71 955.293C1160.23 946.862 1162.42 938.222 1164.22 929.615C1165.16 925.117 1169.56 922.239 1174.05 923.18C1178.55 924.119 1181.43 928.521 1180.49 933.014C1178.59 942.079 1176.29 951.178 1173.63 960.055C1173.31 961.127 1172.8 962.089 1172.13 962.908C1170.07 965.447 1166.61 966.632 1163.29 965.638ZM1009.47 1159.15C1001.28 1163.43 992.791 1167.42 984.238 1171.01C980.005 1172.79 975.136 1170.8 973.358 1166.56C971.579 1162.33 973.572 1157.46 977.805 1155.68C985.929 1152.27 993.992 1148.48 1001.77 1144.42C1005.84 1142.29 1010.86 1143.86 1012.99 1147.93C1014.57 1150.96 1014.1 1154.52 1012.08 1157.02C1011.38 1157.88 1010.51 1158.61 1009.47 1159.15ZM941.394 1185.65C932.444 1188.05 923.288 1190.09 914.182 1191.73C909.662 1192.54 905.342 1189.53 904.529 1185.02C903.717 1180.49 906.721 1176.17 911.241 1175.37C919.893 1173.81 928.594 1171.87 937.1 1169.6C941.535 1168.41 946.091 1171.04 947.278 1175.48C947.991 1178.15 947.318 1180.87 945.7 1182.87C944.632 1184.18 943.155 1185.18 941.394 1185.65ZM869.156 1196.69C859.892 1197.08 850.508 1197.08 841.269 1196.7C836.68 1196.5 833.12 1192.63 833.31 1188.04C833.502 1183.45 837.377 1179.89 841.961 1180.09C850.742 1180.45 859.655 1180.45 868.461 1180.08C873.048 1179.89 876.922 1183.46 877.113 1188.04C877.202 1190.15 876.499 1192.1 875.268 1193.62C873.817 1195.41 871.636 1196.59 869.156 1196.69ZM796.231 1191.71C787.108 1190.07 777.949 1188.01 769.009 1185.6C764.577 1184.4 761.951 1179.84 763.146 1175.41C764.339 1170.98 768.904 1168.35 773.336 1169.55C781.823 1171.83 790.519 1173.79 799.187 1175.35C803.704 1176.17 806.705 1180.49 805.889 1185.01C805.631 1186.43 805.024 1187.71 804.171 1188.76C802.323 1191.04 799.323 1192.27 796.231 1191.71ZM726.146 1170.82C717.631 1167.21 709.157 1163.19 700.958 1158.86C696.897 1156.72 695.339 1151.69 697.482 1147.63C699.618 1143.59 704.649 1142.02 708.711 1144.16C716.499 1148.27 724.548 1152.08 732.636 1155.51C736.862 1157.3 738.836 1162.18 737.045 1166.41C736.733 1167.14 736.329 1167.81 735.849 1168.4C733.574 1171.21 729.636 1172.3 726.146 1170.82ZM662.426 1135.08C656.88 1131.12 651.388 1126.94 646.104 1122.65C644.19 1121.1 642.301 1119.53 640.43 1117.95C636.93 1114.98 636.391 1109.72 639.465 1106.23C642.431 1102.73 647.677 1102.3 651.181 1105.27C652.958 1106.77 654.756 1108.27 656.575 1109.74C661.599 1113.81 666.817 1117.79 672.09 1121.55C675.825 1124.22 676.69 1129.41 674.022 1133.15C673.921 1133.29 673.818 1133.43 673.711 1133.56C670.964 1136.94 666.02 1137.65 662.426 1135.08Z" fill="#91B3FA"/>
<path d="M1184.87 892.579C1185.92 891.295 1186.58 889.692 1186.71 887.92C1187.02 883.43 1187.24 878.849 1187.36 874.304C1187.49 869.714 1183.87 865.892 1179.28 865.767C1174.69 865.643 1170.87 869.255 1170.74 873.848C1170.62 878.166 1170.41 882.517 1170.12 886.78C1169.8 891.357 1173.26 895.327 1177.84 895.642C1180.65 895.834 1183.23 894.609 1184.87 892.579Z" fill="#91B3FA"/>
</g>
<path d="M1091.37 785.042C1091.03 783.419 1089.7 782.188 1088.06 781.979L1041.15 775.99C1031.85 755.966 1019.28 737.282 1003.62 720.816L1015.23 675.011C1015.64 673.404 1014.98 671.716 1013.59 670.807L966.161 639.71C964.775 638.8 962.964 638.871 961.654 639.885L924.276 668.798C902.931 661.001 880.785 656.924 858.71 656.372L834.516 615.746C833.668 614.322 832.009 613.593 830.387 613.931L774.858 625.48C773.236 625.817 772.005 627.147 771.796 628.792L765.808 675.696C745.783 685.004 727.099 697.572 710.634 713.235L664.829 701.623C663.222 701.215 661.534 701.872 660.626 703.258L629.527 750.69C628.618 752.076 628.69 753.886 629.703 755.197L658.616 792.574C650.818 813.919 646.742 836.066 646.191 858.141L605.565 882.334C604.141 883.182 603.411 884.841 603.75 886.464L615.299 941.992C615.636 943.614 616.967 944.845 618.61 945.055L665.515 951.043C674.822 971.068 687.391 989.751 703.053 1006.22L691.442 1052.02C691.034 1053.63 691.691 1055.32 693.077 1056.23L740.509 1087.32C741.895 1088.23 743.705 1088.16 745.016 1087.15L782.393 1058.23C803.738 1066.03 825.884 1070.11 847.959 1070.66L872.153 1111.29C873 1112.71 874.658 1113.44 876.282 1113.1L931.811 1101.55C933.433 1101.21 934.663 1099.89 934.873 1098.24L940.861 1051.34C960.886 1042.03 979.569 1029.46 996.035 1013.8L1041.84 1025.41C1043.45 1025.82 1045.13 1025.16 1046.04 1023.78L1077.14 976.343C1078.05 974.957 1077.98 973.147 1076.97 971.836L1048.05 934.46C1055.85 913.115 1059.93 890.969 1060.48 868.894L1101.1 844.701C1102.53 843.853 1103.26 842.193 1102.92 840.571L1091.37 785.042Z" fill="#91B3FA"/>
<path d="M891.909 905.495C868.762 926.765 832.627 925.24 811.354 902.092C801.049 890.88 795.728 876.325 796.372 861.11C797.013 845.898 803.54 831.842 814.757 821.539C837.905 800.269 874.039 801.794 895.312 824.942C914.663 846.001 915.147 877.808 897.644 899.395C895.91 901.536 893.996 903.577 891.909 905.495ZM809.661 861.673C809.168 873.339 813.247 884.497 821.149 893.096C837.457 910.841 865.165 912.013 882.911 895.704C900.668 879.396 901.828 851.688 885.519 833.94C869.211 816.195 841.503 815.023 823.757 831.332C822.148 832.811 820.668 834.389 819.316 836.056C813.446 843.296 810.062 852.192 809.661 861.673Z" fill="#BDD0FB"/>
<path d="M960.872 952.159C963.878 948.452 966.715 944.571 969.368 940.526C970.204 939.253 971.018 937.965 971.812 936.666C975.726 930.256 979.123 923.545 981.953 916.637C981.992 916.543 982.03 916.449 982.069 916.355C982.177 916.088 982.285 915.82 982.391 915.55C982.601 915.028 982.804 914.504 983.007 913.98C983.539 912.602 983.091 911.087 982.003 910.202C981.738 909.987 981.435 909.81 981.1 909.681C979.387 909.02 977.466 909.878 976.803 911.588C973.404 920.405 969.031 928.913 963.806 936.878C937.868 976.454 894.346 997.713 850.213 997.146C825.665 996.834 800.928 989.765 778.92 975.334C775.06 972.805 771.356 970.098 767.821 967.23C744.024 947.932 727.724 921.258 721.402 890.858C714.138 855.938 720.908 820.278 740.464 790.451C780.859 728.853 863.778 711.625 925.35 751.995C929.147 754.484 932.803 757.156 936.305 759.998C951.484 772.309 963.8 787.805 972.316 805.416C972.537 805.871 972.845 806.253 973.215 806.55C974.184 807.335 975.559 807.541 976.757 806.961C978.409 806.156 979.107 804.176 978.302 802.519C969.362 784.03 956.432 767.759 940.496 754.835C936.82 751.852 932.982 749.048 928.998 746.434C864.353 704.049 777.272 722.181 734.902 786.803C714.371 818.117 707.265 855.551 714.891 892.211C721.527 924.127 738.64 952.128 763.621 972.389C767.334 975.399 771.221 978.24 775.271 980.896C806.588 1001.43 844.022 1008.53 880.681 1000.91C912.605 994.27 940.611 977.149 960.872 952.159Z" fill="#BDD0FB"/>
<g opacity="0.3">
<path d="M1439.98 559.219C1441.37 557.494 1441.54 554.992 1440.21 553.071C1437.74 549.484 1435.12 545.922 1432.43 542.486C1430.68 540.254 1427.46 539.86 1425.22 541.606C1422.98 543.347 1422.6 546.58 1424.34 548.813C1426.9 552.087 1429.4 555.481 1431.76 558.904C1433.37 561.236 1436.57 561.822 1438.9 560.214C1439.32 559.928 1439.67 559.591 1439.98 559.219Z" fill="#91B3FA"/>
<path d="M1414.31 529.302C1412.3 531.31 1409.06 531.319 1407.04 529.317C1401.97 524.271 1396.58 519.425 1391.02 514.919C1389.85 513.969 1388.66 513.029 1387.46 512.097C1385.23 510.358 1384.82 507.133 1386.56 504.893C1388.29 502.841 1391.52 502.25 1393.76 503.988C1395.02 504.964 1396.26 505.948 1397.49 506.942C1403.31 511.666 1408.97 516.746 1414.29 522.04C1416.17 523.912 1416.3 526.886 1414.66 528.907C1414.55 529.043 1414.43 529.173 1414.31 529.302ZM1365.93 497.389C1358.48 492.94 1350.69 488.912 1342.78 485.421C1340.18 484.275 1339.01 481.249 1340.15 478.652C1341.29 476.073 1344.33 474.881 1346.92 476.027C1355.22 479.685 1363.39 483.907 1371.2 488.574C1373.63 490.028 1374.43 493.181 1372.97 495.617C1372.85 495.83 1372.7 496.032 1372.55 496.221C1370.97 498.172 1368.15 498.714 1365.93 497.389ZM1318.31 476.407C1310.01 473.922 1301.47 471.934 1292.91 470.495C1290.12 470.024 1288.23 467.375 1288.71 464.581C1289.18 461.776 1291.82 459.896 1294.62 460.369C1303.59 461.877 1312.55 463.966 1321.25 466.568C1323.97 467.382 1325.51 470.243 1324.7 472.959C1324.5 473.62 1324.18 474.213 1323.77 474.719C1322.5 476.287 1320.36 477.02 1318.31 476.407ZM1266.99 467.767C1258.32 467.393 1249.54 467.554 1240.92 468.25C1238.09 468.476 1235.62 466.37 1235.39 463.544C1235.17 460.725 1237.27 458.244 1240.1 458.014C1249.14 457.286 1258.34 457.117 1267.43 457.509C1270.26 457.63 1272.46 460.029 1272.34 462.862C1272.28 464.003 1271.87 465.042 1271.2 465.868C1270.21 467.088 1268.68 467.841 1266.99 467.767ZM1215.11 471.92C1206.61 473.665 1198.15 475.952 1189.94 478.716C1187.26 479.622 1184.34 478.177 1183.44 475.489C1182.53 472.802 1183.97 469.887 1186.66 468.985C1195.26 466.087 1204.14 463.691 1213.04 461.859C1215.82 461.291 1218.53 463.078 1219.1 465.854C1219.42 467.423 1218.99 468.972 1218.06 470.125C1217.34 471.014 1216.32 471.67 1215.11 471.92ZM1165.81 488.54C1158 492.295 1150.36 496.573 1143.08 501.259C1140.7 502.794 1137.52 502.107 1135.99 499.725C1134.46 497.342 1135.14 494.175 1137.52 492.626C1145.15 487.712 1153.17 483.224 1161.36 479.285C1163.92 478.059 1166.98 479.132 1168.21 481.686C1169.1 483.536 1168.78 485.655 1167.57 487.148C1167.11 487.718 1166.52 488.2 1165.81 488.54ZM1122.09 516.7C1115.46 522.239 1109.1 528.268 1103.17 534.625C1101.23 536.695 1097.98 536.808 1095.91 534.873C1093.84 532.941 1093.76 529.723 1095.66 527.614C1101.88 520.955 1108.55 514.632 1115.5 508.823C1117.68 507.006 1120.92 507.295 1122.74 509.47C1124.34 511.383 1124.3 514.122 1122.79 515.991C1122.58 516.243 1122.35 516.482 1122.09 516.7ZM1065.61 578.749C1063.13 577.376 1062.23 574.254 1063.61 571.772C1067.41 564.904 1071.65 558.126 1076.2 551.644C1076.89 550.655 1077.59 549.681 1078.29 548.71C1079.88 546.38 1083.17 545.908 1085.46 547.584C1087.76 549.253 1088.26 552.462 1086.59 554.757C1085.93 555.664 1085.27 556.583 1084.62 557.526C1080.26 563.729 1076.21 570.194 1072.59 576.743C1072.44 577.013 1072.27 577.265 1072.08 577.495C1070.54 579.394 1067.82 579.973 1065.61 578.749Z" fill="#91B3FA"/>
</g>
<g opacity="0.3">
<path d="M1427.96 821.093C1422.23 827.97 1416.03 834.554 1409.54 840.672C1407.48 842.613 1404.23 842.519 1402.29 840.454C1400.34 838.388 1400.47 835.146 1402.5 833.195C1408.7 827.365 1414.6 821.082 1420.06 814.521C1421.88 812.341 1425.12 812.047 1427.29 813.86C1429.45 815.66 1429.76 818.861 1428 821.038C1427.99 821.056 1427.97 821.075 1427.96 821.093ZM1436.79 800.949C1434.41 799.41 1433.73 796.23 1435.27 793.852C1439.9 786.69 1444.15 779.176 1447.89 771.516C1449.13 768.987 1452.2 767.91 1454.75 769.159C1457.3 770.402 1458.36 773.473 1457.11 776.023C1453.19 784.05 1448.75 791.925 1443.89 799.428C1443.79 799.587 1443.68 799.735 1443.56 799.879C1441.93 801.889 1439.02 802.389 1436.79 800.949ZM1388.87 857.879C1381.65 863.171 1374.05 868.068 1366.27 872.431C1363.8 873.818 1360.67 872.936 1359.28 870.465C1357.89 867.992 1358.77 864.876 1361.24 863.475C1368.66 859.314 1375.92 854.644 1382.81 849.598C1385.1 847.922 1388.31 848.419 1389.98 850.702C1391.39 852.626 1391.26 855.202 1389.83 856.97C1389.56 857.305 1389.24 857.611 1388.87 857.879ZM1460.88 754.352C1458.2 753.43 1456.78 750.507 1457.7 747.827C1460.48 739.763 1462.78 731.45 1464.55 723.113C1465.14 720.344 1467.87 718.573 1470.64 719.157C1473.41 719.748 1475.18 722.473 1474.59 725.247C1472.74 733.99 1470.32 742.713 1467.41 751.169C1467.21 751.753 1466.91 752.278 1466.54 752.731C1465.22 754.358 1462.98 755.072 1460.88 754.352ZM1342.08 884.121C1333.81 887.514 1325.26 890.434 1316.64 892.807C1313.91 893.56 1311.08 891.951 1310.33 889.218C1309.57 886.484 1311.18 883.656 1313.92 882.904C1322.14 880.646 1330.3 877.858 1338.18 874.619C1340.8 873.543 1343.8 874.794 1344.88 877.421C1345.61 879.217 1345.26 881.195 1344.11 882.607C1343.59 883.251 1342.9 883.782 1342.08 884.121ZM1290.34 898.372C1281.49 899.689 1272.48 900.479 1263.56 900.724C1260.73 900.802 1258.37 898.57 1258.29 895.735C1258.21 892.904 1260.45 890.539 1263.28 890.462C1271.79 890.228 1280.39 889.472 1288.83 888.215C1291.64 887.797 1294.25 889.734 1294.67 892.538C1294.89 894.019 1294.45 895.448 1293.58 896.529C1292.79 897.49 1291.66 898.175 1290.34 898.372ZM1236.68 899.827C1227.76 898.987 1218.82 897.591 1210.11 895.682C1207.33 895.073 1205.58 892.337 1206.19 889.567C1206.79 886.798 1209.54 885.048 1212.3 885.651C1220.61 887.475 1229.14 888.805 1237.64 889.601C1240.47 889.867 1242.54 892.372 1242.27 895.195C1242.18 896.244 1241.77 897.185 1241.15 897.944C1240.11 899.231 1238.46 899.992 1236.68 899.827Z" fill="#91B3FA"/>
<path d="M1477.47 701.19C1478.1 700.421 1478.5 699.464 1478.6 698.403C1478.98 694.025 1479.23 689.617 1479.35 685.298C1479.42 682.465 1477.19 680.102 1474.35 680.023C1471.52 679.954 1469.16 682.182 1469.08 685.016C1468.97 689.134 1468.73 693.34 1468.37 697.518C1468.12 700.343 1470.21 702.832 1473.04 703.075C1474.8 703.226 1476.43 702.47 1477.47 701.19Z" fill="#91B3FA"/>
</g>
<path d="M1415.54 625.578C1415.31 624.492 1414.42 623.669 1413.32 623.529L1381.94 619.521C1375.71 606.122 1367.3 593.62 1356.82 582.602L1364.59 551.951C1364.86 550.876 1364.42 549.747 1363.49 549.138L1331.75 528.329C1330.83 527.72 1329.61 527.768 1328.74 528.446L1303.73 547.794C1289.44 542.576 1274.62 539.848 1259.85 539.479L1243.66 512.294C1243.09 511.341 1241.98 510.853 1240.9 511.079L1203.74 518.807C1202.66 519.033 1201.83 519.923 1201.69 521.023L1197.69 552.408C1184.29 558.637 1171.78 567.047 1160.77 577.528L1130.11 569.758C1129.04 569.486 1127.91 569.925 1127.3 570.852L1106.49 602.592C1105.88 603.52 1105.93 604.731 1106.61 605.608L1125.96 630.619C1120.74 644.902 1118.01 659.721 1117.64 674.493L1090.46 690.682C1089.5 691.249 1089.02 692.359 1089.24 693.445L1096.97 730.603C1097.2 731.688 1098.09 732.511 1099.19 732.652L1130.57 736.66C1136.8 750.059 1145.21 762.562 1155.69 773.58L1147.92 804.231C1147.65 805.306 1148.09 806.435 1149.02 807.044L1180.76 827.854C1181.68 828.462 1182.89 828.415 1183.77 827.736L1208.78 808.389C1223.06 813.607 1237.88 816.335 1252.66 816.704L1268.84 843.889C1269.41 844.842 1270.52 845.33 1271.61 845.104L1308.76 837.376C1309.85 837.15 1310.67 836.26 1310.81 835.16L1314.82 803.774C1328.22 797.546 1340.72 789.135 1351.74 778.655L1382.39 786.425C1383.47 786.697 1384.6 786.258 1385.21 785.33L1406.01 753.591C1406.62 752.664 1406.58 751.452 1405.9 750.575L1386.55 725.564C1391.77 711.281 1394.49 696.461 1394.86 681.69L1422.05 665.5C1423 664.933 1423.49 663.823 1423.26 662.737L1415.54 625.578Z" fill="#91B3FA"/>
<path d="M1282.53 706.683C1274.9 713.706 1264.98 717.331 1254.62 716.891C1244.25 716.455 1234.68 712.008 1227.66 704.368C1213.17 688.603 1214.22 664.031 1229.98 649.495C1245.75 635.009 1270.36 636.05 1284.85 651.814C1291.87 659.451 1295.49 669.365 1295.05 679.729C1294.7 688.153 1291.69 696.056 1286.48 702.489C1285.28 703.967 1283.96 705.37 1282.53 706.683ZM1235.22 697.419C1240.38 703.039 1247.43 706.311 1255.05 706.634C1262.67 706.955 1269.97 704.288 1275.58 699.126C1281.2 693.956 1284.47 686.921 1284.8 679.295C1285.12 671.674 1282.45 664.38 1277.29 658.764C1266.63 647.167 1248.53 646.401 1236.93 657.056C1235.88 658.019 1234.92 659.04 1234.05 660.113C1225.28 670.929 1225.53 686.87 1235.22 697.419Z" fill="#BDD0FB"/>
<path d="M1330.53 739.159C1332.58 736.635 1334.51 733.988 1336.33 731.217C1339.94 725.712 1343 719.834 1345.42 713.73C1345.52 713.455 1345.63 713.18 1345.74 712.905C1346.56 710.777 1345.87 708.438 1344.19 707.072C1343.78 706.741 1343.31 706.467 1342.79 706.268C1340.15 705.247 1337.19 706.576 1336.16 709.212C1333.95 714.932 1331.12 720.439 1327.75 725.583L1327.74 725.585C1327.56 725.868 1327.37 726.149 1327.18 726.428C1319.08 738.529 1308.27 748.153 1295.71 754.737C1288.88 758.31 1281.54 760.985 1273.82 762.663C1273.76 762.677 1273.7 762.69 1273.63 762.704C1273.44 762.744 1273.25 762.787 1273.06 762.825C1250.45 767.525 1227.36 763.144 1208.06 750.483C1205.56 748.846 1203.16 747.095 1200.87 745.238C1185.47 732.745 1174.91 715.476 1170.82 695.793C1166.12 673.186 1170.5 650.104 1183.16 630.796C1195.82 611.504 1215.25 598.263 1237.85 593.557C1260.46 588.857 1283.54 593.238 1302.85 605.899C1305.31 607.508 1307.68 609.24 1309.94 611.077C1319.77 619.049 1327.74 629.078 1333.25 640.479C1333.59 641.181 1334.07 641.771 1334.64 642.23C1336.14 643.443 1338.26 643.761 1340.11 642.865C1342.66 641.624 1343.73 638.563 1342.5 636.005C1336.33 623.249 1327.41 612.024 1316.42 603.107C1313.88 601.048 1311.23 599.113 1308.48 597.311C1286.88 583.146 1261.05 578.243 1235.76 583.504C1210.47 588.766 1188.73 603.538 1174.58 625.162C1160.41 646.765 1155.51 672.589 1160.77 697.884C1165.35 719.903 1177.15 739.222 1194.39 753.199C1196.95 755.273 1199.63 757.235 1202.42 759.067C1244.25 786.489 1299.69 777.203 1330.53 739.159Z" fill="#BDD0FB"/>
<path d="M813.574 3164.23C813.574 3164.23 807.793 3195.23 804.811 3225.94C803.645 3237.94 812.806 3248.46 824.85 3249.08C865.766 3251.17 953.29 3255.32 984.722 3254.22C989.447 3254.06 992.581 3249.25 990.875 3244.84C989.445 3241.15 986.649 3238.14 983.064 3236.45L839.072 3168.6L813.574 3164.23Z" fill="url(#paint6_linear_48_577)"/>
<path d="M809.255 3145.94L813.307 3183.13C813.307 3183.13 838.529 3195.16 855.958 3182.05L845.862 3140.56L809.255 3145.94Z" fill="url(#paint7_linear_48_577)"/>
<path d="M819.228 2447.72C817.233 2457.4 804.394 2931.63 853.065 3144.66C853.859 3148.14 852.067 3151.7 848.754 3153.02C840.947 3156.12 825.659 3160.57 807.383 3161.01C801.724 3161.15 796.686 3157.42 795.141 3151.98C781.119 3102.52 714.031 2854.78 707.224 2618.66C699.617 2354.81 707.31 2609.68 707.31 2609.68L714.802 2446.7L819.228 2447.72Z" fill="url(#paint8_linear_48_577)"/>
<path d="M647.051 3178.84C647.051 3178.84 638.17 3194.43 629.321 3236.01C627.723 3243.51 632.91 3250.76 640.542 3251.59C654.046 3253.05 674.836 3254.95 691.505 3255C699.188 3255.02 705.248 3248.39 704.396 3240.75C702.695 3225.53 697.181 3200.53 679.599 3180.92L647.051 3178.84Z" fill="url(#paint9_linear_48_577)"/>
<path d="M639.839 3131L649.599 3187.26C649.599 3187.26 659.708 3194.93 679.9 3189.63L675.561 3129.16L639.839 3131Z" fill="url(#paint10_linear_48_577)"/>
<path d="M618.417 2460.36C574.564 2710.21 621.511 3078.96 637.842 3151.2C638.842 3155.62 642.371 3159.03 646.837 3159.82C654.421 3161.15 666.918 3162.3 679.282 3158.83C683.542 3157.64 686.563 3153.84 686.778 3149.42C689.617 3091.17 688.921 2733.39 728.906 2592.38C730.932 2585.23 735.367 2579.02 741.462 2574.78L816.961 2522.18L823.533 2436.06L618.417 2460.36Z" fill="url(#paint11_linear_48_577)"/>
<path d="M887.162 1988.7C762.917 1985.47 625.474 2018.84 625.474 2018.84C586.371 2234.62 614.557 2484.2 614.557 2484.2C710.519 2510.35 819.429 2470.73 819.429 2470.73C836.281 2380.55 913.31 2127.02 913.31 2127.02C974.097 2120.06 1024.28 2103.02 1065.69 2080.25C1034.62 2043.53 1020.25 1997.05 1014.08 1969.6C970.012 1982.83 925.484 1989.7 887.162 1988.7Z" fill="url(#paint12_linear_48_577)"/>
<path d="M1255.97 1809.17C1243.9 1794.31 1228.38 1801.14 1228.38 1801.14C1209.36 1878.21 1112.88 1939.92 1014.08 1969.6C1020.25 1997.05 1034.62 2043.54 1065.69 2080.25C1230.05 1989.89 1255.97 1809.17 1255.97 1809.17Z" fill="url(#paint13_linear_48_577)"/>
<path d="M1252.97 1812.89C1254.21 1816.97 1239.36 1823.01 1230.8 1806.32C1230.58 1798.35 1226.06 1764.21 1230.88 1757.77C1256.54 1723.48 1306.06 1680.66 1306.06 1680.66C1314.29 1688.93 1307.37 1696.91 1307.37 1696.91L1283.31 1721.5C1288.21 1730.55 1294.21 1738.21 1296.96 1749.13C1299.04 1757.4 1297.63 1766.2 1293.4 1773.67C1289.14 1781.16 1283.34 1790.9 1277.88 1798.51C1267.53 1812.92 1252.97 1812.89 1252.97 1812.89Z" fill="url(#paint14_linear_48_577)"/>
<path d="M1272.73 1737.5L1250.85 1755.7L1243.86 1773.96L1263.01 1795.62C1263.01 1795.62 1269.86 1759.32 1274.78 1751.5C1279.69 1743.67 1277.22 1739.84 1272.73 1737.5Z" fill="url(#paint15_linear_48_577)"/>
<path d="M671.988 2139.62L625.474 2018.84C625.474 2018.84 508.65 2096.6 488.608 2196.41C510.524 2198.23 550.378 2204.32 589.253 2224.41C598.287 2177.28 671.988 2139.62 671.988 2139.62Z" fill="url(#paint16_linear_48_577)"/>
<path d="M772.341 2253.81C772.341 2253.81 641.32 2326.22 597.949 2262.91C588.945 2249.76 586.885 2236.76 589.253 2224.41C550.378 2204.32 510.525 2198.23 488.608 2196.41C482.566 2226.5 485.302 2258.59 502.706 2291.16C578.385 2432.79 789.281 2286.1 789.281 2286.1L772.341 2253.81Z" fill="url(#paint17_linear_48_577)"/>
<path d="M762.255 1886.62L721.625 2000.59C720.952 2002.48 721.71 2004.58 723.456 2005.57C734.177 2011.63 772.843 2029.22 819.921 2000C824.826 1996.96 828.192 1991.95 828.987 1986.23L842.735 1887.39L762.255 1886.62Z" fill="url(#paint18_linear_48_577)"/>
<path d="M849.296 1781.56C849.296 1781.56 891.935 1863.7 886.055 1896.66C880.175 1929.62 826.387 1926.74 779.654 1899.48L747.661 1810.91L849.296 1781.56Z" fill="url(#paint19_linear_48_577)"/>
<path d="M782.144 1856.16C784.062 1855.33 784.788 1853 783.662 1851.24C780.233 1845.89 773.817 1834.99 771.826 1825.48C771.826 1825.48 764.069 1820.41 791.803 1814.05C819.538 1807.69 860.901 1797.8 869.799 1774.33C878.474 1751.45 856.807 1693.48 820.919 1739.16C819.554 1740.9 816.912 1740.91 815.581 1739.15C809.843 1731.53 794.714 1715.68 773.412 1725C753.478 1733.71 751.103 1748.24 751.306 1755.57C751.366 1757.73 749.421 1759.39 747.305 1758.96C737.288 1756.95 713.22 1755.08 701.743 1779.68C692.29 1799.94 698.199 1811.52 703.625 1817.2C705.383 1819.04 704.576 1822.04 702.134 1822.76C695.519 1824.72 686.949 1830.23 687.654 1845.69C688.629 1867.07 712.532 1865.41 719.341 1864.5C720.457 1864.35 721.576 1864.75 722.322 1865.59C728.091 1872.1 754.1 1899.75 782.502 1903.32C784.961 1903.63 786.893 1901.22 786.109 1898.86L774.145 1862.98C773.589 1861.31 774.402 1859.5 776.014 1858.8L782.144 1856.16Z" fill="url(#paint20_linear_48_577)"/>
<path d="M787.042 1861.28C787.042 1861.28 756.33 1839.78 753.901 1857.62C751.473 1875.46 781.492 1883.75 796.464 1877.24L787.042 1861.28Z" fill="url(#paint21_linear_48_577)"/>
<path d="M745.565 2368.24L816.937 2118.99C817.747 2116.16 820.161 2114.1 823.084 2113.76C836.015 2112.25 873.486 2108.01 916.749 2104.35C968.861 2099.94 1029.38 2096.37 1065.54 2099.41C1070.68 2099.84 1073.79 2105.28 1071.5 2109.91C1050.94 2151.51 966.35 2320.75 923.989 2376.19C922.585 2378.03 920.415 2379.1 918.104 2379.08L752.508 2377.54C747.689 2377.49 744.238 2372.87 745.565 2368.24Z" fill="url(#paint22_linear_48_577)"/>
<path d="M762.809 2308.02C762.809 2308.02 752.866 2267.14 756.877 2252.64C760.888 2238.13 768.658 2219.48 794.558 2223.63C820.459 2227.77 851.011 2238.68 851.011 2238.68C851.011 2238.68 849.468 2257.57 829.783 2251.48L841.99 2260.92C841.99 2260.92 840.245 2276.05 823.618 2267.97L834.971 2280.49C834.971 2280.49 827.83 2292.92 815.597 2284.95C803.364 2276.98 797.5 2312.94 762.809 2308.02Z" fill="url(#paint23_linear_48_577)"/>
<path d="M911.991 2178.76C911.991 2190.33 921.371 2199.71 932.942 2199.71C944.513 2199.71 953.893 2190.33 953.893 2178.76C953.893 2167.19 944.513 2157.81 932.942 2157.81C921.371 2157.81 911.991 2167.19 911.991 2178.76Z" fill="#91B3FA"/>
<path d="M825.013 2192.57L839.544 2143.27C841.327 2137.22 846.194 2132.68 852.244 2131.41C897.79 2121.91 1022.45 2119.89 1023.7 2119.88L1023.62 2114.31C1018.48 2114.39 897.17 2116.35 851.106 2125.96C843.045 2127.64 836.567 2133.67 834.199 2141.7L819.668 2190.99L825.013 2192.57Z" fill="#BDD0FB"/>
<path d="M2679.97 1821.89C2681.95 1818.11 2687.56 1818.7 2688.7 1822.82C2692.93 1838.06 2703.17 1864.64 2724.67 1874.08C2725.75 1874.56 2726.78 1875.04 2727.77 1875.52C2728.74 1872.6 2728.76 1869.2 2726.42 1865.63C2719.74 1855.42 2731.8 1841.47 2731.8 1841.47C2731.8 1841.47 2732.6 1853.76 2741.94 1861.49C2749.98 1868.16 2753.85 1882.98 2748.35 1895.15C2736.72 1940.34 2719.29 2000.1 2787.16 2043.77C2855.02 2087.43 2950.58 1961.36 2950.58 1961.36L2903.15 2111.73C2903.15 2111.73 2829.94 2165.76 2744.78 2089.79C2659.62 2013.82 2716.07 1903.27 2716.07 1903.27C2716.07 1903.27 2651.11 1877.07 2679.97 1821.89Z" fill="url(#paint24_linear_48_577)"/>
<path d="M2962.47 1740.43C2962.47 1740.43 2942.81 1652.24 3043.83 1675.58C3043.83 1675.58 3092.86 1667.57 3095.36 1713.85C3095.36 1713.85 3126.97 1734.68 3103.82 1774.74C3103.82 1774.74 3197.76 1738.45 3238.69 1820.79C3279.62 1903.13 3242 1948.43 3202.56 1960.23C3202.56 1960.23 3234.51 1976.28 3219.39 2012.5C3204.26 2048.73 3127.67 2074.26 3082.42 2030.21C3082.42 2030.21 2953.67 2047.22 2956.25 1956.28C2956.25 1956.28 2896.37 1917.61 2959.26 1842.46C3022.16 1767.3 2962.47 1740.43 2962.47 1740.43Z" fill="url(#paint25_linear_48_577)"/>
<path d="M2956.92 1944.84C2977.22 1938.76 3036.33 1927.52 3092.55 1979.4C3102.08 1988.2 3105.98 2001.57 3102.58 2014.09C3087.48 2069.69 3047.64 2233.93 3082.57 2304.99C3082.57 2304.99 3021.01 2372.86 2953.85 2318.16C2953.85 2318.16 2923.72 2186.83 2884.25 2129.18C2857 2089.37 2927.7 1979.71 2945.59 1953.21C2948.29 1949.2 2952.29 1946.23 2956.92 1944.84Z" fill="url(#paint26_linear_48_577)"/>
<path d="M3012.97 1834.4C3012.97 1834.4 3042.99 1919.32 3045.25 1956.78C3045.25 1956.78 3012.07 1971.87 2980.81 1946.4C2980.81 1946.4 2977.52 1861.58 2972.78 1846.4L3012.97 1834.4Z" fill="url(#paint27_linear_48_577)"/>
<path d="M2971.27 1718.62C2971.27 1718.62 2892.75 1828.5 2939.69 1860.42C2986.62 1892.34 3042.52 1814.25 3042.52 1814.25C3042.52 1814.25 3060.74 1754.1 3041.69 1733.7C3022.64 1713.29 2971.27 1718.62 2971.27 1718.62Z" fill="url(#paint28_linear_48_577)"/>
<path d="M3007.62 1692.35C3007.62 1692.35 2971.54 1700.9 2966.49 1717.22C2961.43 1733.55 3017.64 1748.68 3033.39 1749.42L3046.08 1815.28C3046.08 1815.28 3083.6 1753.33 3068.74 1717.54C3053.88 1681.76 3007.62 1692.35 3007.62 1692.35Z" fill="url(#paint29_linear_48_577)"/>
<path d="M3027.3 1806.16C3027.3 1806.16 3057.86 1770.77 3070.02 1793.84C3082.18 1816.92 3042.51 1834.24 3028.78 1822.91L3027.3 1806.16Z" fill="url(#paint30_linear_48_577)"/>
<path d="M2875.45 2593.9C2875.68 2599.86 2865.21 2647.16 2859.51 2672.38C2857.22 2682.53 2858.82 2693.15 2863.99 2702.18L3061.28 3034.24C3063.67 3038.26 3065.41 3042.61 3066.46 3047.16C3070.08 3062.74 3077.58 3100.93 3073.66 3135.67L3063.45 3156.87L3107.6 3146.85L3117.2 3028.31L3104.7 3020.69C3093.91 3014.11 3085.5 3004.26 3080.69 2992.57C3062.85 2949.24 3018.55 2838.93 3007.13 2785.17C2994.15 2724.07 2926.3 2674.45 2926.3 2674.45L2938.22 2646.27L2875.45 2593.9Z" fill="url(#paint31_linear_48_577)"/>
<path d="M3156.65 3106.06C3156.65 3106.06 3132.81 3068.27 3130.01 3053.55C3127.21 3038.84 3119.4 3012.87 3104.7 3020.69C3104.7 3020.69 3097.78 3092.15 3100.16 3120.07C3102.55 3147.99 3068.6 3147.09 3068.6 3147.09C3068.6 3147.09 3059.24 3148.41 3052.39 3155.26C3047.66 3159.99 3051.04 3168.2 3057.72 3168.63C3068.83 3169.35 3086.48 3169.53 3105.01 3165.95C3111.48 3164.7 3116.28 3159.19 3116.68 3152.61L3121.57 3070.36L3151.64 3108.33L3156.65 3106.06Z" fill="url(#paint32_linear_48_577)"/>
<path d="M2993.31 2646.79C2993.31 2646.79 3000.27 2943.82 3001.21 2986C3002.15 3028.19 2994.55 3121.67 2952.26 3149.62L2970.66 3163.24C2970.66 3163.24 2993.66 3143.69 3016.13 3106.08C3041.36 3063.82 3049 3056.1 3049 3056.1L3040.62 3038.95C3036.95 3031.44 3035.88 3022.94 3037.56 3014.76C3046.69 2970.53 3077.18 2823.41 3085.49 2791.73C3095.31 2754.33 3096.01 2704.39 3061.86 2662.59C3027.7 2620.78 2993.31 2646.79 2993.31 2646.79Z" fill="url(#paint33_linear_48_577)"/>
<path d="M3032.36 3176.63C3033.67 3176.64 3034.79 3175.7 3034.97 3174.4C3036.38 3164.5 3042.24 3124.8 3047.03 3114.52C3052.52 3102.75 3070.46 3053.2 3047.02 3048.99C3047.02 3048.99 2988.75 3134.13 2977.56 3145.61C2966.38 3157.09 2952.26 3149.62 2952.26 3149.62C2952.26 3149.62 2941.36 3152.84 2933.14 3163.34C2929.23 3168.34 2932.87 3175.68 2939.22 3175.74L2978.47 3176.11C2989.87 3176.22 3000.12 3169.3 3004.36 3158.71C3011.27 3141.46 3023.14 3116.14 3036.97 3104.92L3029.78 3173.74C3029.62 3175.27 3030.82 3176.61 3032.36 3176.63Z" fill="url(#paint34_linear_48_577)"/>
<path d="M2944.56 2286.14C2944.56 2286.14 2953.4 2314.33 2939.82 2360.76L2855.52 2655.12C2854.2 2659.75 2856.69 2664.59 2861.22 2666.21C2886.44 2675.26 2969.32 2700.84 3082.47 2693.04C3088.17 2692.65 3092.94 2688.61 3094.18 2683.04C3101.64 2649.48 3127.07 2534.99 3132.31 2511.46C3152.27 2421.82 3174.55 2325.15 3076.52 2266.69C3031.35 2286.04 2989.21 2297.45 2944.56 2286.14Z" fill="url(#paint35_linear_48_577)"/>
<path d="M3100.59 1990.5C3100.59 1990.5 3196.5 2070.2 3220.3 2179.11C3244.1 2288.03 3080.15 2299.6 3080.15 2299.6C3080.15 2299.6 3057.9 2274.75 3031.47 2283.61C3005.05 2292.48 3029.43 2240.24 3060.34 2240.38C3091.26 2240.51 3076.94 2264.96 3120.67 2245.15C3163.27 2225.85 3189.61 2166.17 3080.91 2075.7C3074.61 2070.45 3069.58 2063.77 3066.55 2056.15C3045.44 2002.99 3062.19 1968.15 3100.59 1990.5Z" fill="url(#paint36_linear_48_577)"/>
<path d="M2500.44 2804.24H2466.23V3174.2H2500.44V2804.24Z" fill="#7D97F4"/>
<path d="M2633.15 3181.33H2333.53V3161.54C2333.53 3160.17 2334.63 3159.06 2336 3159.06H2630.68C2632.05 3159.06 2633.15 3160.17 2633.15 3161.54V3181.33Z" fill="#7D97F4"/>
<path d="M2689.81 2790.6C2689.81 2812.1 2672.22 2829.69 2650.72 2829.69H2328.55C2307.04 2829.69 2289.45 2812.1 2289.45 2790.6V2755.24C2289.45 2733.74 2307.04 2716.15 2328.55 2716.15H2650.72C2672.22 2716.15 2689.81 2733.74 2689.81 2755.24V2790.6Z" fill="#7D97F4"/>
<path d="M2180.09 3061.85C2180.09 3061.85 2069.49 3109.48 2075.83 3159.34C2075.83 3159.34 2190.15 3137.41 2210.61 3104.73C2231.07 3072.06 2219.79 3053.13 2219.79 3053.13L2180.09 3061.85Z" fill="url(#paint37_linear_48_577)"/>
<path d="M2207.17 3007.4L2212.79 3055.94C2213.63 3063.27 2209.57 3070.49 2202.63 3072.99C2199.15 3074.24 2194.59 3075.1 2188.62 3075.13C2180.18 3075.17 2172.71 3069.63 2170.45 3061.5L2159.57 3022.24L2207.17 3007.4Z" fill="url(#paint38_linear_48_577)"/>
<path d="M2448.77 2635.19C2448.77 2635.19 2245.36 2625.77 2144.14 2684.8C2042.92 2743.83 2149.27 3027.14 2149.27 3027.14C2149.27 3027.14 2175.71 3032.82 2213.78 3012.47C2213.78 3012.47 2159.45 2805.08 2253.83 2769C2359.93 2728.44 2469.68 2738.3 2469.68 2738.3L2449.34 2641.59L2448.77 2635.19Z" fill="url(#paint39_linear_48_577)"/>
<path d="M2098.05 3137.46C2121.18 3132.39 2189.77 3103.97 2200.19 3104.35C2210.61 3104.73 2225.37 3120.34 2225.37 3120.34C2225.37 3120.34 2227.91 3128.87 2220.46 3141.12C2202.79 3154.9 2164.72 3180.21 2120.45 3182.98C2087.9 3185.02 2068.31 3172.06 2057.1 3159.49C2066.91 3149.95 2082.65 3140.83 2098.05 3137.46Z" fill="url(#paint40_linear_48_577)"/>
<path d="M2120.45 3182.98C2164.72 3180.21 2202.79 3154.91 2220.46 3141.12C2215.42 3149.4 2205.83 3159.37 2187.79 3169.57C2143.07 3194.84 2069.14 3191.15 2054.48 3185.47C2042.74 3180.91 2046.37 3169.94 2057.1 3159.5C2068.31 3172.06 2087.9 3185.02 2120.45 3182.98Z" fill="url(#paint41_linear_48_577)"/>
<path d="M2249.65 3094.94C2248.14 3100.67 2231.94 3117.87 2222.57 3127.46C2218.12 3132.02 2211.66 3133.98 2205.43 3132.62C2201.49 3131.76 2197.03 3130.41 2193.17 3128.31C2187.38 3125.17 2185.37 3117.82 2188.54 3112.04L2212.23 3068.96L2249.65 3094.94Z" fill="url(#paint42_linear_48_577)"/>
<path d="M2650.37 2618.13C2650.37 2618.13 2668.12 2744.09 2616.78 2769.84C2565.45 2795.58 2452.84 2812.44 2414.06 2877.77C2375.27 2943.1 2305.61 3071.34 2242.22 3108.18C2242.22 3108.18 2206.02 3096.41 2195.44 3078.6C2195.44 3078.6 2270.68 2880.81 2302.07 2832.73C2329.26 2791.09 2369.01 2731.11 2425.48 2705.17C2441.65 2697.74 2442.91 2680.59 2440.07 2663.03L2434.88 2631.05L2650.37 2618.13Z" fill="url(#paint43_linear_48_577)"/>
<path d="M2174.55 2475.33C2246.52 2495.88 2278.74 2293.32 2278.45 2288.39L2388.8 2417.42C2388.8 2417.42 2323.05 2533.12 2223.76 2545.43C2198.64 2548.55 2177.27 2544.2 2159.35 2535.99C2172.56 2514.36 2175.57 2493 2174.55 2475.33Z" fill="url(#paint44_linear_48_577)"/>
<path d="M2041.26 2409.03C2072.63 2396.14 2099.24 2421.87 2099.24 2421.87C2130.32 2453.69 2154.98 2469.75 2174.55 2475.33C2175.57 2493 2172.56 2514.37 2159.35 2535.99C2120.57 2518.23 2097.96 2482.31 2088.65 2464.39C2085.3 2457.93 2077.44 2455.2 2070.89 2458.37C2064.24 2461.58 2057.39 2466.49 2056.96 2473.15C2056.11 2486.29 2040.48 2487.06 2040.39 2482.21C2040.3 2477.36 2052.5 2451.41 2052.5 2451.41C2052.5 2451.41 2016.45 2474.53 2002.42 2483.37C1988.39 2492.22 1976.44 2477.62 1976.44 2477.62C1976.44 2477.62 2009.89 2421.93 2041.26 2409.03Z" fill="url(#paint45_linear_48_577)"/>
<path d="M2622.64 2205.04C2622.64 2205.04 2525.92 2139.05 2292.32 2258.39C2292.32 2258.39 2268.26 2288.89 2279.53 2323.26C2290.8 2357.64 2429.5 2543.7 2434.89 2631.05C2434.89 2631.05 2529.7 2686.86 2652.78 2631.53C2652.78 2631.53 2694.05 2400.89 2622.64 2205.04Z" fill="url(#paint46_linear_48_577)"/>
<path d="M2421.23 2120.67L2459.46 2195.57C2463.25 2203.01 2462.46 2212.01 2457.25 2218.54C2446.72 2231.72 2424.75 2249.45 2387.25 2238.02C2376.1 2234.63 2367.56 2225.55 2364.87 2214.2L2345.06 2130.6L2421.23 2120.67Z" fill="url(#paint47_linear_48_577)"/>
<path d="M2694.27 2466.58C2700.81 2421.05 2580.5 2332.8 2580.5 2332.8L2622.64 2205.04C2622.64 2205.04 2852.22 2368.87 2803.94 2502.67C2797.02 2521.85 2786.69 2535.82 2774.11 2545.73C2749.8 2495.87 2716.83 2475.15 2694.27 2466.58Z" fill="url(#paint48_linear_48_577)"/>
<path d="M2526.42 2479.21C2526.42 2479.21 2662.52 2517.23 2690.75 2475.8C2692.67 2472.99 2693.79 2469.89 2694.27 2466.58C2716.83 2475.15 2749.8 2495.87 2774.11 2545.73C2709.49 2596.56 2584.9 2539.58 2551.05 2522.5C2545.48 2519.69 2539.08 2519.14 2533.12 2520.99C2521.08 2524.75 2500.22 2530.59 2488.59 2529.95C2471.59 2529.01 2453.33 2590.47 2424.39 2574.91C2424.39 2574.91 2437.54 2469.91 2526.42 2479.21Z" fill="url(#paint49_linear_48_577)"/>
<path d="M2372.24 1998.27C2371.03 1999.32 2320.61 2087.38 2294.94 2132.27C2287.11 2145.97 2292.97 2163.42 2307.48 2169.64L2318.6 2174.41C2333.79 2180.92 2366.46 2186.37 2379.32 2175.98L2460.38 2090.43C2460.38 2090.43 2399.5 1974.67 2372.24 1998.27Z" fill="url(#paint50_linear_48_577)"/>
<path d="M2483.21 2067.08C2493.15 2061.5 2505.1 2050.19 2495.8 2030.19C2486.34 2009.86 2467.65 2008.09 2455.61 2009.39C2450.74 2009.91 2446.34 2006.82 2444.92 2002.13C2444.12 1999.46 2442.14 1997.11 2437.87 1996.43C2432.12 1995.52 2428.55 1989.65 2430.05 1984.02C2432.93 1973.21 2432.44 1958.53 2415.06 1948.01C2384.21 1929.33 2355.37 1956.46 2347.34 1980.04C2339.31 2003.62 2373.91 2021.98 2396 2025.72C2412.79 2028.56 2420.99 2047.94 2423.95 2057.06C2424.89 2059.95 2424.44 2063.1 2422.77 2065.64L2398.13 2103.08C2404.91 2111.61 2410.91 2120.62 2416.83 2129.73C2419.05 2127.35 2420.99 2125.36 2422.5 2123.97C2433.2 2114.16 2452.24 2119.22 2460.08 2121.92C2462.65 2122.8 2465.44 2122.6 2467.86 2121.35C2476.39 2116.94 2493.62 2104.55 2479.5 2081.11C2476.54 2076.21 2478.22 2069.89 2483.21 2067.08Z" fill="url(#paint51_linear_48_577)"/>
<path d="M2407.86 2145.74C2407.86 2145.74 2423.62 2105.25 2441.52 2107.51C2459.43 2109.76 2472.83 2128.26 2449.72 2147.45C2420.97 2171.33 2407.86 2145.74 2407.86 2145.74Z" fill="url(#paint52_linear_48_577)"/>
<path d="M2352.64 2565.87C2352.4 2565.88 2352.15 2565.88 2351.91 2565.88L2033.96 2565.54C2026.1 2565.53 2019.74 2559.15 2019.74 2551.29C2019.75 2543.43 2026.15 2536.93 2033.99 2537.08L2351.94 2537.42C2359.8 2537.43 2366.16 2543.81 2366.16 2551.67C2366.15 2559.28 2360.16 2565.49 2352.64 2565.87Z" fill="url(#paint53_linear_48_577)"/>
<path d="M1748.14 2277.19H2012.93C2032.46 2277.19 2050.24 2288.46 2058.57 2306.13L2180.98 2565.7H1851.92C1839.33 2565.7 1828.02 2558 1823.4 2546.3L1728.47 2306.11C1722.99 2292.23 1733.21 2277.19 1748.14 2277.19Z" fill="url(#paint54_linear_48_577)"/>
<path d="M1934.68 2410.28C1940.42 2428.1 1936.18 2445.42 1925.22 2448.95C1914.25 2452.48 1900.71 2440.89 1894.97 2423.06C1889.23 2405.23 1893.47 2387.92 1904.44 2384.39C1915.4 2380.86 1928.95 2392.45 1934.68 2410.28Z" fill="#91B3FA"/>
<path d="M1791.07 3247.81C1789.3 3247.81 1787.51 3247.47 1785.79 3246.75C1779.01 3243.93 1775.88 3236.32 1778.8 3229.76L2059.01 2599.11C2061.93 2592.55 2069.78 2589.52 2076.57 2592.34C2083.34 2595.16 2086.48 2602.77 2083.56 2609.33L1803.34 3239.98C1801.17 3244.87 1796.24 3247.81 1791.07 3247.81Z" fill="#91B3FA"/>
<path d="M2106.74 3247.81C2101.56 3247.81 2096.63 3244.88 2094.46 3239.98L1814.24 2609.33C1811.33 2602.77 1814.46 2595.16 1821.24 2592.34C1828.01 2589.52 1835.87 2592.55 1838.79 2599.11L2119 3229.76C2121.92 3236.32 2118.79 3243.93 2112.01 3246.75C2110.29 3247.47 2108.5 3247.81 2106.74 3247.81Z" fill="#91B3FA"/>
<path d="M2658.45 3247.81C2656.69 3247.81 2654.9 3247.47 2653.18 3246.75C2646.4 3243.93 2643.27 3236.32 2646.18 3229.76L2926.4 2599.11C2929.31 2592.55 2937.16 2589.52 2943.95 2592.34C2950.73 2595.16 2953.86 2602.77 2950.94 2609.33L2670.73 3239.98C2668.55 3244.87 2663.63 3247.81 2658.45 3247.81Z" fill="#91B3FA"/>
<path d="M2974.12 3247.81C2968.94 3247.81 2964.01 3244.88 2961.84 3239.98L2681.63 2609.33C2678.71 2602.77 2681.84 2595.16 2688.62 2592.34C2695.39 2589.52 2703.25 2592.55 2706.17 2599.11L2986.39 3229.76C2989.3 3236.32 2986.17 3243.93 2979.39 3246.75C2977.67 3247.47 2975.88 3247.81 2974.12 3247.81Z" fill="#91B3FA"/>
<path d="M3006.99 2579.64C3007.7 2575.5 3006.73 2571.23 3004.33 2567.98C3001.94 2564.73 2998.37 2562.84 2994.61 2562.84H1719.84C1714.89 2562.84 1710.28 2565.67 1707.62 2570.34C1704.95 2575 1704.59 2580.87 1706.67 2585.9L1720.48 2619.37C1723.64 2627.04 1730.5 2631.95 1738.04 2631.95H2985.86C2992.88 2631.95 2998.91 2626.38 3000.24 2618.66L3006.99 2579.64Z" fill="#91B3FA"/>
<defs>
<linearGradient id="paint0_linear_48_577" x1="3588.99" y1="4065.34" x2="1108.56" y2="984.798" gradientUnits="userSpaceOnUse">
<stop stop-color="#DAE3FE"/>
<stop offset="1" stop-color="#E9EFFD"/>
</linearGradient>
<linearGradient id="paint1_linear_48_577" x1="2459.44" y1="764.413" x2="395.013" y2="3505.28" gradientUnits="userSpaceOnUse">
<stop stop-color="#4F52FF"/>
<stop offset="1" stop-color="#4042E2"/>
</linearGradient>
<linearGradient id="paint2_linear_48_577" x1="2459.44" y1="764.414" x2="395.016" y2="3505.27" gradientUnits="userSpaceOnUse">
<stop stop-color="#4F52FF"/>
<stop offset="1" stop-color="#4042E2"/>
</linearGradient>
<linearGradient id="paint3_linear_48_577" x1="1847.89" y1="349.241" x2="1732.98" y2="1255.06" gradientUnits="userSpaceOnUse">
<stop stop-color="#FF928E"/>
<stop offset="1" stop-color="#FE7062"/>
</linearGradient>
<linearGradient id="paint4_linear_48_577" x1="1416.74" y1="1759.19" x2="2340.54" y2="1200.35" gradientUnits="userSpaceOnUse">
<stop stop-color="#09005D"/>
<stop offset="1" stop-color="#1A0F91"/>
</linearGradient>
<linearGradient id="paint5_linear_48_577" x1="1728.16" y1="1758.96" x2="2382.07" y2="1216.57" gradientUnits="userSpaceOnUse">
<stop stop-color="#09005D"/>
<stop offset="1" stop-color="#1A0F91"/>
</linearGradient>
<linearGradient id="paint6_linear_48_577" x1="981.388" y1="3122.92" x2="446.319" y2="3693.94" gradientUnits="userSpaceOnUse">
<stop stop-color="#09005D"/>
<stop offset="1" stop-color="#1A0F91"/>
</linearGradient>
<linearGradient id="paint7_linear_48_577" x1="809.084" y1="3164.06" x2="856.125" y2="3164.51" gradientUnits="userSpaceOnUse">
<stop stop-color="#FEBBBA"/>
<stop offset="1" stop-color="#FF928E"/>
</linearGradient>
<linearGradient id="paint8_linear_48_577" x1="1029.31" y1="2471.81" x2="572.837" y2="3078.35" gradientUnits="userSpaceOnUse">
<stop stop-color="#09005D"/>
<stop offset="1" stop-color="#1A0F91"/>
</linearGradient>
<linearGradient id="paint9_linear_48_577" x1="863.621" y1="3012.54" x2="328.529" y2="3583.59" gradientUnits="userSpaceOnUse">
<stop stop-color="#09005D"/>
<stop offset="1" stop-color="#1A0F91"/>
</linearGradient>
<linearGradient id="paint10_linear_48_577" x1="639.564" y1="3160.03" x2="680.179" y2="3160.42" gradientUnits="userSpaceOnUse">
<stop stop-color="#FEBBBA"/>
<stop offset="1" stop-color="#FF928E"/>
</linearGradient>
<linearGradient id="paint11_linear_48_577" x1="949.549" y1="2411.79" x2="493.084" y2="3018.32" gradientUnits="userSpaceOnUse">
<stop stop-color="#09005D"/>
<stop offset="1" stop-color="#1A0F91"/>
</linearGradient>
<linearGradient id="paint12_linear_48_577" x1="-13385.9" y1="-8273.27" x2="-12905.9" y2="-7918.37" gradientUnits="userSpaceOnUse">
<stop stop-color="#FF928E"/>
<stop offset="1" stop-color="#FE7062"/>
</linearGradient>
<linearGradient id="paint13_linear_48_577" x1="1014.37" y1="1938.61" x2="1254.71" y2="1940.9" gradientUnits="userSpaceOnUse">
<stop stop-color="#FEBBBA"/>
<stop offset="1" stop-color="#FF928E"/>
</linearGradient>
<linearGradient id="paint14_linear_48_577" x1="1201.56" y1="1900.11" x2="1036.8" y2="2265.5" gradientUnits="userSpaceOnUse">
<stop stop-color="#FEBBBA"/>
<stop offset="1" stop-color="#FF928E"/>
</linearGradient>
<linearGradient id="paint15_linear_48_577" x1="1255.11" y1="1778.4" x2="1323.38" y2="1675.58" gradientUnits="userSpaceOnUse">
<stop stop-color="#FEBBBA"/>
<stop offset="1" stop-color="#FF928E"/>
</linearGradient>
<linearGradient id="paint16_linear_48_577" x1="-13419.8" y1="-8227.39" x2="-12939.9" y2="-7872.5" gradientUnits="userSpaceOnUse">
<stop stop-color="#FF928E"/>
<stop offset="1" stop-color="#FE7062"/>
</linearGradient>
<linearGradient id="paint17_linear_48_577" x1="485.224" y1="2274.02" x2="789.368" y2="2276.91" gradientUnits="userSpaceOnUse">
<stop stop-color="#FEBBBA"/>
<stop offset="1" stop-color="#FF928E"/>
</linearGradient>
<linearGradient id="paint18_linear_48_577" x1="708.828" y1="2106.07" x2="823.745" y2="1883" gradientUnits="userSpaceOnUse">
<stop stop-color="#FEBBBA"/>
<stop offset="1" stop-color="#FF928E"/>
</linearGradient>
<linearGradient id="paint19_linear_48_577" x1="871.446" y1="1876.01" x2="739.997" y2="1794.12" gradientUnits="userSpaceOnUse">
<stop stop-color="#FEBBBA"/>
<stop offset="1" stop-color="#FF928E"/>
</linearGradient>
<linearGradient id="paint20_linear_48_577" x1="670.82" y1="1708.44" x2="840.343" y2="1844.97" gradientUnits="userSpaceOnUse">
<stop stop-color="#09005D"/>
<stop offset="1" stop-color="#1A0F91"/>
</linearGradient>
<linearGradient id="paint21_linear_48_577" x1="836.433" y1="1905.75" x2="718.166" y2="1832.07" gradientUnits="userSpaceOnUse">
<stop stop-color="#FEBBBA"/>
<stop offset="1" stop-color="#FF928E"/>
</linearGradient>
<linearGradient id="paint22_linear_48_577" x1="870.924" y1="2080.77" x2="1038.75" y2="2780.04" gradientUnits="userSpaceOnUse">
<stop stop-color="#09005D"/>
<stop offset="1" stop-color="#1A0F91"/>
</linearGradient>
<linearGradient id="paint23_linear_48_577" x1="755.924" y1="2265.76" x2="851.011" y2="2265.76" gradientUnits="userSpaceOnUse">
<stop stop-color="#FEBBBA"/>
<stop offset="1" stop-color="#FF928E"/>
</linearGradient>
<linearGradient id="paint24_linear_48_577" x1="2651" y1="1716.03" x2="2906.12" y2="2124.91" gradientUnits="userSpaceOnUse">
<stop stop-color="#FEBBBA"/>
<stop offset="1" stop-color="#FF928E"/>
</linearGradient>
<linearGradient id="paint25_linear_48_577" x1="3359.23" y1="1678.4" x2="3101.53" y2="1850.21" gradientUnits="userSpaceOnUse">
<stop stop-color="#09005D"/>
<stop offset="1" stop-color="#1A0F91"/>
</linearGradient>
<linearGradient id="paint26_linear_48_577" x1="3286.98" y1="1707.24" x2="3101.08" y2="1994.53" gradientUnits="userSpaceOnUse">
<stop stop-color="#FF928E"/>
<stop offset="1" stop-color="#FE7062"/>
</linearGradient>
<linearGradient id="paint27_linear_48_577" x1="2965.21" y1="1998.87" x2="3013.04" y2="1892.64" gradientUnits="userSpaceOnUse">
<stop stop-color="#FEBBBA"/>
<stop offset="1" stop-color="#FF928E"/>
</linearGradient>
<linearGradient id="paint28_linear_48_577" x1="2962.75" y1="1740.72" x2="3059.82" y2="1950.88" gradientUnits="userSpaceOnUse">
<stop stop-color="#FEBBBA"/>
<stop offset="1" stop-color="#FF928E"/>
</linearGradient>
<linearGradient id="paint29_linear_48_577" x1="3289.97" y1="1574.53" x2="3032.27" y2="1746.35" gradientUnits="userSpaceOnUse">
<stop stop-color="#09005D"/>
<stop offset="1" stop-color="#1A0F91"/>
</linearGradient>
<linearGradient id="paint30_linear_48_577" x1="3008.42" y1="1719.62" x2="3105.49" y2="1929.78" gradientUnits="userSpaceOnUse">
<stop stop-color="#FEBBBA"/>
<stop offset="1" stop-color="#FF928E"/>
</linearGradient>
<linearGradient id="paint31_linear_48_577" x1="3233.62" y1="3321.74" x2="2877.25" y2="2678.5" gradientUnits="userSpaceOnUse">
<stop stop-color="#FEBBBA"/>
<stop offset="1" stop-color="#FF928E"/>
</linearGradient>
<linearGradient id="paint32_linear_48_577" x1="3156.76" y1="3094.78" x2="3050.81" y2="3093.78" gradientUnits="userSpaceOnUse">
<stop stop-color="#09005D"/>
<stop offset="1" stop-color="#1A0F91"/>
</linearGradient>
<linearGradient id="paint33_linear_48_577" x1="2827.38" y1="2844.53" x2="3367.78" y2="3023.01" gradientUnits="userSpaceOnUse">
<stop stop-color="#FEBBBA"/>
<stop offset="1" stop-color="#FF928E"/>
</linearGradient>
<linearGradient id="paint34_linear_48_577" x1="3058.35" y1="3112.99" x2="2932.06" y2="3111.79" gradientUnits="userSpaceOnUse">
<stop stop-color="#09005D"/>
<stop offset="1" stop-color="#1A0F91"/>
</linearGradient>
<linearGradient id="paint35_linear_48_577" x1="3434.76" y1="2168" x2="3130.56" y2="2401.22" gradientUnits="userSpaceOnUse">
<stop stop-color="#09005D"/>
<stop offset="1" stop-color="#1A0F91"/>
</linearGradient>
<linearGradient id="paint36_linear_48_577" x1="3199.4" y1="2329.36" x2="2688.6" y2="1572" gradientUnits="userSpaceOnUse">
<stop stop-color="#FEBBBA"/>
<stop offset="1" stop-color="#FF928E"/>
</linearGradient>
<linearGradient id="paint37_linear_48_577" x1="2114.13" y1="2974.56" x2="2147.42" y2="3103.57" gradientUnits="userSpaceOnUse">
<stop stop-color="#09005D"/>
<stop offset="1" stop-color="#1A0F91"/>
</linearGradient>
<linearGradient id="paint38_linear_48_577" x1="2216.04" y1="3045.52" x2="2157.3" y2="3032.52" gradientUnits="userSpaceOnUse">
<stop stop-color="#FEBBBA"/>
<stop offset="1" stop-color="#FF928E"/>
</linearGradient>
<linearGradient id="paint39_linear_48_577" x1="2331.72" y1="2908.09" x2="2159.54" y2="2503.01" gradientUnits="userSpaceOnUse">
<stop stop-color="#09005D"/>
<stop offset="1" stop-color="#1A0F91"/>
</linearGradient>
<linearGradient id="paint40_linear_48_577" x1="2122.39" y1="3099.37" x2="2267.64" y2="3411.92" gradientUnits="userSpaceOnUse">
<stop stop-color="#09005D"/>
<stop offset="1" stop-color="#1A0F91"/>
</linearGradient>
<linearGradient id="paint41_linear_48_577" x1="2211.88" y1="3179.91" x2="2053.93" y2="3144.95" gradientUnits="userSpaceOnUse">
<stop stop-color="#4F52FF"/>
<stop offset="1" stop-color="#4042E2"/>
</linearGradient>
<linearGradient id="paint42_linear_48_577" x1="2246.51" y1="3109.13" x2="2191.38" y2="3096.93" gradientUnits="userSpaceOnUse">
<stop stop-color="#FEBBBA"/>
<stop offset="1" stop-color="#FF928E"/>
</linearGradient>
<linearGradient id="paint43_linear_48_577" x1="2383.11" y1="3102.35" x2="2472.88" y2="2631.54" gradientUnits="userSpaceOnUse">
<stop stop-color="#09005D"/>
<stop offset="1" stop-color="#1A0F91"/>
</linearGradient>
<linearGradient id="paint44_linear_48_577" x1="2558.57" y1="2192.79" x2="2016.12" y2="2613.57" gradientUnits="userSpaceOnUse">
<stop stop-color="#FF928E"/>
<stop offset="1" stop-color="#FE7062"/>
</linearGradient>
<linearGradient id="paint45_linear_48_577" x1="2176.53" y1="2484.98" x2="1984.23" y2="2442.42" gradientUnits="userSpaceOnUse">
<stop stop-color="#FEBBBA"/>
<stop offset="1" stop-color="#FF928E"/>
</linearGradient>
<linearGradient id="paint46_linear_48_577" x1="1934.93" y1="2777.02" x2="2452.04" y2="2457.63" gradientUnits="userSpaceOnUse">
<stop stop-color="#FF928E"/>
<stop offset="1" stop-color="#FE7062"/>
</linearGradient>
<linearGradient id="paint47_linear_48_577" x1="2465.09" y1="2192.96" x2="2337.5" y2="2164.72" gradientUnits="userSpaceOnUse">
<stop stop-color="#FEBBBA"/>
<stop offset="1" stop-color="#FF928E"/>
</linearGradient>
<linearGradient id="paint48_linear_48_577" x1="1966.19" y1="2827.61" x2="2483.29" y2="2508.23" gradientUnits="userSpaceOnUse">
<stop stop-color="#FF928E"/>
<stop offset="1" stop-color="#FE7062"/>
</linearGradient>
<linearGradient id="paint49_linear_48_577" x1="2566.41" y1="2511.89" x2="3073.12" y2="3221.43" gradientUnits="userSpaceOnUse">
<stop stop-color="#FEBBBA"/>
<stop offset="1" stop-color="#FF928E"/>
</linearGradient>
<linearGradient id="paint50_linear_48_577" x1="2394.47" y1="2029.43" x2="2330.38" y2="2330.12" gradientUnits="userSpaceOnUse">
<stop stop-color="#FEBBBA"/>
<stop offset="1" stop-color="#FF928E"/>
</linearGradient>
<linearGradient id="paint51_linear_48_577" x1="2483.12" y1="2109.71" x2="2355.4" y2="1962.17" gradientUnits="userSpaceOnUse">
<stop stop-color="#09005D"/>
<stop offset="1" stop-color="#1A0F91"/>
</linearGradient>
<linearGradient id="paint52_linear_48_577" x1="2419.69" y1="2316.05" x2="2435.58" y2="2128.99" gradientUnits="userSpaceOnUse">
<stop stop-color="#FEBBBA"/>
<stop offset="1" stop-color="#FF928E"/>
</linearGradient>
<linearGradient id="paint53_linear_48_577" x1="2406.58" y1="2481.39" x2="2154.19" y2="2564.17" gradientUnits="userSpaceOnUse">
<stop stop-color="#09005D"/>
<stop offset="1" stop-color="#1A0F91"/>
</linearGradient>
<linearGradient id="paint54_linear_48_577" x1="2059.87" y1="2315.9" x2="1878.1" y2="2508.01" gradientUnits="userSpaceOnUse">
<stop stop-color="#09005D"/>
<stop offset="1" stop-color="#1A0F91"/>
</linearGradient>
</defs>
</svg>
