<svg xmlns="http://www.w3.org/2000/svg" xmlns:xlink="http://www.w3.org/1999/xlink" width="3000" zoomAndPan="magnify" viewBox="0 0 2250 2250.000011" height="3000" preserveAspectRatio="xMidYMid meet" version="1.0"><path stroke-linecap="round" transform="matrix(1.424656, 0.0559749, -0.0559749, 1.424656, 1135.678831, 1153.446079)" fill-opacity="1" fill="#ffffff" fill-rule="nonzero" stroke-linejoin="round" d="M 186.452748 44.336404 C 186.452748 44.336404 186.453727 -44.336358 186.453727 -44.336358 C 186.453727 -44.336358 139.383754 -44.335007 139.383754 -44.335007 C 136.864775 -52.269774 133.682764 -59.912527 129.903269 -67.200036 C 129.903269 -67.200036 163.200493 -100.495177 163.200493 -100.495177 C 163.200493 -100.495177 100.503255 -163.192812 100.503255 -163.192812 C 100.503255 -163.192812 67.206139 -129.894933 67.206139 -129.894933 C 59.919838 -133.691328 52.279189 -136.876068 44.330252 -139.393384 C 44.330252 -139.393384 44.328901 -186.463357 44.328901 -186.463357 C 44.328901 -186.463357 -44.327327 -186.462244 -44.327327 -186.462244 C -44.327327 -186.462244 -44.326084 -139.395009 -44.326084 -139.395009 C -52.277277 -136.875384 -59.92266 -133.690528 -67.206786 -129.894714 C -67.206786 -129.894714 -100.504665 -163.191831 -100.504665 -163.191831 C -100.504665 -163.191831 -163.2023 -100.494593 -163.2023 -100.494593 C -163.2023 -100.494593 -129.901791 -67.200322 -129.901791 -67.200322 C -133.681652 -59.911929 -136.866285 -52.268542 -139.386984 -44.335924 C -139.386984 -44.335924 -186.454219 -44.33468 -186.454219 -44.33468 C -186.454219 -44.33468 -186.455198 44.338082 -186.455198 44.338082 C -186.455198 44.338082 -139.385225 44.336731 -139.385225 44.336731 C -136.866353 52.26876 -133.698031 59.912051 -129.90211 67.198914 C -129.90211 67.198914 -163.201964 100.496901 -163.201964 100.496901 C -163.201964 100.496901 -100.504834 163.191798 -100.504834 163.191798 C -100.504834 163.191798 -67.207717 129.893919 -67.207717 129.893919 C -59.921309 133.693052 -52.27803 136.874947 -44.326248 139.394893 C -44.326248 139.394893 -44.327635 186.464973 -44.327635 186.464973 C -44.327635 186.464973 44.328594 186.46386 44.328594 186.46386 C 44.328594 186.46386 44.329981 139.39378 44.329981 139.39378 C 52.278436 136.874263 59.921189 133.692251 67.208052 129.896331 C 67.208052 129.896331 100.503086 163.190817 100.503086 163.190817 C 100.503086 163.190817 163.200828 100.496317 163.200828 100.496317 C 163.200828 100.496317 129.90295 67.199201 129.90295 67.199201 C 133.699345 59.9129 136.864814 52.270266 139.385513 44.337647 C 139.385513 44.337647 186.452748 44.336404 186.452748 44.336404 Z M 66.203918 3.499008 C 65.385875 19.176373 59.119757 33.389758 49.281538 44.338063 C 47.715504 46.072145 46.064006 47.724587 44.329565 49.289806 C 33.383957 59.130027 19.152178 65.375875 3.48975 66.194153 C 2.331933 66.245128 1.176209 66.279569 -0.0000777439 66.279173 C -1.173626 66.27867 -2.33204 66.244669 -3.491099 66.194242 C -19.151931 65.378292 -33.381096 59.129244 -44.326663 49.290919 C -46.063483 47.724992 -47.715925 46.073494 -49.281251 44.336316 C -59.121472 33.390707 -65.385838 19.176107 -66.202025 3.497145 C -66.252892 2.342066 -66.28744 1.183604 -66.286937 0.0100554 C -66.289279 -1.166123 -66.252541 -2.324644 -66.202652 -3.497392 C -65.384609 -19.174757 -59.121335 -33.390772 -49.28301 -44.336339 C -47.717083 -46.073159 -46.062739 -47.722971 -44.328407 -49.290927 C -33.380061 -59.131255 -19.151019 -65.376996 -3.491328 -66.195167 C -2.330774 -66.246249 -1.174942 -66.277952 0.00123666 -66.280294 C 1.174785 -66.279791 2.333199 -66.24579 3.48952 -66.195256 C 19.150352 -65.379306 33.382255 -59.130366 44.32793 -49.289302 C 46.06475 -47.723376 47.717192 -46.071877 49.282518 -44.334699 C 59.119893 -33.391721 65.386997 -19.177228 66.203184 -3.498267 C 66.254804 -2.324024 66.289352 -1.165562 66.288849 0.00798681 C 66.288453 1.184273 66.254345 2.339949 66.203918 3.499008 Z M 66.203918 3.499008 " stroke="#253237" stroke-width="2" stroke-opacity="1" stroke-miterlimit="4"/><path stroke-linecap="round" transform="matrix(1.424656, 0.0559749, -0.0559749, 1.424656, 503.245295, 907.517494)" fill-opacity="1" fill="#ffffff" fill-rule="nonzero" stroke-linejoin="round" d="M 186.455522 44.338264 C 186.455522 44.338264 186.453656 -44.337129 186.453656 -44.337129 C 186.453656 -44.337129 139.383683 -44.335778 139.383683 -44.335778 C 136.864811 -52.267807 133.682692 -59.913298 129.906042 -67.198177 C 129.906042 -67.198177 163.203159 -100.496055 163.203159 -100.496055 C 163.203159 -100.496055 100.505922 -163.19369 100.505922 -163.19369 C 100.505922 -163.19369 67.208805 -129.895812 67.208805 -129.895812 C 59.922504 -133.692206 52.279225 -136.874101 44.330181 -139.394155 C 44.330181 -139.394155 44.32883 -186.464128 44.32883 -186.464128 C 44.32883 -186.464128 -44.327399 -186.463015 -44.327399 -186.463015 C -44.327399 -186.463015 -44.326048 -139.393042 -44.326048 -139.393042 C -52.277348 -136.876155 -59.919994 -133.691406 -67.206857 -129.895485 C -67.206857 -129.895485 -100.504736 -163.192602 -100.504736 -163.192602 C -100.504736 -163.192602 -163.199633 -100.495472 -163.199633 -100.495472 C -163.199633 -100.495472 -129.901755 -67.198355 -129.901755 -67.198355 C -133.681724 -59.9127 -136.866356 -52.269313 -139.384317 -44.336802 C -139.384317 -44.336802 -186.454291 -44.335451 -186.454291 -44.335451 C -186.454291 -44.335451 -186.45527 44.337311 -186.45527 44.337311 C -186.45527 44.337311 -139.385297 44.33596 -139.385297 44.33596 C -136.866317 52.270727 -133.697995 59.914018 -129.902181 67.198144 C -129.902181 67.198144 -163.199298 100.496022 -163.199298 100.496022 C -163.199298 100.496022 -100.504906 163.191027 -100.504906 163.191027 C -100.504906 163.191027 -67.207681 129.895886 -67.207681 129.895886 C -59.921381 133.692281 -52.278101 136.874176 -44.326319 139.394122 C -44.326319 139.394122 -44.327706 186.464203 -44.327706 186.464203 C -44.327706 186.464203 44.328523 186.46309 44.328523 186.46309 C 44.328523 186.46309 44.329909 139.393009 44.329909 139.393009 C 52.278365 136.873492 59.921117 133.691481 67.207981 129.89556 C 67.207981 129.89556 100.50586 163.192676 100.50586 163.192676 C 100.50586 163.192676 163.200865 100.498284 163.200865 100.498284 C 163.200865 100.498284 129.905616 67.198322 129.905616 67.198322 C 133.702011 59.912022 136.864742 52.269495 139.385441 44.336877 C 139.385441 44.336877 186.455522 44.338264 186.455522 44.338264 Z M 66.203847 3.498237 C 65.385804 19.175603 59.12253 33.391617 49.284205 44.337185 C 47.718278 46.074005 46.063934 47.723817 44.329602 49.291773 C 33.383886 59.129256 19.152214 65.377842 3.489678 66.193382 C 2.331969 66.247095 1.176137 66.278798 -0.0000415926 66.28114 C -1.17359 66.280637 -2.332004 66.246636 -3.488433 66.193364 C -19.149265 65.377413 -33.38106 59.131211 -44.326735 49.290148 C -46.063555 47.724221 -47.715997 46.072723 -49.281215 44.338282 C -59.121543 33.389937 -65.38591 19.175336 -66.202096 3.496374 C -66.252963 2.341295 -66.287512 1.182833 -66.287008 0.00928464 C -66.286613 -1.167002 -66.252504 -2.322678 -66.202723 -3.498162 C -65.384788 -19.178266 -59.121407 -33.391542 -49.280343 -44.337217 C -47.714417 -46.074038 -46.062811 -47.723742 -44.325633 -49.289068 C -33.380025 -59.129289 -19.151091 -65.377767 -3.488662 -66.196045 C -2.330738 -66.244282 -1.175014 -66.278723 0.00127281 -66.278327 C 1.174822 -66.277824 2.333235 -66.243824 3.492186 -66.196135 C 19.153126 -65.377446 33.382183 -59.131137 44.327858 -49.290073 C 46.064679 -47.724147 47.71712 -46.072648 49.282446 -44.33547 C 59.122667 -33.389862 65.386926 -19.177999 66.203112 -3.499037 C 66.254732 -2.324795 66.289281 -1.166333 66.288885 0.00995366 C 66.288382 1.183502 66.254273 2.339178 66.203847 3.498237 Z M 66.203847 3.498237 " stroke="#253237" stroke-width="2" stroke-opacity="1" stroke-miterlimit="4"/><path stroke-linecap="butt" transform="matrix(1.425755, 0, 0, 1.425755, 1049.641696, 589.27497)" fill-opacity="1" fill="#253237" fill-rule="nonzero" stroke-linejoin="miter" d="M 69.175852 63.961735 C 69.175852 63.961735 -69.174615 63.961735 -69.174615 63.961735 C -78.624103 63.961735 -86.281777 56.304061 -86.281777 46.857313 C -86.281777 46.857313 -86.281777 -46.856724 -86.281777 -46.856724 C -86.281777 -56.303471 -78.624103 -63.961145 -69.174615 -63.961145 C -69.174615 -63.961145 69.175852 -63.961145 69.175852 -63.961145 C 78.62534 -63.961145 86.283013 -56.303471 86.283013 -46.856724 C 86.283013 -46.856724 86.283013 46.857313 86.283013 46.857313 C 86.283013 56.304061 78.62534 63.961735 69.175852 63.961735 Z M 69.175852 63.961735 " stroke="#253237" stroke-width="2" stroke-opacity="1" stroke-miterlimit="10"/><path stroke-linecap="butt" transform="matrix(1.425755, 0, 0, 1.425755, 1031.038349, 570.671767)" fill-opacity="1" fill="#ffffff" fill-rule="nonzero" stroke-linejoin="miter" d="M 69.177104 63.962886 C 69.177104 63.962886 -69.176104 63.962886 -69.176104 63.962886 C -78.622851 63.962886 -86.283265 56.302472 -86.283265 46.855724 C -86.283265 46.855724 -86.283265 -46.855573 -86.283265 -46.855573 C -86.283265 -56.302321 -78.622851 -63.962734 -69.176104 -63.962734 C -69.176104 -63.962734 69.177104 -63.962734 69.177104 -63.962734 C 78.623852 -63.962734 86.281525 -56.302321 86.281525 -46.855573 C 86.281525 -46.855573 86.281525 46.855724 86.281525 46.855724 C 86.281525 56.302472 78.623852 63.962886 69.177104 63.962886 Z M 69.177104 63.962886 " stroke="#253237" stroke-width="2" stroke-opacity="1" stroke-miterlimit="10"/><path stroke-linecap="round" transform="matrix(1.425755, 0, 0, 1.425755, 1031.039885, 570.671767)" fill="none" stroke-linejoin="round" d="M 52.827784 36.017171 C 52.827784 36.017171 -53.922108 33.984257 -53.922108 33.984257 C -53.922108 33.984257 -52.828937 -36.017019 -52.828937 -36.017019 C -52.828937 -36.017019 53.920954 -33.984106 53.920954 -33.984106 C 53.920954 -33.984106 52.827784 36.017171 52.827784 36.017171 Z M 52.827784 36.017171 " stroke="#253237" stroke-width="2" stroke-opacity="1" stroke-miterlimit="4"/><path stroke-linecap="round" transform="matrix(1.425755, 0, 0, 1.425755, 1031.818243, 544.995332)" fill="none" stroke-linejoin="round" d="M -53.374864 -18.008013 C -53.374864 -18.008013 -0.549243 18.009082 -0.549243 18.009082 C -0.549243 18.009082 53.375028 -15.975099 53.375028 -15.975099 " stroke="#253237" stroke-width="2" stroke-opacity="1" stroke-miterlimit="4"/><path stroke-linecap="round" transform="matrix(1.425755, 0, 0, 1.425755, 984.467537, 589.354855)" fill="none" stroke-linejoin="round" d="M -21.257071 20.880263 C -21.257071 20.880263 21.256033 -20.882142 21.256033 -20.882142 " stroke="#253237" stroke-width="2" stroke-opacity="1" stroke-miterlimit="4"/><path stroke-linecap="round" transform="matrix(1.425755, 0, 0, 1.425755, 1076.999017, 591.117112)" fill="none" stroke-linejoin="round" d="M 20.592846 21.677161 C 20.592846 21.677161 -20.591467 -21.677054 -20.591467 -21.677054 " stroke="#253237" stroke-width="2" stroke-opacity="1" stroke-miterlimit="4"/><path stroke-linecap="butt" transform="matrix(1.425755, 0, 0, 1.425755, 1467.363755, 742.821386)" fill-opacity="1" fill="#253237" fill-rule="nonzero" stroke-linejoin="miter" d="M 69.176272 63.962057 C 69.176272 63.962057 -69.174196 63.962057 -69.174196 63.962057 C -78.623683 63.962057 -86.281357 56.301644 -86.281357 46.854896 C -86.281357 46.854896 -86.281357 -46.856402 -86.281357 -46.856402 C -86.281357 -56.303149 -78.623683 -63.960823 -69.174196 -63.960823 C -69.174196 -63.960823 69.176272 -63.960823 69.176272 -63.960823 C 78.623019 -63.960823 86.280693 -56.303149 86.280693 -46.856402 C 86.280693 -46.856402 86.280693 46.854896 86.280693 46.854896 C 86.280693 56.301644 78.623019 63.962057 69.176272 63.962057 Z M 69.176272 63.962057 " stroke="#253237" stroke-width="2" stroke-opacity="1" stroke-miterlimit="10"/><path stroke-linecap="butt" transform="matrix(1.425755, 0, 0, 1.425755, 1448.760432, 726.078748)" fill-opacity="1" fill="#ffffff" fill-rule="nonzero" stroke-linejoin="miter" d="M 69.174767 63.962373 C 69.174767 63.962373 -69.175701 63.962373 -69.175701 63.962373 C -78.622449 63.962373 -86.282862 56.30196 -86.282862 46.855212 C -86.282862 46.855212 -86.282862 -46.856086 -86.282862 -46.856086 C -86.282862 -56.302833 -78.622449 -63.963247 -69.175701 -63.963247 C -69.175701 -63.963247 69.174767 -63.963247 69.174767 -63.963247 C 78.624254 -63.963247 86.281928 -56.302833 86.281928 -46.856086 C 86.281928 -46.856086 86.281928 46.855212 86.281928 46.855212 C 86.281928 56.30196 78.624254 63.962373 69.174767 63.962373 Z M 69.174767 63.962373 " stroke="#253237" stroke-width="2" stroke-opacity="1" stroke-miterlimit="10"/><path fill="#253237" d="M 1501.03125 739.140625 C 1501.03125 739.140625 1421.316406 739.140625 1421.316406 739.140625 C 1420.183594 739.140625 1419.265625 738.230469 1419.265625 737.109375 C 1419.265625 735.984375 1420.183594 735.074219 1421.316406 735.074219 C 1421.316406 735.074219 1499.3125 735.074219 1499.3125 735.074219 C 1499.3125 735.074219 1508.097656 685.863281 1508.097656 685.863281 C 1508.097656 685.863281 1413.804688 685.863281 1413.804688 685.863281 C 1412.671875 685.863281 1411.75 684.953125 1411.75 683.828125 C 1411.75 682.703125 1412.671875 681.792969 1413.804688 681.792969 C 1413.804688 681.792969 1510.550781 681.792969 1510.550781 681.792969 C 1511.15625 681.792969 1511.734375 682.058594 1512.125 682.523438 C 1512.515625 682.984375 1512.679688 683.589844 1512.574219 684.1875 C 1512.574219 684.1875 1503.054688 737.464844 1503.054688 737.464844 C 1502.878906 738.4375 1502.027344 739.140625 1501.03125 739.140625 Z M 1501.03125 739.140625 " fill-opacity="1" fill-rule="nonzero"/><path fill="#253237" d="M 1498.390625 757.78125 C 1498.390625 757.78125 1498.382812 757.78125 1498.382812 757.78125 C 1498.382812 757.78125 1422.464844 757.523438 1422.464844 757.523438 C 1421.433594 757.519531 1420.566406 756.757812 1420.4375 755.746094 C 1420.4375 755.746094 1409.546875 671.683594 1409.546875 671.683594 C 1409.546875 671.683594 1386.96875 671.683594 1386.96875 671.683594 C 1385.835938 671.683594 1384.917969 670.773438 1384.917969 669.648438 C 1384.917969 668.523438 1385.835938 667.613281 1386.96875 667.613281 C 1386.96875 667.613281 1411.351562 667.613281 1411.351562 667.613281 C 1412.386719 667.613281 1413.257812 668.371094 1413.390625 669.390625 C 1413.390625 669.390625 1424.28125 753.457031 1424.28125 753.457031 C 1424.28125 753.457031 1498.398438 753.710938 1498.398438 753.710938 C 1499.535156 753.714844 1500.449219 754.628906 1500.445312 755.753906 C 1500.441406 756.875 1499.523438 757.78125 1498.390625 757.78125 Z M 1498.390625 757.78125 " fill-opacity="1" fill-rule="nonzero"/><path fill="#253237" d="M 1434.859375 784.546875 C 1428.515625 784.546875 1423.351562 779.433594 1423.351562 773.148438 C 1423.351562 766.863281 1428.515625 761.75 1434.859375 761.75 C 1441.199219 761.75 1446.363281 766.863281 1446.363281 773.148438 C 1446.363281 779.433594 1441.199219 784.546875 1434.859375 784.546875 Z M 1434.859375 765.820312 C 1430.777344 765.820312 1427.460938 769.105469 1427.460938 773.148438 C 1427.460938 777.1875 1430.777344 780.476562 1434.859375 780.476562 C 1438.9375 780.476562 1442.257812 777.1875 1442.257812 773.148438 C 1442.257812 769.105469 1438.9375 765.820312 1434.859375 765.820312 Z M 1434.859375 765.820312 " fill-opacity="1" fill-rule="nonzero"/><path fill="#253237" d="M 1487.257812 784.546875 C 1480.914062 784.546875 1475.753906 779.433594 1475.753906 773.148438 C 1475.753906 766.863281 1480.914062 761.75 1487.257812 761.75 C 1493.601562 761.75 1498.765625 766.863281 1498.765625 773.148438 C 1498.765625 779.433594 1493.601562 784.546875 1487.257812 784.546875 Z M 1487.257812 765.820312 C 1483.179688 765.820312 1479.859375 769.105469 1479.859375 773.148438 C 1479.859375 777.1875 1483.179688 780.476562 1487.257812 780.476562 C 1491.335938 780.476562 1494.65625 777.1875 1494.65625 773.148438 C 1494.65625 769.105469 1491.335938 765.820312 1487.257812 765.820312 Z M 1487.257812 765.820312 " fill-opacity="1" fill-rule="nonzero"/><path fill="#253237" d="M 1445.929688 739.140625 C 1444.851562 739.140625 1443.949219 738.3125 1443.878906 737.234375 C 1443.878906 737.234375 1440.640625 685.675781 1440.640625 685.675781 C 1440.566406 684.550781 1441.429688 683.585938 1442.5625 683.515625 C 1443.785156 683.476562 1444.667969 684.304688 1444.738281 685.421875 C 1444.738281 685.421875 1447.980469 736.980469 1447.980469 736.980469 C 1448.050781 738.105469 1447.191406 739.066406 1446.058594 739.136719 C 1446.015625 739.140625 1445.96875 739.140625 1445.929688 739.140625 Z M 1445.929688 739.140625 " fill-opacity="1" fill-rule="nonzero"/><path fill="#253237" d="M 1475.074219 739.140625 C 1475.039062 739.140625 1475 739.140625 1474.957031 739.136719 C 1473.828125 739.074219 1472.960938 738.117188 1473.027344 736.996094 C 1473.027344 736.996094 1475.933594 685.433594 1475.933594 685.433594 C 1476 684.316406 1476.871094 683.476562 1478.101562 683.515625 C 1479.230469 683.578125 1480.097656 684.539062 1480.035156 685.660156 C 1480.035156 685.660156 1477.125 737.222656 1477.125 737.222656 C 1477.066406 738.304688 1476.160156 739.140625 1475.074219 739.140625 Z M 1475.074219 739.140625 " fill-opacity="1" fill-rule="nonzero"/><path fill="#253237" d="M 1416.753906 713.363281 C 1415.625 713.363281 1414.710938 712.464844 1414.699219 711.347656 C 1414.6875 710.222656 1415.597656 709.304688 1416.734375 709.292969 C 1416.734375 709.292969 1505.769531 708.433594 1505.769531 708.433594 C 1507.078125 708.410156 1507.832031 709.324219 1507.84375 710.449219 C 1507.855469 711.574219 1506.945312 712.492188 1505.808594 712.503906 C 1505.808594 712.503906 1416.773438 713.363281 1416.773438 713.363281 C 1416.773438 713.363281 1416.753906 713.363281 1416.753906 713.363281 Z M 1416.753906 713.363281 " fill-opacity="1" fill-rule="nonzero"/><path stroke-linecap="butt" transform="matrix(1.425755, 0, 0, 1.425755, 1762.477942, 1055.785823)" fill-opacity="1" fill="#253237" fill-rule="nonzero" stroke-linejoin="miter" d="M 69.175636 63.962342 C 69.175636 63.962342 -69.174832 63.962342 -69.174832 63.962342 C -78.624319 63.962342 -86.281993 56.301929 -86.281993 46.855181 C -86.281993 46.855181 -86.281993 -46.856116 -86.281993 -46.856116 C -86.281993 -56.302864 -78.624319 -63.963278 -69.174832 -63.963278 C -69.174832 -63.963278 69.175636 -63.963278 69.175636 -63.963278 C 78.625123 -63.963278 86.282797 -56.302864 86.282797 -46.856116 C 86.282797 -46.856116 86.282797 46.855181 86.282797 46.855181 C 86.282797 56.301929 78.625123 63.962342 69.175636 63.962342 Z M 69.175636 63.962342 " stroke="#253237" stroke-width="2" stroke-opacity="1" stroke-miterlimit="10"/><path stroke-linecap="butt" transform="matrix(1.425755, 0, 0, 1.425755, 1743.874715, 1037.182596)" fill-opacity="1" fill="#ffffff" fill-rule="nonzero" stroke-linejoin="miter" d="M 69.176804 63.96077 C 69.176804 63.96077 -69.173664 63.96077 -69.173664 63.96077 C -78.623151 63.96077 -86.280825 56.303096 -86.280825 46.856349 C -86.280825 46.856349 -86.280825 -46.854949 -86.280825 -46.854949 C -86.280825 -56.301696 -78.623151 -63.96211 -69.173664 -63.96211 C -69.173664 -63.96211 69.176804 -63.96211 69.176804 -63.96211 C 78.623551 -63.96211 86.281225 -56.301696 86.281225 -46.854949 C 86.281225 -46.854949 86.281225 46.856349 86.281225 46.856349 C 86.281225 56.303096 78.623551 63.96077 69.176804 63.96077 Z M 69.176804 63.96077 " stroke="#253237" stroke-width="2" stroke-opacity="1" stroke-miterlimit="10"/><path stroke-linecap="round" transform="matrix(1.425755, 0, 0, 1.425755, 1743.874715, 1037.182596)" fill="none" stroke-linejoin="round" d="M 41.307802 0.000699948 C 41.307802 22.814815 22.814315 41.308302 0.000199947 41.308302 C -22.813915 41.308302 -41.310142 22.814815 -41.310142 0.000699948 C -41.310142 -22.813415 -22.813915 -41.309642 0.000199947 -41.309642 C 22.814315 -41.309642 41.307802 -22.813415 41.307802 0.000699948 Z M 41.307802 0.000699948 " stroke="#253237" stroke-width="2" stroke-opacity="1" stroke-miterlimit="4"/><path stroke-linecap="round" transform="matrix(1.425755, 0, 0, 1.425755, 1743.70499, 1037.182596)" fill="none" stroke-linejoin="round" d="M 0.445275 -41.309642 C 29.317034 -41.309642 29.317034 41.308302 0.445275 41.308302 C -29.316911 41.308302 -29.316911 -41.309642 0.445275 -41.309642 Z M 0.445275 -41.309642 " stroke="#253237" stroke-width="2" stroke-opacity="1" stroke-miterlimit="4"/><path stroke-linecap="round" transform="matrix(1.425755, 0, 0, 1.425755, 1613.728938, 938.859658)" fill="none" stroke-linejoin="round" d="M 91.608223 27.65236 C 91.608223 27.65236 91.608223 110.270305 91.608223 110.270305 " stroke="#253237" stroke-width="2" stroke-opacity="1" stroke-miterlimit="4"/><path stroke-linecap="round" transform="matrix(1.425755, 0, 0, 1.425755, 1613.728938, 938.859658)" fill="none" stroke-linejoin="round" d="M 49.974587 68.962702 C 49.974587 68.962702 132.592532 68.962702 132.592532 68.962702 " stroke="#253237" stroke-width="2" stroke-opacity="1" stroke-miterlimit="4"/><path stroke-linecap="round" transform="matrix(1.425753, -0.00254314, 0.00254314, 1.425753, 662.089612, 1472.175466)" fill-opacity="1" fill="#2d44ad" fill-rule="nonzero" stroke-linejoin="round" d="M 214.789912 -41.014736 C 214.789912 -41.014736 208.009671 176.695299 208.009671 176.695299 C 208.009671 176.695299 206.361238 220.72611 206.361238 220.72611 C 206.361238 220.72611 206.340618 221.534308 206.340618 221.534308 C 206.340618 221.534308 206.161235 220.725753 206.161235 220.725753 C 206.161235 220.725753 -158.775872 196.764757 -158.775872 196.764757 C -158.775872 196.764757 -175.400681 176.696349 -175.400681 176.696349 C -175.400681 176.696349 -205.538816 -64.14575 -205.538816 -64.14575 C -216.030612 -147.966127 -145.539085 -221.535004 -54.750982 -221.534711 C -54.750982 -221.534711 26.08898 -221.535723 26.08898 -221.535723 C 89.610787 -221.534749 145.631211 -192.42603 179.821023 -147.934026 C 202.899428 -117.905964 216.03086 -80.854409 214.789912 -41.014736 Z M 214.789912 -41.014736 " stroke="#253237" stroke-width="2" stroke-opacity="1" stroke-miterlimit="4"/><path stroke-linecap="round" transform="matrix(1.425753, -0.00254314, 0.00254314, 1.425753, 961.409082, 1509.851847)" fill-opacity="1" fill="#d4d4d4" fill-rule="nonzero" stroke-linejoin="round" d="M 61.201275 193.923772 C 61.201275 193.923772 -3.528781 193.926122 -3.528781 193.926122 C -3.528781 193.926122 -3.549401 194.734321 -3.549401 194.734321 C -3.549401 194.734321 -3.728784 193.925765 -3.728784 193.925765 C -3.728784 193.925765 -14.940879 149.893934 -14.940879 149.893934 C -14.940879 149.893934 -59.280143 -59.753698 -59.280143 -59.753698 C -61.200141 -101.555212 -49.980545 -147.744336 -30.068996 -174.734014 C -23.268852 -183.954944 -15.458985 -190.935673 -6.810943 -194.734021 C 13.189339 -134.76565 33.54974 1.325422 53.970074 149.896301 C 56.379953 167.424235 58.78912 176.135555 61.201275 193.923772 Z M 61.201275 193.923772 " stroke="#253237" stroke-width="2" stroke-opacity="1" stroke-miterlimit="4"/><path stroke-linecap="round" transform="matrix(1.425753, -0.00254314, 0.00254314, 1.425753, 723.473144, 1463.575624)" fill-opacity="1" fill="#d4d4d4" fill-rule="nonzero" stroke-linejoin="round" d="M 161.212413 -162.028979 C 130.346889 -179.396706 100.214131 -194.390477 71.53329 -204.682935 C 71.53329 -204.682935 -61.47019 -210.3559 -61.47019 -210.3559 C -96.127279 -195.631123 -129.66612 -178.06868 -161.211243 -155.425867 C -161.211243 -155.425867 -79.496384 201.951637 -79.496384 201.951637 C 9.926018 210.355141 81.188503 208.372622 125.587461 191.018594 C 125.587461 191.018594 161.212413 -162.028979 161.212413 -162.028979 Z M 161.212413 -162.028979 " stroke="#253237" stroke-width="2" stroke-opacity="1" stroke-miterlimit="4"/><path stroke-linecap="butt" transform="matrix(1.425753, -0.00254314, 0.00254314, 1.425753, 721.136655, 1144.837457)" fill-opacity="1" fill="#ffffff" fill-rule="nonzero" stroke-linejoin="miter" d="M -46.432289 -66.868775 C -46.432289 -66.868775 -39.78278 -5.463915 -39.78278 -5.463915 C -39.78278 -5.463915 24.303168 66.871008 24.303168 66.871008 C 24.303168 66.871008 46.431294 21.397246 46.431294 21.397246 C 46.431294 21.397246 44.134454 -37.999811 44.134454 -37.999811 C 44.134454 -37.999811 -46.432289 -66.868775 -46.432289 -66.868775 Z M -46.432289 -66.868775 " stroke="#253237" stroke-width="2" stroke-opacity="1" stroke-miterlimit="10"/><path stroke-linecap="round" transform="matrix(1.425753, -0.00254314, 0.00254314, 1.425753, 683.10288, 1187.069102)" fill-opacity="1" fill="#d4d4d4" fill-rule="nonzero" stroke-linejoin="round" d="M 51.032191 37.298094 C 51.032191 37.298094 18.704506 20.971614 18.704506 20.971614 C 18.704506 20.971614 1.975815 46.854618 1.975815 46.854618 C 1.975815 46.854618 -51.031603 -18.696026 -51.031603 -18.696026 C -51.031603 -18.696026 -27.162611 -46.35811 -27.162611 -46.35811 C -27.162611 -46.35811 -14.334071 -46.855785 -14.334071 -46.855785 C -14.334071 -46.855785 -13.053757 -35.036829 -13.053757 -35.036829 C -13.053757 -35.036829 51.032191 37.298094 51.032191 37.298094 Z M 51.032191 37.298094 " stroke="#253237" stroke-width="2" stroke-opacity="1" stroke-miterlimit="4"/><path stroke-linecap="round" transform="matrix(1.425753, -0.00254314, 0.00254314, 1.425753, 790.434437, 1198.554717)" fill-opacity="1" fill="#d4d4d4" fill-rule="nonzero" stroke-linejoin="round" d="M -24.233809 29.105277 C -24.233809 29.105277 -2.776847 14.304899 -2.776847 14.304899 C -2.776847 14.304899 22.52666 37.964201 22.52666 37.964201 C 22.52666 37.964201 24.233576 -18.885938 24.233576 -18.885938 C 24.233576 -18.885938 -2.941152 -37.964924 -2.941152 -37.964924 C -2.941152 -37.964924 -2.105689 -16.365745 -2.105689 -16.365745 C -2.105689 -16.365745 -24.233809 29.105277 -24.233809 29.105277 Z M -24.233809 29.105277 " stroke="#253237" stroke-width="2" stroke-opacity="1" stroke-miterlimit="4"/><path stroke-linecap="round" transform="matrix(1.425753, -0.00254314, 0.00254314, 1.425753, 749.820777, 1253.160901)" fill-opacity="1" fill="#2d44ad" fill-rule="nonzero" stroke-linejoin="round" d="M 20.526738 -20.320477 C 23.034166 -3.721155 21.754173 10.391911 16.563625 21.930827 C 16.563625 21.930827 -9.986678 22.957462 -9.986678 22.957462 C -18.103358 11.482483 -21.537479 -4.754102 -23.033808 -22.957132 C -23.033808 -22.957132 4.320179 -9.143683 4.320179 -9.143683 C 4.320179 -9.143683 20.526738 -20.320477 20.526738 -20.320477 Z M 20.526738 -20.320477 " stroke="#253237" stroke-width="2" stroke-opacity="1" stroke-miterlimit="4"/><path stroke-linecap="round" transform="matrix(1.425753, -0.00254314, 0.00254314, 1.425753, 765.459882, 1501.782266)" fill-opacity="1" fill="#2d44ad" fill-rule="nonzero" stroke-linejoin="round" d="M 5.902947 -152.467182 C 5.902947 -152.467182 30.763874 -28.140919 30.763874 -28.140919 C 27.408349 28.295312 19.05206 89.711763 9.353633 152.465573 C -6.6231 96.235959 -21.493867 37.441144 -30.766043 -34.324764 C -30.766043 -34.324764 -20.647356 -151.440547 -20.647356 -151.440547 C -20.647356 -151.440547 5.902947 -152.467182 5.902947 -152.467182 Z M 5.902947 -152.467182 " stroke="#253237" stroke-width="2" stroke-opacity="1" stroke-miterlimit="4"/><path stroke-linecap="round" transform="matrix(1.425753, -0.00254314, 0.00254314, 1.425753, 470.114797, 1507.651473)" fill-opacity="1" fill="#d4d4d4" fill-rule="nonzero" stroke-linejoin="round" d="M 66.806277 -29.483553 C 66.806277 -29.483553 20.396154 136.954778 20.396154 136.954778 C 5.821727 185.431113 -72.923908 161.75594 -58.352226 113.282339 C -37.120089 1.805669 -11.470259 -96.501216 17.327288 -185.429698 C 55.71893 -154.204435 72.923649 -102.898756 66.806277 -29.483553 Z M 66.806277 -29.483553 " stroke="#253237" stroke-width="2" stroke-opacity="1" stroke-miterlimit="4"/><path stroke-linecap="round" transform="matrix(1.425753, -0.00254314, 0.00254314, 1.425753, 720.478124, 1099.378359)" fill-opacity="1" fill="#253237" fill-rule="nonzero" stroke-linejoin="round" d="M 42.959598 1.011277 C 42.959598 1.011277 43.774115 22.065202 43.774115 22.065202 C -1.902741 24.709809 -25.448088 6.09484 -43.774325 -24.711063 C -14.022039 -5.309664 12.797147 2.664359 42.959598 1.011277 Z M 42.959598 1.011277 " stroke="#253237" stroke-width="2" stroke-opacity="1" stroke-miterlimit="4"/><path stroke-linecap="butt" transform="matrix(1.425753, -0.00254314, 0.00254314, 1.425753, 779.740806, 1460.503981)" fill-opacity="1" fill="#ffffff" fill-rule="nonzero" stroke-linejoin="miter" d="M -57.684444 2.69985 C -46.762362 -13.398796 -32.333901 -27.658275 -16.268592 -41.054543 C -14.087219 -42.875346 -11.490255 -44.215946 -8.681227 -44.638341 C -4.12101 -45.323371 -0.915973 -43.50392 1.170283 -39.61519 C 4.217713 -33.91649 2.810527 -26.831189 -1.715601 -22.217252 C -1.715601 -22.217252 -17.758796 -5.859242 -17.758796 -5.859242 C -9.035087 -7.534126 -0.922835 -10.473139 6.738983 -14.325303 C 16.622014 -19.294075 24.078917 -28.072729 27.883822 -38.460669 C 27.922365 -38.564712 27.960912 -38.671495 28.002199 -38.778273 C 31.567577 -48.511832 44.988694 -49.449556 49.857389 -40.292745 C 50.425361 -39.225957 50.952158 -38.115406 51.440519 -36.961088 C 57.685565 -22.20993 54.644124 -5.154742 44.60796 7.328974 C 36.337392 17.615796 25.266404 26.571569 9.919513 33.489538 C 9.919513 33.489538 -37.063312 49.449888 -37.063312 49.449888 C -37.063312 49.449888 -57.684444 2.69985 -57.684444 2.69985 Z M -57.684444 2.69985 " stroke="#253237" stroke-width="2" stroke-opacity="1" stroke-miterlimit="10"/><path fill="#d4d4d4" d="M 475.835938 1734.679688 C 420.523438 1778.304688 347.917969 1686.25 403.238281 1642.625 C 403.238281 1642.625 700.375 1449.769531 700.375 1449.769531 C 700.375 1449.769531 743.710938 1532.015625 743.710938 1532.015625 C 743.710938 1532.015625 475.835938 1734.679688 475.835938 1734.679688 Z M 475.835938 1734.679688 " fill-opacity="1" fill-rule="nonzero"/><path stroke-linecap="butt" transform="matrix(1.425753, -0.00254314, 0.00254314, 1.425753, 609.700378, 1592.186467)" fill="none" stroke-linejoin="miter" d="M 63.77568 -99.775172 C 63.77568 -99.775172 94.067812 -42.035062 94.067812 -42.035062 C 94.067812 -42.035062 -94.068318 99.774643 -94.068318 99.774643 " stroke="#253237" stroke-width="2" stroke-opacity="1" stroke-miterlimit="10"/><path stroke-linecap="round" transform="matrix(1.425753, -0.00254314, 0.00254314, 1.425753, 421.150713, 1711.084555)" fill="none" stroke-linejoin="round" d="M -21.43781 -41.375076 C -38.325655 3.077875 0.686265 41.372878 38.325689 16.617605 " stroke="#253237" stroke-width="2" stroke-opacity="1" stroke-miterlimit="4"/><path stroke-linecap="round" transform="matrix(1.425753, -0.00254314, 0.00254314, 1.425753, 581.854011, 1526.695576)" fill="none" stroke-linejoin="round" d="M -83.225369 53.80586 C -83.225369 53.80586 83.224675 -53.806231 83.224675 -53.806231 " stroke="#253237" stroke-width="2" stroke-opacity="1" stroke-miterlimit="4"/><path stroke-linecap="round" transform="matrix(1.425753, -0.00254314, 0.00254314, 1.425753, 858.378022, 877.548262)" fill-opacity="1" fill="#253237" fill-rule="nonzero" stroke-linejoin="round" d="M 7.627472 -36.473023 C 16.158248 -12.928573 12.216069 11.442962 -1.72474 36.470647 C -1.72474 36.470647 -16.159339 -31.844127 -16.159339 -31.844127 C -16.159339 -31.844127 7.627472 -36.473023 7.627472 -36.473023 Z M 7.627472 -36.473023 " stroke="#253237" stroke-width="2" stroke-opacity="1" stroke-miterlimit="4"/><path stroke-linecap="butt" transform="matrix(1.425753, -0.00254314, 0.00254314, 1.425753, 749.307717, 939.970029)" fill-opacity="1" fill="#ffffff" fill-rule="nonzero" stroke-linejoin="miter" d="M -73.726953 -12.244974 C -73.726953 -12.244974 -71.321794 32.505409 -71.321794 32.505409 C -71.321794 32.505409 -65.417327 86.130704 -65.417327 86.130704 C -28.899803 109.736034 9.193345 120.913791 50.145868 109.586613 C 58.914752 107.16111 65.768233 100.293746 68.216784 91.533556 C 79.017386 52.916438 78.361061 0.00736746 66.575863 -66.790322 C 32.710088 -120.914816 -37.356958 -114.825973 -79.017591 -67.471946 C -79.017591 -67.471946 -73.726953 -12.244974 -73.726953 -12.244974 Z M -73.726953 -12.244974 " stroke="#253237" stroke-width="2" stroke-opacity="1" stroke-miterlimit="10"/><path stroke-linecap="butt" transform="matrix(1.425753, -0.00254314, 0.00254314, 1.425753, 622.497082, 945.843626)" fill-opacity="1" fill="#ffffff" fill-rule="nonzero" stroke-linejoin="miter" d="M 15.223036 -16.205959 C 5.965745 -30.269325 -17.81763 -19.886883 -9.536745 3.977676 C -0.922726 23.861928 8.372948 28.695043 17.8169 30.270823 C 17.8169 30.270823 15.223036 -16.205959 15.223036 -16.205959 Z M 15.223036 -16.205959 " stroke="#253237" stroke-width="2" stroke-opacity="1" stroke-miterlimit="10"/><path stroke-linecap="round" transform="matrix(1.425753, -0.00254314, 0.00254314, 1.425753, 639.846411, 876.713337)" fill-opacity="1" fill="#253237" fill-rule="nonzero" stroke-linejoin="round" d="M 20.538408 -43.086452 C 39.141035 -16.704802 27.04467 37.18702 4.532798 52.040311 C 4.532798 52.040311 2.96805 32.259046 2.96805 32.259046 C -3.103819 26.404264 -9.536228 22.998202 -17.371962 29.121333 C -35.815935 -3.262892 -39.142357 -30.726905 -23.575261 -52.042027 C -23.575261 -52.042027 20.538408 -43.086452 20.538408 -43.086452 Z M 20.538408 -43.086452 " stroke="#253237" stroke-width="2" stroke-opacity="1" stroke-miterlimit="4"/><path stroke-linecap="round" transform="matrix(1.425753, -0.00254314, 0.00254314, 1.425753, 752.746829, 784.195604)" fill-opacity="1" fill="#253237" fill-rule="nonzero" stroke-linejoin="round" d="M 74.941883 -46.744172 C 102.876134 -8.036044 90.398816 22.88478 65.492646 51.410785 C 42.620243 28.772278 3.64937 27.368492 -49.972701 45.289641 C -49.972701 45.289641 -102.877277 12.706959 -102.877277 12.706959 C -100.106028 -34.119165 -49.172807 -51.409481 -8.618825 -29.766853 C 34.906644 -13.609445 63.370587 -18.421784 74.941883 -46.744172 Z M 74.941883 -46.744172 " stroke="#253237" stroke-width="2" stroke-opacity="1" stroke-miterlimit="4"/><path stroke-linecap="butt" transform="matrix(1.425753, -0.00254314, 0.00254314, 1.425753, 675.925894, 998.59258)" fill="none" stroke-linejoin="miter" d="M -25.252043 -24.907729 C -15.012026 -1.149267 -0.550064 18.033074 25.251882 24.90937 " stroke="#253237" stroke-width="4" stroke-opacity="1" stroke-miterlimit="10"/><path stroke-linecap="butt" transform="matrix(1.425753, -0.00254314, 0.00254314, 1.425753, 714.523778, 1034.405806)" fill-opacity="1" fill="#253237" fill-rule="nonzero" stroke-linejoin="miter" d="M 2.329359 7.240226 C 2.329359 7.240226 -6.390277 5.095864 -6.390277 5.095864 C -9.106953 4.430731 -10.680707 1.986779 -9.906648 -0.357092 C -9.906648 -0.357092 -8.642231 -4.201488 -8.642231 -4.201488 C -7.868172 -6.54536 -5.043774 -7.904732 -2.327098 -7.2396 C -2.327098 -7.2396 6.389803 -5.097981 6.389803 -5.097981 C 9.106474 -4.430109 10.680233 -1.988897 9.908914 0.354979 C 9.908914 0.354979 8.641752 4.20211 8.641752 4.20211 C 7.870433 6.545987 5.043295 7.905354 2.329359 7.240226 Z M 2.329359 7.240226 " stroke="#253237" stroke-width="2" stroke-opacity="1" stroke-miterlimit="10"/><path stroke-linecap="butt" transform="matrix(1.425753, -0.00254314, 0.00254314, 1.425753, 638.538008, 951.299905)" fill-opacity="1" fill="#2d44ad" fill-rule="nonzero" stroke-linejoin="miter" d="M 29.982158 -0.000701364 C 29.982758 16.558532 16.55855 29.98143 -0.000684269 29.98203 C -16.559918 29.982631 -29.982815 16.558422 -29.980676 -0.000806655 C -29.981277 -16.56004 -16.559808 -29.982943 -0.000578978 -29.980803 C 16.558655 -29.981404 29.981557 -16.559935 29.982158 -0.000701364 Z M 29.982158 -0.000701364 " stroke="#253237" stroke-width="2" stroke-opacity="1" stroke-miterlimit="10"/><path stroke-linecap="butt" transform="matrix(1.425753, -0.00254314, 0.00254314, 1.425753, 692.552784, 848.919723)" fill-opacity="1" fill="#2d44ad" fill-rule="nonzero" stroke-linejoin="miter" d="M -50.671783 68.076862 C -44.083891 13.498488 -28.547121 -38.430994 24.759478 -79.169598 C 40.52297 -81.566186 43.597811 -78.946951 52.555881 -69.163655 C -7.252802 -44.993142 -22.912712 8.388204 -32.469252 71.468301 C -34.353059 81.569251 -52.555586 78.175072 -50.671783 68.076862 Z M -50.671783 68.076862 " stroke="#253237" stroke-width="2" stroke-opacity="1" stroke-miterlimit="10"/><path stroke-linecap="round" transform="matrix(1.425753, -0.00254314, 0.00254314, 1.425753, 810.854665, 958.286728)" fill="none" stroke-linejoin="round" d="M -5.897873 -33.965721 C -3.723213 -8.983264 2.507931 12.025528 12.762642 29.082514 C 3.651798 32.756747 -4.810802 33.966334 -12.763059 33.223367 " stroke="#253237" stroke-width="2" stroke-opacity="1" stroke-miterlimit="4"/><path stroke-linecap="round" transform="matrix(1.425753, -0.00254314, 0.00254314, 1.425753, 734.308288, 897.332389)" fill="none" stroke-linejoin="round" d="M 12.173827 -5.03891 C 1.1621 -6.266795 -6.954373 -2.497636 -12.175587 6.265828 " stroke="#253237" stroke-width="2" stroke-opacity="1" stroke-miterlimit="4"/><path stroke-linecap="round" transform="matrix(1.425753, -0.00254314, 0.00254314, 1.425753, 830.745904, 904.210755)" fill="none" stroke-linejoin="round" d="M 9.871488 3.113688 C 4.728023 -0.991459 -1.394339 -3.11475 -9.873183 -0.477766 " stroke="#253237" stroke-width="2" stroke-opacity="1" stroke-miterlimit="4"/><path stroke-linecap="round" transform="matrix(1.425753, -0.00254314, 0.00254314, 1.425753, 747.084481, 943.722297)" fill-opacity="1" fill="#253237" fill-rule="nonzero" stroke-linejoin="round" d="M -5.024082 0.194034 C -4.811988 5.704111 -2.38961 10.081121 0.385979 9.973741 C 3.161568 9.866361 5.238222 5.31381 5.026124 -0.193527 C 4.81129 -5.703608 2.388917 -10.083358 -0.386672 -9.975978 C -3.162261 -9.868598 -5.238916 -5.316048 -5.024082 0.194034 Z M -5.024082 0.194034 " stroke="#253237" stroke-width="2" stroke-opacity="1" stroke-miterlimit="4"/><path stroke-linecap="round" transform="matrix(1.425753, -0.00254314, 0.00254314, 1.425753, 831.790399, 931.827256)" fill-opacity="1" fill="#253237" fill-rule="nonzero" stroke-linejoin="round" d="M -3.973891 0.152428 C -3.801051 4.629538 -1.88134 8.191937 0.313378 8.105439 C 2.508092 8.021681 4.147598 4.323162 3.974758 -0.153948 C 3.801919 -4.631057 1.882203 -8.190717 -0.312511 -8.106958 C -2.509969 -8.020465 -4.146731 -4.324681 -3.973891 0.152428 Z M -3.973891 0.152428 " stroke="#253237" stroke-width="2" stroke-opacity="1" stroke-miterlimit="4"/><path stroke-linecap="round" transform="matrix(1.425753, -0.00254314, 0.00254314, 1.425753, 764.957497, 1049.012578)" fill="none" stroke-linejoin="round" d="M 14.819622 4.340986 C 3.897095 3.792725 -6.222188 1.434903 -14.820273 -4.342192 " stroke="#253237" stroke-width="2" stroke-opacity="1" stroke-miterlimit="4"/><path stroke-linecap="round" transform="matrix(1.425755, 0, 0, 1.425755, 1819.255929, 1572.197424)" fill-opacity="1" fill="#ffffff" fill-rule="nonzero" stroke-linejoin="round" d="M 7.71927 -86.529086 C 8.163113 -89.556538 10.626172 -91.879868 13.672803 -92.156586 C 17.952333 -92.540154 21.459246 -88.811319 20.809919 -84.564666 C 20.809919 -84.564666 -8.207048 92.542672 -8.207048 92.542672 C -8.207048 92.542672 -21.459344 92.542672 -21.459344 92.542672 C -21.459344 92.542672 7.71927 -86.529086 7.71927 -86.529086 Z M 7.71927 -86.529086 " stroke="#253237" stroke-width="2" stroke-opacity="1" stroke-miterlimit="4"/><path stroke-linecap="round" transform="matrix(1.425755, 0, 0, 1.425755, 1756.622457, 1366.863091)" fill-opacity="1" fill="#ffffff" fill-rule="nonzero" stroke-linejoin="round" d="M 61.994695 59.664235 C 61.994695 59.664235 -57.623924 -71.740901 -57.623924 -71.740901 C -57.623924 -71.740901 -58.495173 -70.302518 -58.495173 -70.302518 C -58.495173 -70.302518 -64.295279 -60.702343 -64.295279 -60.702343 C -64.295279 -60.702343 52.180817 68.552068 52.180817 68.552068 C 55.057582 71.743907 60.164525 71.393216 62.578267 67.836987 C 64.293367 65.305434 64.052267 61.92729 61.994695 59.664235 Z M 61.994695 59.664235 " stroke="#253237" stroke-width="2" stroke-opacity="1" stroke-miterlimit="4"/><path stroke-linecap="round" transform="matrix(1.425755, 0, 0, 1.425755, 1791.439429, 1714.06144)" fill-opacity="1" fill="#d4d4d4" fill-rule="nonzero" stroke-linejoin="round" d="M -54.451661 8.663915 C -54.451661 8.663915 54.451694 8.663915 54.451694 8.663915 C 54.451694 8.663915 40.552811 -8.665168 4.294616 -8.665168 C -29.481343 -8.665168 -49.596778 1.26652 -54.451661 8.663915 Z M -54.451661 8.663915 " stroke="#253237" stroke-width="2" stroke-opacity="1" stroke-miterlimit="4"/><path stroke-linecap="round" transform="matrix(1.425755, 0, 0, 1.425755, 1674.274955, 1225.207014)" fill-opacity="1" fill="#d4d4d4" fill-rule="nonzero" stroke-linejoin="round" d="M 0.820869 6.775478 C 0.820869 6.775478 6.357956 -1.528783 6.357956 -1.528783 C 6.357956 -1.528783 -0.480525 -6.775454 -0.480525 -6.775454 C -0.480525 -6.775454 -6.357344 1.578123 -6.357344 1.578123 C -6.357344 1.578123 0.820869 6.775478 0.820869 6.775478 Z M 0.820869 6.775478 " stroke="#253237" stroke-width="2" stroke-opacity="1" stroke-miterlimit="4"/><path stroke-linecap="round" transform="matrix(1.425755, 0, 0, 1.425755, 1615.803296, 1298.138798)" fill-opacity="1" fill="#ffffff" fill-rule="nonzero" stroke-linejoin="round" d="M 51.207389 -39.366559 C 51.207389 -39.366559 27.371338 -56.649066 27.371338 -56.649066 C 27.371338 -56.649066 4.48051 -29.125277 4.48051 -29.125277 C -35.205146 -22.72516 -51.208177 2.239679 -51.208177 2.239679 C -51.208177 2.239679 19.845173 56.64889 19.845173 56.64889 C 44.166165 29.763468 32.642667 -8.642712 32.642667 -8.642712 C 32.642667 -8.642712 51.207389 -39.366559 51.207389 -39.366559 Z M 51.207389 -39.366559 " stroke="#253237" stroke-width="2" stroke-opacity="1" stroke-miterlimit="4"/><path stroke-linecap="round" transform="matrix(1.425755, 0, 0, 1.425755, 1642.268285, 1271.214749)" fill="none" stroke-linejoin="round" d="M -14.081574 -10.241216 C -14.081574 -10.241216 14.083323 10.241349 14.083323 10.241349 " stroke="#253237" stroke-width="2" stroke-opacity="1" stroke-miterlimit="4"/><path stroke-linecap="round" transform="matrix(1.425755, 0, 0, 1.425755, 906.910754, 1713.706518)" fill-opacity="1" fill="#ffffff" fill-rule="nonzero" stroke-linejoin="round" d="M 110.305702 11.027959 C 110.305702 11.027959 -110.30654 11.027959 -110.30654 11.027959 C -110.30654 11.027959 -110.30654 -11.029978 -110.30654 -11.029978 C -110.30654 -11.029978 110.305702 -11.029978 110.305702 -11.029978 C 110.305702 -11.029978 110.305702 11.027959 110.305702 11.027959 Z M 110.305702 11.027959 " stroke="#253237" stroke-width="2" stroke-opacity="1" stroke-miterlimit="4"/><path stroke-linecap="round" transform="matrix(1.425755, 0, 0, 1.425755, 1171.164554, 1381.757807)" fill-opacity="1" fill="#ffffff" fill-rule="nonzero" stroke-linejoin="round" d="M -245.097964 160.928966 C -245.097964 160.928966 245.097275 160.928966 245.097275 160.928966 C 245.097275 160.928966 245.097275 -160.928957 245.097275 -160.928957 C 245.097275 -160.928957 -245.097964 -160.928957 -245.097964 -160.928957 C -245.097964 -160.928957 -245.097964 160.928966 -245.097964 160.928966 Z M -245.097964 160.928966 " stroke="#253237" stroke-width="2" stroke-opacity="1" stroke-miterlimit="4"/><path stroke-linecap="round" transform="matrix(1.425755, 0, 0, 1.425755, 809.239487, 1381.759342)" fill-opacity="1" fill="#ffffff" fill-rule="nonzero" stroke-linejoin="round" d="M 8.749999 -160.930034 C 8.749999 -160.930034 -8.74895 -160.930034 -8.74895 -160.930034 C -8.74895 -160.930034 -8.74895 160.930629 -8.74895 160.930629 C -8.74895 160.930629 8.749999 160.930629 8.749999 160.930629 C 8.749999 160.930629 8.749999 -160.930034 8.749999 -160.930034 Z M 8.749999 -160.930034 " stroke="#253237" stroke-width="2" stroke-opacity="1" stroke-miterlimit="4"/><path stroke-linecap="round" transform="matrix(1.425755, 0, 0, 1.425755, 1226.024809, 1602.00288)" fill-opacity="1" fill="#ffffff" fill-rule="nonzero" stroke-linejoin="round" d="M -86.849121 -83.822726 C -86.849121 -83.822726 30.553019 -83.822726 30.553019 -83.822726 C 30.553019 -83.822726 86.849936 83.821426 86.849936 83.821426 C 86.849936 83.821426 -56.640351 83.821426 -56.640351 83.821426 C -56.640351 83.821426 -86.849121 -83.822726 -86.849121 -83.822726 Z M -86.849121 -83.822726 " stroke="#253237" stroke-width="2" stroke-opacity="1" stroke-miterlimit="4"/><path stroke-linecap="round" transform="matrix(1.425755, 0, 0, 1.425755, 1110.274866, 1602.00288)" fill-opacity="1" fill="#ffffff" fill-rule="nonzero" stroke-linejoin="round" d="M -5.664119 -83.822726 C -5.664119 -83.822726 -24.543915 -83.822726 -24.543915 -83.822726 C -24.543915 -83.822726 2.231915 83.821426 2.231915 83.821426 C 2.231915 83.821426 24.544651 83.821426 24.544651 83.821426 C 24.544651 83.821426 -5.664119 -83.822726 -5.664119 -83.822726 Z M -5.664119 -83.822726 " stroke="#253237" stroke-width="2" stroke-opacity="1" stroke-miterlimit="4"/><path stroke-linecap="round" transform="matrix(1.425755, 0, 0, 1.425755, 1147.669517, 1762.001108)" fill-opacity="1" fill="#253237" fill-rule="nonzero" stroke-linejoin="round" d="M -609.61768 26.514775 C -609.61768 26.514775 609.618248 26.514775 609.618248 26.514775 C 609.618248 26.514775 609.618248 -26.513589 609.618248 -26.513589 C 609.618248 -26.513589 -609.61768 -26.513589 -609.61768 -26.513589 C -609.61768 -26.513589 -609.61768 26.514775 -609.61768 26.514775 Z M -609.61768 26.514775 " stroke="#253237" stroke-width="2" stroke-opacity="1" stroke-miterlimit="4"/><path stroke-linecap="round" transform="matrix(1.425755, 0, 0, 1.425755, 1906.631836, 1761.996765)" fill-opacity="1" fill="#253237" fill-rule="nonzero" stroke-linejoin="round" d="M 77.295245 26.517821 C 77.295245 26.517821 -77.293875 26.517821 -77.293875 26.517821 C -77.293875 26.517821 -77.293875 -26.518763 -77.293875 -26.518763 C -77.293875 -26.518763 77.295245 -26.518763 77.295245 -26.518763 C 77.295245 -26.518763 77.295245 26.517821 77.295245 26.517821 Z M 77.295245 26.517821 " stroke="#253237" stroke-width="2" stroke-opacity="1" stroke-miterlimit="4"/></svg>