<?xml version="1.0" encoding="UTF-8"?>
<svg id="Layer_2" data-name="Layer 2" xmlns="http://www.w3.org/2000/svg" viewBox="0 0 6898.21 4164.71">
  <defs>
    <style>
      .cls-1 {
        fill: #0066b2;
      }

      .cls-1, .cls-2, .cls-3, .cls-4 {
        stroke-width: 0px;
      }

      .cls-2 {
        fill: #f26f21;
      }

      .cls-3 {
        fill: #fff;
      }

      .cls-4 {
        fill: #0db04b;
      }
    </style>
  </defs>
  <g id="Layer_1-2" data-name="Layer 1">
    <g>
      <path class="cls-4" d="M5554.7,640.7c-367.28,0-683.15,241.16-809.64,580.31-6.53,17.44-28.98,89.01-28.98,89.01l-511.1,2214h1174.17c403.45,0,744.89-291.13,841.57-683.41,0,.17-.11.17-.11.26h.11l507.86-2200.17h-1173.88Z"/>
      <path class="cls-2" d="M3599.6,0c-393.14,0-724.99,266.24-827.91,629.65-7.67,27.06-14.03,54.73-19.13,82.93l-797.07,3452.12h1173.25c402.13,0,740.14-278.47,834.64-654.57v.09h.37L4774.17,0h-1174.57Z"/>
      <path class="cls-1" d="M1349.63,640.7c-380.54,0-706.06,258.86-822.9,617.71-2.46,8.05-5.13,16.01-7.59,24.14l-19.5,77.18L0,3524.02h1202.69c359.23,0,667.71-238.49,787.48-572.55l47.62-205.93,485.84-2104.83h-1174Z"/>
      <path class="cls-3" d="M1130.11,1359.66l-.57,1.89h-18.07c-83.79,0-162.78,29.93-235.11,88.92-69.68,56.82-115.41,126.01-131.22,182.82h-.69l-269.45,1169.93,15.44-.29c84.62,0,164.75-29.93,237.35-89.58,73.11-59.28,119.71-132.16,138.63-216.24l58.88-253.96,535.64.2c83.71,0,164.38-31.36,237.46-90.32,72.91-58.91,119.59-131.33,138.35-215.13l3.41-15.35-840.31-.57,56.04-241.36,727.74-.94c83.71,0,162.95-29.53,235.11-88.06,72.05-58.59,117.01-132.45,137.17-215.5l3.69-15.44-1029.49-1.03Z"/>
      <path class="cls-3" d="M4101.22,1430.7c-46.31-46.42-106.7-69.9-179.44-69.9l-1027.12-1.12-331.8,1441.67h.4l-.4,1.78,15.35-.17c84.65,0,164.67-30.01,237.38-89.58,73.08-59.28,119.76-132.28,138.61-216.27l59.65-256.88,711.1.69c83.51,0,158.02-9.68,230.45-67.99,71.97-58.25,123.29-150.75,143.65-235.86l62.4-267.1c4.52-21.02,7.19-43.19,7.47-65.64,1.4-68.82-21.42-127.44-67.7-173.63M3780.71,1921.72l-692.8-.66,56.04-241.64,692.89.66-56.13,241.64Z"/>
      <path class="cls-3" d="M6190.96,1431.5c-45.36-46.39-105.67-69.96-178.87-69.96h-1083.85l-2.09,10.22c-4.81,22.62-7.56,43.44-7.85,63.63-1.23,70.16,21.31,129.33,66.95,176.01,45.45,46.39,105.76,69.96,179.04,69.96h226.67l-258.2,1121.73,15.24-.2c84.74,0,164.75-29.9,237.55-89.55,73.03-59.28,119.59-132.19,138.43-216.27l189.29-815.71h534.86l2.09-10.22c4.64-21.48,7.1-43.56,7.47-65.61,1.23-69.3-21.11-127.84-66.75-174.03"/>
      <path class="cls-1" d="M6401.61,3275.3c0-136.74,111.34-248.17,248.15-248.17s248.46,111.43,248.46,248.17-111.26,248.55-248.46,248.55-248.15-111.63-248.15-248.55M6837.9,3275.3c0-116.1-83.99-200.18-188.15-200.18s-187.55,84.08-187.55,200.18,83.88,200.35,187.55,200.35,188.15-83.99,188.15-200.35M6554.22,3133.63h104.64c67.3,0,104.13,23.4,104.13,82.68,0,48.2-27.72,71.39-73.94,75.66l75.75,122.88h-53.67l-72.74-121.11h-31.7v121.11h-52.46v-281.22ZM6606.68,3254.08h46.19c30.59,0,57.59-4.35,57.59-41.84,0-33.42-30.13-38.75-57.02-38.75h-46.77v80.59Z"/>
    </g>
  </g>
</svg>