<?xml version="1.0" standalone="no"?>
<!DOCTYPE svg PUBLIC "-//W3C//DTD SVG 20010904//EN"
 "http://www.w3.org/TR/2001/REC-SVG-20010904/DTD/svg10.dtd">
<svg version="1.0" xmlns="http://www.w3.org/2000/svg"
 width="1200.000000pt" height="628.000000pt" viewBox="0 0 1200.000000 628.000000"
 preserveAspectRatio="xMidYMid meet">

<g transform="translate(0.000000,628.000000) scale(0.100000,-0.100000)"
fill="#000000" stroke="none">
<path d="M880 3140 l0 -1100 1113 2 1112 3 3 1098 2 1097 -1115 0 -1115 0 0
-1100z m2030 5 l0 -905 -917 2 -918 3 -3 890 c-1 490 0 896 3 903 3 9 197 12
920 12 l915 0 0 -905z"/>
<path d="M1475 3870 c-2 -4 279 -502 360 -638 l20 -33 -44 -82 c-25 -45 -97
-176 -161 -292 -148 -267 -220 -401 -220 -409 0 -4 61 -5 137 -4 l136 3 141
262 c78 145 143 263 146 263 3 0 68 -111 145 -247 77 -136 147 -255 155 -265
13 -17 29 -18 152 -16 l136 3 -175 310 c-195 345 -645 1138 -649 1143 -3 5
-276 7 -279 2z"/>
<path d="M7715 3908 c-3 -7 -4 -346 -3 -753 l3 -740 125 -3 c145 -3 150 -1
150 85 0 29 3 53 6 53 4 0 24 -20 46 -44 106 -121 314 -149 481 -64 121 61
221 196 258 348 18 72 17 279 0 350 -37 150 -125 265 -248 323 -63 30 -75 32
-173 32 -127 -1 -188 -21 -267 -91 l-53 -46 0 281 0 281 -160 0 c-119 0 -162
-3 -165 -12z m625 -688 c43 -22 60 -41 91 -100 22 -40 24 -58 24 -170 0 -116
-2 -129 -27 -175 -33 -63 -62 -90 -117 -110 -80 -28 -146 -12 -207 49 -53 52
-64 93 -64 229 0 142 12 187 65 241 64 66 149 79 235 36z"/>
<path d="M9690 3653 l0 -267 -27 27 c-72 68 -232 104 -350 79 -125 -27 -246
-118 -311 -234 -97 -174 -97 -466 0 -637 67 -118 173 -197 296 -221 140 -28
274 10 364 101 31 32 59 55 62 52 3 -4 6 -30 6 -59 0 -88 -6 -84 151 -84 l139
0 0 755 0 755 -165 0 -165 0 0 -267z m-151 -413 c56 -16 100 -52 126 -104 23
-45 25 -62 25 -175 0 -154 -9 -190 -63 -245 -100 -104 -262 -75 -327 58 -50
104 -46 263 9 361 32 56 59 80 117 100 47 17 69 18 113 5z"/>
<path d="M3785 3868 c-3 -7 -4 -337 -3 -733 l3 -720 455 0 455 0 3 138 3 137
-291 0 -290 0 -2 593 -3 592 -163 3 c-124 2 -164 0 -167 -10z"/>
<path d="M5135 3485 c-74 -13 -212 -58 -227 -73 -13 -13 91 -195 107 -188 81
31 157 46 231 46 98 0 139 -14 177 -60 24 -28 28 -40 25 -84 l-3 -51 -107 -7
c-261 -16 -419 -85 -486 -211 -23 -45 -27 -64 -27 -137 0 -107 26 -169 96
-235 63 -59 122 -85 209 -92 120 -10 229 21 304 88 20 17 40 28 45 25 5 -3 12
-26 15 -51 l7 -46 142 3 142 3 3 305 c4 451 -13 552 -116 657 -46 47 -142 96
-220 112 -69 14 -229 13 -317 -4z m325 -665 c0 -33 -6 -75 -14 -93 -29 -70
-118 -115 -200 -102 -90 15 -121 50 -113 122 10 90 86 125 285 132 l42 1 0
-60z"/>
<path d="M6435 3487 c-71 -24 -124 -57 -168 -102 -46 -50 -55 -46 -56 26 -2
66 -11 70 -151 67 l-125 -3 0 -530 0 -530 154 -3 c113 -2 157 1 162 10 4 6 8
161 9 342 0 321 1 332 23 376 30 62 75 90 144 90 49 0 59 -4 88 -33 54 -54 58
-79 62 -450 l5 -337 156 2 157 3 5 350 c5 348 5 350 29 389 33 53 75 76 138
76 41 0 58 -5 84 -27 62 -52 63 -63 69 -443 l5 -345 160 0 160 0 -1 375 0 375
-27 80 c-35 106 -84 169 -167 214 -63 35 -68 36 -170 35 -92 0 -112 -4 -163
-27 -31 -15 -83 -52 -114 -82 -56 -54 -73 -65 -73 -45 0 21 -86 103 -135 128
-60 31 -194 40 -260 19z"/>
<path d="M10490 3489 c-67 -9 -208 -53 -234 -72 -18 -13 -17 -17 22 -88 66
-120 58 -114 122 -88 78 31 259 38 309 12 53 -28 75 -65 76 -126 l0 -52 -110
-7 c-344 -21 -515 -138 -515 -352 0 -129 71 -239 188 -294 51 -24 69 -27 162
-27 118 1 174 19 258 83 24 18 46 31 48 29 3 -2 8 -24 12 -48 l8 -44 142 -3
142 -3 0 360 c0 229 -4 379 -11 413 -35 166 -152 274 -333 309 -57 11 -208 10
-286 -2z m308 -656 c10 -134 -87 -226 -220 -208 -30 4 -60 17 -78 32 -26 21
-30 32 -30 73 0 53 23 91 71 115 31 17 149 34 214 31 40 -1 40 -1 43 -43z"/>
</g>
</svg>
