<svg width="3710" height="3710" viewBox="0 0 3710 3710" fill="none" xmlns="http://www.w3.org/2000/svg">
<path d="M3138.88 2346.3C2869.8 2979.87 2153.05 3334.8 1531.47 3239.06C1430.33 3223.48 1153.05 3177.07 907.548 2958.14C434.949 2536.68 333.88 1702.13 715.112 1114C992.581 685.946 1489.97 443.296 1962.59 455.434C2064.4 458.048 2454.55 474.161 2797.42 756.887C2847.78 798.414 2958.86 897.093 3058.96 1053.64C3294.03 1421.25 3314.24 1933.4 3138.88 2346.3Z" fill="url(#paint0_linear_48_705)"/>
<path d="M582.935 536.271C580.341 525.227 595.876 517.887 605.388 525.601C701.987 603.933 934.087 838.503 876.243 1248.43C803.67 1762.75 927.743 1950.42 1082.18 2064.89C1082.18 2064.89 870.085 2011.06 736.643 1820.63C409.013 1353.08 629.063 732.631 582.935 536.271Z" fill="#BDD0FB"/>
<path d="M656.448 696.913C668.533 754.169 679.303 811.601 687.627 869.29C696.299 926.931 702.945 984.774 707.493 1042.71C711.783 1100.66 714.813 1158.67 714.986 1216.7C715.46 1274.73 713.048 1332.72 710.39 1390.92C708.11 1449.11 705.43 1507.72 709.689 1566.74C713.878 1625.64 726.276 1685.06 750.88 1740.76C757.03 1754.64 763.498 1768.48 770.845 1781.85C777.908 1795.34 785.665 1808.57 793.694 1821.68C809.905 1847.82 828.154 1873.08 848.49 1897.05C889.309 1944.92 938.539 1987.38 992.772 2023.32C998.48 2027.1 1006.66 2026.17 1011.04 2021.25C1015.34 2016.41 1014.38 2009.51 1008.94 2005.68L1008.9 2005.65C995.996 1996.59 983.227 1987.41 970.977 1977.77C964.761 1973.03 958.802 1968.07 952.737 1963.2C946.893 1958.15 940.819 1953.28 935.162 1948.08C912.133 1927.58 890.799 1905.71 871.443 1882.59C832.51 1836.56 801.343 1785.27 777.73 1732.09C766.268 1705.38 757.105 1677.99 750.415 1650.08C743.749 1622.17 739.556 1593.77 737.238 1565.14C732.594 1507.85 734.692 1449.82 736.488 1391.63C738.197 1333.41 739.451 1274.91 737.915 1216.44C737.238 1187.21 735.953 1158 734.063 1128.82C733.215 1114.23 732.04 1099.65 730.896 1085.07C729.59 1070.5 728.19 1055.94 726.654 1041.4C720.383 983.218 712.06 925.233 701.627 867.556C690.874 809.922 678.353 752.554 663.294 695.699C662.863 694.073 660.989 693.058 659.108 693.43C657.28 693.791 656.119 695.336 656.448 696.913Z" fill="white"/>
<path d="M833.172 1767.33C821.328 1779.9 800.498 1776.28 793.373 1760.55C754.058 1673.76 665.092 1418.31 812.023 1124.01C936.1 875.49 979.762 728.942 994.974 661.041C998.191 646.683 1017.87 644.776 1023.81 658.239C1089.33 806.765 1262.36 1311.97 833.172 1767.33Z" fill="#91B3FA"/>
<path d="M811.657 1758.17C811.236 1758.25 810.802 1758.28 810.358 1758.28C806.635 1758.22 803.663 1755.16 803.72 1751.43C803.785 1747.21 811.999 1325.33 968.909 971.987C970.42 968.587 974.403 967.053 977.809 968.561C981.212 970.074 982.745 974.056 981.235 977.461C825.466 1328.23 817.267 1747.45 817.202 1751.64C817.153 1754.92 814.77 1757.62 811.657 1758.17Z" fill="white"/>
<path d="M2512.36 1115.67C2474.8 1049.69 2445.89 960.954 2504.93 894.539C2611.56 774.587 2824.81 747.932 2878.12 934.525C2900.17 1011.71 2884.6 1071.71 2858.75 1115.53C2834.81 1156.11 2864.32 1207.26 2911.44 1207.26H3251.31V1660.73C3251.31 1701.67 3205.3 1725.11 3171.66 1701.77C2943.67 1543.52 2824.78 1730.18 2824.53 1814.18C2824.24 1907.48 2864.79 2127.4 3011.4 2120.73C3078.4 2117.69 3134.27 2095.16 3175.18 2071.59C3209.06 2052.07 3251.31 2075.84 3251.31 2114.94V2537.6H2899.58C2857.82 2537.6 2832.92 2583.72 2855.63 2618.76C2881.73 2659.02 2903.58 2717.39 2904.77 2800.47C2907.81 3011.93 2584.9 2973.73 2504.93 2907.09C2447.81 2859.49 2445.46 2706.86 2489.93 2612.47C2506.36 2577.6 2479.34 2537.6 2440.78 2537.6H2098.42V2075.09C2098.42 2041.37 2061.8 2020.64 2032.81 2037.86C1973.89 2072.88 1882.88 2116.78 1791.88 2120.73C1638.6 2127.4 1618.61 1954.13 1611.94 1820.85C1606.06 1703.13 1830.48 1512.58 2007.64 1628.75C2036.66 1647.79 2096.24 1675.64 2096.24 1640.93V1207.26H2459.55C2506.6 1207.26 2535.64 1156.55 2512.36 1115.67Z" fill="url(#paint1_linear_48_705)"/>
<path d="M2700.72 2966.49C2682.82 2966.49 2664.29 2965.31 2645.34 2962.92C2584.32 2955.23 2528.87 2935.82 2500.61 2912.27C2438.97 2860.9 2439.87 2702.91 2483.83 2609.6C2490.44 2595.58 2489.36 2579.87 2480.89 2566.5C2472.09 2552.63 2457.09 2544.34 2440.78 2544.34H2098.42C2094.7 2544.34 2091.68 2541.33 2091.68 2537.6V2075.09C2091.68 2061.74 2084.78 2049.84 2073.22 2043.26C2061.61 2036.65 2047.8 2036.8 2036.26 2043.66C1975.63 2079.69 1884.07 2123.47 1792.17 2127.46C1721.51 2130.6 1670.5 2096.37 1640.72 2025.89C1615.46 1966.11 1608.59 1888.86 1605.21 1821.18C1601.99 1756.85 1661.71 1674.61 1747.21 1625.64C1838.12 1573.57 1934.39 1572.65 2011.33 1623.11C2038.05 1640.63 2074.15 1655.61 2085.88 1649.3C2086.87 1648.76 2089.49 1647.35 2089.49 1640.92V1207.26C2089.49 1203.53 2092.51 1200.52 2096.23 1200.52H2459.55C2479.08 1200.52 2496.58 1190.47 2506.35 1173.66C2516.25 1156.64 2516.3 1136.21 2506.51 1119C2452.84 1024.74 2450.55 945.568 2499.89 890.056C2565.07 816.734 2668.64 778.766 2751.7 797.699C2816.77 812.537 2863.98 860.47 2884.6 932.669C2904.05 1000.75 2897.31 1063.43 2864.56 1118.95C2854.61 1135.82 2854.47 1156.06 2864.2 1173.1C2874.01 1190.26 2891.67 1200.52 2911.44 1200.52H3251.31C3255.03 1200.52 3258.05 1203.53 3258.05 1207.26V1660.72C3258.05 1682.31 3246.66 1701.16 3227.59 1711.14C3208.51 1721.12 3185.61 1719.65 3167.82 1707.3C3054.68 1628.77 2975.66 1641.12 2929.28 1665.29C2862.62 1700.04 2831.39 1774.69 2831.27 1814.2C2831.05 1886.41 2854.26 2016.39 2919.07 2078.51C2945.28 2103.63 2976.16 2115.53 3011.1 2113.99C3066.54 2111.48 3120.61 2095.24 3171.82 2065.74C3190.01 2055.26 3211.65 2055.23 3229.69 2065.65C3247.45 2075.91 3258.05 2094.34 3258.05 2114.94V2537.6C3258.05 2541.32 3255.03 2544.34 3251.31 2544.34H2899.58C2882.53 2544.34 2867.51 2553.25 2859.4 2568.17C2851.26 2583.16 2851.96 2600.7 2861.29 2615.09C2893.57 2664.88 2910.47 2727.22 2911.52 2800.37C2912.45 2865.64 2882.69 2914.59 2825.44 2941.91C2791.46 2958.12 2748.37 2966.49 2700.72 2966.49ZM2105.17 2530.86H2440.78C2461.74 2530.86 2480.98 2541.49 2492.27 2559.28C2503.11 2576.37 2504.52 2597.33 2496.03 2615.35C2450.72 2711.5 2457.52 2858.8 2509.24 2901.92C2562.26 2946.1 2722.4 2976.13 2819.63 2929.74C2872.52 2904.5 2898.9 2861.04 2898.03 2800.56C2897.02 2729.99 2880.85 2670.06 2849.98 2622.43C2837.92 2603.83 2837.01 2581.14 2847.55 2561.74C2858.06 2542.4 2877.51 2530.86 2899.58 2530.86H3244.57V2114.94C3244.57 2099.22 3236.48 2085.16 3222.94 2077.33C3209.12 2069.34 3192.53 2069.38 3178.55 2077.43C3125.46 2108.02 3069.32 2124.85 3011.71 2127.47C2973.08 2129.25 2938.72 2116.03 2909.74 2088.25C2841.86 2023.19 2817.56 1888.7 2817.79 1814.16C2817.92 1770.1 2850.66 1691.07 2923.04 1653.33C2972.72 1627.44 3056.84 1613.86 3175.51 1696.23C3189.37 1705.85 3206.5 1706.95 3221.34 1699.19C3235.88 1691.58 3244.57 1677.2 3244.57 1660.73V1214H2911.44C2886.77 1214 2864.73 1201.21 2852.49 1179.78C2840.33 1158.49 2840.5 1133.19 2852.94 1112.1C2883.74 1059.89 2890.03 1000.76 2871.64 936.379C2847.01 850.178 2791.19 820.536 2748.7 810.851C2670.2 792.929 2572.02 829.205 2509.97 899.02C2478.49 934.43 2454.37 1000.18 2518.22 1112.33C2530.42 1133.76 2530.35 1159.23 2518.01 1180.44C2505.79 1201.46 2483.94 1214 2459.55 1214H2102.98V1640.93C2102.98 1652.88 2097.17 1658.53 2092.29 1661.16C2066.54 1675.07 2006.48 1636.06 2003.94 1634.39C1931.39 1586.8 1840.25 1587.88 1753.91 1637.34C1673.88 1683.18 1615.75 1761.92 1618.68 1820.51C1622 1887.01 1628.7 1962.8 1653.14 2020.64C1680.89 2086.3 1726.13 2116.83 1791.58 2113.99C1880.68 2110.12 1970.07 2067.3 2029.37 2032.06C2045.13 2022.7 2064.01 2022.51 2079.89 2031.54C2095.72 2040.55 2105.17 2056.83 2105.17 2075.09V2530.86Z" fill="#FCFCFC"/>
<path d="M802.164 2052.55C762.18 2079.39 709.414 2105.48 649.932 2111.43C518.228 2124.6 465.549 1979.73 458.961 1854.61C452.379 1729.49 564.324 1610.96 663.102 1624.13C709.627 1630.33 760.532 1659.91 801.373 1689.46C834.356 1713.34 880.412 1689.86 880.412 1649.15V1199.75H1335.05C1372.94 1199.75 1398.06 1160.63 1382.22 1126.2C1346.55 1048.67 1306.48 930.857 1362.37 880.008C1449.21 800.986 1683.8 800.986 1723.31 919.518C1745.44 985.89 1715.38 1065.74 1684.65 1123.17C1666.11 1157.79 1691.13 1199.57 1730.39 1199.57H2118.42V1615.76C2118.42 1660.15 2068.21 1687.74 2032.01 1662.05C1864.15 1542.92 1680.84 1668.58 1664.05 1808.52C1644.29 1973.14 1749.65 2111.43 1861.6 2098.26C1918.45 2091.57 1983.78 2059.42 2034.33 2029.38C2071.45 2007.32 2118.42 2033.81 2118.42 2077V2536.69H1671.49C1620.35 2536.69 1586.15 2483.35 1608.32 2437.26C1634.73 2382.35 1742.99 2314.92 1736.49 2262.89C1723.31 2157.53 1488.72 2131.46 1362.37 2151.08C1265.92 2166.05 1313.87 2316.91 1368.68 2437.81C1389.69 2484.15 1356.23 2536.69 1305.35 2536.69H880.412V2093.48C880.412 2053.25 835.575 2030.14 802.164 2052.55Z" fill="url(#paint2_linear_48_705)"/>
<path d="M2118.42 2543.43H1671.49C1644.93 2543.43 1620.62 2529.98 1606.47 2507.47C1592.49 2485.23 1590.91 2457.89 1602.24 2434.34C1613.59 2410.73 1639.19 2385.14 1663.94 2360.38C1698 2326.32 1733.22 2291.1 1729.8 2263.73C1727.26 2243.46 1715.4 2225.2 1694.53 2209.47C1646.99 2173.61 1505.47 2135.69 1363.4 2157.74C1344.21 2160.72 1330.97 2169.4 1322.94 2184.26C1300.95 2224.95 1318.88 2311.66 1374.81 2435.02C1385.68 2458.99 1383.69 2486.46 1369.49 2508.5C1355.39 2530.37 1331.42 2543.43 1305.35 2543.43H880.411C876.688 2543.43 873.669 2540.41 873.669 2536.69V2093.48C873.669 2077.37 865.231 2063.25 851.102 2055.71C836.607 2047.99 819.715 2048.89 805.921 2058.15C754.271 2092.81 702.012 2113 650.603 2118.14C608.118 2122.39 570.977 2111.11 540.126 2084.63C516.255 2064.15 459.904 2000.76 452.23 1854.96C448.701 1787.92 479.229 1716.07 531.893 1667.46C572.577 1629.91 620.741 1611.69 663.996 1617.45C704.143 1622.8 751.695 1645.19 805.33 1684C818.736 1693.7 835.522 1695.01 850.221 1687.51C864.904 1680.01 873.671 1665.67 873.671 1649.14V1199.75C873.671 1196.03 876.69 1193.01 880.413 1193.01H1335.05C1350.55 1193.01 1364.79 1185.24 1373.12 1172.22C1381.45 1159.22 1382.57 1143.07 1376.1 1129.01C1336.06 1041.99 1300.39 927.285 1357.83 875.02C1412.87 824.93 1526.98 804.223 1617.6 827.89C1675.72 843.063 1715.53 874.845 1729.71 917.383C1752.78 986.586 1721.17 1069.21 1690.59 1126.34C1683.02 1140.5 1683.41 1157.15 1691.64 1170.89C1699.86 1184.62 1714.35 1192.82 1730.4 1192.82H2118.43C2122.15 1192.82 2125.17 1195.84 2125.17 1199.57V1615.75C2125.17 1639.34 2112.05 1660.77 2090.93 1671.68C2070.27 1682.35 2046.78 1680.8 2028.11 1667.54C1956.98 1617.06 1877.02 1607.33 1802.97 1640.15C1731.16 1671.96 1679.26 1738.37 1670.74 1809.32C1659.97 1899.11 1687.59 1989.28 1742.83 2044.66C1777.83 2079.73 1819.71 2096.41 1860.82 2091.57C1918.18 2084.81 1984.96 2050.87 2030.89 2023.58C2050.49 2011.93 2074 2011.69 2093.77 2022.94C2113.43 2034.12 2125.17 2054.33 2125.17 2077V2536.69C2125.16 2540.41 2122.15 2543.43 2118.42 2543.43ZM1448.83 2138.42C1537.25 2138.42 1643.96 2154.44 1702.66 2198.7C1726.54 2216.71 1740.17 2238.03 1743.17 2262.05C1747.41 2295.97 1709.83 2333.56 1673.47 2369.92C1649.52 2393.87 1624.75 2418.65 1614.39 2440.18C1605.08 2459.53 1606.39 2482.01 1617.88 2500.29C1629.56 2518.86 1649.6 2529.95 1671.49 2529.95H2111.68V2077C2111.68 2059.25 2102.49 2043.42 2087.09 2034.66C2071.6 2025.84 2053.16 2026.03 2037.77 2035.18C1990.72 2063.13 1922.11 2097.93 1862.39 2104.96C1817.15 2110.29 1771.26 2092.25 1733.28 2054.18C1675.19 1995.95 1646.09 1901.51 1657.35 1807.71C1666.42 1732.13 1721.43 1661.53 1797.5 1627.82C1876.08 1593.01 1960.76 1603.21 2035.9 1656.55C2050.4 1666.83 2068.65 1668.01 2084.74 1659.7C2101.36 1651.11 2111.68 1634.27 2111.68 1615.75V1206.31H1730.39C1709.56 1206.31 1690.75 1195.66 1680.06 1177.82C1669.37 1159.98 1668.86 1138.35 1678.7 1119.98C1708.03 1065.19 1738.47 986.298 1716.92 921.651C1704.23 883.584 1667.74 854.92 1614.19 840.938C1527.52 818.321 1418.91 837.669 1366.9 884.996C1343.67 906.131 1315.57 965.205 1388.34 1123.38C1396.74 1141.63 1395.29 1162.61 1384.47 1179.5C1373.64 1196.4 1355.17 1206.49 1335.05 1206.49H887.153V1649.14C887.153 1670.51 875.351 1689.82 856.352 1699.52C837.337 1709.23 814.753 1707.47 797.42 1694.92C746.346 1657.97 699.592 1635.8 662.21 1630.81C622.945 1625.57 578.765 1642.55 541.041 1677.37C491.241 1723.34 462.373 1791.11 465.694 1854.25C470.83 1951.79 501.937 2034.09 548.909 2074.4C576.852 2098.38 610.616 2108.6 649.259 2104.72C698.44 2099.8 748.618 2080.37 798.408 2046.95C816.146 2035.05 838.766 2033.85 857.445 2043.82C876.049 2053.73 887.153 2072.3 887.153 2093.48V2529.95H1305.35C1326.81 2529.95 1346.55 2519.2 1358.16 2501.2C1369.87 2483.03 1371.51 2460.37 1362.53 2440.59C1303.97 2311.42 1286.66 2223.02 1311.07 2177.85C1321.11 2159.28 1338.02 2148.04 1361.33 2144.42C1385.71 2140.63 1416.01 2138.42 1448.83 2138.42Z" fill="#FCFCFC"/>
<g opacity="0.3">
<path d="M2579.25 915.5C2575.07 916.283 2570.88 913.792 2569.64 909.621C2566.92 900.501 2564.57 891.126 2562.63 881.759C2561.69 877.202 2564.62 872.744 2569.17 871.802C2569.23 871.792 2569.28 871.782 2569.34 871.772C2573.84 870.931 2578.2 873.844 2579.13 878.347C2580.97 887.246 2583.21 896.151 2585.79 904.815C2587.11 909.273 2584.58 913.966 2580.11 915.293C2579.83 915.378 2579.54 915.446 2579.25 915.5ZM2566.3 843.261C2565.97 843.322 2565.64 843.364 2565.31 843.387C2560.66 843.699 2556.65 840.189 2556.33 835.547C2555.69 826.012 2555.46 816.355 2555.63 806.846C2555.71 802.194 2559.53 798.503 2564.2 798.571C2568.85 798.655 2572.55 802.496 2572.47 807.145C2572.31 816.184 2572.54 825.358 2573.14 834.42C2573.44 838.723 2570.44 842.487 2566.3 843.261ZM2569.57 769.966C2568.65 770.138 2567.68 770.158 2566.7 770.004C2562.11 769.273 2558.98 764.958 2559.7 760.363C2561.2 750.944 2563.12 741.472 2565.42 732.211C2566.54 727.695 2571.11 724.949 2575.63 726.064C2580.14 727.185 2582.89 731.756 2581.77 736.27C2579.59 745.064 2577.76 754.056 2576.34 763.002C2575.77 766.618 2572.98 769.33 2569.57 769.966ZM2589.16 699.23C2587.64 699.515 2586.02 699.382 2584.47 698.761C2580.16 697.024 2578.07 692.115 2579.8 687.8C2583.37 678.948 2587.36 670.144 2591.67 661.632C2593.77 657.486 2598.84 655.823 2602.99 657.919C2607.14 660.019 2608.8 665.088 2606.7 669.24C2602.61 677.323 2598.82 685.685 2595.43 694.098C2594.32 696.866 2591.89 698.719 2589.16 699.23ZM2624.03 634.638C2621.89 635.037 2619.6 634.615 2617.68 633.278C2613.85 630.625 2612.9 625.376 2615.56 621.555C2620.99 613.735 2626.83 606.034 2632.91 598.676C2635.88 595.089 2641.19 594.585 2644.77 597.553C2648.36 600.519 2648.86 605.828 2645.9 609.415C2640.11 616.41 2634.56 623.728 2629.4 631.16C2628.08 633.056 2626.13 634.245 2624.03 634.638ZM2672.31 579.372C2669.54 579.889 2666.58 579.01 2664.54 576.781C2661.4 573.348 2661.63 568.021 2665.07 564.878C2672.1 558.441 2679.5 552.224 2687.06 546.405C2690.75 543.566 2696.03 544.255 2698.87 547.942C2701.71 551.626 2701.02 556.917 2697.34 559.755C2690.15 565.285 2683.12 571.189 2676.44 577.306C2675.24 578.41 2673.8 579.093 2672.31 579.372ZM2972.06 502.926C2970.92 503.14 2969.71 503.119 2968.5 502.821C2959.72 500.654 2950.71 498.842 2941.75 497.438C2937.16 496.717 2934.01 492.407 2934.73 487.813C2935.45 483.216 2939.76 480.073 2944.36 480.794C2953.8 482.273 2963.28 484.18 2972.53 486.46C2977.05 487.574 2979.81 492.14 2978.7 496.656C2977.88 499.97 2975.21 502.338 2972.06 502.926ZM2731.6 536.209C2728.17 536.851 2724.55 535.297 2722.73 532.089C2720.43 528.043 2721.85 522.901 2725.89 520.601C2734.18 515.888 2742.78 511.479 2751.44 507.495C2755.68 505.572 2760.67 507.4 2762.62 511.629C2764.56 515.856 2762.71 520.858 2758.48 522.804C2750.25 526.585 2742.09 530.773 2734.22 535.248C2733.38 535.723 2732.5 536.042 2731.6 536.209ZM2899.28 493.507C2898.74 493.609 2898.17 493.661 2897.6 493.652C2888.54 493.507 2879.36 493.754 2870.31 494.379C2865.66 494.698 2861.64 491.195 2861.32 486.555C2861 481.914 2864.5 477.87 2869.14 477.57C2878.67 476.914 2888.33 476.654 2897.86 476.804C2902.51 476.878 2906.23 480.71 2906.15 485.361C2906.09 489.434 2903.14 492.786 2899.28 493.507ZM2799.05 507.373C2794.87 508.154 2790.69 505.672 2789.44 501.51C2788.11 497.053 2790.64 492.358 2795.1 491.019C2804.22 488.285 2813.59 485.908 2822.93 483.96C2822.99 483.946 2823.05 483.935 2823.11 483.924C2827.6 483.084 2831.96 485.988 2832.9 490.483C2833.85 495.039 2830.93 499.502 2826.38 500.451C2817.5 502.305 2808.6 504.564 2799.93 507.162C2799.64 507.246 2799.34 507.318 2799.05 507.373Z" fill="#91B3FA"/>
<path d="M3027.98 522.223C3026.35 522.528 3024.61 522.357 3022.99 521.624C3019.03 519.84 3014.96 518.113 3010.91 516.481C3006.59 514.747 3004.5 509.839 3006.23 505.524C3007.97 501.206 3012.87 499.107 3017.19 500.851C3021.46 502.564 3025.73 504.383 3029.9 506.258C3034.14 508.167 3036.03 513.156 3034.13 517.396C3032.95 520.012 3030.6 521.733 3027.98 522.223Z" fill="#91B3FA"/>
</g>
<g opacity="0.3">
<path d="M3202.45 710.707C3198.45 711.454 3194.39 709.214 3192.98 705.263C3191.52 701.174 3189.94 697.046 3188.3 692.998C3186.56 688.685 3188.64 683.773 3192.95 682.026C3197.28 680.272 3202.17 682.36 3203.92 686.67C3205.64 690.933 3207.3 695.28 3208.84 699.585C3210.41 703.965 3208.13 708.787 3203.75 710.356C3203.32 710.511 3202.89 710.626 3202.45 710.707Z" fill="#91B3FA"/>
<path d="M2954.24 1143.96C2950.43 1144.67 2946.6 1145.32 2942.73 1145.91C2938.13 1146.61 2933.84 1143.45 2933.14 1138.85C2932.44 1134.25 2935.62 1129.93 2940.2 1129.25C2949.11 1127.89 2957.95 1126.17 2966.56 1124.12C2971.1 1123.05 2975.63 1125.84 2976.71 1130.36C2977.79 1134.89 2974.99 1139.43 2970.47 1140.51C2965.14 1141.78 2959.68 1142.94 2954.24 1143.96ZM2898.41 1149.58C2897.95 1149.67 2897.47 1149.72 2896.98 1149.73C2887.58 1149.87 2878.07 1149.62 2868.72 1148.98C2864.08 1148.67 2860.57 1144.64 2860.89 1140C2861.21 1135.36 2865.24 1131.84 2869.87 1132.18C2878.76 1132.78 2887.79 1133.02 2896.72 1132.88C2901.37 1132.81 2905.2 1136.52 2905.27 1141.17C2905.34 1145.34 2902.37 1148.84 2898.41 1149.58ZM3012.78 1127.27C3008.87 1128 3004.88 1125.88 3003.39 1122.04C3001.7 1117.71 3003.85 1112.82 3008.19 1111.14C3016.48 1107.91 3024.75 1104.29 3032.77 1100.36C3036.95 1098.32 3041.99 1100.04 3044.04 1104.22C3046.09 1108.4 3044.36 1113.44 3040.18 1115.49C3031.74 1119.63 3023.03 1123.44 3014.29 1126.84C3013.79 1127.04 3013.28 1127.18 3012.78 1127.27ZM2826.5 1142.75C2825.44 1142.94 2824.34 1142.94 2823.23 1142.71C2814.04 1140.79 2804.81 1138.45 2795.82 1135.76C2791.36 1134.43 2788.83 1129.74 2790.16 1125.28C2791.5 1120.82 2796.19 1118.28 2800.65 1119.62C2809.19 1122.17 2817.94 1124.39 2826.67 1126.21C2831.23 1127.16 2834.15 1131.63 2833.19 1136.18C2832.48 1139.63 2829.75 1142.14 2826.5 1142.75ZM3076.73 1093.82C3073.53 1094.42 3070.13 1093.12 3068.2 1090.25C3065.6 1086.39 3066.62 1081.15 3070.48 1078.55C3077.85 1073.58 3085.12 1068.23 3092.08 1062.63C3095.71 1059.72 3101.01 1060.29 3103.93 1063.92C3106.84 1067.55 3106.26 1072.85 3102.64 1075.77C3095.31 1081.65 3087.66 1087.29 3079.89 1092.53C3078.91 1093.19 3077.83 1093.62 3076.73 1093.82ZM3131.81 1047.15C3129.25 1047.63 3126.5 1046.91 3124.46 1044.99C3121.08 1041.79 3120.93 1036.46 3124.13 1033.08C3130.26 1026.59 3136.19 1019.78 3141.76 1012.82C3144.66 1009.18 3149.96 1008.59 3153.6 1011.5C3157.23 1014.4 3157.82 1019.7 3154.92 1023.34C3149.06 1030.66 3142.82 1037.84 3136.37 1044.66C3135.1 1046 3133.49 1046.83 3131.81 1047.15ZM3175.39 989.576C3173.44 989.94 3171.36 989.623 3169.53 988.527C3165.53 986.144 3164.23 980.971 3166.61 976.976C3171.19 969.307 3175.5 961.365 3179.41 953.363C3181.45 949.185 3186.49 947.449 3190.67 949.495C3194.85 951.539 3196.59 956.582 3194.54 960.764C3190.43 969.183 3185.9 977.546 3181.08 985.614C3179.79 987.773 3177.68 989.147 3175.39 989.576ZM3205.38 923.874C3204.03 924.126 3202.6 924.052 3201.21 923.593C3196.79 922.14 3194.38 917.38 3195.84 912.96C3198.63 904.481 3201.09 895.789 3203.14 887.122C3204.22 882.596 3208.77 879.797 3213.28 880.871C3217.81 881.946 3220.61 886.488 3219.53 891.014C3217.37 900.143 3214.78 909.298 3211.84 918.223C3210.85 921.249 3208.3 923.328 3205.38 923.874ZM3220.22 853.165C3219.46 853.307 3218.67 853.344 3217.86 853.267C3213.23 852.824 3209.84 848.708 3210.28 844.079C3211.13 835.216 3211.61 826.201 3211.71 817.278C3211.77 812.625 3215.59 808.899 3220.23 808.95C3224.88 809.001 3228.61 812.816 3228.56 817.469C3228.46 826.862 3227.95 836.354 3227.05 845.684C3226.69 849.508 3223.82 852.492 3220.22 853.165ZM3219.17 780.971C3219 781.003 3218.82 781.028 3218.65 781.051C3214.03 781.626 3209.82 778.349 3209.25 773.733C3208.44 767.216 3207.42 760.648 3206.21 754.204C3205.78 751.872 3205.31 749.548 3204.83 747.238C3203.87 742.683 3206.79 738.217 3211.35 737.265C3215.94 736.209 3220.36 739.228 3221.32 743.78C3221.83 746.212 3222.31 748.652 3222.77 751.108C3224.04 757.885 3225.11 764.798 3225.97 771.652C3226.52 776.094 3223.51 780.159 3219.17 780.971Z" fill="#91B3FA"/>
<path d="M2757.67 1120.15C2756.03 1120.46 2754.27 1120.28 2752.64 1119.54C2748.49 1117.64 2744.3 1115.63 2740.19 1113.54C2736.04 1111.44 2734.38 1106.37 2736.48 1102.22C2738.59 1098.07 2743.65 1096.41 2747.8 1098.51C2751.71 1100.49 2755.69 1102.41 2759.63 1104.2C2763.86 1106.13 2765.73 1111.13 2763.8 1115.36C2762.61 1117.96 2760.28 1119.66 2757.67 1120.15Z" fill="#91B3FA"/>
</g>
<path d="M2750.89 1022.01C2752.17 1023.1 2754 1023.25 2755.45 1022.39L2796.62 997.865C2816.55 1008.03 2838.26 1015.09 2861.04 1018.44L2880.39 1062.25C2881.07 1063.79 2882.65 1064.72 2884.32 1064.58L2941.6 1059.77C2943.28 1059.63 2944.68 1058.44 2945.09 1056.81L2956.85 1010.39C2978.76 1003.28 2998.98 992.694 3016.94 979.343L3061.63 996.648C3063.19 997.254 3064.97 996.8 3066.05 995.518L3103.15 951.611C3104.24 950.327 3104.39 948.498 3103.53 947.055L3079 905.885C3089.17 885.947 3096.23 864.244 3099.58 841.46L3143.39 822.11C3144.93 821.432 3145.86 819.853 3145.72 818.179L3140.91 760.899C3140.77 759.225 3139.58 757.825 3137.95 757.413L3091.53 745.649C3084.41 723.744 3073.83 703.525 3060.48 685.564L3077.79 640.875C3078.39 639.31 3077.94 637.53 3076.66 636.446L3032.75 599.349C3031.47 598.264 3029.64 598.114 3028.19 598.974L2987.02 623.498C2967.08 613.333 2945.38 606.275 2922.6 602.92L2903.25 559.112C2902.57 557.576 2900.99 556.639 2899.32 556.779L2842.04 561.595C2840.36 561.735 2838.96 562.923 2838.55 564.551L2826.79 610.974C2804.88 618.086 2784.66 628.669 2766.7 642.02L2722.01 624.715C2720.45 624.108 2718.67 624.562 2717.58 625.845L2680.49 669.753C2679.4 671.036 2679.25 672.865 2680.11 674.309L2704.63 715.479C2694.47 735.417 2687.41 757.12 2684.06 779.904L2640.25 799.254C2638.71 799.932 2637.78 801.511 2637.92 803.186L2642.73 860.464C2642.87 862.138 2644.06 863.538 2645.69 863.951L2692.11 875.715C2699.22 897.619 2709.81 917.838 2723.16 935.8L2705.85 980.488C2705.24 982.055 2705.7 983.833 2706.98 984.918L2750.89 1022.01Z" fill="#91B3FA"/>
<path d="M2902.4 867.487C2874.72 872.663 2846.6 856.878 2837.18 829.468C2826.82 799.337 2842.91 766.401 2873.03 756.042C2887.63 751.02 2903.31 751.989 2917.17 758.761C2931.04 765.532 2941.44 777.299 2946.46 791.895C2956.82 822.026 2940.73 854.962 2910.6 865.321C2907.89 866.254 2905.14 866.974 2902.4 867.487ZM2883.77 767.111C2881.63 767.511 2879.51 768.068 2877.41 768.788C2854.32 776.729 2841.98 801.986 2849.92 825.084C2857.87 848.184 2883.12 860.527 2906.22 852.575C2929.32 844.634 2941.65 819.377 2933.71 796.279C2929.86 785.087 2921.89 776.066 2911.26 770.873C2902.61 766.654 2893.05 765.375 2883.77 767.111Z" fill="#BDD0FB"/>
<path d="M2918.9 949.302C2914.14 950.191 2909.32 950.846 2904.43 951.257C2902.89 951.387 2901.35 951.491 2899.81 951.571C2892.21 951.964 2884.59 951.752 2877.07 950.939C2876.96 950.928 2876.86 950.917 2876.76 950.906C2876.47 950.873 2876.18 950.841 2875.89 950.804C2875.32 950.739 2874.75 950.667 2874.19 950.596C2872.7 950.405 2871.57 949.275 2871.31 947.877C2871.24 947.538 2871.23 947.181 2871.28 946.821C2871.52 944.975 2873.21 943.678 2875.05 943.913C2884.55 945.14 2894.24 945.35 2903.86 944.539C2951.65 940.53 2991.6 912.009 3012.4 872.407C3023.97 850.381 3029.61 824.925 3027.38 798.347C3026.99 793.686 3026.37 789.079 3025.52 784.545C3019.81 754.024 3003.91 726.622 2979.87 706.314C2952.26 682.984 2917.21 671.803 2881.19 674.832C2806.8 681.094 2751.42 746.668 2757.67 821.023C2758.06 825.608 2758.67 830.156 2759.52 834.648C2763.16 854.117 2771.02 872.572 2782.6 888.662C2782.9 889.078 2783.09 889.538 2783.18 890.01C2783.41 891.252 2782.93 892.577 2781.84 893.364C2780.32 894.447 2778.22 894.114 2777.13 892.597C2764.97 875.705 2756.72 856.329 2752.89 835.889C2752.01 831.173 2751.36 826.4 2750.96 821.588C2744.39 743.521 2802.59 674.676 2880.62 668.113C2918.44 664.933 2955.23 676.672 2984.21 701.164C3009.45 722.484 3026.14 751.25 3032.14 783.292C3033.03 788.053 3033.68 792.889 3034.1 797.78C3037.27 835.598 3025.54 872.387 3001.05 901.374C2979.72 926.618 2950.95 943.31 2918.9 949.302Z" fill="#BDD0FB"/>
<g opacity="0.3">
<path d="M2337.47 1186.55C2335.25 1186.97 2332.95 1185.91 2331.87 1183.8C2329.87 1179.86 2327.96 1175.81 2326.2 1171.75C2325.05 1169.12 2326.26 1166.06 2328.89 1164.91C2331.53 1163.75 2334.59 1164.97 2335.74 1167.6C2337.42 1171.46 2339.24 1175.32 2341.15 1179.08C2342.45 1181.64 2341.43 1184.77 2338.87 1186.08C2338.42 1186.31 2337.94 1186.47 2337.47 1186.55Z" fill="#91B3FA"/>
<path d="M2322.68 1149.36C2320.09 1149.85 2317.5 1148.3 2316.74 1145.72C2314.59 1138.42 2312.79 1130.93 2311.39 1123.46C2311.1 1121.89 2310.82 1120.3 2310.56 1118.71C2310.09 1115.88 2312.18 1113.28 2314.84 1112.73C2317.68 1112.26 2320.35 1114.18 2320.83 1117.01C2321.08 1118.53 2321.34 1120.04 2321.62 1121.55C2322.95 1128.67 2324.67 1135.82 2326.72 1142.77C2327.53 1145.53 2325.95 1148.42 2323.2 1149.24C2323.02 1149.29 2322.85 1149.33 2322.68 1149.36ZM2313.88 1096.06C2313.63 1096.1 2313.38 1096.13 2313.13 1096.15C2310.26 1096.26 2307.84 1094.03 2307.71 1091.16C2307.33 1081.95 2307.51 1072.63 2308.25 1063.47C2308.48 1060.61 2311.01 1058.48 2313.86 1058.71C2316.72 1058.94 2318.85 1061.45 2318.62 1064.32C2317.91 1073.06 2317.74 1081.94 2318.11 1090.73C2318.22 1093.34 2316.38 1095.59 2313.88 1096.06ZM2318.26 1042.21C2317.61 1042.33 2316.93 1042.33 2316.25 1042.19C2313.43 1041.6 2311.63 1038.85 2312.22 1036.03C2314.1 1027.02 2316.56 1018.03 2319.55 1009.31C2320.48 1006.58 2323.43 1005.14 2326.16 1006.07C2328.87 1007 2330.32 1009.96 2329.39 1012.68C2326.55 1020.99 2324.2 1029.56 2322.4 1038.16C2321.96 1040.29 2320.27 1041.84 2318.26 1042.21ZM2335.75 991.091C2334.69 991.289 2333.57 991.159 2332.52 990.656C2329.94 989.397 2328.86 986.28 2330.12 983.697C2334.16 975.405 2338.75 967.295 2343.77 959.586C2345.34 957.179 2348.56 956.503 2350.97 958.065C2353.37 959.63 2354.06 962.852 2352.49 965.265C2347.71 972.61 2343.33 980.35 2339.48 988.256C2338.73 989.795 2337.32 990.798 2335.75 991.091ZM2365.2 945.793C2363.72 946.069 2362.13 945.705 2360.89 944.66C2358.69 942.812 2358.41 939.531 2360.25 937.33C2366.18 930.282 2372.6 923.53 2379.34 917.268C2381.44 915.303 2384.73 915.427 2386.69 917.532C2388.65 919.637 2388.53 922.931 2386.43 924.885C2380 930.863 2373.88 937.301 2368.22 944.029C2367.42 944.985 2366.34 945.58 2365.2 945.793ZM2404.74 909.019C2402.82 909.377 2400.78 908.636 2399.56 906.952C2397.88 904.625 2398.4 901.374 2400.73 899.688C2408.19 894.291 2416.06 889.31 2424.12 884.888C2426.65 883.51 2429.81 884.43 2431.19 886.948C2432.57 889.465 2431.65 892.631 2429.13 894.011C2421.45 898.229 2413.94 902.976 2406.83 908.121C2406.19 908.588 2405.47 908.882 2404.74 909.019ZM2452.06 883.036C2449.66 883.484 2447.2 882.191 2446.27 879.843C2445.21 877.172 2446.52 874.147 2449.19 873.085C2457.72 869.696 2466.58 866.8 2475.51 864.472C2478.31 863.794 2481.14 865.421 2481.86 868.201C2482.58 870.981 2480.91 873.821 2478.13 874.547C2469.61 876.761 2461.16 879.525 2453.03 882.756C2452.71 882.884 2452.38 882.975 2452.06 883.036ZM2531.34 867.541C2531.05 867.596 2530.74 867.628 2530.43 867.629C2522.84 867.698 2515.13 868.184 2507.5 869.073C2506.34 869.201 2505.21 869.341 2504.08 869.495C2501.23 869.873 2498.61 867.876 2498.23 865.026C2497.84 862.172 2499.85 859.471 2502.7 859.177C2503.9 859.019 2505.11 858.866 2506.32 858.732C2514.29 857.805 2522.38 857.295 2530.34 857.225C2533.21 857.199 2535.56 859.505 2535.58 862.38C2535.61 864.94 2533.78 867.086 2531.34 867.541Z" fill="#91B3FA"/>
</g>
<g opacity="0.3">
<path d="M2576.56 1302.27C2573.77 1302.79 2571.06 1300.97 2570.5 1298.18C2569.94 1295.36 2571.76 1292.62 2574.58 1292.05C2583.06 1290.35 2591.51 1288.12 2599.7 1285.42C2602.42 1284.55 2605.37 1286 2606.27 1288.73C2607.17 1291.46 2605.69 1294.4 2602.96 1295.3C2594.38 1298.13 2585.52 1300.48 2576.63 1302.26C2576.61 1302.26 2576.58 1302.27 2576.56 1302.27ZM2550.19 1305.92C2550.01 1305.96 2549.82 1305.98 2549.63 1306C2540.6 1306.7 2531.43 1306.86 2522.39 1306.48C2519.52 1306.36 2517.29 1303.94 2517.41 1301.07C2517.53 1298.19 2519.97 1295.97 2522.83 1296.08C2531.46 1296.45 2540.21 1296.29 2548.82 1295.62C2551.69 1295.4 2554.19 1297.54 2554.41 1300.4C2554.62 1303.08 2552.77 1305.44 2550.19 1305.92ZM2627 1285.6C2624.73 1286.03 2622.38 1284.89 2621.34 1282.71C2620.12 1280.12 2621.23 1277.02 2623.82 1275.79C2631.65 1272.08 2639.31 1267.87 2646.6 1263.27C2649.04 1261.74 2652.24 1262.46 2653.78 1264.89C2655.31 1267.32 2654.58 1270.54 2652.15 1272.07C2644.51 1276.9 2636.48 1281.31 2628.28 1285.19C2627.86 1285.39 2627.43 1285.52 2627 1285.6ZM2497.08 1303.64C2496.5 1303.75 2495.89 1303.76 2495.27 1303.66C2486.33 1302.17 2477.39 1300.12 2468.7 1297.55C2465.95 1296.74 2464.37 1293.84 2465.19 1291.08C2466 1288.34 2468.9 1286.76 2471.65 1287.57C2479.93 1290.02 2488.46 1291.97 2496.98 1293.39C2499.81 1293.87 2501.73 1296.55 2501.26 1299.38C2500.89 1301.6 2499.17 1303.25 2497.08 1303.64ZM2671.92 1257.24C2670.11 1257.57 2668.17 1256.94 2666.93 1255.41C2665.11 1253.18 2665.44 1249.91 2667.67 1248.09C2674.35 1242.63 2680.78 1236.71 2686.76 1230.47C2688.75 1228.39 2692.05 1228.33 2694.12 1230.32C2696.19 1232.31 2696.26 1235.61 2694.27 1237.68C2688 1244.21 2681.26 1250.43 2674.25 1256.15C2673.55 1256.72 2672.74 1257.08 2671.92 1257.24ZM2708.72 1218.92C2707.33 1219.18 2705.85 1218.88 2704.64 1217.97C2702.34 1216.24 2701.87 1212.98 2703.6 1210.68C2708.8 1203.76 2713.62 1196.46 2717.94 1189C2719.37 1186.51 2722.56 1185.66 2725.04 1187.1C2727.53 1188.53 2728.38 1191.71 2726.95 1194.2C2722.42 1202.03 2717.37 1209.68 2711.92 1216.93C2711.11 1218.01 2709.95 1218.69 2708.72 1218.92ZM2735.28 1172.89C2734.31 1173.07 2733.28 1172.98 2732.29 1172.56C2729.65 1171.44 2728.42 1168.38 2729.54 1165.73C2732.94 1157.78 2735.87 1149.54 2738.26 1141.25C2739.05 1138.49 2741.94 1136.89 2744.7 1137.69C2747.46 1138.49 2749.05 1141.37 2748.26 1144.13C2745.75 1152.82 2742.68 1161.46 2739.12 1169.82C2738.41 1171.48 2736.94 1172.58 2735.28 1172.89Z" fill="#91B3FA"/>
<path d="M2445.88 1288.5C2444.89 1288.69 2443.84 1288.59 2442.85 1288.16C2438.77 1286.38 2434.72 1284.48 2430.81 1282.5C2428.25 1281.2 2427.22 1278.07 2428.52 1275.5C2429.83 1272.95 2432.95 1271.92 2435.52 1273.21C2439.24 1275.1 2443.11 1276.92 2447 1278.61C2449.64 1279.76 2450.85 1282.83 2449.7 1285.46C2448.98 1287.1 2447.52 1288.19 2445.88 1288.5Z" fill="#91B3FA"/>
</g>
<path d="M2437.78 1221.63C2438.64 1222.36 2439.86 1222.46 2440.83 1221.89L2468.38 1205.48C2481.72 1212.28 2496.24 1217 2511.49 1219.25L2524.43 1248.56C2524.89 1249.59 2525.94 1250.21 2527.07 1250.12L2565.39 1246.9C2566.51 1246.8 2567.45 1246.01 2567.73 1244.92L2575.6 1213.86C2590.26 1209.1 2603.79 1202.02 2615.81 1193.08L2645.71 1204.66C2646.76 1205.07 2647.95 1204.76 2648.67 1203.9L2673.5 1174.52C2674.22 1173.66 2674.32 1172.44 2673.75 1171.47L2657.34 1143.92C2664.14 1130.58 2668.86 1116.06 2671.11 1100.81L2700.42 1087.87C2701.45 1087.41 2702.08 1086.36 2701.98 1085.24L2698.76 1046.91C2698.67 1045.79 2697.87 1044.85 2696.78 1044.57L2665.72 1036.7C2660.96 1022.04 2653.88 1008.51 2644.94 996.496L2656.52 966.592C2656.93 965.544 2656.63 964.354 2655.77 963.629L2626.39 938.805C2625.53 938.079 2624.3 937.979 2623.34 938.554L2595.79 954.965C2582.45 948.163 2567.93 943.44 2552.68 941.195L2539.73 911.881C2539.28 910.853 2538.22 910.226 2537.1 910.32L2498.77 913.542C2497.65 913.636 2496.72 914.43 2496.44 915.52L2488.57 946.584C2473.91 951.343 2460.38 958.425 2448.36 967.359L2418.46 955.779C2417.41 955.373 2416.22 955.677 2415.49 956.535L2390.67 985.916C2389.95 986.775 2389.84 987.999 2390.42 988.965L2406.83 1016.51C2400.03 1029.85 2395.31 1044.38 2393.06 1059.62L2363.75 1072.57C2362.72 1073.03 2362.09 1074.08 2362.19 1075.2L2365.41 1113.53C2365.5 1114.65 2366.3 1115.59 2367.39 1115.86L2398.45 1123.74C2403.21 1138.39 2410.29 1151.92 2419.22 1163.94L2407.64 1193.85C2407.24 1194.89 2407.54 1196.08 2408.4 1196.81L2437.78 1221.63Z" fill="#91B3FA"/>
<path d="M2539.23 1118.93C2530.98 1120.47 2522.49 1119.33 2514.81 1115.59C2505.36 1110.97 2498.28 1102.96 2494.86 1093.01C2487.81 1072.5 2498.76 1050.06 2519.28 1043C2539.85 1035.97 2562.25 1046.9 2569.3 1067.42C2572.72 1077.37 2572.06 1088.05 2567.45 1097.49C2562.84 1106.94 2554.82 1114.02 2544.87 1117.44C2543.02 1118.08 2541.13 1118.57 2539.23 1118.93ZM2526.78 1051.76C2525.4 1052.01 2524.03 1052.37 2522.67 1052.84C2507.57 1058.03 2499.51 1074.54 2504.7 1089.63C2507.22 1096.94 2512.43 1102.84 2519.38 1106.23C2526.33 1109.63 2534.18 1110.1 2541.49 1107.6C2548.81 1105.08 2554.7 1099.87 2558.1 1092.92C2561.49 1085.97 2561.97 1078.12 2559.46 1070.8C2554.74 1057.07 2540.65 1049.16 2526.78 1051.76Z" fill="#BDD0FB"/>
<path d="M2550.64 1175.89C2547.41 1176.49 2544.11 1176.94 2540.77 1177.22C2534.12 1177.79 2527.41 1177.67 2520.8 1176.88C2520.5 1176.84 2520.21 1176.8 2519.91 1176.77C2517.61 1176.47 2515.86 1174.73 2515.46 1172.57C2515.36 1172.04 2515.34 1171.49 2515.41 1170.94C2515.78 1168.09 2518.4 1166.09 2521.24 1166.45C2527.4 1167.24 2533.68 1167.38 2539.89 1166.85H2539.89C2540.23 1166.83 2540.58 1166.79 2540.91 1166.76C2555.61 1165.38 2569.4 1160.4 2581.34 1152.38C2587.81 1148.02 2593.74 1142.77 2598.96 1136.7C2599.01 1136.65 2599.05 1136.6 2599.09 1136.55C2599.22 1136.4 2599.35 1136.25 2599.48 1136.1C2614.58 1118.22 2621.82 1095.53 2619.85 1072.22C2619.6 1069.2 2619.2 1066.22 2618.65 1063.28C2614.95 1043.52 2604.66 1025.78 2589.1 1012.63C2571.22 997.53 2548.53 990.296 2525.22 992.257C2501.92 994.225 2480.74 1005.14 2465.63 1023.01C2450.53 1040.89 2443.29 1063.58 2445.25 1086.9C2445.5 1089.86 2445.9 1092.81 2446.45 1095.71C2448.81 1108.32 2453.89 1120.27 2461.39 1130.68C2461.85 1131.32 2462.15 1132.03 2462.28 1132.76C2462.64 1134.68 2461.9 1136.73 2460.21 1137.94C2457.87 1139.61 2454.63 1139.09 2452.95 1136.76C2444.56 1125.1 2438.86 1111.74 2436.22 1097.64C2435.61 1094.38 2435.16 1091.09 2434.88 1087.77C2432.69 1061.68 2440.79 1036.3 2457.69 1016.3C2474.59 996.302 2498.24 984.063 2524.34 981.886C2550.43 979.691 2575.81 987.786 2595.81 1004.69C2613.22 1019.4 2624.74 1039.24 2628.88 1061.35C2629.49 1064.63 2629.94 1067.97 2630.23 1071.34C2634.47 1121.85 2599.44 1166.77 2550.64 1175.89Z" fill="#BDD0FB"/>
<path d="M1688.18 1871.75C1688.18 1871.75 1672.51 1830.52 1654.22 1834.3C1635.92 1838.07 1615.91 1852.13 1615.91 1852.13L1586.52 1891.88C1586.52 1891.88 1669.03 1924.38 1698.04 1905.75C1698.04 1905.75 1782.32 1920.31 1888.74 1902.85C1873.33 1870.33 1864.15 1837.76 1858.76 1812.49C1804.86 1843 1746.8 1865.79 1688.18 1871.75Z" fill="url(#paint3_linear_48_705)"/>
<path d="M2134.59 1572.68C2134.59 1572.68 2013.93 1724.66 1858.76 1812.49C1864.15 1837.76 1873.33 1870.33 1888.74 1902.85C1969.23 1889.64 2062.39 1858.12 2141.37 1788.08L2134.59 1572.68Z" fill="url(#paint4_linear_48_705)"/>
<path d="M2285.06 2246.26C2261.47 2134.18 2237.87 2069.29 2158.86 1856.84C2134 1789.99 2111.42 1722.34 2122.33 1651.85L2134.59 1572.68C2134.59 1572.68 2288.13 1520.73 2458.34 1570.5C2458.34 1570.5 2690.55 1671.37 2532.82 2169.58C2461.73 2249.12 2378.53 2271.78 2285.06 2246.26Z" fill="url(#paint5_linear_48_705)"/>
<path d="M2160.72 1471.64L2200.54 1567.29C2203.05 1573.34 2208.49 1577.64 2214.94 1578.75C2237.89 1582.68 2293.41 1588.83 2329.88 1564.86C2334.22 1562 2335.33 1556.09 2332.36 1551.83L2258.8 1446.22L2160.72 1471.64Z" fill="url(#paint6_linear_48_705)"/>
<path d="M2201.9 1325.3C2200.23 1326.87 2131.33 1462.17 2131.33 1462.17L2209.42 1499.87L2293.77 1381.33C2293.77 1381.33 2229.89 1298.94 2201.9 1325.3Z" fill="url(#paint7_linear_48_705)"/>
<path d="M2258.28 1395.56L2219.34 1460.48C2218.75 1461.46 2218.04 1462.36 2217.2 1463.14C2212.57 1467.45 2196.7 1480 2184.44 1462.92C2173.99 1448.35 2164.18 1435.11 2153.67 1429.65C2147.54 1426.46 2139.98 1429.01 2136.87 1435.18C2130.45 1447.9 2118.02 1473.82 2110.21 1498.41C2108.26 1504.57 2111.44 1511.18 2117.43 1513.61C2133.24 1520.02 2164.49 1531.6 2192.23 1535.43C2196.78 1536.06 2201.29 1534.14 2204 1530.42C2215.93 1514.08 2249.56 1468.4 2261.04 1456.97C2271.7 1446.35 2291.38 1450.35 2300.25 1452.9C2303.61 1453.87 2307.2 1453.4 2310.2 1451.59C2319.19 1446.17 2334.89 1432.68 2320.53 1409.83C2316.96 1404.15 2318.78 1396.58 2324.39 1392.9C2334.43 1386.29 2345.33 1373.89 2334.95 1353.8C2324.43 1333.47 2305.66 1331.64 2292.87 1333.21C2287.22 1333.9 2281.47 1330.93 2279.3 1325.66C2278.34 1323.32 2276.43 1321.32 2272.87 1320.6C2266.17 1319.24 2261.77 1313.11 2263.09 1306.4C2265.34 1294.89 2263.65 1279.95 2245.27 1269.85C2211.58 1251.32 2182.07 1281.5 2174.56 1306.99C2167.06 1332.47 2204.73 1350.47 2228.43 1353.48C2245.83 1355.69 2255.38 1374.68 2259.22 1384.61C2260.61 1388.22 2260.27 1392.24 2258.28 1395.56Z" fill="url(#paint8_linear_48_705)"/>
<path d="M2244.63 1476.41C2244.63 1476.41 2261.39 1436.97 2280.57 1438.58C2299.75 1440.19 2314.84 1459.3 2291.07 1480.77C2261.51 1507.49 2244.63 1476.41 2244.63 1476.41Z" fill="url(#paint9_linear_48_705)"/>
<path d="M2269.95 3234.06C2307.03 3237.26 2371.39 3242.47 2422.13 3244.7C2452.63 3246.05 2470.19 3243.06 2480.31 3239.01C2480.29 3240.15 2480.26 3241.23 2480.21 3242.23C2479.97 3247.57 2475.63 3251.84 2470.24 3252.14C2374.37 3257.49 2298.12 3253.99 2270.97 3252.34C2265.36 3252 2262.01 3245.9 2264.88 3241.11C2266.32 3238.72 2268.06 3236.38 2269.95 3234.06Z" fill="url(#paint10_linear_48_705)"/>
<path d="M2422.13 3244.7C2371.39 3242.47 2307.03 3237.26 2269.95 3234.06C2306.41 3189.33 2422.13 3159.18 2422.13 3159.18H2454.82C2477.3 3191.58 2480.55 3222.43 2480.31 3239.01C2470.19 3243.06 2452.63 3246.05 2422.13 3244.7Z" fill="url(#paint11_linear_48_705)"/>
<path d="M2460.32 3105.82L2457.26 3166.34C2456.93 3172.9 2452.02 3178.41 2445.46 3179.34C2438.93 3180.28 2430.18 3180.4 2420.91 3177.31C2415.2 3175.41 2410.97 3170.6 2409.91 3164.74L2399.34 3105.82H2460.32Z" fill="url(#paint12_linear_48_705)"/>
<path d="M2884.85 3244.25C2900.93 3242.01 2908.21 3233.65 2911.26 3224.72C2911.28 3224.8 2911.3 3224.88 2911.32 3224.96C2913.69 3234.38 2908.2 3244.15 2897.24 3248.79C2883.98 3254.4 2869.49 3255.36 2858.24 3254.9C2846.17 3254.4 2835.09 3249.4 2829 3241.41L2828.91 3241.29C2841.03 3247.29 2858.03 3247.99 2884.85 3244.25Z" fill="url(#paint13_linear_48_705)"/>
<path d="M2809.03 3105.43H2835.98C2877.04 3104.59 2902.82 3191.19 2911.26 3224.72C2908.21 3233.65 2900.93 3242.01 2884.85 3244.25C2858.03 3247.99 2841.03 3247.28 2828.91 3241.29C2806.73 3212.1 2795.73 3169.35 2790.45 3144.4C2784.43 3116.03 2809.03 3105.43 2809.03 3105.43Z" fill="url(#paint14_linear_48_705)"/>
<path d="M2832.52 3049.25L2847.49 3108.78C2849.32 3116.08 2845.83 3123.63 2839.08 3127.09C2830.71 3131.39 2818.92 3135.9 2808.08 3134.6C2802.99 3133.98 2798.76 3130.39 2797.07 3125.6L2775.1 3062.96L2832.52 3049.25Z" fill="url(#paint15_linear_48_705)"/>
<path d="M2850.37 3066.46C2831.75 3082.98 2771.18 3085.16 2771.18 3085.16C2553 2561.49 2462.03 2417.34 2462.03 2417.34C2493.54 2614.99 2468.82 3122.34 2468.82 3122.34C2432.82 3138.22 2386.4 3122.34 2386.4 3122.34C2383.48 2798.75 2337.92 2451.04 2279.16 2228.57C2426.63 2225.25 2506.77 2193.1 2532.38 2172.85C2655.3 2371.03 2850.37 3066.46 2850.37 3066.46Z" fill="url(#paint16_linear_48_705)"/>
<path d="M2242.01 2374.9L2269.15 2543.67C2273.88 2573.1 2301.14 2593.51 2330.87 2589.89L2736.99 2540.35C2756.86 2537.93 2771.92 2521.34 2772.32 2501.42C2773.19 2457.81 2771.48 2380.2 2753.18 2309.49L2242.01 2374.9Z" fill="url(#paint17_linear_48_705)"/>
<path d="M2342.23 2578.67C2341.65 2578.67 2341.16 2578.24 2341.08 2577.66C2341 2577.02 2341.46 2576.44 2342.09 2576.37L2351.28 2575.24C2351.94 2575.14 2352.5 2575.62 2352.57 2576.25C2352.65 2576.88 2352.2 2577.46 2351.57 2577.54L2342.37 2578.66C2342.32 2578.67 2342.28 2578.67 2342.23 2578.67ZM2320.75 2578.14C2320.67 2578.14 2320.58 2578.13 2320.5 2578.11C2317.43 2577.41 2314.41 2576.44 2311.5 2575.22C2310.91 2574.97 2310.63 2574.29 2310.88 2573.7C2311.14 2573.11 2311.82 2572.83 2312.4 2573.08C2315.18 2574.25 2318.08 2575.19 2321.01 2575.85C2321.63 2575.99 2322.03 2576.61 2321.88 2577.24C2321.76 2577.77 2321.28 2578.14 2320.75 2578.14ZM2372.88 2574.93C2372.3 2574.93 2371.8 2574.5 2371.73 2573.92C2371.65 2573.28 2372.11 2572.7 2372.74 2572.63L2381.94 2571.51C2382.55 2571.43 2383.15 2571.88 2383.22 2572.52C2383.3 2573.15 2382.85 2573.73 2382.22 2573.8L2373.02 2574.92C2372.97 2574.93 2372.93 2574.93 2372.88 2574.93ZM2403.53 2571.2C2402.95 2571.2 2402.45 2570.77 2402.38 2570.18C2402.3 2569.54 2402.76 2568.96 2403.39 2568.89L2412.58 2567.77C2413.24 2567.68 2413.8 2568.14 2413.87 2568.77C2413.95 2569.41 2413.5 2569.99 2412.87 2570.06L2403.67 2571.19C2403.62 2571.19 2403.58 2571.2 2403.53 2571.2ZM2434.18 2567.46C2433.6 2567.46 2433.1 2567.03 2433.03 2566.44C2432.95 2565.8 2433.41 2565.22 2434.04 2565.15L2443.23 2564.03C2443.89 2563.92 2444.45 2564.4 2444.52 2565.04C2444.6 2565.67 2444.15 2566.25 2443.52 2566.33L2434.32 2567.45C2434.27 2567.45 2434.23 2567.46 2434.18 2567.46ZM2464.83 2563.72C2464.25 2563.72 2463.75 2563.29 2463.68 2562.7C2463.6 2562.07 2464.05 2561.49 2464.69 2561.41L2473.88 2560.29C2474.54 2560.22 2475.1 2560.67 2475.17 2561.3C2475.25 2561.93 2474.8 2562.51 2474.17 2562.59L2464.97 2563.71C2464.92 2563.72 2464.88 2563.72 2464.83 2563.72ZM2294.26 2563.15C2293.96 2563.15 2293.66 2563.04 2293.43 2562.8C2291.25 2560.52 2289.25 2558.05 2287.51 2555.43C2287.15 2554.9 2287.29 2554.18 2287.82 2553.83C2288.35 2553.47 2289.07 2553.61 2289.43 2554.14C2291.1 2556.65 2293.01 2559.02 2295.1 2561.19C2295.54 2561.66 2295.53 2562.39 2295.07 2562.83C2294.84 2563.05 2294.55 2563.15 2294.26 2563.15ZM2495.48 2559.98C2494.9 2559.98 2494.4 2559.55 2494.33 2558.96C2494.25 2558.33 2494.7 2557.75 2495.34 2557.67L2504.53 2556.55C2505.19 2556.46 2505.75 2556.92 2505.82 2557.56C2505.9 2558.19 2505.45 2558.77 2504.81 2558.85L2495.62 2559.97C2495.57 2559.98 2495.53 2559.98 2495.48 2559.98ZM2526.13 2556.24C2525.55 2556.24 2525.05 2555.81 2524.98 2555.22C2524.9 2554.59 2525.35 2554.01 2525.99 2553.93L2535.19 2552.81C2535.79 2552.71 2536.4 2553.19 2536.47 2553.82C2536.55 2554.46 2536.1 2555.04 2535.46 2555.11L2526.27 2556.23C2526.22 2556.24 2526.17 2556.24 2526.13 2556.24ZM2556.78 2552.5C2556.2 2552.5 2555.71 2552.07 2555.63 2551.49C2555.55 2550.85 2556.01 2550.27 2556.64 2550.2L2565.83 2549.07C2566.49 2549 2567.05 2549.45 2567.12 2550.08C2567.2 2550.72 2566.75 2551.3 2566.12 2551.37L2556.92 2552.49C2556.87 2552.5 2556.83 2552.5 2556.78 2552.5ZM2587.43 2548.76C2586.85 2548.76 2586.35 2548.33 2586.28 2547.74C2586.2 2547.11 2586.66 2546.53 2587.29 2546.46L2596.48 2545.34C2597.14 2545.25 2597.7 2545.71 2597.77 2546.34C2597.85 2546.98 2597.4 2547.56 2596.77 2547.64L2587.57 2548.75C2587.52 2548.76 2587.48 2548.76 2587.43 2548.76ZM2618.08 2545.03C2617.5 2545.03 2617 2544.6 2616.93 2544.01C2616.85 2543.38 2617.31 2542.8 2617.94 2542.72L2627.13 2541.6C2627.79 2541.5 2628.35 2541.97 2628.43 2542.6C2628.5 2543.24 2628.05 2543.82 2627.42 2543.9L2618.22 2545.02C2618.17 2545.02 2618.13 2545.03 2618.08 2545.03ZM2648.73 2541.29C2648.15 2541.29 2647.65 2540.86 2647.58 2540.27C2647.5 2539.64 2647.96 2539.06 2648.59 2538.98L2657.78 2537.86C2658.43 2537.79 2659 2538.23 2659.07 2538.86C2659.15 2539.5 2658.7 2540.08 2658.07 2540.15L2648.87 2541.28C2648.82 2541.28 2648.78 2541.29 2648.73 2541.29ZM2679.38 2537.55C2678.8 2537.55 2678.3 2537.12 2678.23 2536.53C2678.15 2535.9 2678.6 2535.32 2679.24 2535.24L2688.44 2534.12C2689.09 2534.04 2689.65 2534.5 2689.72 2535.13C2689.8 2535.76 2689.35 2536.34 2688.71 2536.42L2679.52 2537.54C2679.47 2537.54 2679.42 2537.55 2679.38 2537.55ZM2280.45 2536.04C2279.9 2536.04 2279.41 2535.65 2279.31 2535.08L2277.83 2525.92C2277.72 2525.29 2278.15 2524.7 2278.78 2524.6C2279.43 2524.49 2280.01 2524.93 2280.11 2525.55L2281.59 2534.68C2281.7 2535.31 2281.28 2535.91 2280.65 2536.02C2280.58 2536.03 2280.52 2536.04 2280.45 2536.04ZM2710.03 2533.81C2709.45 2533.81 2708.95 2533.38 2708.88 2532.79C2708.8 2532.16 2709.25 2531.58 2709.89 2531.5L2719.08 2530.38C2719.73 2530.28 2720.3 2530.76 2720.37 2531.39C2720.45 2532.02 2720 2532.6 2719.37 2532.68L2710.17 2533.8C2710.12 2533.81 2710.08 2533.81 2710.03 2533.81ZM2739.92 2527.15C2739.52 2527.15 2739.13 2526.94 2738.92 2526.57C2738.6 2526.02 2738.79 2525.31 2739.35 2524.99C2741.94 2523.51 2744.36 2521.71 2746.53 2519.64C2747 2519.2 2747.73 2519.22 2748.17 2519.68C2748.61 2520.14 2748.59 2520.88 2748.13 2521.32C2745.82 2523.51 2743.25 2525.43 2740.49 2527C2740.31 2527.11 2740.11 2527.15 2739.92 2527.15ZM2275.54 2505.56C2274.98 2505.56 2274.49 2505.15 2274.4 2504.58L2272.93 2495.44C2272.82 2494.81 2273.25 2494.21 2273.88 2494.11C2274.55 2493.99 2275.11 2494.44 2275.21 2495.07L2276.68 2504.21C2276.78 2504.85 2276.36 2505.44 2275.72 2505.54C2275.66 2505.55 2275.6 2505.56 2275.54 2505.56ZM2758.05 2503.21C2757.96 2503.21 2757.87 2503.2 2757.77 2503.17C2757.15 2503.02 2756.77 2502.39 2756.93 2501.77C2757.58 2499.14 2757.93 2496.42 2757.99 2493.69L2758 2492.86C2758.01 2492.23 2758.53 2491.72 2759.16 2491.72C2759.16 2491.72 2759.17 2491.72 2759.17 2491.72C2759.81 2491.73 2760.33 2492.25 2760.32 2492.89L2760.3 2493.74C2760.24 2496.63 2759.87 2499.53 2759.18 2502.33C2759.05 2502.86 2758.57 2503.21 2758.05 2503.21ZM2270.64 2475.07C2270.08 2475.07 2269.58 2474.67 2269.5 2474.1L2268.03 2464.95C2267.93 2464.32 2268.35 2463.73 2268.99 2463.63C2269.63 2463.53 2270.21 2463.95 2270.31 2464.58L2271.78 2473.73C2271.88 2474.36 2271.45 2474.96 2270.82 2475.06C2270.76 2475.07 2270.7 2475.07 2270.64 2475.07ZM2759.29 2472.42C2758.66 2472.42 2758.14 2471.91 2758.14 2471.27C2758.12 2468.28 2758.08 2465.19 2758.03 2462.02C2758.02 2461.38 2758.53 2460.85 2759.17 2460.84C2759.78 2460.73 2760.33 2461.34 2760.34 2461.98C2760.4 2465.15 2760.43 2468.25 2760.45 2471.25C2760.46 2471.89 2759.94 2472.41 2759.3 2472.42C2759.3 2472.42 2759.3 2472.42 2759.29 2472.42ZM2265.74 2444.59C2265.18 2444.59 2264.68 2444.18 2264.59 2443.61L2263.12 2434.47C2263.02 2433.83 2263.45 2433.24 2264.08 2433.14C2264.75 2433.03 2265.31 2433.47 2265.41 2434.1L2266.88 2443.24C2266.98 2443.87 2266.55 2444.47 2265.92 2444.57C2265.86 2444.58 2265.79 2444.59 2265.74 2444.59ZM2758.56 2441.54C2757.94 2441.54 2757.43 2441.05 2757.4 2440.43C2757.27 2437.4 2757.13 2434.31 2756.96 2431.19C2756.92 2430.55 2757.41 2430.01 2758.05 2429.97C2758.77 2429.9 2759.24 2430.43 2759.27 2431.07C2759.44 2434.2 2759.58 2437.29 2759.71 2440.33C2759.74 2440.97 2759.24 2441.51 2758.61 2441.54C2758.59 2441.54 2758.57 2441.54 2758.56 2441.54ZM2260.84 2414.1C2260.28 2414.1 2259.79 2413.7 2259.69 2413.13L2258.22 2403.98C2258.12 2403.35 2258.55 2402.76 2259.18 2402.65C2259.83 2402.56 2260.41 2402.98 2260.51 2403.61L2261.98 2412.76C2262.08 2413.39 2261.65 2413.98 2261.02 2414.08C2260.96 2414.09 2260.9 2414.1 2260.84 2414.1ZM2756.68 2410.71C2756.08 2410.71 2755.57 2410.25 2755.52 2409.65C2755.28 2406.6 2755.01 2403.53 2754.72 2400.43C2754.66 2399.79 2755.13 2399.23 2755.77 2399.17C2756.45 2399.1 2756.97 2399.58 2757.03 2400.22C2757.31 2403.32 2757.58 2406.4 2757.83 2409.46C2757.88 2410.1 2757.41 2410.66 2756.77 2410.71C2756.74 2410.71 2756.7 2410.71 2756.68 2410.71ZM2255.94 2383.62C2255.38 2383.62 2254.88 2383.21 2254.79 2382.64L2253.13 2372.31L2257.9 2371.7C2258.61 2371.64 2259.11 2372.08 2259.19 2372.71C2259.27 2373.34 2258.83 2373.92 2258.19 2374L2255.8 2374.31L2257.08 2382.27C2257.18 2382.9 2256.75 2383.5 2256.12 2383.6C2256.06 2383.61 2255.99 2383.62 2255.94 2383.62ZM2753.54 2379.99C2752.96 2379.99 2752.46 2379.56 2752.39 2378.98C2752.01 2375.93 2751.6 2372.88 2751.18 2369.8C2751.09 2369.17 2751.53 2368.59 2752.17 2368.5C2752.77 2368.37 2753.39 2368.85 2753.47 2369.49C2753.9 2372.57 2754.3 2375.63 2754.69 2378.69C2754.77 2379.32 2754.31 2379.9 2753.68 2379.98C2753.63 2379.99 2753.58 2379.99 2753.54 2379.99ZM2279.49 2371.27C2278.91 2371.27 2278.41 2370.84 2278.34 2370.26C2278.25 2369.62 2278.71 2369.04 2279.34 2368.96L2288.52 2367.78C2289.23 2367.68 2289.74 2368.16 2289.82 2368.79C2289.9 2369.42 2289.45 2370 2288.82 2370.08L2279.63 2371.26C2279.58 2371.26 2279.53 2371.27 2279.49 2371.27ZM2310.11 2367.35C2309.54 2367.35 2309.04 2366.92 2308.96 2366.34C2308.88 2365.7 2309.33 2365.12 2309.97 2365.04L2319.15 2363.87C2319.86 2363.77 2320.37 2364.24 2320.45 2364.87C2320.53 2365.5 2320.08 2366.08 2319.45 2366.16L2310.26 2367.34C2310.21 2367.35 2310.16 2367.35 2310.11 2367.35ZM2340.74 2363.43C2340.16 2363.43 2339.67 2363 2339.59 2362.42C2339.51 2361.78 2339.96 2361.2 2340.59 2361.12L2349.78 2359.95C2350.48 2359.86 2351 2360.32 2351.08 2360.95C2351.16 2361.58 2350.71 2362.16 2350.08 2362.24L2340.89 2363.42C2340.83 2363.42 2340.78 2363.43 2340.74 2363.43ZM2371.37 2359.51C2370.79 2359.51 2370.29 2359.08 2370.22 2358.5C2370.14 2357.87 2370.59 2357.29 2371.22 2357.2L2380.41 2356.03C2381.14 2355.95 2381.62 2356.4 2381.7 2357.03C2381.78 2357.66 2381.33 2358.24 2380.7 2358.33L2371.51 2359.5C2371.46 2359.51 2371.41 2359.51 2371.37 2359.51ZM2401.99 2355.59C2401.42 2355.59 2400.92 2355.16 2400.84 2354.58C2400.76 2353.94 2401.21 2353.36 2401.84 2353.28L2411.03 2352.11C2411.77 2352.04 2412.25 2352.48 2412.33 2353.11C2412.41 2353.74 2411.96 2354.32 2411.33 2354.41L2402.14 2355.58C2402.09 2355.59 2402.04 2355.59 2401.99 2355.59ZM2432.62 2351.67C2432.05 2351.67 2431.55 2351.24 2431.47 2350.66C2431.39 2350.03 2431.84 2349.45 2432.47 2349.36L2441.66 2348.19C2442.39 2348.13 2442.88 2348.56 2442.96 2349.19C2443.04 2349.83 2442.59 2350.41 2441.96 2350.49L2432.77 2351.66C2432.72 2351.67 2432.67 2351.67 2432.62 2351.67ZM2748.96 2349.45C2748.41 2349.45 2747.92 2349.06 2747.82 2348.5C2747.28 2345.47 2746.72 2342.44 2746.13 2339.41C2746.01 2338.78 2746.42 2338.17 2747.04 2338.05C2747.66 2337.91 2748.28 2338.34 2748.4 2338.97C2749 2342.01 2749.56 2345.05 2750.1 2348.09C2750.21 2348.72 2749.79 2349.33 2749.16 2349.43C2749.09 2349.45 2749.02 2349.45 2748.96 2349.45ZM2463.25 2347.75C2462.67 2347.75 2462.18 2347.32 2462.1 2346.74C2462.02 2346.11 2462.47 2345.53 2463.1 2345.44L2472.29 2344.27C2473.01 2344.17 2473.5 2344.64 2473.59 2345.27C2473.67 2345.9 2473.22 2346.48 2472.58 2346.57L2463.4 2347.74C2463.34 2347.75 2463.3 2347.75 2463.25 2347.75ZM2493.88 2343.83C2493.3 2343.83 2492.8 2343.41 2492.73 2342.82C2492.64 2342.19 2493.1 2341.61 2493.73 2341.53L2502.92 2340.35C2503.63 2340.26 2504.13 2340.72 2504.21 2341.35C2504.29 2341.99 2503.84 2342.57 2503.21 2342.65L2494.02 2343.82C2493.97 2343.83 2493.92 2343.83 2493.88 2343.83ZM2524.5 2339.91C2523.93 2339.91 2523.43 2339.48 2523.35 2338.9C2523.27 2338.27 2523.72 2337.69 2524.35 2337.6L2533.54 2336.43C2534.25 2336.35 2534.76 2336.8 2534.84 2337.43C2534.92 2338.07 2534.47 2338.65 2533.84 2338.73L2524.65 2339.9C2524.6 2339.91 2524.55 2339.91 2524.5 2339.91ZM2555.13 2335.99C2554.56 2335.99 2554.06 2335.57 2553.98 2334.98C2553.9 2334.35 2554.35 2333.77 2554.98 2333.69L2564.17 2332.51C2564.87 2332.44 2565.39 2332.88 2565.47 2333.51C2565.55 2334.15 2565.1 2334.73 2564.47 2334.81L2555.28 2335.99C2555.23 2335.99 2555.18 2335.99 2555.13 2335.99ZM2585.76 2332.07C2585.18 2332.07 2584.68 2331.65 2584.61 2331.06C2584.53 2330.43 2584.98 2329.85 2585.61 2329.77L2594.8 2328.59C2595.5 2328.53 2596.02 2328.96 2596.09 2329.59C2596.18 2330.23 2595.73 2330.81 2595.09 2330.89L2585.91 2332.06C2585.85 2332.07 2585.8 2332.07 2585.76 2332.07ZM2616.39 2328.16C2615.81 2328.16 2615.31 2327.73 2615.24 2327.15C2615.15 2326.51 2615.61 2325.93 2616.24 2325.85L2625.43 2324.67C2626.16 2324.57 2626.64 2325.05 2626.72 2325.67C2626.8 2326.31 2626.35 2326.89 2625.72 2326.97L2616.53 2328.15C2616.48 2328.15 2616.43 2328.16 2616.39 2328.16ZM2647.01 2324.24C2646.43 2324.24 2645.94 2323.81 2645.86 2323.22C2645.78 2322.59 2646.23 2322.01 2646.86 2321.93L2656.05 2320.75C2656.78 2320.66 2657.27 2321.12 2657.35 2321.75C2657.43 2322.39 2656.98 2322.97 2656.35 2323.05L2647.16 2324.23C2647.11 2324.23 2647.06 2324.24 2647.01 2324.24ZM2677.64 2320.32C2677.06 2320.32 2676.57 2319.89 2676.49 2319.31C2676.41 2318.67 2676.86 2318.09 2677.49 2318.01L2686.68 2316.84C2687.41 2316.75 2687.89 2317.21 2687.98 2317.84C2688.06 2318.47 2687.61 2319.05 2686.97 2319.13L2677.79 2320.31C2677.73 2320.31 2677.68 2320.32 2677.64 2320.32ZM2742.67 2319.22C2742.15 2319.22 2741.68 2318.87 2741.55 2318.34C2741.06 2316.33 2740.57 2314.33 2740.06 2312.34L2739.04 2312.47C2738.38 2312.57 2737.83 2312.1 2737.75 2311.47C2737.66 2310.83 2738.11 2310.25 2738.75 2310.17L2741.79 2309.78L2742.04 2310.77C2742.65 2313.11 2743.23 2315.44 2743.8 2317.79C2743.95 2318.41 2743.57 2319.04 2742.95 2319.19C2742.85 2319.21 2742.76 2319.22 2742.67 2319.22ZM2708.27 2316.4C2707.69 2316.4 2707.19 2315.97 2707.12 2315.39C2707.04 2314.75 2707.49 2314.17 2708.12 2314.09L2717.31 2312.91C2718.03 2312.84 2718.52 2313.29 2718.6 2313.92C2718.69 2314.55 2718.24 2315.13 2717.6 2315.21L2708.42 2316.39C2708.36 2316.39 2708.31 2316.4 2708.27 2316.4Z" fill="white"/>
<path d="M2345.2 2236.66L2344.75 2223.43C2345.73 2220.14 2348.31 2217.56 2351.62 2216.59C2364.01 2212.96 2394.91 2205.41 2411.45 2214.76L2415.65 2229.66L2345.2 2236.66Z" fill="url(#paint18_linear_48_705)"/>
<path d="M2383.09 2219.03C2380.27 2220.11 2377.35 2220.48 2374.34 2220.14C2370.69 2219.72 2367.79 2216.88 2367.33 2213.25L2362.09 2172.33L2382.92 2169.66L2388.15 2210.56C2388.62 2214.2 2386.53 2217.71 2383.09 2219.03Z" fill="url(#paint19_linear_48_705)"/>
<path d="M2546.93 2210.85L2546.48 2197.62C2547.45 2194.32 2550.03 2191.75 2553.35 2190.78C2565.73 2187.15 2596.63 2179.6 2613.18 2188.95L2617.37 2203.85L2546.93 2210.85Z" fill="url(#paint20_linear_48_705)"/>
<path d="M2584.81 2193.22C2581.99 2194.3 2579.07 2194.67 2576.06 2194.32C2572.42 2193.91 2569.52 2191.06 2569.05 2187.44L2563.27 2142.2L2584.09 2139.54L2589.88 2184.75C2590.34 2188.39 2588.25 2191.9 2584.81 2193.22Z" fill="url(#paint21_linear_48_705)"/>
<path d="M2361.26 2182.63L2584.29 2146.56C2589.38 2145.73 2593.24 2141.5 2593.48 2136.37C2593.81 2129.2 2593.54 2118.57 2590.54 2107.89C2587.12 2095.75 2575.3 2087.92 2562.7 2089.23C2520.79 2093.59 2414.42 2107.23 2358.76 2137.92C2352.88 2141.17 2348.95 2147.05 2348.21 2153.71C2347.5 2160.06 2347.56 2168.41 2350.58 2176.52C2352.19 2180.83 2356.7 2183.37 2361.26 2182.63Z" fill="url(#paint22_linear_48_705)"/>
<path opacity="0.58" d="M2355.76 2173.59C2354.36 2173.59 2353.09 2172.63 2352.76 2171.2C2352.68 2170.84 2350.7 2162.15 2351.91 2153.39C2352.88 2146.3 2357.59 2140.1 2364.21 2137.21C2376.3 2131.91 2399.54 2122.56 2419.19 2119.48C2420.88 2119.24 2422.46 2120.37 2422.72 2122.06C2422.98 2123.74 2421.83 2125.32 2420.15 2125.59C2400.47 2128.66 2376.2 2138.69 2366.68 2142.86C2362.03 2144.9 2358.71 2149.26 2358.03 2154.23C2356.97 2161.88 2358.76 2169.73 2358.78 2169.81C2359.16 2171.47 2358.12 2173.13 2356.47 2173.51C2356.23 2173.57 2355.99 2173.59 2355.76 2173.59Z" fill="white"/>
<path d="M2240.63 2244.87C2312.87 2234.68 2625.48 2191.34 2717.82 2190.67C2725.76 2190.61 2732.89 2195.52 2735.56 2202.97C2744.04 2226.57 2762.07 2281.62 2767.95 2337.72C2768.75 2345.35 2763.99 2352.49 2756.66 2354.87L2554.12 2420.7L2480.4 2430.13L2253.61 2414.47C2245.62 2413.92 2239.03 2408.05 2237.61 2400.2C2232.57 2372.24 2221.88 2306.5 2224.05 2263.03C2224.51 2253.79 2231.43 2246.16 2240.63 2244.87Z" fill="url(#paint23_linear_48_705)"/>
<path d="M2479.86 2413.18C2479.84 2413.18 2479.81 2413.18 2479.78 2413.18L2470.54 2412.54C2469.9 2412.49 2469.43 2411.94 2469.47 2411.3C2469.51 2410.67 2470.07 2410.28 2470.7 2410.23L2479.94 2410.87C2480.58 2410.91 2481.06 2411.46 2481.02 2412.1C2480.98 2412.71 2480.47 2413.18 2479.86 2413.18ZM2488.3 2412.1C2487.73 2412.1 2487.23 2411.67 2487.16 2411.09C2487.07 2410.46 2487.52 2409.88 2488.16 2409.79L2497.34 2408.62C2498.08 2408.52 2498.56 2408.99 2498.64 2409.62C2498.72 2410.26 2498.27 2410.83 2497.64 2410.92L2488.45 2412.09C2488.4 2412.1 2488.35 2412.1 2488.3 2412.1ZM2449.06 2411.05C2449.03 2411.05 2449.01 2411.05 2448.98 2411.05L2439.74 2410.41C2439.1 2410.37 2438.62 2409.82 2438.66 2409.18C2438.71 2408.54 2439.26 2408.15 2439.9 2408.1L2449.14 2408.74C2449.78 2408.79 2450.26 2409.34 2450.22 2409.98C2450.17 2410.59 2449.67 2411.05 2449.06 2411.05ZM2418.26 2408.93C2418.23 2408.93 2418.2 2408.92 2418.18 2408.92L2408.94 2408.29C2408.3 2408.24 2407.82 2407.69 2407.86 2407.05C2407.9 2406.41 2408.52 2406.02 2409.09 2405.98L2418.33 2406.61C2418.97 2406.65 2419.45 2407.21 2419.41 2407.85C2419.37 2408.46 2418.86 2408.93 2418.26 2408.93ZM2518.94 2408.18C2518.36 2408.18 2517.86 2407.75 2517.79 2407.17C2517.7 2406.53 2518.16 2405.96 2518.79 2405.87L2527.98 2404.7C2528.7 2404.61 2529.19 2405.07 2529.27 2405.7C2529.35 2406.33 2528.9 2406.91 2528.27 2407L2519.08 2408.17C2519.03 2408.18 2518.98 2408.18 2518.94 2408.18ZM2387.46 2406.8C2387.43 2406.8 2387.4 2406.79 2387.38 2406.79L2378.14 2406.16C2377.5 2406.11 2377.02 2405.56 2377.06 2404.92C2377.11 2404.28 2377.71 2403.88 2378.29 2403.84L2387.53 2404.48C2388.17 2404.53 2388.65 2405.08 2388.61 2405.72C2388.57 2406.33 2388.06 2406.8 2387.46 2406.8ZM2356.65 2404.67C2356.62 2404.67 2356.6 2404.67 2356.57 2404.67L2347.33 2404.03C2346.69 2403.98 2346.21 2403.43 2346.25 2402.79C2346.3 2402.16 2346.9 2401.75 2347.49 2401.72L2356.73 2402.36C2357.37 2402.4 2357.85 2402.95 2357.81 2403.59C2357.76 2404.2 2357.26 2404.67 2356.65 2404.67ZM2549.56 2404.26C2548.99 2404.26 2548.49 2403.83 2548.41 2403.25C2548.33 2402.61 2548.78 2402.03 2549.42 2401.95L2550.01 2401.88L2558.03 2399.25C2558.64 2399.06 2559.3 2399.39 2559.5 2399.99C2559.7 2400.6 2559.36 2401.25 2558.75 2401.45L2549.71 2404.25C2549.66 2404.26 2549.61 2404.26 2549.56 2404.26ZM2325.85 2402.54C2325.82 2402.54 2325.79 2402.54 2325.77 2402.54L2316.53 2401.9C2315.89 2401.86 2315.41 2401.31 2315.45 2400.67C2315.5 2400.03 2316.08 2399.62 2316.68 2399.59L2325.93 2400.23C2326.56 2400.28 2327.04 2400.83 2327 2401.47C2326.96 2402.08 2326.45 2402.54 2325.85 2402.54ZM2295.04 2400.42C2295.02 2400.42 2294.99 2400.41 2294.96 2400.41L2285.72 2399.78C2285.08 2399.73 2284.6 2399.18 2284.65 2398.54C2284.69 2397.91 2285.27 2397.49 2285.88 2397.47L2295.12 2398.1C2295.76 2398.14 2296.24 2398.7 2296.2 2399.34C2296.15 2399.95 2295.65 2400.42 2295.04 2400.42ZM2264.24 2398.29C2264.21 2398.29 2264.18 2398.28 2264.16 2398.28L2254.29 2397.6L2254.13 2396.72C2254.01 2396.09 2254.4 2395.35 2255.03 2395.24C2255.37 2395.16 2255.7 2395.23 2255.95 2395.4L2264.32 2395.97C2264.95 2396.02 2265.44 2396.57 2265.39 2397.21C2265.35 2397.82 2264.84 2398.29 2264.24 2398.29ZM2578.95 2394.82C2578.46 2394.82 2578.01 2394.51 2577.85 2394.02C2577.65 2393.42 2577.99 2392.76 2578.59 2392.56L2587.4 2389.7C2588 2389.52 2588.66 2389.84 2588.86 2390.45C2589.06 2391.06 2588.72 2391.71 2588.12 2391.91L2579.31 2394.77C2579.19 2394.81 2579.07 2394.82 2578.95 2394.82ZM2608.32 2385.28C2607.83 2385.28 2607.37 2384.97 2607.21 2384.48C2607.01 2383.87 2607.35 2383.22 2607.96 2383.02L2616.77 2380.16C2617.38 2379.98 2618.03 2380.3 2618.23 2380.9C2618.43 2381.51 2618.09 2382.17 2617.49 2382.36L2608.68 2385.23C2608.56 2385.26 2608.43 2385.28 2608.32 2385.28ZM2251.6 2376.07C2251.04 2376.07 2250.55 2375.66 2250.46 2375.09C2249.99 2372.16 2249.51 2369.1 2249.03 2365.92C2248.94 2365.29 2249.37 2364.7 2250 2364.6C2250.67 2364.54 2251.23 2364.94 2251.32 2365.57C2251.81 2368.74 2252.28 2371.8 2252.75 2374.73C2252.85 2375.36 2252.42 2375.95 2251.79 2376.05C2251.73 2376.06 2251.66 2376.07 2251.6 2376.07ZM2637.68 2375.74C2637.19 2375.74 2636.74 2375.42 2636.58 2374.94C2636.38 2374.33 2636.72 2373.68 2637.32 2373.48L2646.13 2370.61C2646.74 2370.42 2647.4 2370.75 2647.59 2371.35C2647.79 2371.96 2647.46 2372.62 2646.85 2372.81L2638.04 2375.68C2637.92 2375.72 2637.8 2375.74 2637.68 2375.74ZM2667.04 2366.19C2666.56 2366.19 2666.1 2365.88 2665.94 2365.39C2665.74 2364.78 2666.08 2364.13 2666.69 2363.94L2675.5 2361.07C2676.1 2360.88 2676.76 2361.21 2676.95 2361.81C2677.15 2362.42 2676.82 2363.07 2676.21 2363.27L2667.4 2366.13C2667.28 2366.17 2667.16 2366.19 2667.04 2366.19ZM2696.41 2356.65C2695.92 2356.65 2695.47 2356.34 2695.31 2355.85C2695.11 2355.24 2695.45 2354.59 2696.05 2354.39L2704.86 2351.53C2705.47 2351.32 2706.13 2351.67 2706.32 2352.27C2706.52 2352.88 2706.18 2353.53 2705.58 2353.73L2696.77 2356.59C2696.65 2356.63 2696.53 2356.65 2696.41 2356.65ZM2725.77 2347.1C2725.29 2347.1 2724.83 2346.79 2724.68 2346.3C2724.47 2345.7 2724.81 2345.04 2725.42 2344.85L2734.23 2341.98C2734.83 2341.78 2735.49 2342.12 2735.68 2342.72C2735.89 2343.33 2735.55 2343.98 2734.94 2344.18L2726.13 2347.05C2726.02 2347.09 2725.89 2347.1 2725.77 2347.1ZM2247.16 2345.49C2246.58 2345.49 2246.08 2345.07 2246.01 2344.49C2245.61 2341.45 2245.23 2338.38 2244.85 2335.28C2244.78 2334.64 2245.23 2334.06 2245.86 2333.99C2246.5 2333.92 2247.08 2334.36 2247.15 2335C2247.52 2338.1 2247.91 2341.16 2248.3 2344.18C2248.39 2344.82 2247.94 2345.4 2247.31 2345.48C2247.25 2345.49 2247.2 2345.49 2247.16 2345.49ZM2749.22 2333.76C2748.64 2333.76 2748.14 2333.33 2748.07 2332.75C2747.69 2329.69 2747.28 2326.63 2746.83 2323.59C2746.74 2322.96 2747.18 2322.37 2747.81 2322.28C2748.45 2322.15 2749.04 2322.62 2749.13 2323.25C2749.57 2326.32 2749.99 2329.38 2750.37 2332.46C2750.45 2333.1 2749.99 2333.67 2749.36 2333.75C2749.31 2333.76 2749.26 2333.76 2749.22 2333.76ZM2243.74 2314.78C2243.15 2314.78 2242.64 2314.33 2242.59 2313.72C2242.31 2310.63 2242.05 2307.54 2241.82 2304.47C2241.78 2303.83 2242.26 2303.28 2242.89 2303.23C2243.62 2303.28 2244.09 2303.66 2244.14 2304.3C2244.37 2307.36 2244.62 2310.43 2244.89 2313.52C2244.95 2314.15 2244.48 2314.72 2243.84 2314.77C2243.81 2314.78 2243.77 2314.78 2243.74 2314.78ZM2744.36 2303.27C2743.81 2303.27 2743.32 2302.89 2743.22 2302.33C2742.62 2299.28 2742.01 2296.26 2741.38 2293.27C2741.25 2292.65 2741.65 2292.03 2742.27 2291.9C2742.93 2291.77 2743.52 2292.17 2743.65 2292.79C2744.28 2295.79 2744.9 2298.83 2745.49 2301.89C2745.61 2302.52 2745.21 2303.13 2744.58 2303.25C2744.5 2303.26 2744.43 2303.27 2744.36 2303.27ZM2241.88 2283.95C2241.25 2283.95 2240.74 2283.45 2240.72 2282.81C2240.66 2280.31 2240.63 2277.84 2240.63 2275.42L2240.64 2273.51C2240.64 2272.88 2241.16 2272.36 2241.8 2272.36C2241.8 2272.36 2241.8 2272.36 2241.8 2272.36C2242.44 2272.36 2242.96 2272.89 2242.96 2273.53L2242.95 2275.42C2242.95 2277.82 2242.98 2280.27 2243.04 2282.76C2243.05 2283.4 2242.55 2283.93 2241.91 2283.95C2241.9 2283.95 2241.89 2283.95 2241.88 2283.95ZM2737.65 2273.12C2737.13 2273.12 2736.66 2272.77 2736.53 2272.24C2735.77 2269.2 2735 2266.21 2734.22 2263.28C2734.05 2262.66 2734.42 2262.03 2735.04 2261.86C2735.66 2261.72 2736.29 2262.07 2736.46 2262.69C2737.24 2265.62 2738.01 2268.62 2738.77 2271.68C2738.93 2272.3 2738.55 2272.93 2737.93 2273.08C2737.84 2273.11 2737.74 2273.12 2737.65 2273.12ZM2253.31 2262.45C2252.74 2262.45 2252.24 2262.03 2252.16 2261.45C2252.07 2260.82 2252.51 2260.23 2253.15 2260.14L2262.33 2258.86C2262.93 2258.74 2263.55 2259.22 2263.63 2259.85C2263.72 2260.48 2263.28 2261.07 2262.64 2261.15L2253.47 2262.44C2253.41 2262.45 2253.36 2262.45 2253.31 2262.45ZM2283.9 2258.2C2283.33 2258.2 2282.84 2257.78 2282.76 2257.2C2282.67 2256.57 2283.11 2255.98 2283.75 2255.89L2292.92 2254.63C2293.54 2254.5 2294.14 2254.98 2294.23 2255.62C2294.32 2256.25 2293.87 2256.83 2293.24 2256.92L2284.06 2258.19C2284.01 2258.2 2283.96 2258.2 2283.9 2258.2ZM2314.51 2254.01C2313.94 2254.01 2313.44 2253.59 2313.36 2253C2313.28 2252.37 2313.72 2251.79 2314.36 2251.7L2323.54 2250.46C2324.19 2250.38 2324.76 2250.81 2324.85 2251.45C2324.93 2252.08 2324.49 2252.67 2323.85 2252.75L2314.67 2254C2314.62 2254 2314.56 2254.01 2314.51 2254.01ZM2345.12 2249.88C2344.55 2249.88 2344.05 2249.45 2343.97 2248.88C2343.89 2248.24 2344.33 2247.66 2344.97 2247.57L2354.15 2246.34C2354.81 2246.23 2355.37 2246.71 2355.45 2247.34C2355.54 2247.97 2355.09 2248.56 2354.46 2248.64L2345.27 2249.87C2345.22 2249.88 2345.17 2249.88 2345.12 2249.88ZM2375.74 2245.81C2375.17 2245.81 2374.67 2245.38 2374.59 2244.8C2374.51 2244.17 2374.95 2243.59 2375.59 2243.5L2384.78 2242.29C2385.42 2242.21 2385.99 2242.66 2386.08 2243.29C2386.16 2243.93 2385.71 2244.51 2385.08 2244.59L2375.89 2245.8C2375.84 2245.81 2375.79 2245.81 2375.74 2245.81ZM2729.46 2243.33C2728.96 2243.33 2728.5 2243 2728.35 2242.5C2727.43 2239.43 2726.52 2236.47 2725.64 2233.66C2725.44 2233.05 2725.78 2232.4 2726.39 2232.21C2727.02 2232 2727.65 2232.36 2727.84 2232.96C2728.73 2235.79 2729.64 2238.75 2730.57 2241.84C2730.76 2242.45 2730.41 2243.1 2729.79 2243.28C2729.68 2243.32 2729.57 2243.33 2729.46 2243.33ZM2406.37 2241.8C2405.8 2241.8 2405.3 2241.38 2405.22 2240.79C2405.14 2240.16 2405.59 2239.58 2406.22 2239.5L2415.41 2238.31C2416.03 2238.23 2416.63 2238.68 2416.71 2239.31C2416.79 2239.94 2416.35 2240.52 2415.71 2240.61L2406.52 2241.79C2406.47 2241.8 2406.42 2241.8 2406.37 2241.8ZM2437 2237.88C2436.42 2237.88 2435.93 2237.45 2435.85 2236.86C2435.77 2236.23 2436.22 2235.65 2436.86 2235.57L2446.05 2234.41C2446.7 2234.3 2447.27 2234.78 2447.34 2235.41C2447.42 2236.04 2446.97 2236.63 2446.34 2236.7L2437.15 2237.87C2437.1 2237.87 2437.05 2237.88 2437 2237.88ZM2467.64 2234.03C2467.06 2234.03 2466.56 2233.6 2466.49 2233.01C2466.41 2232.38 2466.86 2231.8 2467.5 2231.72L2476.69 2230.58C2477.37 2230.48 2477.9 2230.96 2477.98 2231.59C2478.06 2232.23 2477.61 2232.8 2476.97 2232.88L2467.78 2234.02C2467.73 2234.03 2467.68 2234.03 2467.64 2234.03ZM2498.28 2230.27C2497.7 2230.27 2497.21 2229.84 2497.13 2229.25C2497.06 2228.62 2497.51 2228.04 2498.15 2227.96L2507.34 2226.86C2508.03 2226.76 2508.55 2227.24 2508.63 2227.87C2508.7 2228.5 2508.25 2229.08 2507.62 2229.16L2498.42 2230.26C2498.38 2230.27 2498.33 2230.27 2498.28 2230.27ZM2528.95 2226.62C2528.37 2226.62 2527.87 2226.19 2527.8 2225.6C2527.72 2224.97 2528.18 2224.39 2528.81 2224.32L2538.01 2223.25C2538.68 2223.15 2539.23 2223.63 2539.3 2224.26C2539.38 2224.9 2538.92 2225.47 2538.28 2225.54L2529.08 2226.61C2529.04 2226.62 2528.99 2226.62 2528.95 2226.62ZM2559.62 2223.11C2559.04 2223.11 2558.54 2222.67 2558.47 2222.08C2558.4 2221.45 2558.86 2220.87 2559.5 2220.8L2568.71 2219.77C2569.41 2219.74 2569.91 2220.17 2569.98 2220.8C2570.05 2221.44 2569.59 2222.01 2568.96 2222.08L2559.75 2223.1C2559.71 2223.11 2559.67 2223.11 2559.62 2223.11ZM2590.32 2219.76C2589.74 2219.76 2589.23 2219.32 2589.17 2218.72C2589.1 2218.08 2589.56 2217.52 2590.2 2217.45L2599.42 2216.48C2600.11 2216.46 2600.62 2216.88 2600.69 2217.51C2600.75 2218.15 2600.29 2218.72 2599.66 2218.78L2590.44 2219.75C2590.4 2219.75 2590.36 2219.76 2590.32 2219.76ZM2621.04 2216.62C2620.45 2216.62 2619.95 2216.17 2619.89 2215.57C2619.83 2214.94 2620.29 2214.37 2620.93 2214.31L2630.16 2213.42C2630.81 2213.33 2631.36 2213.83 2631.42 2214.46C2631.48 2215.1 2631.01 2215.67 2630.37 2215.72L2621.15 2216.61C2621.12 2216.62 2621.08 2216.62 2621.04 2216.62ZM2719.92 2213.95C2719.44 2213.95 2718.99 2213.65 2718.82 2213.17L2717.65 2209.86C2716.3 2209.87 2714.9 2209.89 2713.44 2209.92C2713.43 2209.92 2713.42 2209.92 2713.42 2209.92C2712.79 2209.92 2712.27 2209.42 2712.26 2208.78C2712.25 2208.14 2712.75 2207.62 2713.39 2207.6C2714.97 2207.57 2716.49 2207.55 2717.94 2207.54C2718.74 2207.54 2719.44 2208 2719.69 2208.68L2721.01 2212.4C2721.22 2213 2720.91 2213.67 2720.3 2213.88C2720.17 2213.92 2720.05 2213.95 2719.92 2213.95ZM2651.79 2213.77C2651.2 2213.77 2650.69 2213.32 2650.64 2212.72C2650.58 2212.08 2651.05 2211.52 2651.69 2211.46C2654.85 2211.19 2657.93 2210.93 2660.93 2210.69C2661.56 2210.65 2662.12 2211.11 2662.18 2211.75C2662.23 2212.38 2661.75 2212.95 2661.11 2213C2658.12 2213.24 2655.05 2213.5 2651.89 2213.77C2651.86 2213.77 2651.82 2213.77 2651.79 2213.77ZM2682.58 2211.4C2681.97 2211.4 2681.46 2210.92 2681.42 2210.31C2681.38 2209.68 2681.86 2209.12 2682.5 2209.08C2685.71 2208.87 2688.8 2208.68 2691.76 2208.51C2692.45 2208.41 2692.95 2208.96 2692.98 2209.6C2693.01 2210.24 2692.53 2210.78 2691.89 2210.82C2688.93 2210.99 2685.86 2211.18 2682.65 2211.39C2682.62 2211.39 2682.6 2211.4 2682.58 2211.4Z" fill="white"/>
<path d="M2551.14 2452.54L2486.55 2460.8C2478.08 2461.89 2470.15 2456.5 2468.08 2448.27L2452.66 2387.07C2450.2 2377.32 2456.86 2367.61 2466.88 2366.33L2544.47 2356.4C2554.29 2355.15 2563.06 2362.54 2563.44 2372.38L2565.85 2435.24C2566.18 2443.93 2559.8 2451.43 2551.14 2452.54Z" fill="url(#paint24_linear_48_705)"/>
<path d="M2541.73 2442.12L2492.57 2448.42C2486.13 2449.24 2480.09 2445.14 2478.51 2438.87L2466.78 2392.29C2464.91 2384.87 2469.97 2377.49 2477.6 2376.51L2536.66 2368.95C2544.13 2368 2550.81 2373.62 2551.09 2381.11L2552.93 2428.96C2553.18 2435.57 2548.32 2441.28 2541.73 2442.12Z" fill="url(#paint25_linear_48_705)"/>
<path d="M2503.32 1946.81C2518.55 2009.77 2518.95 2071.36 2516.64 2093.78C2515.76 2102.24 2508.97 2108.84 2500.49 2109.43C2490.86 2110.11 2477.75 2110.99 2466.04 2111.66C2453.16 2112.41 2438.87 2104.27 2429.31 2097.47C2424.43 2093.99 2418.12 2099.4 2420.84 2104.74C2425.54 2113.92 2433.69 2121.15 2441.79 2127.3C2446.66 2131 2462.84 2137.58 2461.71 2144.86C2461.36 2147.16 2459.97 2149.16 2458.48 2150.95C2449.49 2161.74 2435.88 2167.5 2422.45 2171.62C2420.77 2172.14 2418.99 2172.69 2417.8 2174C2417.47 2182.68 2444.18 2192.33 2451.08 2194.62C2461.41 2198.05 2472.36 2199.5 2483.21 2198.35C2510.09 2195.52 2534.91 2176.97 2549.39 2154.6C2588.1 2094.8 2608.11 2022.58 2615.42 1967.35C2579.41 1931.36 2525.06 1940.48 2503.32 1946.81Z" fill="url(#paint26_linear_48_705)"/>
<path d="M2615.42 1973.04C2644.13 1756.14 2476.98 1589.36 2476.98 1589.36L2377.53 1705.3C2453.03 1799.41 2488.93 1885.65 2505.32 1953.38C2527.06 1947.05 2579.41 1937.05 2615.42 1973.04Z" fill="url(#paint27_linear_48_705)"/>
<path d="M2502.95 1952.32C2500.17 1952.32 2497.65 1950.43 2496.96 1947.61C2476.76 1864.11 2434.16 1781.45 2370.36 1701.93C2368.23 1699.28 2368.66 1695.4 2371.31 1693.27C2373.96 1691.15 2377.84 1691.57 2379.97 1694.22C2444.91 1775.17 2488.3 1859.45 2508.94 1944.71C2509.74 1948.02 2507.71 1951.35 2504.4 1952.15C2503.92 1952.27 2503.43 1952.32 2502.95 1952.32Z" fill="url(#paint28_linear_48_705)"/>
<path d="M1156.06 3238.15C1156.08 3237.09 1156.01 3236.02 1155.74 3234.94C1139.74 3171.53 1060.36 3132.04 1060.36 3132.04L1028.9 3134.5C1010.81 3190.39 1013.14 3224.67 1016.04 3239.94C1016.12 3240.36 1016.25 3240.77 1016.37 3241.18C1042.32 3243.5 1095.73 3245.02 1156.06 3238.15Z" fill="url(#paint29_linear_48_705)"/>
<path d="M1016.37 3241.18C1017.77 3246.28 1021.53 3250.25 1026.35 3251.27C1063.26 3259.03 1121.93 3252.78 1146.57 3249.56C1152 3248.85 1155.97 3243.82 1156.06 3238.15C1095.73 3245.02 1042.32 3243.5 1016.37 3241.18Z" fill="url(#paint30_linear_48_705)"/>
<path d="M1016.25 3087.65L1029.57 3151.79C1030.55 3156.49 1034.16 3160 1038.54 3160.41C1043.89 3160.92 1051.51 3161.21 1059.18 3160.09C1066.05 3159.08 1070.84 3152.09 1069.62 3144.6L1060.36 3087.65H1016.25Z" fill="url(#paint31_linear_48_705)"/>
<path d="M1292.3 3240.37C1257.56 3239.4 1239.59 3235.31 1230.3 3231.51C1230.28 3234.97 1230.3 3238.48 1230.41 3242.12C1230.53 3246.01 1233.41 3249.12 1236.95 3249.1L1427.71 3247.87C1433.8 3247.83 1437.36 3240.77 1434.72 3235.19C1409.71 3237.25 1346.01 3241.88 1292.3 3240.37Z" fill="url(#paint32_linear_48_705)"/>
<path d="M1434.72 3235.19C1434.49 3234.7 1434.29 3234.21 1433.96 3233.75C1417.12 3210.21 1374.21 3163.34 1289.43 3143.01L1248.75 3141.72C1248.75 3141.72 1230.64 3173.2 1230.3 3231.51C1239.59 3235.31 1257.56 3239.4 1292.3 3240.37C1346.01 3241.88 1409.71 3237.25 1434.72 3235.19Z" fill="url(#paint33_linear_48_705)"/>
<path d="M1239.4 3081.97C1240.04 3084.97 1248.5 3130.61 1251.78 3148.3C1252.56 3152.51 1255.84 3155.59 1259.73 3155.81C1266.7 3156.2 1277.93 3156.25 1287.59 3153.62C1292.8 3152.21 1296.3 3146.9 1295.93 3141L1291.38 3068.81L1239.4 3081.97Z" fill="url(#paint34_linear_48_705)"/>
<path d="M1208.58 2239.33C1208.58 2239.33 1264.53 2623.8 1304.91 3081.31C1305.66 3089.84 1298.87 3097.25 1290.5 3099.01C1278.16 3101.61 1260.03 3104.7 1245.02 3104.27C1237.01 3104.05 1230.31 3098.11 1228.96 3090.21C1215.21 3009.54 1117.05 2576.61 1091.29 2481.33C1091.29 2481.33 1061.7 2886.07 1071.16 3096.05C1071.4 3101.27 1067.57 3105.8 1062.38 3106.4C1054.5 3107.31 1041.9 3108 1025.87 3106.3C1019.78 3105.65 1014.87 3101.05 1014 3094.99C1004.2 3026.72 947.811 2620.35 950.208 2327.61C950.344 2311.11 969.577 2175.47 969.577 2175.47L1208.58 2239.33Z" fill="url(#paint35_linear_48_705)"/>
<path d="M961.167 2261.49C955.414 2259.45 951.404 2254.23 950.778 2248.16C943.338 2175.97 907.312 1728.39 1134.75 1544.28C1134.75 1544.28 1147.79 1510.15 1255 1594.04C1362.21 1677.92 1304.81 1765.85 1279.15 1887.12C1248.09 2033.87 1193.59 2153.83 1217.7 2244.14C1219.37 2250.37 1216.09 2256.91 1210.04 2259.15C1126.76 2289.84 1043.8 2290.85 961.167 2261.49Z" fill="url(#paint36_linear_48_705)"/>
<path d="M1223.47 1410.17C1223.4 1416.54 1132.58 1545.54 1132.58 1545.54C1132.58 1545.54 1148.88 1577.64 1226.7 1603.71L1293.88 1465.59L1223.47 1410.17Z" fill="url(#paint37_linear_48_705)"/>
<path d="M1294.97 1336.26C1294.97 1336.26 1327.29 1410.49 1329.46 1449.45C1331.63 1488.41 1340.02 1513.69 1294.97 1521.54C1249.92 1529.39 1211.97 1506.94 1191.41 1468.13C1191.41 1468.13 1159.2 1408.33 1166.42 1383.84C1173.65 1359.35 1294.97 1336.26 1294.97 1336.26Z" fill="url(#paint38_linear_48_705)"/>
<path d="M1206.8 1440.23L1209.37 1439.1C1212.63 1437.66 1214.03 1433.77 1212.39 1430.6C1206.04 1418.33 1193.65 1390.2 1209.65 1383.64C1230.27 1375.18 1311.94 1358.53 1329.56 1329.55C1346.5 1301.7 1331.49 1265.74 1308.94 1255.52C1307.43 1254.83 1305.65 1255.38 1304.88 1256.84L1303 1260.4C1301.71 1262.83 1298.12 1262.46 1297.35 1259.82C1296.62 1257.28 1293.24 1256.79 1291.84 1259.03C1286.42 1267.7 1271.8 1281.75 1232.7 1288.97C1177.12 1299.23 1140.37 1321.72 1139.46 1360.12C1139.4 1362.56 1136.8 1363.92 1134.72 1362.65C1130.62 1360.15 1124.05 1358.98 1115.27 1366.36C1100.01 1379.19 1106.26 1412.48 1139.72 1439.87C1141.31 1441.17 1141.29 1443.65 1139.57 1444.77C1133.51 1448.72 1124.46 1458.12 1147.89 1470.64C1172.13 1483.6 1190.23 1482.53 1197.19 1481.38C1198.93 1481.1 1200.05 1479.42 1199.67 1477.7L1192.23 1443.95C1191.81 1442.04 1193.26 1440.23 1195.22 1440.23H1206.8Z" fill="url(#paint39_linear_48_705)"/>
<path d="M1208.2 1447.35C1208.2 1447.35 1195.87 1399.93 1174.61 1413.23C1153.35 1426.52 1185.65 1466.36 1202.74 1468.13L1208.2 1447.35Z" fill="url(#paint40_linear_48_705)"/>
<path d="M1289.49 1632.96L1295.75 1801.13C1313.54 1807.25 1330.47 1812.01 1346.59 1815.57C1356.68 1783.1 1378.89 1743.25 1397.07 1713.61C1330.26 1690 1289.49 1632.96 1289.49 1632.96Z" fill="url(#paint41_linear_48_705)"/>
<path d="M1623.06 1630.1C1531.41 1729.06 1457.23 1734.88 1397.07 1713.62C1378.89 1743.25 1356.68 1783.1 1346.59 1815.57C1591.34 1869.53 1648.98 1644.53 1648.98 1644.53L1623.06 1630.1Z" fill="url(#paint42_linear_48_705)"/>
<path d="M1641.65 1619.59C1641.65 1619.59 1652.2 1608.26 1671.74 1611.82C1691.28 1615.38 1708.67 1622.17 1720.85 1611.82C1733.02 1601.47 1737.3 1615.36 1737.3 1615.36L1700.85 1643.07L1641.65 1619.59Z" fill="url(#paint43_linear_48_705)"/>
<path d="M1619.84 1638.97C1619.84 1638.97 1627.07 1608.72 1648.87 1612.87C1670.67 1617.02 1720.16 1643.93 1732.92 1638.97C1745.67 1634.01 1761.98 1622.15 1770.35 1626.34L1755.61 1644.67C1755.61 1644.67 1793.5 1622.81 1800.02 1636.24L1736.98 1671.72C1736.98 1671.72 1644.74 1662.48 1619.84 1638.97Z" fill="url(#paint44_linear_48_705)"/>
<path d="M1187.75 1853.06C1187.75 1853.06 1360.06 1997.37 1546.12 1934.4C1557.66 1930.5 1570.28 1931.34 1581.05 1937.03L1634.54 1965.28C1656.99 1977.14 1684.8 1969.36 1697.83 1947.56C1705.26 1935.13 1711.6 1920.93 1712.86 1907.33L1608.19 1864.96L1615.91 1852.13C1615.91 1852.13 1564.81 1847.8 1551.43 1884.42C1551.43 1884.42 1454.09 1924.91 1289.94 1744.35C1289.94 1744.35 1215.45 1807.69 1187.75 1853.06Z" fill="url(#paint45_linear_48_705)"/>
<path d="M1178.48 1851.57C1177.91 1851.57 1177.33 1851.41 1176.83 1851.06C1104.28 1802.04 1070.15 1722.92 1069.81 1722.13C1069.18 1720.63 1069.88 1718.9 1071.37 1718.26C1072.88 1717.62 1074.6 1718.32 1075.24 1719.82C1075.57 1720.6 1109.07 1798.16 1180.13 1846.18C1181.48 1847.09 1181.83 1848.92 1180.92 1850.27C1180.35 1851.11 1179.42 1851.57 1178.48 1851.57Z" fill="url(#paint46_linear_48_705)"/>
<path d="M1286.54 1741.91C1285.58 1741.91 1284.63 1741.43 1284.06 1740.55C1283.84 1740.21 1261.68 1705.71 1219.46 1630.12C1206.48 1606.87 1189.42 1592.15 1168.75 1586.37C1134.53 1576.81 1101.55 1595.16 1101.22 1595.34C1099.8 1596.12 1098.01 1595.65 1097.2 1594.23C1096.39 1592.82 1096.89 1591.02 1098.3 1590.21C1099.73 1589.41 1133.65 1570.42 1170.29 1580.68C1192.55 1586.89 1210.83 1602.55 1224.61 1627.24C1266.72 1702.64 1288.8 1737.02 1289.02 1737.36C1289.9 1738.72 1289.51 1740.55 1288.14 1741.43C1287.64 1741.76 1287.09 1741.91 1286.54 1741.91Z" fill="url(#paint47_linear_48_705)"/>
<defs>
<linearGradient id="paint0_linear_48_705" x1="3492.71" y1="3292.41" x2="1410.72" y2="1470.68" gradientUnits="userSpaceOnUse">
<stop stop-color="#DAE3FE"/>
<stop offset="1" stop-color="#E9EFFD"/>
</linearGradient>
<linearGradient id="paint1_linear_48_705" x1="3845.33" y1="6336.71" x2="1507.05" y2="-1565.05" gradientUnits="userSpaceOnUse">
<stop stop-color="#4F52FF"/>
<stop offset="1" stop-color="#4042E2"/>
</linearGradient>
<linearGradient id="paint2_linear_48_705" x1="2228.94" y1="4728.53" x2="-81.6504" y2="-3079.65" gradientUnits="userSpaceOnUse">
<stop stop-color="#4F52FF"/>
<stop offset="1" stop-color="#4042E2"/>
</linearGradient>
<linearGradient id="paint3_linear_48_705" x1="1593.69" y1="1929.93" x2="1626.25" y2="1918.64" gradientUnits="userSpaceOnUse">
<stop stop-color="#FEBBBA"/>
<stop offset="1" stop-color="#FF928E"/>
</linearGradient>
<linearGradient id="paint4_linear_48_705" x1="1825.47" y1="1990.59" x2="2299.68" y2="1473.69" gradientUnits="userSpaceOnUse">
<stop stop-color="#09005D"/>
<stop offset="1" stop-color="#1A0F91"/>
</linearGradient>
<linearGradient id="paint5_linear_48_705" x1="2041.95" y1="2189.18" x2="2516.15" y2="1672.28" gradientUnits="userSpaceOnUse">
<stop stop-color="#09005D"/>
<stop offset="1" stop-color="#1A0F91"/>
</linearGradient>
<linearGradient id="paint6_linear_48_705" x1="2286.11" y1="1629.84" x2="2237.64" y2="1484.45" gradientUnits="userSpaceOnUse">
<stop stop-color="#FEBBBA"/>
<stop offset="1" stop-color="#FF928E"/>
</linearGradient>
<linearGradient id="paint7_linear_48_705" x1="2149.53" y1="1381.3" x2="2323.72" y2="1457.03" gradientUnits="userSpaceOnUse">
<stop stop-color="#FEBBBA"/>
<stop offset="1" stop-color="#FF928E"/>
</linearGradient>
<linearGradient id="paint8_linear_48_705" x1="2275.48" y1="1485.67" x2="2132.87" y2="1334.17" gradientUnits="userSpaceOnUse">
<stop stop-color="#09005D"/>
<stop offset="1" stop-color="#1A0F91"/>
</linearGradient>
<linearGradient id="paint9_linear_48_705" x1="2138.68" y1="1406.27" x2="2312.86" y2="1482" gradientUnits="userSpaceOnUse">
<stop stop-color="#FEBBBA"/>
<stop offset="1" stop-color="#FF928E"/>
</linearGradient>
<linearGradient id="paint10_linear_48_705" x1="2480.31" y1="3244.53" x2="2263.83" y2="3244.53" gradientUnits="userSpaceOnUse">
<stop stop-color="#4F52FF"/>
<stop offset="1" stop-color="#4042E2"/>
</linearGradient>
<linearGradient id="paint11_linear_48_705" x1="3002.81" y1="3042" x2="2218.98" y2="3265.41" gradientUnits="userSpaceOnUse">
<stop stop-color="#09005D"/>
<stop offset="1" stop-color="#1A0F91"/>
</linearGradient>
<linearGradient id="paint12_linear_48_705" x1="2460.32" y1="3142.87" x2="2399.34" y2="3142.87" gradientUnits="userSpaceOnUse">
<stop stop-color="#FEBBBA"/>
<stop offset="1" stop-color="#FF928E"/>
</linearGradient>
<linearGradient id="paint13_linear_48_705" x1="2911.87" y1="3239.86" x2="2828.91" y2="3239.86" gradientUnits="userSpaceOnUse">
<stop stop-color="#4F52FF"/>
<stop offset="1" stop-color="#4042E2"/>
</linearGradient>
<linearGradient id="paint14_linear_48_705" x1="2565.84" y1="2996.59" x2="3054.31" y2="3314.67" gradientUnits="userSpaceOnUse">
<stop stop-color="#09005D"/>
<stop offset="1" stop-color="#1A0F91"/>
</linearGradient>
<linearGradient id="paint15_linear_48_705" x1="2847.97" y1="3092.04" x2="2775.1" y2="3092.04" gradientUnits="userSpaceOnUse">
<stop stop-color="#FEBBBA"/>
<stop offset="1" stop-color="#FF928E"/>
</linearGradient>
<linearGradient id="paint16_linear_48_705" x1="2858.25" y1="3199.04" x2="1746.28" y2="1661.68" gradientUnits="userSpaceOnUse">
<stop stop-color="#09005D"/>
<stop offset="1" stop-color="#1A0F91"/>
</linearGradient>
<linearGradient id="paint17_linear_48_705" x1="2477.36" y1="2182.86" x2="2504.33" y2="2378.39" gradientUnits="userSpaceOnUse">
<stop stop-color="#E1473D"/>
<stop offset="1" stop-color="#E9605A"/>
</linearGradient>
<linearGradient id="paint18_linear_48_705" x1="2386" y1="2265.89" x2="2373.76" y2="2193.98" gradientUnits="userSpaceOnUse">
<stop stop-color="#E1473D"/>
<stop offset="1" stop-color="#E9605A"/>
</linearGradient>
<linearGradient id="paint19_linear_48_705" x1="2368.33" y1="2157.84" x2="2409.76" y2="2363.1" gradientUnits="userSpaceOnUse">
<stop stop-color="#E1473D"/>
<stop offset="1" stop-color="#E9605A"/>
</linearGradient>
<linearGradient id="paint20_linear_48_705" x1="2586.31" y1="2231.82" x2="2574.08" y2="2159.91" gradientUnits="userSpaceOnUse">
<stop stop-color="#E1473D"/>
<stop offset="1" stop-color="#E9605A"/>
</linearGradient>
<linearGradient id="paint21_linear_48_705" x1="2567.32" y1="2117.69" x2="2608.75" y2="2322.95" gradientUnits="userSpaceOnUse">
<stop stop-color="#E1473D"/>
<stop offset="1" stop-color="#E9605A"/>
</linearGradient>
<linearGradient id="paint22_linear_48_705" x1="2471.68" y1="2027.41" x2="2470.45" y2="2177.51" gradientUnits="userSpaceOnUse">
<stop stop-color="#FF928E"/>
<stop offset="1" stop-color="#FE7062"/>
</linearGradient>
<linearGradient id="paint23_linear_48_705" x1="2498.18" y1="2570.29" x2="2495.93" y2="2311.84" gradientUnits="userSpaceOnUse">
<stop stop-color="#FF928E"/>
<stop offset="1" stop-color="#FE7062"/>
</linearGradient>
<linearGradient id="paint24_linear_48_705" x1="2493.73" y1="2480.27" x2="2518.45" y2="2365.66" gradientUnits="userSpaceOnUse">
<stop stop-color="#E1473D"/>
<stop offset="1" stop-color="#E9605A"/>
</linearGradient>
<linearGradient id="paint25_linear_48_705" x1="2469.52" y1="2414.46" x2="2554.03" y2="2403.64" gradientUnits="userSpaceOnUse">
<stop stop-color="#FF928E"/>
<stop offset="1" stop-color="#FE7062"/>
</linearGradient>
<linearGradient id="paint26_linear_48_705" x1="2561.45" y1="1982.01" x2="2396.43" y2="2299.35" gradientUnits="userSpaceOnUse">
<stop stop-color="#FEBBBA"/>
<stop offset="1" stop-color="#FF928E"/>
</linearGradient>
<linearGradient id="paint27_linear_48_705" x1="2112.52" y1="2253.93" x2="2586.72" y2="1737.02" gradientUnits="userSpaceOnUse">
<stop stop-color="#09005D"/>
<stop offset="1" stop-color="#1A0F91"/>
</linearGradient>
<linearGradient id="paint28_linear_48_705" x1="2457.14" y1="1750.91" x2="2567.26" y2="1317.15" gradientUnits="userSpaceOnUse">
<stop stop-color="#09005D"/>
<stop offset="1" stop-color="#1A0F91"/>
</linearGradient>
<linearGradient id="paint29_linear_48_705" x1="1014.06" y1="3187.59" x2="1156.07" y2="3187.59" gradientUnits="userSpaceOnUse">
<stop stop-color="#09005D"/>
<stop offset="1" stop-color="#1A0F91"/>
</linearGradient>
<linearGradient id="paint30_linear_48_705" x1="1369.57" y1="3020.05" x2="852.931" y2="3425.71" gradientUnits="userSpaceOnUse">
<stop stop-color="#4F52FF"/>
<stop offset="1" stop-color="#4042E2"/>
</linearGradient>
<linearGradient id="paint31_linear_48_705" x1="1053.55" y1="3025.92" x2="1026.42" y2="3262.65" gradientUnits="userSpaceOnUse">
<stop stop-color="#FEBBBA"/>
<stop offset="1" stop-color="#FF928E"/>
</linearGradient>
<linearGradient id="paint32_linear_48_705" x1="1461.35" y1="3136.77" x2="944.708" y2="3542.43" gradientUnits="userSpaceOnUse">
<stop stop-color="#4F52FF"/>
<stop offset="1" stop-color="#4042E2"/>
</linearGradient>
<linearGradient id="paint33_linear_48_705" x1="1230.3" y1="3191.2" x2="1434.72" y2="3191.2" gradientUnits="userSpaceOnUse">
<stop stop-color="#09005D"/>
<stop offset="1" stop-color="#1A0F91"/>
</linearGradient>
<linearGradient id="paint34_linear_48_705" x1="1270.81" y1="3050.92" x2="1258.63" y2="3288.89" gradientUnits="userSpaceOnUse">
<stop stop-color="#FEBBBA"/>
<stop offset="1" stop-color="#FF928E"/>
</linearGradient>
<linearGradient id="paint35_linear_48_705" x1="1285.52" y1="2160.96" x2="832.58" y2="3594.5" gradientUnits="userSpaceOnUse">
<stop stop-color="#09005D"/>
<stop offset="1" stop-color="#1A0F91"/>
</linearGradient>
<linearGradient id="paint36_linear_48_705" x1="866.328" y1="2272.57" x2="1380.99" y2="1641.04" gradientUnits="userSpaceOnUse">
<stop stop-color="#FF928E"/>
<stop offset="1" stop-color="#FE7062"/>
</linearGradient>
<linearGradient id="paint37_linear_48_705" x1="1105.13" y1="1578.34" x2="1293.91" y2="1465.97" gradientUnits="userSpaceOnUse">
<stop stop-color="#FEBBBA"/>
<stop offset="1" stop-color="#FF928E"/>
</linearGradient>
<linearGradient id="paint38_linear_48_705" x1="1311.07" y1="1502.6" x2="1200.89" y2="1340.7" gradientUnits="userSpaceOnUse">
<stop stop-color="#FEBBBA"/>
<stop offset="1" stop-color="#FF928E"/>
</linearGradient>
<linearGradient id="paint39_linear_48_705" x1="1106.89" y1="1220.53" x2="1262.66" y2="1402.97" gradientUnits="userSpaceOnUse">
<stop stop-color="#09005D"/>
<stop offset="1" stop-color="#1A0F91"/>
</linearGradient>
<linearGradient id="paint40_linear_48_705" x1="1257.61" y1="1538.98" x2="1147.48" y2="1377.16" gradientUnits="userSpaceOnUse">
<stop stop-color="#FEBBBA"/>
<stop offset="1" stop-color="#FF928E"/>
</linearGradient>
<linearGradient id="paint41_linear_48_705" x1="1118.32" y1="1997.46" x2="1356.55" y2="1671.59" gradientUnits="userSpaceOnUse">
<stop stop-color="#FF928E"/>
<stop offset="1" stop-color="#FE7062"/>
</linearGradient>
<linearGradient id="paint42_linear_48_705" x1="1744.05" y1="1615.97" x2="1347.74" y2="1813.12" gradientUnits="userSpaceOnUse">
<stop stop-color="#FEBBBA"/>
<stop offset="1" stop-color="#FF928E"/>
</linearGradient>
<linearGradient id="paint43_linear_48_705" x1="1738.25" y1="1566.53" x2="1602.69" y2="1708.11" gradientUnits="userSpaceOnUse">
<stop stop-color="#FEBBBA"/>
<stop offset="1" stop-color="#FF928E"/>
</linearGradient>
<linearGradient id="paint44_linear_48_705" x1="1745.94" y1="1613.64" x2="1349.62" y2="1810.78" gradientUnits="userSpaceOnUse">
<stop stop-color="#FEBBBA"/>
<stop offset="1" stop-color="#FF928E"/>
</linearGradient>
<linearGradient id="paint45_linear_48_705" x1="1911.55" y1="1948.14" x2="761.411" y2="1740.16" gradientUnits="userSpaceOnUse">
<stop stop-color="#FEBBBA"/>
<stop offset="1" stop-color="#FF928E"/>
</linearGradient>
<linearGradient id="paint46_linear_48_705" x1="1348.03" y1="1443.72" x2="845.071" y2="2214.63" gradientUnits="userSpaceOnUse">
<stop stop-color="#E1473D"/>
<stop offset="1" stop-color="#E9605A"/>
</linearGradient>
<linearGradient id="paint47_linear_48_705" x1="1341.05" y1="1439.17" x2="838.092" y2="2210.08" gradientUnits="userSpaceOnUse">
<stop stop-color="#E1473D"/>
<stop offset="1" stop-color="#E9605A"/>
</linearGradient>
</defs>
</svg>
