<svg xmlns="http://www.w3.org/2000/svg" xmlns:xlink="http://www.w3.org/1999/xlink" width="3000" zoomAndPan="magnify" viewBox="0 0 2250 2250.000011" height="3000" preserveAspectRatio="xMidYMid meet" version="1.0"><path fill="#ecf5ff" d="M 1984.292969 1340.082031 C 1984.292969 1526.058594 1764.03125 1676.800781 1492.332031 1676.800781 C 1369.679688 1676.800781 1257.507812 1646.085938 1171.351562 1595.269531 C 1095.699219 1550.648438 1003.789062 1536.09375 915.636719 1552.296875 C 887.5 1557.464844 858.429688 1560.175781 828.6875 1560.175781 C 579.292969 1560.175781 377.113281 1369.644531 377.113281 1134.613281 C 377.113281 899.582031 579.292969 709.054688 828.6875 709.054688 C 847.351562 709.054688 865.75 710.117188 883.820312 712.191406 C 957.164062 720.605469 1028.40625 684.972656 1060.089844 623.605469 C 1135.78125 477.015625 1304.722656 374.964844 1500.976562 374.964844 C 1767.910156 374.964844 1984.292969 563.714844 1984.292969 796.546875 C 1984.292969 861.695312 1967.355469 923.394531 1937.105469 978.46875 C 1897.195312 1051.136719 1900.496094 1136.964844 1944.691406 1207.511719 C 1970.179688 1248.199219 1984.292969 1293.011719 1984.292969 1340.082031 Z M 1984.292969 1340.082031 " fill-opacity="1" fill-rule="nonzero"/><path stroke-linecap="round" transform="matrix(1.804753, -0.00187944, 0.00187944, 1.804753, 678.212894, 1495.781429)" fill-opacity="1" fill="#2d44ad" fill-rule="nonzero" stroke-linejoin="round" d="M 163.909963 -34.570578 C 163.909963 -34.570578 158.719073 132.279474 158.719073 132.279474 C 158.719073 132.279474 157.449511 172.930366 157.449511 172.930366 C 157.449511 172.930366 -122.460665 150.405907 -122.460665 150.405907 C -122.460665 150.405907 -135.140466 132.280802 -135.140466 132.280802 C -135.140466 132.280802 -158.230958 -52.299363 -158.230958 -52.299363 C -166.269828 -116.539185 -112.249847 -172.928947 -42.65928 -172.930067 C -42.65928 -172.930067 19.290868 -172.930486 19.290868 -172.930486 C 100.839876 -172.929975 166.27016 -110.329459 163.909963 -34.570578 Z M 163.909963 -34.570578 " stroke="#231f1f" stroke-width="2" stroke-opacity="1" stroke-miterlimit="4"/><path stroke-linecap="round" transform="matrix(1.804753, -0.00187944, 0.00187944, 1.804753, 966.858452, 1532.550462)" fill-opacity="1" fill="#d4d4d4" fill-rule="nonzero" stroke-linejoin="round" d="M 47.153962 152.390111 C 47.153962 152.390111 -2.614807 152.390229 -2.614807 152.390229 C -2.614807 152.390229 -11.21502 111.739881 -11.21502 111.739881 C -11.21502 111.739881 -45.195811 -48.939066 -45.195811 -48.939066 C -47.155319 -91.909255 -31.024743 -140.94913 -4.974807 -152.389122 C 10.355564 -106.428925 25.954176 -2.130726 41.605586 111.740777 C 43.455161 125.179448 45.304586 138.760971 47.153962 152.390111 Z M 47.153962 152.390111 " stroke="#231f1f" stroke-width="2" stroke-opacity="1" stroke-miterlimit="4"/><path stroke-linecap="round" transform="matrix(1.804753, -0.00187944, 0.00187944, 1.804753, 736.49007, 1481.815125)" fill-opacity="1" fill="#d4d4d4" fill-rule="nonzero" stroke-linejoin="round" d="M 123.554617 -124.182159 C 99.9005 -137.492027 76.805072 -148.981033 54.822737 -156.869443 C 54.822737 -156.869443 -47.112781 -161.220032 -47.112781 -161.220032 C -73.67336 -149.934247 -99.379092 -136.47449 -123.554303 -119.119339 C -123.554303 -119.119339 -60.926218 154.778002 -60.926218 154.778002 C 7.607893 161.219272 62.224392 159.698284 96.250003 146.3987 C 96.250003 146.3987 123.554617 -124.182159 123.554617 -124.182159 Z M 123.554617 -124.182159 " stroke="#231f1f" stroke-width="2" stroke-opacity="1" stroke-miterlimit="4"/><path stroke-linecap="butt" transform="matrix(1.804753, -0.00187944, 0.00187944, 1.804753, 734.451673, 1172.594224)" fill-opacity="1" fill="#ffffff" fill-rule="nonzero" stroke-linejoin="miter" d="M -35.585233 -51.24976 C -35.585233 -51.24976 -30.49157 -4.18771 -30.49157 -4.18771 C -30.49157 -4.18771 18.626413 51.251054 18.626413 51.251054 C 18.626413 51.251054 35.584175 16.399841 35.584175 16.399841 C 35.584175 16.399841 33.824288 -29.124161 33.824288 -29.124161 C 33.824288 -29.124161 -35.585233 -51.24976 -35.585233 -51.24976 Z M -35.585233 -51.24976 " stroke="#231f1f" stroke-width="2" stroke-opacity="1" stroke-miterlimit="10"/><path stroke-linecap="round" transform="matrix(1.804753, -0.00187944, 0.00187944, 1.804753, 733.846326, 1128.490139)" fill-opacity="1" fill="#231f1f" fill-rule="nonzero" stroke-linejoin="round" d="M 32.92515 0.775656 C 32.92515 0.775656 33.549017 16.909923 33.549017 16.909923 C -1.458327 18.938328 -19.50126 4.671134 -33.54976 -18.937884 C -10.745721 -4.068351 9.809946 2.041581 32.92515 0.775656 Z M 32.92515 0.775656 " stroke="#231f1f" stroke-width="2" stroke-opacity="1" stroke-miterlimit="4"/><path stroke-linecap="round" transform="matrix(1.804753, -0.00187944, 0.00187944, 1.804753, 697.52395, 1213.535626)" fill-opacity="1" fill="#d4d4d4" fill-rule="nonzero" stroke-linejoin="round" d="M 39.111394 28.584895 C 39.111394 28.584895 14.33311 16.072529 14.33311 16.072529 C 14.33311 16.072529 1.514213 35.909113 1.514213 35.909113 C 1.514213 35.909113 -39.111658 -14.328354 -39.111658 -14.328354 C -39.111658 -14.328354 -20.819676 -35.52932 -20.819676 -35.52932 C -20.819676 -35.52932 -10.986299 -35.91084 -10.986299 -35.91084 C -10.986299 -35.91084 -10.006592 -26.851705 -10.006592 -26.851705 C -10.006592 -26.851705 39.111394 28.584895 39.111394 28.584895 Z M 39.111394 28.584895 " stroke="#231f1f" stroke-width="2" stroke-opacity="1" stroke-miterlimit="4"/><path stroke-linecap="round" transform="matrix(1.804753, -0.00187944, 0.00187944, 1.804753, 801.642903, 1224.75743)" fill-opacity="1" fill="#d4d4d4" fill-rule="nonzero" stroke-linejoin="round" d="M -18.573607 22.306905 C -18.573607 22.306905 -2.127324 10.965134 -2.127324 10.965134 C -2.127324 10.965134 17.264352 29.095065 17.264352 29.095065 C 17.264352 29.095065 18.573747 -14.47343 18.573747 -14.47343 C 18.573747 -14.47343 -2.254429 -29.096325 -2.254429 -29.096325 C -2.254429 -29.096325 -1.615848 -12.542144 -1.615848 -12.542144 C -1.615848 -12.542144 -18.573607 22.306905 -18.573607 22.306905 Z M -18.573607 22.306905 " stroke="#231f1f" stroke-width="2" stroke-opacity="1" stroke-miterlimit="4"/><path stroke-linecap="round" transform="matrix(1.804753, -0.00187944, 0.00187944, 1.804753, 762.202802, 1277.703001)" fill-opacity="1" fill="#2d44ad" fill-rule="nonzero" stroke-linejoin="round" d="M 15.732281 -15.573895 C 17.654028 -2.851573 16.673103 7.963033 12.69434 16.807055 C 12.69434 16.807055 -7.654233 17.595359 -7.654233 17.595359 C -13.874285 8.799155 -16.506255 -3.642531 -17.65402 -17.595604 C -17.65402 -17.595604 3.310387 -7.007054 3.310387 -7.007054 C 3.310387 -7.007054 15.732281 -15.573895 15.732281 -15.573895 Z M 15.732281 -15.573895 " stroke="#231f1f" stroke-width="2" stroke-opacity="1" stroke-miterlimit="4"/><path stroke-linecap="round" transform="matrix(1.804753, -0.00187944, 0.00187944, 1.804753, 777.195202, 1518.910869)" fill-opacity="1" fill="#2d44ad" fill-rule="nonzero" stroke-linejoin="round" d="M 4.524189 -116.852943 C 4.524189 -116.852943 23.577948 -21.565972 23.577948 -21.565972 C 21.007024 21.685203 14.60109 68.756922 7.168155 116.851343 C -5.076569 73.757894 -16.472952 28.695701 -23.579917 -26.307553 C -23.579917 -26.307553 -15.822219 -116.064637 -15.822219 -116.064637 C -15.822219 -116.064637 4.524189 -116.852943 4.524189 -116.852943 Z M 4.524189 -116.852943 " stroke="#231f1f" stroke-width="2" stroke-opacity="1" stroke-miterlimit="4"/><path stroke-linecap="round" transform="matrix(1.804753, -0.00187944, 0.00187944, 1.804753, 490.665479, 1524.394327)" fill-opacity="1" fill="#d4d4d4" fill-rule="nonzero" stroke-linejoin="round" d="M 51.200554 -22.595102 C 51.200554 -22.595102 15.631763 104.96499 15.631763 104.96499 C 4.463605 142.116522 -55.889782 123.972072 -44.721624 86.820539 C -28.44709 1.386022 -8.789244 -73.96092 13.278773 -142.115135 C 42.703007 -118.184921 55.891019 -78.863081 51.200554 -22.595102 Z M 51.200554 -22.595102 " stroke="#231f1f" stroke-width="2" stroke-opacity="1" stroke-miterlimit="4"/><path fill="#231f1f" d="M 671.765625 1091.59375 C 671.765625 1091.59375 706.992188 1124.492188 706.992188 1124.492188 C 706.992188 1124.492188 770.632812 1146.535156 770.632812 1146.535156 C 770.632812 1146.535156 798.757812 1167.933594 797.253906 1150.117188 C 796.796875 1144.703125 799.464844 1103.640625 799.464844 1103.640625 C 799.464844 1103.640625 671.765625 1091.59375 671.765625 1091.59375 Z M 671.765625 1091.59375 " fill-opacity="1" fill-rule="nonzero"/><path stroke-linecap="butt" transform="matrix(1.771953, 0.342518, -0.342518, 1.771953, 826.730136, 1544.54561)" fill-opacity="1" fill="#ffffff" fill-rule="nonzero" stroke-linejoin="miter" d="M -44.210191 2.067543 C -35.839516 -10.270936 -24.782441 -21.199767 -12.468493 -31.465508 C -10.798056 -32.859784 -8.807794 -33.888212 -6.654831 -34.211791 C -3.158758 -34.737676 -0.702333 -33.343096 0.894873 -30.360534 C 3.231518 -25.993195 2.15141 -20.564181 -1.316114 -17.028074 C -1.316114 -17.028074 -13.61203 -4.490787 -13.61203 -4.490787 C -6.923154 -5.777132 -0.709428 -8.02758 5.163715 -10.979357 C 12.738219 -14.789083 18.45488 -21.515559 21.368979 -29.477118 C 21.399639 -29.557997 21.428175 -29.638465 21.458835 -29.719345 C 24.191848 -37.180753 34.48011 -37.899686 38.211071 -30.88092 C 38.644304 -30.065233 39.049287 -29.213222 39.423073 -28.328726 C 44.209673 -17.023471 41.880228 -3.950288 34.188362 5.616 C 27.849145 13.50113 19.363936 20.365958 7.600725 25.668751 C 7.600725 25.668751 -28.408874 37.898128 -28.408874 37.898128 C -28.408874 37.898128 -44.210191 2.067543 -44.210191 2.067543 Z M -44.210191 2.067543 " stroke="#231f1f" stroke-width="2" stroke-opacity="1" stroke-miterlimit="10"/><path fill="#d4d4d4" d="M 486.414062 1749.140625 C 425.636719 1780.402344 373.613281 1679.257812 434.390625 1647.996094 C 434.390625 1647.996094 753.15625 1519.578125 753.15625 1519.578125 C 753.15625 1519.578125 779.136719 1605.941406 779.136719 1605.941406 C 779.136719 1605.941406 486.414062 1749.140625 486.414062 1749.140625 Z M 486.414062 1749.140625 " fill-opacity="1" fill-rule="nonzero"/><path stroke-linecap="butt" transform="matrix(1.771953, 0.342518, -0.342518, 1.771953, 640.351866, 1638.335259)" fill="none" stroke-linejoin="miter" d="M 48.87963 -76.468907 C 48.87963 -76.468907 72.093762 -32.214948 72.093762 -32.214948 C 72.093762 -32.214948 -72.093311 76.468534 -72.093311 76.468534 " stroke="#231f1f" stroke-width="2" stroke-opacity="1" stroke-miterlimit="10"/><path stroke-linecap="round" transform="matrix(1.771953, 0.342518, -0.342518, 1.771953, 438.726021, 1716.510727)" fill="none" stroke-linejoin="round" d="M -16.430696 -31.709424 C -29.374478 2.360885 0.525967 31.709663 29.374674 12.736535 " stroke="#231f1f" stroke-width="2" stroke-opacity="1" stroke-miterlimit="4"/><path stroke-linecap="round" transform="matrix(1.771953, 0.342518, -0.342518, 1.771953, 626.006386, 1570.801988)" fill="none" stroke-linejoin="round" d="M -63.784339 41.236281 C -63.784339 41.236281 63.785637 -41.237894 63.785637 -41.237894 " stroke="#231f1f" stroke-width="2" stroke-opacity="1" stroke-miterlimit="4"/><path stroke-linecap="round" transform="matrix(1.804753, 0, 0, 1.804753, 1799.353344, 1587.033317)" fill-opacity="1" fill="#ffffff" fill-rule="nonzero" stroke-linejoin="round" d="M 5.914381 -66.316904 C 6.25636 -68.635001 8.143737 -70.418485 10.479149 -70.628434 C 13.75825 -70.92496 16.444299 -68.067922 15.948647 -64.81263 C 15.948647 -64.81263 -6.2908 70.924834 -6.2908 70.924834 C -6.2908 70.924834 -16.444109 70.924834 -16.444109 70.924834 C -16.444109 70.924834 5.914381 -66.316904 5.914381 -66.316904 Z M 5.914381 -66.316904 " stroke="#231f1f" stroke-width="2" stroke-opacity="1" stroke-miterlimit="4"/><path stroke-linecap="round" transform="matrix(1.804753, 0, 0, 1.804753, 1738.590848, 1387.829988)" fill-opacity="1" fill="#ffffff" fill-rule="nonzero" stroke-linejoin="round" d="M 47.512859 45.726734 C 47.512859 45.726734 -44.163444 -54.983871 -44.163444 -54.983871 C -44.163444 -54.983871 -44.830086 -53.880015 -44.830086 -53.880015 C -44.830086 -53.880015 -49.275811 -46.523141 -49.275811 -46.523141 C -49.275811 -46.523141 39.993653 52.538173 39.993653 52.538173 C 42.197036 54.983971 46.110313 54.715583 47.960894 51.990574 C 49.276864 50.049087 49.090723 47.460437 47.512859 45.726734 Z M 47.512859 45.726734 " stroke="#231f1f" stroke-width="2" stroke-opacity="1" stroke-miterlimit="4"/><path stroke-linecap="round" transform="matrix(1.804753, 0, 0, 1.804753, 1772.366851, 1724.661968)" fill-opacity="1" fill="#d4d4d4" fill-rule="nonzero" stroke-linejoin="round" d="M -41.732054 6.64161 C -41.732054 6.64161 41.732428 6.64161 41.732428 6.64161 C 41.732428 6.64161 31.079137 -6.641454 3.29011 -6.641454 C -22.594226 -6.641454 -38.011411 0.970822 -41.732054 6.64161 Z M -41.732054 6.64161 " stroke="#231f1f" stroke-width="2" stroke-opacity="1" stroke-miterlimit="4"/><path stroke-linecap="round" transform="matrix(1.804753, 0, 0, 1.804753, 1658.703548, 1250.403423)" fill-opacity="1" fill="#d4d4d4" fill-rule="nonzero" stroke-linejoin="round" d="M 0.629613 5.194017 C 0.629613 5.194017 4.871882 -1.169387 4.871882 -1.169387 C 4.871882 -1.169387 -0.368186 -5.193049 -0.368186 -5.193049 C -0.368186 -5.193049 -4.872351 1.211479 -4.872351 1.211479 C -4.872351 1.211479 0.629613 5.194017 0.629613 5.194017 Z M 0.629613 5.194017 " stroke="#231f1f" stroke-width="2" stroke-opacity="1" stroke-miterlimit="4"/><path stroke-linecap="round" transform="matrix(1.804753, 0, 0, 1.804753, 1601.97649, 1321.156975)" fill-opacity="1" fill="#ffffff" fill-rule="nonzero" stroke-linejoin="round" d="M 39.245359 -30.170294 C 39.245359 -30.170294 20.977628 -43.414399 20.977628 -43.414399 C 20.977628 -43.414399 3.43498 -22.319932 3.43498 -22.319932 C -26.981658 -17.415349 -39.245279 1.715986 -39.245279 1.715986 C -39.245279 1.715986 15.207277 43.415761 15.207277 43.415761 C 33.849452 22.810453 25.018606 -6.621372 25.018606 -6.621372 C 25.018606 -6.621372 39.245359 -30.170294 39.245359 -30.170294 Z M 39.245359 -30.170294 " stroke="#231f1f" stroke-width="2" stroke-opacity="1" stroke-miterlimit="4"/><path stroke-linecap="round" transform="matrix(1.804753, 0, 0, 1.804753, 1627.650958, 1295.038584)" fill="none" stroke-linejoin="round" d="M -10.791046 -7.850097 C -10.791046 -7.850097 10.792581 7.850628 10.792581 7.850628 " stroke="#231f1f" stroke-width="2" stroke-opacity="1" stroke-miterlimit="4"/><path stroke-linecap="round" transform="matrix(1.804753, 0, 0, 1.804753, 914.248132, 1724.319113)" fill-opacity="1" fill="#ffffff" fill-rule="nonzero" stroke-linejoin="round" d="M 84.539071 8.452737 C 84.539071 8.452737 -84.54133 8.452737 -84.54133 8.452737 C -84.54133 8.452737 -84.54133 -8.451407 -84.54133 -8.451407 C -84.54133 -8.451407 84.539071 -8.451407 84.539071 -8.451407 C 84.539071 -8.451407 84.539071 8.452737 84.539071 8.452737 Z M 84.539071 8.452737 " stroke="#231f1f" stroke-width="2" stroke-opacity="1" stroke-miterlimit="4"/><path stroke-linecap="round" transform="matrix(1.804753, 0, 0, 1.804753, 1170.613303, 1402.280637)" fill-opacity="1" fill="#ffffff" fill-rule="nonzero" stroke-linejoin="round" d="M -187.84596 123.339988 C -187.84596 123.339988 187.845936 123.339988 187.845936 123.339988 C 187.845936 123.339988 187.845936 -123.339308 187.845936 -123.339308 C 187.845936 -123.339308 -187.84596 -123.339308 -187.84596 -123.339308 C -187.84596 -123.339308 -187.84596 123.339988 -187.84596 123.339988 Z M -187.84596 123.339988 " stroke="#231f1f" stroke-width="2" stroke-opacity="1" stroke-miterlimit="4"/><path stroke-linecap="round" transform="matrix(1.804753, 0, 0, 1.804753, 819.494928, 1402.282508)" fill-opacity="1" fill="#ffffff" fill-rule="nonzero" stroke-linejoin="round" d="M 6.706028 -123.33818 C 6.706028 -123.33818 -6.706901 -123.33818 -6.706901 -123.33818 C -6.706901 -123.33818 -6.706901 123.338951 -6.706901 123.338951 C -6.706901 123.338951 6.706028 123.338951 6.706028 123.338951 C 6.706028 123.338951 6.706028 -123.33818 6.706028 -123.33818 Z M 6.706028 -123.33818 " stroke="#231f1f" stroke-width="2" stroke-opacity="1" stroke-miterlimit="4"/><path stroke-linecap="round" transform="matrix(1.804753, 0, 0, 1.804753, 1223.835447, 1615.950904)" fill-opacity="1" fill="#ffffff" fill-rule="nonzero" stroke-linejoin="round" d="M -66.56223 -64.24101 C -66.56223 -64.24101 23.415001 -64.24101 23.415001 -64.24101 C 23.415001 -64.24101 66.562774 64.241307 66.562774 64.241307 C 66.562774 64.241307 -43.411561 64.241307 -43.411561 64.241307 C -43.411561 64.241307 -66.56223 -64.24101 -66.56223 -64.24101 Z M -66.56223 -64.24101 " stroke="#231f1f" stroke-width="2" stroke-opacity="1" stroke-miterlimit="4"/><path stroke-linecap="round" transform="matrix(1.804753, 0, 0, 1.804753, 1111.54016, 1615.950904)" fill-opacity="1" fill="#ffffff" fill-rule="nonzero" stroke-linejoin="round" d="M -4.340276 -64.24101 C -4.340276 -64.24101 -18.811609 -64.24101 -18.811609 -64.24101 C -18.811609 -64.24101 1.709286 64.241307 1.709286 64.241307 C 1.709286 64.241307 18.810393 64.241307 18.810393 64.241307 C 18.810393 64.241307 -4.340276 -64.24101 -4.340276 -64.24101 Z M -4.340276 -64.24101 " stroke="#231f1f" stroke-width="2" stroke-opacity="1" stroke-miterlimit="4"/><path stroke-linecap="round" transform="matrix(1.804753, 0, 0, 1.804753, 1147.819234, 1771.172351)" fill-opacity="1" fill="#231f1f" fill-rule="nonzero" stroke-linejoin="round" d="M -467.218257 20.31934 C -467.218257 20.31934 467.219451 20.31934 467.219451 20.31934 C 467.219451 20.31934 467.219451 -20.319867 467.219451 -20.319867 C 467.219451 -20.319867 -467.218257 -20.319867 -467.218257 -20.319867 C -467.218257 -20.319867 -467.218257 20.31934 -467.218257 20.31934 Z M -467.218257 20.31934 " stroke="#231f1f" stroke-width="2" stroke-opacity="1" stroke-miterlimit="4"/><path stroke-linecap="round" transform="matrix(1.804753, 0, 0, 1.804753, 1884.120746, 1771.166954)" fill-opacity="1" fill="#231f1f" fill-rule="nonzero" stroke-linejoin="round" d="M 59.240452 20.322331 C 59.240452 20.322331 -59.240066 20.322331 -59.240066 20.322331 C -59.240066 20.322331 -59.240066 -20.32337 -59.240066 -20.32337 C -59.240066 -20.32337 59.240452 -20.32337 59.240452 -20.32337 C 59.240452 -20.32337 59.240452 20.322331 59.240452 20.322331 Z M 59.240452 20.322331 " stroke="#231f1f" stroke-width="2" stroke-opacity="1" stroke-miterlimit="4"/><path stroke-linecap="round" transform="matrix(1.804753, -0.00105293, 0.00105293, 1.804753, 449.360806, 1437.230798)" fill-opacity="1" fill="#ffffff" fill-rule="nonzero" stroke-linejoin="round" d="M -38.23859 50.096901 C -26.019026 18.029437 2.635698 -4.09157 48.250812 -15.027762 C 56.49842 -17.005563 62.503172 -25.523395 60.969132 -33.863814 C 60.060797 -38.812217 56.903229 -43.080138 50.725755 -46.432105 C 44.680271 -49.714734 34.135877 -50.876688 27.457665 -49.222636 C -37.92387 -33.027603 -60.359799 3.239375 -62.502234 50.877089 C -62.502234 50.877089 -38.23859 50.096901 -38.23859 50.096901 Z M -38.23859 50.096901 " stroke="#231f1f" stroke-width="2" stroke-opacity="1" stroke-miterlimit="4"/><path stroke-linecap="round" transform="matrix(1.804753, 0, 0, 1.804753, 567.867148, 1709.312655)" fill-opacity="1" fill="#ffffff" fill-rule="nonzero" stroke-linejoin="round" d="M -5.835263 -2.23377 C -2.212019 -0.106142 1.690436 1.698986 5.835306 3.220576 C 5.356969 1.105935 5.131869 -1.036844 5.131869 -3.220747 C 5.131869 -3.220747 -5.835263 -2.23377 -5.835263 -2.23377 Z M -5.835263 -2.23377 " stroke="#231f1f" stroke-width="2" stroke-opacity="1" stroke-miterlimit="4"/><path stroke-linecap="round" transform="matrix(1.804753, 0, 0, 1.804753, 392.576908, 1715.086024)" fill-opacity="1" fill="#d4d4d4" fill-rule="nonzero" stroke-linejoin="round" d="M -21.771257 -17.373872 C -13.680644 -4.588625 -2.557674 7.281071 10.846598 16.85215 C 17.049835 17.373776 21.770442 16.7396 20.27699 11.254952 C 15.484957 5.603643 11.7773 -0.359342 9.591233 -6.74439 C -2.261148 -9.592771 -12.791066 -13.101301 -21.771257 -17.373872 Z M -21.771257 -17.373872 " stroke="#231f1f" stroke-width="2" stroke-opacity="1" stroke-miterlimit="4"/><path stroke-linecap="round" transform="matrix(1.804753, 0, 0, 1.804753, 352.917455, 1683.159935)" fill-opacity="1" fill="#ffffff" fill-rule="nonzero" stroke-linejoin="round" d="M -0.203171 -0.318048 C -0.203171 -0.318048 -0.00620857 0.218729 -0.00620857 0.218729 C 0.063053 0.262018 0.132315 0.287991 0.20374 0.318293 C 0.063053 0.106179 -0.0776345 -0.105934 -0.203171 -0.318048 Z M -0.203171 -0.318048 " stroke="#231f1f" stroke-width="2" stroke-opacity="1" stroke-miterlimit="4"/><path stroke-linecap="round" transform="matrix(1.804753, 0, 0, 1.804753, 466.230708, 1634.514525)" fill-opacity="1" fill="#ffffff" fill-rule="nonzero" stroke-linejoin="round" d="M 105.63237 4.788313 C 105.556616 8.92669 105.115073 13.058574 104.093466 17.06925 C 98.963783 37.183233 90.790921 47.524847 80.509912 50.970608 C 78.397435 51.669717 76.116133 51.784431 73.947381 51.290943 C 70.265698 50.442489 66.711715 49.433868 63.315735 48.241271 C 63.315735 48.241271 63.211843 48.241271 63.211843 48.241271 C 63.820046 49.881903 64.588416 51.485741 65.52994 53.080921 C 67.822064 56.933594 71.194235 60.662894 75.852074 64.229864 C 78.191815 66.017677 79.189614 69.251325 77.802219 71.844304 C 76.023063 75.194831 71.367389 75.435082 61.445674 69.894159 C 56.675285 67.543595 52.443838 64.56102 48.840074 60.879337 C 45.147568 57.11757 42.108718 52.600419 39.792785 47.254294 C 37.453044 47.117935 35.147934 46.979412 32.864467 46.806258 C 33.070087 48.377629 33.425053 49.972809 33.931528 51.567989 C 35.375198 56.212841 38.128344 60.926954 42.442039 65.742795 C 44.413829 67.922369 44.803425 71.283718 42.957172 73.588829 C 40.5828 76.547595 35.972579 75.915584 27.256447 68.645287 C 25.247863 67.141013 23.379965 65.513367 21.657085 63.771006 C 21.657085 63.771006 21.657085 63.758019 21.657085 63.758019 C 16.600992 58.585048 12.884678 52.368825 10.774366 44.879922 C -4.560572 43.217645 -18.644473 40.934178 -31.215442 37.895328 C -43.074316 35.051276 -53.604234 31.540582 -62.584425 27.274504 C -62.608234 27.250696 -62.608234 27.242038 -62.619056 27.229052 C -62.619056 27.229052 -62.597412 27.274504 -62.597412 27.274504 C -62.597412 27.274504 -62.79221 27.170612 -62.79221 27.170612 C -62.79221 27.170612 -62.79221 27.181434 -62.79221 27.181434 C -62.893938 28.157589 -62.963199 29.109935 -62.99783 30.073103 C -63.398248 40.248056 -59.90054 49.845108 -53.959199 59.102345 C -53.444066 62.853291 -55.394212 64.102163 -58.547776 64.136793 C -61.748958 64.160602 -64.787808 62.76022 -67.047465 60.513549 C -76.153193 51.440288 -83.642097 41.232869 -89.263104 30.577414 C -104.035291 2.660685 -105.950805 -28.238618 -90.466523 -49.307112 C -85.88011 -57.53192 -79.215852 -64.217823 -71.302721 -68.782591 C -62.080114 -74.115729 -51.1606 -76.548541 -39.896943 -75.126515 C -39.187012 -75.044267 -38.464095 -74.942539 -37.754164 -74.817002 C -9.021448 -69.964366 19.639842 -47.943526 48.25568 -18.156735 C 48.25568 -18.156735 48.370394 -17.892676 48.370394 -17.892676 C 48.370394 -17.892676 48.381216 -17.871032 48.381216 -17.871032 C 48.81843 -18.466248 49.266465 -19.061464 49.723158 -19.645859 C 53.532543 -25.576378 60.218446 -31.437635 68.384814 -37.357332 C 68.384814 -37.357332 69.50815 -10.689476 69.50815 -10.689476 C 77.77841 -9.358356 84.029264 -6.570579 88.812639 -2.704919 C 93.507272 -9.654882 99.297104 -13.100643 105.833662 -14.165539 C 105.950541 -5.836839 105.751414 -1.665996 105.63237 4.788313 Z M 105.63237 4.788313 " stroke="#231f1f" stroke-width="2" stroke-opacity="1" stroke-miterlimit="4"/><path stroke-linecap="round" transform="matrix(1.804753, 0, 0, 1.804753, 265.991513, 1487.340637)" fill="none" stroke-linejoin="round" d="M 210.979675 111.108054 C 210.979675 111.108054 217.390696 111.108054 217.390696 111.108054 " stroke="#231f1f" stroke-width="2" stroke-opacity="1" stroke-miterlimit="4"/><path stroke-linecap="round" transform="matrix(1.804753, 0, 0, 1.804753, 648.637135, 1701.788567)" fill="none" stroke-linejoin="round" d="M -3.220892 -0.947743 C -3.220892 -0.947743 3.220431 0.948292 3.220431 0.948292 " stroke="#231f1f" stroke-width="2" stroke-opacity="1" stroke-miterlimit="4"/><path stroke-linecap="round" transform="matrix(1.804753, 0, 0, 1.804753, 641.502946, 1712.696567)" fill="none" stroke-linejoin="round" d="M -2.910617 -3.017901 C -2.910617 -3.017901 2.909516 3.016511 2.909516 3.016511 " stroke="#231f1f" stroke-width="2" stroke-opacity="1" stroke-miterlimit="4"/><path stroke-linecap="round" transform="matrix(1.804753, 0, 0, 1.804753, 537.50039, 1664.718948)" fill="none" stroke-linejoin="round" d="M 4.4217 -23.568512 C -9.885136 -2.599582 -5.326861 12.218059 9.886869 23.568293 " stroke="#231f1f" stroke-width="2" stroke-opacity="1" stroke-miterlimit="4"/><path stroke-linecap="round" transform="matrix(1.804753, 0, 0, 1.804753, 525.083677, 1640.477531)" fill="none" stroke-linejoin="round" d="M -4.308114 -3.444133 C -4.308114 -3.444133 4.308455 3.443061 4.308455 3.443061 " stroke="#231f1f" stroke-width="2" stroke-opacity="1" stroke-miterlimit="4"/><path stroke-linecap="round" transform="matrix(1.804753, 0, 0, 1.804753, 520.678323, 1658.772327)" fill="none" stroke-linejoin="round" d="M -5.089967 -0.585943 C -5.089967 -0.585943 5.089315 0.58501 5.089315 0.58501 " stroke="#231f1f" stroke-width="2" stroke-opacity="1" stroke-miterlimit="4"/><path stroke-linecap="round" transform="matrix(1.804753, 0, 0, 1.804753, 522.356761, 1675.570956)" fill="none" stroke-linejoin="round" d="M -4.554662 1.964939 C -4.554662 1.964939 4.555395 -1.965653 4.555395 -1.965653 " stroke="#231f1f" stroke-width="2" stroke-opacity="1" stroke-miterlimit="4"/><path stroke-linecap="round" transform="matrix(1.804753, 0, 0, 1.804753, 576.488508, 1649.290109)" fill="none" stroke-linejoin="round" d="M -3.861456 -1.16504 C 0.824519 -2.677971 3.181576 -1.108765 3.859041 2.678976 " stroke="#231f1f" stroke-width="2" stroke-opacity="1" stroke-miterlimit="4"/><path stroke-linecap="round" transform="matrix(1.804753, 0, 0, 1.804753, 626.528874, 1673.760865)" fill="none" stroke-linejoin="round" d="M -3.000738 0.193107 C -0.251921 -1.759203 1.748006 -1.237577 3.001207 1.760149 " stroke="#231f1f" stroke-width="2" stroke-opacity="1" stroke-miterlimit="4"/><path stroke-linecap="round" transform="matrix(1.804753, 0, 0, 1.804753, 596.66925, 1672.022813)" fill-opacity="1" fill="#231f1f" fill-rule="nonzero" stroke-linejoin="round" d="M -4.489723 -2.583975 C -4.489723 -2.583975 4.490468 0.827156 4.490468 0.827156 C 4.490468 0.827156 -1.95302 2.584667 -1.95302 2.584667 C -1.95302 2.584667 -4.489723 -2.583975 -4.489723 -2.583975 Z M -4.489723 -2.583975 " stroke="#231f1f" stroke-width="2" stroke-opacity="1" stroke-miterlimit="4"/><path stroke-linecap="round" transform="matrix(1.804753, 0, 0, 1.804753, 588.829415, 1686.078238)" fill-opacity="1" fill="#231f1f" fill-rule="nonzero" stroke-linejoin="round" d="M 2.098776 -4.489076 C 2.098776 -4.489076 -2.098041 4.488951 -2.098041 4.488951 " stroke="#231f1f" stroke-width="2" stroke-opacity="1" stroke-miterlimit="4"/><path stroke-linecap="round" transform="matrix(1.804753, 0, 0, 1.804753, 526.204435, 1750.091121)" fill-opacity="1" fill="#d4d4d4" fill-rule="nonzero" stroke-linejoin="round" d="M 9.726192 9.548727 C 7.35182 12.507493 2.741598 11.875481 -5.976698 4.605184 C -7.983118 3.103075 -9.851015 1.473264 -11.573896 -0.269096 C -11.573896 -0.269096 -11.573896 -0.279918 -11.573896 -0.279918 C -11.573896 -0.279918 -10.736264 -6.383591 -10.736264 -6.383591 C -10.736264 -6.383591 -5.368495 -3.641267 -5.368495 -3.641267 C -5.368495 -3.641267 0.676739 -12.508909 0.676739 -12.508909 C 0.676739 -12.508909 0.700547 -12.472114 0.700547 -12.472114 C 2.144218 -7.827262 4.897364 -3.113148 9.211059 1.704857 C 11.182848 3.882267 11.572444 7.243616 9.726192 9.548727 Z M 9.726192 9.548727 " stroke="#231f1f" stroke-width="2" stroke-opacity="1" stroke-miterlimit="4"/><path stroke-linecap="round" transform="matrix(1.804753, 0, 0, 1.804753, 580.976961, 1750.473679)" fill-opacity="1" fill="#d4d4d4" fill-rule="nonzero" stroke-linejoin="round" d="M 14.222203 7.592229 C 12.443047 10.940592 7.787373 11.183007 -2.134342 5.642084 C -6.90473 3.291521 -11.136178 0.308946 -14.739942 -3.372738 C -14.739942 -3.372738 -15.61004 -11.181976 -15.61004 -11.181976 C -15.61004 -11.181976 -6.34198 -6.400766 -6.34198 -6.400766 C -6.34198 -6.400766 -4.577976 -11.181976 -4.577976 -11.181976 C -4.577976 -11.181976 1.936938 -11.181976 1.936938 -11.181976 C 1.936938 -11.181976 1.949924 -11.171154 1.949924 -11.171154 C 4.242048 -7.318481 7.616384 -3.591345 12.272058 -0.0243755 C 14.611799 1.765602 15.609598 4.99925 14.222203 7.592229 Z M 14.222203 7.592229 " stroke="#231f1f" stroke-width="2" stroke-opacity="1" stroke-miterlimit="4"/><path stroke-linecap="round" transform="matrix(1.804753, 0, 0, 1.804753, 337.456135, 1711.16432)" fill-opacity="1" fill="#d4d4d4" fill-rule="nonzero" stroke-linejoin="round" d="M 12.805223 21.665732 C 9.606206 21.689541 6.567356 20.289159 4.307698 18.042488 C -4.800194 8.969227 -12.289098 -1.238192 -17.910104 -11.893647 C -17.910104 -11.893647 -13.828002 -21.689826 -13.828002 -21.689826 C -13.828002 -21.689826 -7.233005 -12.397958 -7.233005 -12.397958 C -7.233005 -12.397958 -1.990773 -15.83939 -1.990773 -15.83939 C -1.990773 -15.83939 2.288292 -9.404561 2.288292 -9.404561 C 2.288292 -9.404561 8.355169 -12.397958 8.355169 -12.397958 C 7.952587 -2.225169 11.452459 7.374047 17.3938 16.631284 C 17.908933 20.382229 15.960952 21.631102 12.805223 21.665732 Z M 12.805223 21.665732 " stroke="#231f1f" stroke-width="2" stroke-opacity="1" stroke-miterlimit="4"/><path stroke-linecap="round" transform="matrix(1.804753, 0, 0, 1.804753, 573.943791, 1595.176354)" fill-opacity="1" fill="#d4d4d4" fill-rule="nonzero" stroke-linejoin="round" d="M 4.879452 -6.246842 C -0.19612 -2.082492 -3.449247 2.084022 -4.879931 6.246208 " stroke="#231f1f" stroke-width="2" stroke-opacity="1" stroke-miterlimit="4"/><path stroke-linecap="round" transform="matrix(1.804753, 0, 0, 1.804753, 643.486409, 1626.301224)" fill-opacity="1" fill="#ffffff" fill-rule="nonzero" stroke-linejoin="round" d="M -3.587576 4.410849 C -2.964222 1.151228 -1.009748 -1.865978 3.587486 -4.409175 " stroke="#231f1f" stroke-width="2" stroke-opacity="1" stroke-miterlimit="4"/><path stroke-linecap="round" transform="matrix(1.804753, -0.00187944, 0.00187944, 1.804753, 867.789566, 913.384686)" fill-opacity="1" fill="#231f1f" fill-rule="nonzero" stroke-linejoin="round" d="M 5.846803 -27.952816 C 12.384051 -9.907697 9.360382 8.768134 -1.323715 27.953286 C -1.323715 27.953286 -12.383508 -24.40483 -12.383508 -24.40483 C -12.383508 -24.40483 5.846803 -27.952816 5.846803 -27.952816 Z M 5.846803 -27.952816 " stroke="#231f1f" stroke-width="2" stroke-opacity="1" stroke-miterlimit="4"/><path stroke-linecap="butt" transform="matrix(1.804753, -0.00187944, 0.00187944, 1.804753, 761.93153, 973.86394)" fill-opacity="1" fill="#ffffff" fill-rule="nonzero" stroke-linejoin="miter" d="M -56.504361 -9.385711 C -56.504361 -9.385711 -54.661358 24.911509 -54.661358 24.911509 C -54.661358 24.911509 -50.137224 66.012141 -50.137224 66.012141 C -22.15058 84.103406 7.045073 92.670298 38.433937 83.98685 C 45.154246 82.128115 50.404126 76.865374 52.283345 70.151123 C 60.560622 40.554749 60.057416 0.00373847 51.024476 -51.189971 C 25.070774 -92.67005 -28.631282 -88.005365 -60.559704 -51.71092 C -60.559704 -51.71092 -56.504361 -9.385711 -56.504361 -9.385711 Z M -56.504361 -9.385711 " stroke="#231f1f" stroke-width="2" stroke-opacity="1" stroke-miterlimit="10"/><path stroke-linecap="butt" transform="matrix(1.804753, -0.00187944, 0.00187944, 1.804753, 638.903582, 979.471255)" fill-opacity="1" fill="#ffffff" fill-rule="nonzero" stroke-linejoin="miter" d="M 11.667674 -12.42169 C 4.573093 -23.199253 -13.655316 -15.242333 -7.308793 3.049332 C -0.708017 18.287259 6.417739 21.991516 13.656479 23.200309 C 13.656479 23.200309 11.667674 -12.42169 11.667674 -12.42169 Z M 11.667674 -12.42169 " stroke="#231f1f" stroke-width="2" stroke-opacity="1" stroke-miterlimit="10"/><path stroke-linecap="round" transform="matrix(1.804753, -0.00187944, 0.00187944, 1.804753, 655.784039, 912.416092)" fill-opacity="1" fill="#231f1f" fill-rule="nonzero" stroke-linejoin="round" d="M 15.74007 -33.022503 C 29.997719 -12.802756 20.725603 28.499952 3.471945 39.88417 C 3.471945 39.88417 2.273491 24.723296 2.273491 24.723296 C -2.379677 20.235927 -7.309682 17.626991 -13.314353 22.319703 C -27.450332 -2.501483 -29.997583 -23.550996 -18.069747 -39.884306 C -18.069747 -39.884306 15.74007 -33.022503 15.74007 -33.022503 Z M 15.74007 -33.022503 " stroke="#231f1f" stroke-width="2" stroke-opacity="1" stroke-miterlimit="4"/><path stroke-linecap="round" transform="matrix(1.804753, -0.00187944, 0.00187944, 1.804753, 765.378246, 822.742822)" fill-opacity="1" fill="#231f1f" fill-rule="nonzero" stroke-linejoin="round" d="M 57.436037 -35.824527 C 78.845931 -6.160442 69.282634 17.538701 50.195618 39.401152 C 32.664536 22.050187 2.798766 20.975833 -38.300635 34.709592 C -38.300635 34.709592 -78.846762 9.739695 -78.846762 9.739695 C -76.722884 -26.148574 -37.686679 -39.401816 -6.605505 -22.815932 C 26.754853 -10.430987 48.567431 -14.118095 57.436037 -35.824527 Z M 57.436037 -35.824527 " stroke="#231f1f" stroke-width="2" stroke-opacity="1" stroke-miterlimit="4"/><path stroke-linecap="round" transform="matrix(1.804753, -0.00187944, 0.00187944, 1.804753, 821.627892, 991.677822)" fill="none" stroke-linejoin="round" d="M -4.519783 -26.033038 C -2.851473 -6.884805 1.92163 9.216989 9.782191 22.289639 C 2.798992 25.104775 -3.688754 26.03305 -9.781016 25.463956 " stroke="#231f1f" stroke-width="2" stroke-opacity="1" stroke-miterlimit="4"/><path stroke-linecap="round" transform="matrix(1.804753, -0.00187944, 0.00187944, 1.804753, 747.422371, 943.706368)" fill="none" stroke-linejoin="round" d="M 9.330251 -3.862071 C 0.889977 -4.803727 -5.331423 -1.914207 -9.33178 4.802164 " stroke="#231f1f" stroke-width="2" stroke-opacity="1" stroke-miterlimit="4"/><path stroke-linecap="round" transform="matrix(1.804753, -0.00187944, 0.00187944, 1.804753, 840.965313, 939.229574)" fill="none" stroke-linejoin="round" d="M 7.566245 2.387077 C 3.623777 -0.759772 -1.069163 -2.387978 -7.566705 -0.366679 " stroke="#231f1f" stroke-width="2" stroke-opacity="1" stroke-miterlimit="4"/><path stroke-linecap="round" transform="matrix(1.804753, -0.00187944, 0.00187944, 1.804753, 759.347231, 977.501395)" fill-opacity="1" fill="#231f1f" fill-rule="nonzero" stroke-linejoin="round" d="M -3.85043 0.148891 C -3.688167 4.371852 -1.83242 7.726477 0.295294 7.644281 C 2.423009 7.562084 4.01533 4.072526 3.850901 -0.148272 C 3.688638 -4.371233 1.832893 -7.728023 -0.294821 -7.645826 C -2.422536 -7.563629 -4.014857 -4.074071 -3.85043 0.148891 Z M -3.85043 0.148891 " stroke="#231f1f" stroke-width="2" stroke-opacity="1" stroke-miterlimit="4"/><path stroke-linecap="round" transform="matrix(1.804753, -0.00187944, 0.00187944, 1.804753, 841.956936, 966.023721)" fill-opacity="1" fill="#231f1f" fill-rule="nonzero" stroke-linejoin="round" d="M -3.045415 0.117879 C -2.912629 3.54863 -1.441498 6.277336 0.240328 6.211991 C 1.922151 6.148809 3.180469 3.314724 3.047685 -0.118191 C 2.914899 -3.548941 1.443768 -6.277648 -0.240222 -6.212304 C -1.922048 -6.146959 -3.178201 -3.312871 -3.045415 0.117879 Z M -3.045415 0.117879 " stroke="#231f1f" stroke-width="2" stroke-opacity="1" stroke-miterlimit="4"/><path stroke-linecap="round" transform="matrix(1.804753, -0.00187944, 0.00187944, 1.804753, 771.035987, 1070.441341)" fill="none" stroke-linejoin="round" d="M 14.234828 6.358787 C 3.455804 4.464513 -6.33003 0.761815 -14.23575 -6.358716 " stroke="#231f1f" stroke-width="2" stroke-opacity="1" stroke-miterlimit="4"/><path stroke-linecap="round" transform="matrix(1.804753, 0, 0, 1.804753, 1540.486733, 735.236317)" fill-opacity="1" fill="#231f1f" fill-rule="nonzero" stroke-linejoin="round" d="M 203.19473 188.199837 C 203.19473 188.199837 -203.195179 188.199837 -203.195179 188.199837 C -203.195179 188.199837 -203.195179 -188.199825 -203.195179 -188.199825 C -203.195179 -188.199825 203.19473 -188.199825 203.19473 -188.199825 C 203.19473 -188.199825 203.19473 188.199837 203.19473 188.199837 Z M 203.19473 188.199837 " stroke="#231f1f" stroke-width="2" stroke-opacity="1" stroke-miterlimit="4"/><path stroke-linecap="round" transform="matrix(1.804753, 0, 0, 1.804753, 1515.999905, 706.984795)" fill-opacity="1" fill="#ffffff" fill-rule="nonzero" stroke-linejoin="round" d="M 203.196089 188.198517 C 203.196089 188.198517 -203.195984 188.198517 -203.195984 188.198517 C -203.195984 188.198517 -203.195984 -188.198982 -203.195984 -188.198982 C -203.195984 -188.198982 203.196089 -188.198982 203.196089 -188.198982 C 203.196089 -188.198982 203.196089 188.198517 203.196089 188.198517 Z M 203.196089 188.198517 " stroke="#231f1f" stroke-width="2" stroke-opacity="1" stroke-miterlimit="4"/><path stroke-linecap="round" transform="matrix(1.804753, 0, 0, 1.804753, 1517.371567, 739.235676)" fill-opacity="1" fill="#2d44ad" fill-rule="nonzero" stroke-linejoin="round" d="M 190.458144 153.082429 C 190.458144 153.082429 -190.458669 153.082429 -190.458669 153.082429 C -190.458669 153.082429 -190.458669 -153.08387 -190.458669 -153.08387 C -190.458669 -153.08387 190.458144 -153.08387 190.458144 -153.08387 C 190.458144 -153.08387 190.458144 153.082429 190.458144 153.082429 Z M 190.458144 153.082429 " stroke="#231f1f" stroke-width="2" stroke-opacity="1" stroke-miterlimit="4"/><path stroke-linecap="round" transform="matrix(1.804753, 0, 0, 1.804753, 1523.967819, 750.910638)" fill-opacity="1" fill="#231f1f" fill-rule="nonzero" stroke-linejoin="round" d="M 38.704729 146.609093 C 38.704729 146.609093 -29.474598 146.609093 -29.474598 146.609093 C -43.774941 74.509997 -57.824211 2.571067 -64.464661 -65.010878 C -69.304311 -91.200397 -55.216081 -131.48031 -9.665798 -143.540475 C 7.335745 -146.609627 19.934852 -141.560028 29.605494 -131.060412 C 45.124407 -125.119071 53.474752 -112.569746 58.024369 -96.520549 C 69.305342 -7.519473 54.455235 69.739608 38.704729 146.609093 Z M 38.704729 146.609093 " stroke="#231f1f" stroke-width="2" stroke-opacity="1" stroke-miterlimit="4"/><path stroke-linecap="round" transform="matrix(1.804753, 0, 0, 1.804753, 1427.097748, 911.073481)" fill-opacity="1" fill="#d4d4d4" fill-rule="nonzero" stroke-linejoin="round" d="M 24.999035 14.255299 C 24.999035 14.255299 15.499382 47.784377 15.499382 47.784377 C 15.499382 47.784377 12.64018 57.864095 12.64018 57.864095 C 12.64018 57.864095 -28.310705 57.864095 -28.310705 57.864095 C -17.189899 7.045606 -6.659981 -35.625995 2.389472 -57.713932 C 2.400294 -57.755056 2.419774 -57.785358 2.430596 -57.824318 C 2.439254 -57.83514 2.439254 -57.854619 2.450076 -57.865442 C 2.460898 -57.854619 2.469556 -57.854619 2.480378 -57.854619 C 19.620444 -48.854948 28.310603 -14.825889 24.999035 14.255299 Z M 24.999035 14.255299 " stroke="#231f1f" stroke-width="2" stroke-opacity="1" stroke-miterlimit="4"/><path stroke-linecap="round" transform="matrix(1.804753, 0, 0, 1.804753, 1543.504376, 891.852912)" fill-opacity="1" fill="#d4d4d4" fill-rule="nonzero" stroke-linejoin="round" d="M 70.269899 -47.135389 C 70.140033 -46.745793 70.010168 -46.345374 69.880303 -45.955778 C 58.549548 -11.595562 50.329069 22.604487 45.459117 56.65519 C 44.889874 60.61392 44.35959 64.563992 43.889911 68.514064 C 43.889911 68.514064 -48.500652 68.514064 -48.500652 68.514064 C -48.559091 64.94493 -48.719259 61.574924 -49.000634 58.434346 C -49.600179 51.664031 -50.749488 45.984584 -52.639029 41.74448 C -68.190409 30.485151 -70.270419 9.024896 -58.690756 -22.774807 C -58.16913 -29.285392 -59.759981 -37.815383 -62.110544 -47.063963 C -62.119202 -47.085607 -62.119202 -47.115909 -62.130024 -47.135389 C -62.110544 -47.144046 -62.091064 -47.154868 -62.06942 -47.174348 C -62.04994 -47.18517 -62.039118 -47.195993 -62.019638 -47.20465 C -49.340448 -54.884023 -36.150454 -59.935787 -22.120664 -60.814542 C -22.120664 -60.814542 -10.439273 -49.364744 -10.439273 -49.364744 C -10.439273 -49.364744 19.841006 -68.51556 19.841006 -68.51556 C 19.841006 -68.51556 70.269899 -47.135389 70.269899 -47.135389 Z M 70.269899 -47.135389 " stroke="#231f1f" stroke-width="2" stroke-opacity="1" stroke-miterlimit="4"/><path stroke-linecap="round" transform="matrix(1.804753, 0, 0, 1.804753, 1541.446882, 762.332921)" fill-opacity="1" fill="#ffffff" fill-rule="nonzero" stroke-linejoin="round" d="M -20.978458 -24.45198 C -20.978458 -24.45198 -20.978458 10.947159 -20.978458 10.947159 C -20.978458 10.947159 -14.426749 44.783584 -14.426749 44.783584 C -14.426749 44.783584 20.978883 3.25047 20.978883 3.25047 C 20.978883 3.25047 20.691015 -44.784571 20.691015 -44.784571 C 20.691015 -44.784571 -20.978458 -24.45198 -20.978458 -24.45198 Z M -20.978458 -24.45198 " stroke="#231f1f" stroke-width="2" stroke-opacity="1" stroke-miterlimit="4"/><path stroke-linecap="round" transform="matrix(1.804753, 0, 0, 1.804753, 1540.486733, 716.459695)" fill-opacity="1" fill="#231f1f" fill-rule="nonzero" stroke-linejoin="round" d="M -20.446447 3.87717 C -20.446447 3.87717 -20.446447 15.844265 -20.446447 15.844265 C -3.154871 16.129969 12.649746 3.424806 20.445998 -16.128592 C 8.626084 -5.447164 -7.178533 3.266803 -20.446447 3.87717 Z M -20.446447 3.87717 " stroke="#231f1f" stroke-width="2" stroke-opacity="1" stroke-miterlimit="4"/><path stroke-linecap="round" transform="matrix(1.804753, 0, 0, 1.804753, 1497.051735, 631.670558)" fill-opacity="1" fill="#ffffff" fill-rule="nonzero" stroke-linejoin="round" d="M -34.553378 -26.613016 C -46.894918 52.563743 5.44516 70.221107 45.166652 30.205253 C 45.166652 30.205253 46.896026 -6.263111 46.896026 -6.263111 C 46.896026 -6.263111 46.896026 -30.545773 46.896026 -30.545773 C 30.933406 -70.221812 -25.668422 -60.64424 -34.553378 -26.613016 Z M -34.553378 -26.613016 " stroke="#231f1f" stroke-width="2" stroke-opacity="1" stroke-miterlimit="4"/><path stroke-linecap="round" transform="matrix(1.804753, 0, 0, 1.804753, 1595.385516, 637.337511)" fill-opacity="1" fill="#ffffff" fill-rule="nonzero" stroke-linejoin="round" d="M -7.592129 -9.403126 C 1.870728 -15.260055 7.3965 -14.262256 8.415944 -5.422752 C 8.736278 -2.637139 8.444081 0.191762 7.747137 2.901619 C 4.71478 14.736684 -1.847751 15.25831 -8.734945 14.736684 C -8.734945 14.736684 -7.592129 -9.403126 -7.592129 -9.403126 Z M -7.592129 -9.403126 " stroke="#231f1f" stroke-width="2" stroke-opacity="1" stroke-miterlimit="4"/><path stroke-linecap="round" transform="matrix(1.804753, 0, 0, 1.804753, 1479.011466, 633.738895)" fill="none" stroke-linejoin="round" d="M 1.233861 -16.088497 C 0.365928 -2.136626 -1.783344 7.321903 -4.936909 13.282724 C -3.010572 15.791291 0.740373 16.089981 4.935025 15.847566 " stroke="#231f1f" stroke-width="2" stroke-opacity="1" stroke-miterlimit="4"/><path stroke-linecap="round" transform="matrix(1.804753, 0, 0, 1.804753, 1508.632804, 558.237014)" fill-opacity="1" fill="#231f1f" fill-rule="nonzero" stroke-linejoin="round" d="M 11.508242 -10.037892 C 11.415172 12.907157 22.271918 27.850334 40.479045 37.423577 C 40.479045 37.423577 45.660674 -10.037892 45.660674 -10.037892 C -2.311599 -37.422173 -24.490442 -20.240982 -45.660664 -1.315267 C -45.660664 -1.315267 -40.970359 14.075945 -40.970359 14.075945 C -21.771927 12.030565 -3.824531 5.587078 11.508242 -10.037892 Z M 11.508242 -10.037892 " stroke="#231f1f" stroke-width="2" stroke-opacity="1" stroke-miterlimit="4"/><path stroke-linecap="round" transform="matrix(1.804753, 0, 0, 1.804753, 1658.530201, 911.98486)" fill-opacity="1" fill="#d4d4d4" fill-rule="nonzero" stroke-linejoin="round" d="M 23.824386 57.359107 C 23.824386 57.359107 -16.33432 57.359107 -16.33432 57.359107 C -16.33432 57.359107 -18.275807 45.500233 -18.275807 45.500233 C -18.275807 45.500233 -23.825388 11.739562 -23.825388 11.739562 C -23.825388 -17.209596 -11.605055 -49.660791 6.145378 -57.110735 C 6.344505 -57.199477 6.545797 -57.27956 6.744924 -57.359644 C 13.084519 -34.97951 18.625442 7.140163 23.824386 57.359107 Z M 23.824386 57.359107 " stroke="#231f1f" stroke-width="2" stroke-opacity="1" stroke-miterlimit="4"/><path stroke-linecap="round" transform="matrix(1.804753, 0, 0, 1.804753, 1559.388052, 802.744999)" fill-opacity="1" fill="#d4d4d4" fill-rule="nonzero" stroke-linejoin="round" d="M -24.367813 22.391563 C -24.367813 22.391563 -6.699628 12.848622 -6.699628 12.848622 C -6.699628 12.848622 2.042477 22.391563 2.042477 22.391563 C 2.042477 22.391563 24.366336 -13.490242 24.366336 -13.490242 C 24.366336 -13.490242 22.093692 -19.606902 22.093692 -19.606902 C 22.093692 -19.606902 11.037819 -22.392514 11.037819 -22.392514 C 11.037819 -22.392514 11.037819 -19.141551 11.037819 -19.141551 C 11.037819 -19.141551 -24.367813 22.391563 -24.367813 22.391563 Z M -24.367813 22.391563 " stroke="#231f1f" stroke-width="2" stroke-opacity="1" stroke-miterlimit="4"/><path stroke-linecap="round" transform="matrix(1.804753, 0, 0, 1.804753, 1497.694218, 808.487734)" fill-opacity="1" fill="#d4d4d4" fill-rule="nonzero" stroke-linejoin="round" d="M 9.816265 19.209558 C 9.816265 19.209558 2.16503 10.900338 2.16503 10.900338 C 2.16503 10.900338 -4.992717 13.861268 -4.992717 13.861268 C -4.992717 13.861268 -9.817216 -11.559881 -9.817216 -11.559881 C -9.817216 -11.559881 -2.769855 -17.728486 -2.769855 -17.728486 C -2.769855 -17.728486 3.264557 -19.208952 3.264557 -19.208952 C 3.264557 -19.208952 3.264557 -13.533834 3.264557 -13.533834 C 3.264557 -13.533834 9.816265 19.209558 9.816265 19.209558 Z M 9.816265 19.209558 " stroke="#231f1f" stroke-width="2" stroke-opacity="1" stroke-miterlimit="4"/><path stroke-linecap="round" transform="matrix(1.804753, 0, 0, 1.804753, 1514.186071, 971.334216)" fill="none" stroke-linejoin="round" d="M -32.270756 -2.306321 C -23.236454 0.48362 -13.507373 -1.743571 -4.310739 -3.940461 C -2.689586 -4.327892 -1.029474 -4.715324 0.624146 -4.520526 C 2.9509 -4.247809 4.965978 -2.866907 7.013522 -1.730585 C 14.658265 2.518178 23.588674 3.656664 32.270175 4.715067 " stroke="#231f1f" stroke-width="2" stroke-opacity="1" stroke-miterlimit="4"/><path stroke-linecap="round" transform="matrix(1.804753, 0, 0, 1.804753, 1515.999905, 397.10138)" fill-opacity="1" fill="#ffffff" fill-rule="nonzero" stroke-linejoin="round" d="M 203.196089 16.495169 C 203.196089 16.495169 -203.195984 16.495169 -203.195984 16.495169 C -203.195984 16.495169 -203.195984 -16.494967 -203.195984 -16.494967 C -203.195984 -16.494967 203.196089 -16.494967 203.196089 -16.494967 C 203.196089 -16.494967 203.196089 16.495169 203.196089 16.495169 Z M 203.196089 16.495169 " stroke="#231f1f" stroke-width="2" stroke-opacity="1" stroke-miterlimit="4"/><path stroke-linecap="round" transform="matrix(1.804753, 0, 0, 1.804753, 1730.707879, 395.897607)" fill-opacity="1" fill="#ffffff" fill-rule="nonzero" stroke-linejoin="round" d="M 10.163661 10.164591 C 10.163661 10.164591 -10.164601 10.164591 -10.164601 10.164591 C -10.164601 10.164591 -10.164601 -10.16367 -10.164601 -10.16367 C -10.164601 -10.16367 10.163661 -10.16367 10.163661 -10.16367 C 10.163661 -10.16367 10.163661 10.164591 10.163661 10.164591 Z M 10.163661 10.164591 " stroke="#231f1f" stroke-width="2" stroke-opacity="1" stroke-miterlimit="4"/><path stroke-linecap="round" transform="matrix(1.804753, 0, 0, 1.804753, 1789.196186, 395.897607)" fill-opacity="1" fill="#ffffff" fill-rule="nonzero" stroke-linejoin="round" d="M 10.163646 10.164591 C 10.163646 10.164591 -10.164615 10.164591 -10.164615 10.164591 C -10.164615 10.164591 -10.164615 -10.16367 -10.164615 -10.16367 C -10.164615 -10.16367 10.163646 -10.16367 10.163646 -10.16367 C 10.163646 -10.16367 10.163646 10.164591 10.163646 10.164591 Z M 10.163646 10.164591 " stroke="#231f1f" stroke-width="2" stroke-opacity="1" stroke-miterlimit="4"/><path stroke-linecap="round" transform="matrix(1.804753, 0, 0, 1.804753, 1847.684709, 395.897607)" fill-opacity="1" fill="#ffffff" fill-rule="nonzero" stroke-linejoin="round" d="M 10.163513 10.164591 C 10.163513 10.164591 -10.164749 10.164591 -10.164749 10.164591 C -10.164749 10.164591 -10.164749 -10.16367 -10.164749 -10.16367 C -10.164749 -10.16367 10.163513 -10.16367 10.163513 -10.16367 C 10.163513 -10.16367 10.163513 10.164591 10.163513 10.164591 Z M 10.163513 10.164591 " stroke="#231f1f" stroke-width="2" stroke-opacity="1" stroke-miterlimit="4"/><path stroke-linecap="round" transform="matrix(1.804753, 0, 0, 1.804753, 1847.684709, 395.897607)" fill-opacity="1" fill="#2d44ad" fill-rule="nonzero" stroke-linejoin="round" d="M -10.164749 -10.16367 C -10.164749 -10.16367 10.163513 10.164591 10.163513 10.164591 " stroke="#231f1f" stroke-width="2" stroke-opacity="1" stroke-miterlimit="4"/><path stroke-linecap="round" transform="matrix(1.804753, 0, 0, 1.804753, 1847.684709, 395.897607)" fill-opacity="1" fill="#2d44ad" fill-rule="nonzero" stroke-linejoin="round" d="M -10.164749 10.164591 C -10.164749 10.164591 10.163513 -10.16367 10.163513 -10.16367 " stroke="#231f1f" stroke-width="2" stroke-opacity="1" stroke-miterlimit="4"/><path stroke-linecap="round" transform="matrix(1.804753, 0, 0, 1.804753, 1523.644755, 600.036899)" fill="none" stroke-linejoin="round" d="M -7.701141 -2.031194 C -1.326915 -2.587451 3.562516 -0.635142 7.700893 2.58552 " stroke="#231f1f" stroke-width="2" stroke-opacity="1" stroke-miterlimit="4"/><path stroke-linecap="round" transform="matrix(1.804753, 0, 0, 1.804753, 1459.7475, 599.535162)" fill="none" stroke-linejoin="round" d="M -5.738665 1.967457 C -1.9098 -0.984816 1.914735 -1.967464 5.737106 -0.982651 " stroke="#231f1f" stroke-width="2" stroke-opacity="1" stroke-miterlimit="4"/><path stroke-linecap="round" transform="matrix(1.804753, 0, 0, 1.22643, 1516.057647, 628.39136)" fill-opacity="1" fill="#231f1f" fill-rule="nonzero" stroke-linejoin="round" d="M 2.467967 -0.000599162 C 2.467967 2.73855 1.361947 4.958535 0.0005244 4.958535 C -1.363062 4.958535 -2.466918 2.73855 -2.466918 -0.000599162 C -2.466918 -2.739748 -1.363062 -4.959733 0.0005244 -4.959733 C 1.361947 -4.959733 2.467967 -2.739748 2.467967 -0.000599162 Z M 2.467967 -0.000599162 " stroke="#231f1f" stroke-width="2" stroke-opacity="1" stroke-miterlimit="4"/><path stroke-linecap="round" transform="matrix(1.804753, 0, 0, 1.22643, 1522.729802, 623.109076)" fill-opacity="1" fill="#231f1f" fill-rule="nonzero" stroke-linejoin="round" d="M -3.696465 -1.190967 C -0.869728 -1.063565 1.573905 -1.563619 3.697204 -2.592393 C 3.160427 -0.359667 1.147514 1.210566 -1.300449 2.589696 C -1.300449 2.589696 -3.696465 -1.190967 -3.696465 -1.190967 Z M -3.696465 -1.190967 " stroke="#231f1f" stroke-width="2" stroke-opacity="1" stroke-miterlimit="4"/><path stroke-linecap="round" transform="matrix(1.804753, 0, 0, 1.22643, 1459.913482, 627.900442)" fill-opacity="1" fill="#231f1f" fill-rule="nonzero" stroke-linejoin="round" d="M -2.467121 0.00155061 C -2.467121 2.737515 -1.363265 4.9575 0.000321448 4.9575 C 1.363908 4.9575 2.467764 2.737515 2.467764 0.00155061 C 2.467764 -2.737599 1.363908 -4.957583 0.000321448 -4.957583 C -1.363265 -4.957583 -2.467121 -2.737599 -2.467121 0.00155061 Z M -2.467121 0.00155061 " stroke="#231f1f" stroke-width="2" stroke-opacity="1" stroke-miterlimit="4"/><path stroke-linecap="round" transform="matrix(1.804753, 0, 0, 1.22643, 1453.241448, 622.762814)" fill-opacity="1" fill="#231f1f" fill-rule="nonzero" stroke-linejoin="round" d="M 3.697244 -1.192104 C 0.870508 -1.061517 -1.573126 -1.564756 -3.696425 -2.590344 C -3.161812 -0.357619 -1.146734 1.212614 1.299064 2.591744 C 1.299064 2.591744 3.697244 -1.192104 3.697244 -1.192104 Z M 3.697244 -1.192104 " stroke="#231f1f" stroke-width="2" stroke-opacity="1" stroke-miterlimit="4"/><path stroke-linecap="round" transform="matrix(1.804753, 0, 0, 1.804753, 1506.025019, 685.553344)" fill-opacity="1" fill="#231f1f" fill-rule="nonzero" stroke-linejoin="round" d="M -11.457167 -0.724338 C -10.99831 1.582937 -4.487725 5.874988 1.115966 4.758146 C 6.721822 3.641304 11.918602 -1.25895 11.45758 -3.568389 C 10.998722 -5.875664 5.418839 -2.895254 -0.184852 -1.778412 C -5.790708 -0.661569 -11.918189 -3.033777 -11.457167 -0.724338 Z M -11.457167 -0.724338 " stroke="#231f1f" stroke-width="2" stroke-opacity="1" stroke-miterlimit="4"/><path stroke-linecap="round" transform="matrix(1.804753, 0, 0, 1.804753, 807.746007, 519.816771)" fill-opacity="1" fill="#231f1f" fill-rule="nonzero" stroke-linejoin="round" d="M 71.945471 55.919832 C 71.945471 55.919832 -71.945374 55.919832 -71.945374 55.919832 C -71.945374 55.919832 -71.945374 -55.918072 -71.945374 -55.918072 C -71.945374 -55.918072 71.945471 -55.918072 71.945471 -55.918072 C 71.945471 -55.918072 71.945471 55.919832 71.945471 55.919832 Z M 71.945471 55.919832 " stroke="#231f1f" stroke-width="2" stroke-opacity="1" stroke-miterlimit="4"/><path stroke-linecap="round" transform="matrix(1.804753, 0, 0, 1.804753, 796.531279, 502.175301)" fill-opacity="1" fill="#ffffff" fill-rule="nonzero" stroke-linejoin="round" d="M 71.945406 55.918136 C 71.945406 55.918136 -71.945439 55.918136 -71.945439 55.918136 C -71.945439 55.918136 -71.945439 -55.919768 -71.945439 -55.919768 C -71.945439 -55.919768 71.945406 -55.919768 71.945406 -55.919768 C 71.945406 -55.919768 71.945406 55.918136 71.945406 55.918136 Z M 71.945406 55.918136 " stroke="#231f1f" stroke-width="2" stroke-opacity="1" stroke-miterlimit="4"/><path stroke-linecap="round" transform="matrix(1.804753, 0, 0, 1.804753, 796.531279, 419.510348)" fill-opacity="1" fill="#2d44ad" fill-rule="nonzero" stroke-linejoin="round" d="M 71.945406 10.115109 C 71.945406 10.115109 -71.945439 10.115109 -71.945439 10.115109 C -71.945439 10.115109 -71.945439 -10.115754 -71.945439 -10.115754 C -71.945439 -10.115754 71.945406 -10.115754 71.945406 -10.115754 C 71.945406 -10.115754 71.945406 10.115109 71.945406 10.115109 Z M 71.945406 10.115109 " stroke="#231f1f" stroke-width="2" stroke-opacity="1" stroke-miterlimit="4"/><path stroke-linecap="round" transform="matrix(1.804753, 0, 0, 1.804753, 854.581205, 519.816771)" fill-opacity="1" fill="#ffffff" fill-rule="nonzero" stroke-linejoin="round" d="M 28.793778 33.64359 C 28.793778 33.64359 -28.795027 33.64359 -28.795027 33.64359 C -28.795027 33.64359 -28.795027 -33.643994 -28.795027 -33.643994 C -28.795027 -33.643994 28.793778 -33.643994 28.793778 -33.643994 C 28.793778 -33.643994 28.793778 33.64359 28.793778 33.64359 Z M 28.793778 33.64359 " stroke="#231f1f" stroke-width="2" stroke-opacity="1" stroke-miterlimit="4"/><path stroke-linecap="round" transform="matrix(1.804753, 0, 0, 1.804753, 854.582956, 519.814948)" fill-opacity="1" fill="#ffffff" fill-rule="nonzero" stroke-linejoin="round" d="M -28.793833 -33.642984 C -28.793833 -33.642984 28.792807 33.642436 28.792807 33.642436 " stroke="#231f1f" stroke-width="2" stroke-opacity="1" stroke-miterlimit="4"/><path stroke-linecap="round" transform="matrix(1.804753, 0, 0, 1.804753, 854.581205, 519.814948)" fill-opacity="1" fill="#ffffff" fill-rule="nonzero" stroke-linejoin="round" d="M 28.793778 -33.642984 C 28.793778 -33.642984 -28.795027 33.642436 -28.795027 33.642436 " stroke="#231f1f" stroke-width="2" stroke-opacity="1" stroke-miterlimit="4"/><path stroke-linecap="round" transform="matrix(1.804753, 0, 0, 1.804753, 664.136382, 398.701536)" fill="none" stroke-linejoin="round" d="M 12.77894 47.787013 C 12.77894 47.787013 63.244628 47.787013 63.244628 47.787013 " stroke="#231f1f" stroke-width="2" stroke-opacity="1" stroke-miterlimit="4"/><path stroke-linecap="round" transform="matrix(1.804753, 0, 0, 1.804753, 664.136382, 398.701536)" fill="none" stroke-linejoin="round" d="M 12.77894 56.689285 C 12.77894 56.689285 63.244628 56.689285 63.244628 56.689285 " stroke="#231f1f" stroke-width="2" stroke-opacity="1" stroke-miterlimit="4"/><path stroke-linecap="round" transform="matrix(1.804753, 0, 0, 1.804753, 664.136382, 398.701536)" fill="none" stroke-linejoin="round" d="M 12.77894 65.593721 C 12.77894 65.593721 63.244628 65.593721 63.244628 65.593721 " stroke="#231f1f" stroke-width="2" stroke-opacity="1" stroke-miterlimit="4"/><path stroke-linecap="round" transform="matrix(1.804753, 0, 0, 1.804753, 732.738618, 550.99389)" fill-opacity="1" fill="#d4d4d4" fill-rule="nonzero" stroke-linejoin="round" d="M 16.315234 5.304058 C 16.315234 5.304058 -16.315608 5.304058 -16.315608 5.304058 C -18.101257 5.304058 -19.549256 3.856059 -19.549256 2.07041 C -19.549256 2.07041 -19.549256 -2.070132 -19.549256 -2.070132 C -19.549256 -3.855781 -18.101257 -5.30378 -16.315608 -5.30378 C -16.315608 -5.30378 16.315234 -5.30378 16.315234 -5.30378 C 18.100883 -5.30378 19.548882 -3.855781 19.548882 -2.070132 C 19.548882 -2.070132 19.548882 2.07041 19.548882 2.07041 C 19.548882 3.856059 18.100883 5.304058 16.315234 5.304058 Z M 16.315234 5.304058 " stroke="#231f1f" stroke-width="2" stroke-opacity="1" stroke-miterlimit="4"/><path stroke-linecap="round" transform="matrix(1.858896, 0, 0, 1.858896, 358.249694, 699.444826)" fill-opacity="1" fill="#2d44ad" fill-rule="nonzero" stroke-linejoin="round" d="M 12.881634 41.288209 C 12.881634 41.288209 -12.881305 41.288209 -12.881305 41.288209 C -12.881305 41.288209 -12.881305 -41.102764 -12.881305 -41.102764 C -12.881305 -41.102764 12.881634 -41.102764 12.881634 -41.102764 C 12.881634 -41.102764 12.881634 41.288209 12.881634 41.288209 Z M 12.881634 41.288209 " stroke="#231f1f" stroke-width="2" stroke-opacity="1" stroke-miterlimit="4"/><path stroke-linecap="round" transform="matrix(1.858896, 0, 0, 1.858896, 421.35551, 716.022489)" fill-opacity="1" fill="#d4d4d4" fill-rule="nonzero" stroke-linejoin="round" d="M 12.881448 32.370193 C 12.881448 32.370193 -12.881492 32.370193 -12.881492 32.370193 C -12.881492 32.370193 -12.881492 -32.335551 -12.881492 -32.335551 C -12.881492 -32.335551 12.881448 -32.335551 12.881448 -32.335551 C 12.881448 -32.335551 12.881448 32.370193 12.881448 32.370193 Z M 12.881448 32.370193 " stroke="#231f1f" stroke-width="2" stroke-opacity="1" stroke-miterlimit="4"/><path stroke-linecap="round" transform="matrix(1.858896, 0, 0, 1.858896, 484.461309, 737.819801)" fill-opacity="1" fill="#2d44ad" fill-rule="nonzero" stroke-linejoin="round" d="M 12.88127 20.644249 C 12.88127 20.644249 -12.881669 20.644249 -12.881669 20.644249 C -12.881669 20.644249 -12.881669 -20.794998 -12.881669 -20.794998 C -12.881669 -20.794998 12.88127 -20.794998 12.88127 -20.794998 C 12.88127 -20.794998 12.88127 20.644249 12.88127 20.644249 Z M 12.88127 20.644249 " stroke="#231f1f" stroke-width="2" stroke-opacity="1" stroke-miterlimit="4"/></svg>